<?xml version="1.0" standalone="no"?>
<!DOCTYPE svg PUBLIC "-//W3C//DTD SVG 20010904//EN"
 "http://www.w3.org/TR/2001/REC-SVG-20010904/DTD/svg10.dtd">
<svg version="1.0" xmlns="http://www.w3.org/2000/svg"
 width="1179.000000pt" height="1280.000000pt" viewBox="0 0 1179.000000 1280.000000"
 preserveAspectRatio="xMidYMid meet">
<metadata>
Created by potrace 1.15, written by Peter Selinger 2001-2017
</metadata>
<g transform="translate(0.000000,1280.000000) scale(0.100000,-0.100000)"
fill="#000000" stroke="none">
<path d="M9578 11798 l-3 -847 -105 81 c-229 176 -639 432 -913 569 -547 275
-1191 482 -1787 573 -340 52 -468 61 -875 61 -407 0 -535 -9 -875 -61 -596
-91 -1240 -298 -1787 -573 -421 -211 -879 -521 -1242 -839 -948 -832 -1623
-2014 -1876 -3281 -83 -419 -109 -687 -109 -1136 0 -363 10 -517 55 -825 158
-1088 614 -2112 1327 -2975 126 -152 421 -456 577 -595 454 -402 977 -739
1523 -982 1041 -461 2149 -618 3241 -458 993 145 1976 559 2761 1163 l85 66 3
-792 2 -792 153 2 152 2 3 922 2 922 203 206 c286 292 481 532 702 866 486
734 809 1579 934 2445 45 308 55 462 55 825 0 264 -4 392 -18 520 -80 774
-275 1452 -609 2120 -292 585 -620 1044 -1079 1511 l-188 191 -2 977 -3 977
-152 2 -153 2 -2 -847z m-3188 -123 c1052 -108 2036 -507 2858 -1160 67 -53
122 -99 122 -103 -1 -8 -1441 -945 -1444 -940 -2 2 -97 139 -211 306 -115 166
-212 299 -216 295 -4 -5 -125 -280 -269 -613 -144 -333 -266 -610 -272 -617
-11 -13 -914 -603 -923 -603 -3 0 -5 56 -5 125 l0 125 -755 0 -755 0 0 -2145
0 -2145 755 0 754 0 3 120 3 120 1662 -1087 1663 -1088 -33 -28 c-17 -15 -104
-82 -192 -149 -703 -534 -1543 -891 -2427 -1032 -303 -49 -460 -60 -813 -60
-353 0 -510 11 -813 60 -1129 180 -2182 713 -2970 1504 -451 451 -829 1002
-1088 1583 -636 1425 -640 2953 -12 4376 653 1481 1925 2566 3513 2995 363 99
698 152 1125 180 117 8 602 -5 740 -19z m3349 -1607 c743 -766 1256 -1790
1435 -2865 172 -1030 34 -2070 -408 -3060 -250 -561 -609 -1090 -1049 -1547
-87 -89 -118 -116 -130 -110 -8 5 -812 531 -1786 1169 l-1771 1159 0 1526 1
1525 552 359 552 358 670 39 c368 22 671 41 673 44 2 2 -80 126 -183 275 -103
149 -184 275 -179 280 18 16 1489 970 1497 970 4 0 61 -55 126 -122z"/>
<path d="M1730 8014 c-47 -70 -93 -138 -102 -153 l-18 -28 318 -209 c174 -114
442 -291 594 -391 l277 -183 -160 -256 c-88 -141 -162 -261 -165 -268 -4 -9
115 -21 473 -46 263 -18 613 -43 778 -54 165 -12 302 -21 303 -20 4 3 -677
1424 -687 1436 -3 4 -78 -101 -166 -232 -88 -132 -163 -239 -167 -240 -5 0
-271 173 -592 385 -321 212 -587 385 -592 385 -5 -1 -47 -57 -94 -126z"/>
<path d="M1727 6147 c-48 -72 -95 -142 -103 -153 -14 -21 1 -32 580 -414 l595
-392 -48 -76 c-26 -43 -101 -162 -166 -265 -64 -104 -116 -190 -114 -191 5 -4
162 -16 884 -66 314 -21 594 -41 623 -44 28 -2 52 -3 52 0 0 2 -142 300 -316
661 -174 362 -330 686 -346 721 l-30 62 -165 -244 -164 -244 -590 389 c-324
214 -593 389 -597 389 -4 0 -47 -60 -95 -133z"/>
</g>
</svg>
