<?xml version="1.0" standalone="no"?>
<!DOCTYPE svg PUBLIC "-//W3C//DTD SVG 1.1//EN"
  "http://www.w3.org/Graphics/SVG/1.1/DTD/svg11.dtd">
<svg width="566.92px" height="566.92px" version="1.1"
    xmlns="http://www.w3.org/2000/svg"
    xmlns:xlink="http://www.w3.org/1999/xlink">
<desc>Veusz output document</desc>
<defs>
<clipPath id="c0">
<path d="m0,0l566.92,0l0,566.92l-566.92,0l0,-566.92"/>
</clipPath>
<clipPath id="c1">
<path d="m46.22,56.12l507.59,0l0,96.21l-507.59,0l0,-96.21"/>
</clipPath>
<clipPath id="c2">
<path d="m46.22,221.16l507.59,0l0,98.21l-507.59,0l0,-98.21"/>
</clipPath>
<clipPath id="c3">
<path d="m46.22,386.2l507.59,0l0,97.23l-507.59,0l0,-97.23"/>
</clipPath>
</defs>
<g stroke-linejoin="bevel" stroke-linecap="square" stroke="#000000" fill-rule="evenodd">
<g clip-path="url(#c0)">
<g fill="#ffffff" stroke-width="0.66">
<path d="m46.22,56.12l507.59,0l0,96.21l-507.59,0l0,-96.21"/>
</g>
</g>
<g clip-path="url(#c1)">
<g fill="none" stroke="#e41a1c" stroke-width="0.66">
<polyline fill="none" points="46.22,104.23 46.73,97.51 47.23,90.92 47.74,84.59 48.25,78.65 48.76,73.21 49.27,68.38 49.78,64.25 50.28,60.9 50.79,58.41 51.3,56.81 51.81,56.14 52.32,56.42 52.82,57.63 53.33,59.75 53.84,62.75 54.35,66.56 54.86,71.11 55.36,76.31 55.87,82.06 56.38,88.24 56.89,94.73 57.4,101.42 57.9,108.15 58.41,114.81 58.92,121.26 59.43,127.38 59.94,133.04 60.45,138.14 60.95,142.57 61.46,146.26 61.97,149.11 62.48,151.09 62.99,152.15 63.49,152.27 64,151.45 64.51,149.7 65.02,147.06 65.53,143.58 66.03,139.33 66.54,134.39 67.05,128.86 67.56,122.84 68.07,116.46 68.58,109.84 69.08,103.12 69.59,96.41 70.1,89.86 70.61,83.58 71.12,77.72 71.62,72.37 72.13,67.65 72.64,63.64 73.15,60.43 73.66,58.08 74.16,56.63 74.67,56.12 75.18,56.55 75.69,57.92 76.2,60.19 76.7,63.33 77.21,67.27 77.72,71.93 78.23,77.23 78.74,83.05 79.25,89.29 79.75,95.83 80.26,102.53 80.77,109.26 81.28,115.89 81.79,122.3 82.29,128.35 82.8,133.92 83.31,138.92 83.82,143.24 84.33,146.79 84.83,149.5 85.34,151.33 85.85,152.23 86.36,152.2 86.87,151.22 87.37,149.32 87.88,146.54 88.39,142.93 88.9,138.56 89.41,133.51 89.92,127.89 90.42,121.81 90.93,115.38 91.44,108.74 91.95,102 92.46,95.31 92.96,88.8 93.47,82.58 93.98,76.8 94.49,71.54 95,66.93 95.5,63.05 96.01,59.98 96.52,57.78 97.03,56.49 97.54,56.13 98.04,56.71 98.55,58.23 99.06,60.65 99.57,63.92 100.08,67.99 100.59,72.76 101.09,78.15 101.6,84.06 102.11,90.35 102.62,96.92 103.13,103.64 103.63,110.36 104.14,116.97 104.65,123.32 105.16,129.3 105.67,134.79 106.17,139.68 106.68,143.88 107.19,147.29 107.7,149.87 108.21,151.54 108.71,152.29 109.22,152.1 109.73,150.97 110.24,148.92 110.75,146 111.26,142.26 111.76,137.77 112.27,132.62 112.78,126.92 113.29,120.77 113.8,114.3 114.3,107.63 114.81,100.89 115.32,94.22 115.83,87.75 116.34,81.6 116.84,75.89 117.35,70.74 117.86,66.24 118.37,62.49 118.88,59.56 119.38,57.5 119.89,56.36 120.4,56.16 120.91,56.9 121.42,58.57 121.93,61.13 122.43,64.54 122.94,68.73 123.45,73.61 123.96,79.1 124.47,85.07 124.97,91.42 125.48,98.03 125.99,104.75 126.5,111.46 127.01,118.04 127.51,124.34 128.02,130.25 128.53,135.64 129.04,140.42 129.55,144.5 130.05,147.78 130.56,150.21 131.07,151.73 131.58,152.33 132.09,151.98 132.6,150.7 133.1,148.5 133.61,145.44 134.12,141.57 134.63,136.96 135.14,131.72 135.64,125.93 136.15,119.72 136.66,113.21 137.17,106.52 137.68,99.79 138.18,93.14 138.69,86.71 139.2,80.62 139.71,75 140.22,69.95 140.73,65.57 141.23,61.95 141.74,59.16 142.25,57.25 142.76,56.26 143.27,56.22 143.77,57.11 144.28,58.93 144.79,61.64 145.3,65.18 145.81,69.49 146.31,74.48 146.82,80.05 147.33,86.1 147.84,92.5 148.35,99.13 148.85,105.86 149.36,112.56 149.87,119.1 150.38,125.34 150.89,131.17 151.4,136.48 151.9,141.15 152.41,145.09 152.92,148.24 153.43,150.52 153.94,151.89 154.44,152.33 154.95,151.83 155.46,150.39 155.97,148.05 156.48,144.85 156.98,140.85 157.49,136.14 158,130.8 158.51,124.93 159.02,118.67 159.52,112.11 160.03,105.41 160.54,98.68 161.05,92.06 161.56,85.68 162.07,79.66 162.57,74.12 163.08,69.18 163.59,64.92 164.1,61.43 164.61,58.78 165.11,57.02 165.62,56.19 166.13,56.3 166.64,57.35 167.15,59.32 167.65,62.17 168.16,65.84 168.67,70.27 169.18,75.36 169.69,81.02 170.19,87.13 170.7,93.58 171.21,100.24 171.72,106.97 172.23,113.66 172.74,120.15 173.24,126.34 173.75,132.09 174.26,137.29 174.77,141.85 175.28,145.67 175.78,148.68 176.29,150.81 176.8,152.03 177.31,152.32 177.82,151.66 178.32,150.07 178.83,147.58 179.34,144.24 179.85,140.12 180.36,135.3 180.86,129.86 181.37,123.92 181.88,117.6 182.39,111.02 182.9,104.3 183.41,97.58 183.91,90.99 184.42,84.66 184.93,78.71 185.44,73.26 185.95,68.42 186.45,64.29 186.96,60.93 187.47,58.43 187.98,56.82 188.49,56.14 188.99,56.41 189.5,57.61 190.01,59.73 190.52,62.72 191.03,66.52 191.53,71.06 192.04,76.26 192.55,82 193.06,88.18 193.57,94.67 194.08,101.35 194.58,108.08 195.09,114.74 195.6,121.2 196.11,127.32 196.62,132.99 197.12,138.09 197.63,142.53 198.14,146.22 198.65,149.09 199.16,151.08 199.66,152.14 200.17,152.27 200.68,151.46 201.19,149.72 201.7,147.09 202.2,143.62 202.71,139.37 203.22,134.44 203.73,128.91 204.24,122.9 204.75,116.53 205.25,109.91 205.76,103.18 206.27,96.48 206.78,89.92 207.29,83.64 207.79,77.77 208.3,72.42 208.81,67.69 209.32,63.68 209.83,60.46 210.33,58.1 210.84,56.64 211.35,56.12 211.86,56.54 212.37,57.9 212.88,60.16 213.38,63.29 213.89,67.22 214.4,71.88 214.91,77.17 215.42,82.99 215.92,89.23 216.43,95.76 216.94,102.46 217.45,109.19 217.96,115.83 218.46,122.23 218.97,128.29 219.48,133.87 219.99,138.87 220.5,143.2 221,146.75 221.51,149.48 222.02,151.32 222.53,152.23 223.04,152.2 223.55,151.24 224.05,149.35 224.56,146.57 225.07,142.97 225.58,138.6 226.09,133.57 226.59,127.95 227.1,121.87 227.61,115.45 228.12,108.81 228.63,102.07 229.13,95.38 229.64,88.86 230.15,82.65 230.66,76.85 231.17,71.59 231.67,66.98 232.18,63.09 232.69,60.01 233.2,57.8 233.71,56.49 234.22,56.13 234.72,56.7 235.23,58.21 235.74,60.62 236.25,63.89 236.76,67.94 237.26,72.71 237.77,78.1 238.28,83.99 238.79,90.29 239.3,96.86 239.8,103.57 240.31,110.3 240.82,116.9 241.33,123.26 241.84,129.24 242.34,134.74 242.85,139.64 243.36,143.84 243.87,147.26 244.38,149.84 244.89,151.53 245.39,152.29 245.9,152.11 246.41,150.99 246.92,148.95 247.43,146.03 247.93,142.3 248.44,137.82 248.95,132.68 249.46,126.98 249.97,120.84 250.47,114.37 250.98,107.7 251.49,100.96 252,94.29 252.51,87.81 253.01,81.66 253.52,75.94 254.03,70.79 254.54,66.28 255.05,62.52 255.56,59.58 256.06,57.52 256.57,56.37 257.08,56.16 257.59,56.89 258.1,58.55 258.6,61.1 259.11,64.5 259.62,68.68 260.13,73.56 260.64,79.04 261.14,85.01 261.65,91.36 262.16,97.96 262.67,104.68 263.18,111.4 263.68,117.97 264.19,124.28 264.7,130.19 265.21,135.59 265.72,140.38 266.23,144.46 266.73,147.75 267.24,150.19 267.75,151.72 268.26,152.33 268.77,151.99 269.27,150.71 269.78,148.53 270.29,145.47 270.8,141.61 271.31,137.01 271.81,131.77 272.32,125.99 272.83,119.79 273.34,113.28 273.85,106.59 274.35,99.85 274.86,93.2 275.37,86.77 275.88,80.68 276.39,75.05 276.9,70 277.4,65.61 277.91,61.98 278.42,59.18 278.93,57.26 279.44,56.27 279.94,56.21 280.45,57.1 280.96,58.91 281.47,61.61 281.98,65.14 282.48,69.44 282.99,74.42 283.5,79.99 284.01,86.03 284.52,92.43 285.03,99.06 285.53,105.79 286.04,112.49 286.55,119.03 287.06,125.28 287.57,131.12 288.07,136.43 288.58,141.1 289.09,145.06 289.6,148.21 290.11,150.5 290.61,151.89 291.12,152.33 291.63,151.84 292.14,150.41 292.65,148.08 293.15,144.89 293.66,140.9 294.17,136.19 294.68,130.85 295.19,125 295.7,118.73 296.2,112.18 296.71,105.48 297.22,98.75 297.73,92.12 298.24,85.74 298.74,79.72 299.25,74.18 299.76,69.22 300.27,64.96 300.78,61.46 301.28,58.8 301.79,57.04 302.3,56.19 302.81,56.29 303.32,57.33 303.82,59.29 304.33,62.13 304.84,65.8 305.35,70.22 305.86,75.31 306.37,80.96 306.87,87.07 307.38,93.51 307.89,100.17 308.4,106.91 308.91,113.59 309.41,120.09 309.92,126.28 310.43,132.03 310.94,137.24 311.45,141.81 311.95,145.63 312.46,148.65 312.97,150.79 313.48,152.02 313.99,152.32 314.49,151.67 315,150.09 315.51,147.61 316.02,144.28 316.53,140.17 317.04,135.35 317.54,129.92 318.05,123.99 318.56,117.67 319.07,111.08 319.58,104.36 320.08,97.64 320.59,91.05 321.1,84.72 321.61,78.77 322.12,73.32 322.62,68.47 323.13,64.32 323.64,60.96 324.15,58.45 324.66,56.83 325.16,56.15 325.67,56.4 326.18,57.6 326.69,59.7 327.2,62.68 327.71,66.48 328.21,71.02 328.72,76.2 329.23,81.94 329.74,88.11 330.25,94.6 330.75,101.28 331.26,108.02 331.77,114.68 332.28,121.13 332.79,127.26 333.29,132.93 333.8,138.04 334.31,142.49 334.82,146.19 335.33,149.06 335.83,151.06 336.34,152.14 336.85,152.28 337.36,151.47 337.87,149.74 338.38,147.12 338.88,143.66 339.39,139.42 339.9,134.49 340.41,128.97 340.92,122.97 341.42,116.59 341.93,109.98 342.44,103.25 342.95,96.54 343.46,89.99 343.96,83.71 344.47,77.83 344.98,72.47 345.49,67.73 346,63.71 346.5,60.49 347.01,58.12 347.52,56.65 348.03,56.12 348.54,56.53 349.05,57.88 349.55,60.14 350.06,63.26 350.57,67.18 351.08,71.83 351.59,77.11 352.09,82.93 352.6,89.16 353.11,95.69 353.62,102.39 354.13,109.12 354.63,115.76 355.14,122.17 355.65,128.23 356.16,133.82 356.67,138.83 357.18,143.16 357.68,146.72 358.19,149.46 358.7,151.3 359.21,152.23 359.72,152.21 360.22,151.25 360.73,149.37 361.24,146.6 361.75,143.01 362.26,138.65 362.76,133.62 363.27,128.01 363.78,121.94 364.29,115.52 364.8,108.87 365.3,102.14 365.81,95.45 366.32,88.93 366.83,82.71 367.34,76.91 367.85,71.64 368.35,67.02 368.86,63.13 369.37,60.04 369.88,57.81 370.39,56.5 370.89,56.13 371.4,56.69 371.91,58.19 372.42,60.59 372.93,63.85 373.43,67.9 373.94,72.66 374.45,78.04 374.96,83.93 375.47,90.22 375.97,96.79 376.48,103.5 376.99,110.23 377.5,116.84 378.01,123.2 378.52,129.19 379.02,134.69 379.53,139.59 380.04,143.8 380.55,147.23 381.06,149.82 381.56,151.52 382.07,152.29 382.58,152.11 383.09,151 383.6,148.97 384.1,146.07 384.61,142.34 385.12,137.87 385.63,132.73 386.14,127.04 386.64,120.9 387.15,114.43 387.66,107.77 388.17,101.03 388.68,94.36 389.19,87.88 389.69,81.72 390.2,76 390.71,70.83 391.22,66.33 391.73,62.56 392.23,59.61 392.74,57.53 393.25,56.38 393.76,56.15 394.27,56.88 394.77,58.53 395.28,61.07 395.79,64.47 396.3,68.64 396.81,73.51 397.31,78.98 397.82,84.95 398.33,91.29 398.84,97.89 399.35,104.61 399.86,111.33 400.36,117.91 400.87,124.21 401.38,130.13 401.89,135.54 402.4,140.33 402.9,144.42 403.41,147.72 403.92,150.17 404.43,151.71 404.94,152.32 405.44,152 405.95,150.73 406.46,148.55 406.97,145.51 407.48,141.65 407.98,137.06 408.49,131.83 409,126.05 409.51,119.85 410.02,113.34 410.53,106.66 411.03,99.92 411.54,93.27 412.05,86.83 412.56,80.74 413.07,75.11 413.57,70.04 414.08,65.65 414.59,62.01 415.1,59.21 415.61,57.28 416.11,56.27 416.62,56.21 417.13,57.09 417.64,58.89 418.15,61.58 418.65,65.1 419.16,69.39 419.67,74.37 420.18,79.93 420.69,85.97 421.2,92.37 421.7,99 422.21,105.73 422.72,112.43 423.23,118.97 423.74,125.22 424.24,131.06 424.75,136.38 425.26,141.06 425.77,145.02 426.28,148.18 426.78,150.48 427.29,151.88 427.8,152.34 428.31,151.85 428.82,150.43 429.33,148.11 429.83,144.92 430.34,140.94 430.85,136.24 431.36,130.91 431.87,125.06 432.37,118.8 432.88,112.25 433.39,105.54 433.9,98.81 434.41,92.19 434.91,85.8 435.42,79.78 435.93,74.23 436.44,69.27 436.95,65 437.45,61.49 437.96,58.83 438.47,57.05 438.98,56.2 439.49,56.29 440,57.32 440.5,59.27 441.01,62.1 441.52,65.76 442.03,70.17 442.54,75.25 443.04,80.9 443.55,87 444.06,93.45 444.57,100.1 445.08,106.84 445.58,113.52 446.09,120.02 446.6,126.22 447.11,131.98 447.62,137.19 448.12,141.76 448.63,145.6 449.14,148.62 449.65,150.78 450.16,152.02 450.67,152.32 451.17,151.68 451.68,150.11 452.19,147.64 452.7,144.32 453.21,140.21 453.71,135.4 454.22,129.98 454.73,124.05 455.24,117.73 455.75,111.15 456.25,104.43 456.76,97.71 457.27,91.12 457.78,84.78 458.29,78.82 458.79,73.37 459.3,68.51 459.81,64.36 460.32,60.99 460.83,58.47 461.34,56.84 461.84,56.15 462.35,56.39 462.86,57.58 463.37,59.68 463.88,62.65 464.38,66.44 464.89,70.97 465.4,76.15 465.91,81.88 466.42,88.05 466.92,94.53 467.43,101.21 467.94,107.95 468.45,114.61 468.96,121.07 469.46,127.2 469.97,132.88 470.48,138 470.99,142.45 471.5,146.16 472.01,149.04 472.51,151.04 473.02,152.13 473.53,152.28 474.04,151.49 474.55,149.76 475.05,147.15 475.56,143.69 476.07,139.47 476.58,134.55 477.09,129.03 477.59,123.03 478.1,116.66 478.61,110.05 479.12,103.32 479.63,96.61 480.13,90.05 480.64,83.77 481.15,77.89 481.66,72.52 482.17,67.78 482.68,63.75 483.18,60.52 483.69,58.14 484.2,56.66 484.71,56.12 485.22,56.53 485.72,57.86 486.23,60.11 486.74,63.22 487.25,67.14 487.76,71.78 488.26,77.06 488.77,82.87 489.28,89.1 489.79,95.63 490.3,102.32 490.8,109.06 491.31,115.69 491.82,122.11 492.33,128.17 492.84,133.76 493.35,138.78 493.85,143.12 494.36,146.69 494.87,149.43 495.38,151.29 495.89,152.22 496.39,152.21 496.9,151.26 497.41,149.39 497.92,146.64 498.43,143.05 498.93,138.7 499.44,133.67 499.95,128.07 500.46,122 500.97,115.58 501.48,108.94 501.98,102.21 502.49,95.51 503,88.99 503.51,82.77 504.02,76.96 504.52,71.69 505.03,67.06 505.54,63.16 506.05,60.06 506.56,57.83 507.06,56.51 507.57,56.12 508.08,56.68 508.59,58.17 509.1,60.56 509.6,63.81 510.11,67.85 510.62,72.61 511.13,77.98 511.64,83.87 512.15,90.16 512.65,96.72 513.16,103.43 513.67,110.16 514.18,116.77 514.69,123.14 515.19,129.13 515.7,134.63 516.21,139.54 516.72,143.76 517.23,147.2 517.73,149.8 518.24,151.51 518.75,152.28 519.26,152.12 519.77,151.02 520.27,149 520.78,146.1 521.29,142.38 521.8,137.91 522.31,132.79 522.82,127.1 523.32,120.96 523.83,114.5 524.34,107.83 524.85,101.1 525.36,94.42 525.86,87.94 526.37,81.78 526.88,76.05 527.39,70.88 527.9,66.37 528.4,62.59 528.91,59.63 529.42,57.55 529.93,56.38 530.44,56.15 530.94,56.86 531.45,58.51 531.96,61.04 532.47,64.43 532.98,68.59 533.49,73.45 533.99,78.92 534.5,84.88 535.01,91.23 535.52,97.82 536.03,104.55 536.53,111.26 537.04,117.84 537.55,124.15 538.06,130.07 538.57,135.49 539.07,140.29 539.58,144.38 540.09,147.69 540.6,150.14 541.11,151.7 541.61,152.32 542.12,152 542.63,150.75 543.14,148.58 543.65,145.54 544.16,141.69 544.66,137.11 545.17,131.88 545.68,126.11 546.19,119.92 546.7,113.41 547.2,106.72 547.71,99.99 548.22,93.34 548.73,86.9 549.24,80.8 549.74,75.16 550.25,70.09 550.76,65.69 551.27,62.05 551.78,59.23 552.28,57.29 552.79,56.28 553.3,56.2 553.81,57.07"/>
</g>
</g>
<g clip-path="url(#c0)">
<g fill="none" stroke-linecap="butt" stroke-width="0.66">
<path d="M46.22,152.34l0,-96.21"/>
<path d="M46.22,152.34l4,0M46.22,147.52l4,0M46.22,142.71l4,0M46.22,137.9l4,0M46.22,133.09l4,0M46.22,128.28l4,0M46.22,123.47l4,0M46.22,118.66l4,0M46.22,113.85l4,0M46.22,109.04l4,0M46.22,104.23l4,0M46.22,99.42l4,0M46.22,94.61l4,0M46.22,89.8l4,0M46.22,84.99l4,0M46.22,80.17l4,0M46.22,75.36l4,0M46.22,70.55l4,0M46.22,65.74l4,0M46.22,60.93l4,0M46.22,56.12l4,0"/>
<path d="M46.22,152.34l8,0M46.22,128.28l8,0M46.22,104.23l8,0M46.22,80.17l8,0M46.22,56.12l8,0"/>
<path d="M46.22,152.34l507.59,0"/>
<path d="M46.22,152.34l0,-4M71.6,152.34l0,-4M96.98,152.34l0,-4M122.36,152.34l0,-4M147.74,152.34l0,-4M173.12,152.34l0,-4M198.5,152.34l0,-4M223.88,152.34l0,-4M249.25,152.34l0,-4M274.63,152.34l0,-4M300.01,152.34l0,-4M325.39,152.34l0,-4M350.77,152.34l0,-4M376.15,152.34l0,-4M401.53,152.34l0,-4M426.91,152.34l0,-4M452.29,152.34l0,-4M477.67,152.34l0,-4M503.05,152.34l0,-4M528.43,152.34l0,-4M553.81,152.34l0,-4"/>
<path d="M46.22,152.34l0,-8M147.74,152.34l0,-8M249.25,152.34l0,-8M350.77,152.34l0,-8M452.29,152.34l0,-8M553.81,152.34l0,-8"/>
<path d="M553.81,152.34l0,-96.21"/>
<path d="M553.81,152.34l-4,0M553.81,147.52l-4,0M553.81,142.71l-4,0M553.81,137.9l-4,0M553.81,133.09l-4,0M553.81,128.28l-4,0M553.81,123.47l-4,0M553.81,118.66l-4,0M553.81,113.85l-4,0M553.81,109.04l-4,0M553.81,104.23l-4,0M553.81,99.42l-4,0M553.81,94.61l-4,0M553.81,89.8l-4,0M553.81,84.99l-4,0M553.81,80.17l-4,0M553.81,75.36l-4,0M553.81,70.55l-4,0M553.81,65.74l-4,0M553.81,60.93l-4,0M553.81,56.12l-4,0"/>
<path d="M553.81,152.34l-8,0M553.81,128.28l-8,0M553.81,104.23l-8,0M553.81,80.17l-8,0M553.81,56.12l-8,0"/>
<path d="M46.22,56.12l507.59,0"/>
<path d="M46.22,56.12l0,4M71.6,56.12l0,4M96.98,56.12l0,4M122.36,56.12l0,4M147.74,56.12l0,4M173.12,56.12l0,4M198.5,56.12l0,4M223.88,56.12l0,4M249.25,56.12l0,4M274.63,56.12l0,4M300.01,56.12l0,4M325.39,56.12l0,4M350.77,56.12l0,4M376.15,56.12l0,4M401.53,56.12l0,4M426.91,56.12l0,4M452.29,56.12l0,4M477.67,56.12l0,4M503.05,56.12l0,4M528.43,56.12l0,4M553.81,56.12l0,4"/>
<path d="M46.22,56.12l0,8M147.74,56.12l0,8M249.25,56.12l0,8M350.77,56.12l0,8M452.29,56.12l0,8M553.81,56.12l0,8"/>
</g>
<g fill="#ffffff" stroke-width="0.66">
<path d="m46.22,221.16l507.59,0l0,98.21l-507.59,0l0,-98.21"/>
</g>
</g>
<g clip-path="url(#c2)">
<g fill="none" stroke="#e41a1c" stroke-width="0.66">
<polyline fill="none" points="46.22,270.27 46.73,262.44 47.23,254.81 47.74,247.57 48.25,240.92 48.76,235.01 49.27,230.01 49.78,226.04 50.28,223.2 50.79,221.57 51.3,221.18 51.81,222.05 52.32,224.16 52.82,227.44 53.33,231.82 53.84,237.19 54.35,243.4 54.86,250.3 55.36,257.71 55.87,265.44 56.38,273.29 56.89,281.07 57.4,288.57 57.9,295.61 58.41,301.99 58.92,307.56 59.43,312.18 59.94,315.73 60.45,318.11 60.95,319.27 61.46,319.17 61.97,317.82 62.48,315.25 62.99,311.54 63.49,306.76 64,301.06 64.51,294.56 65.02,287.44 65.53,279.89 66.03,272.08 66.54,264.23 67.05,256.54 67.56,249.19 68.07,242.39 68.58,236.3 69.08,231.08 69.59,226.86 70.1,223.75 70.61,221.84 71.12,221.16 71.62,221.74 72.13,223.56 72.64,226.58 73.15,230.72 73.66,235.87 74.16,241.9 74.67,248.65 75.18,255.96 75.69,263.64 76.2,271.48 76.7,279.29 77.21,286.88 77.72,294.03 78.23,300.58 78.74,306.36 79.25,311.21 79.75,315.01 80.26,317.67 80.77,319.11 81.28,319.3 81.79,318.24 82.29,315.95 82.8,312.49 83.31,307.95 83.82,302.45 84.33,296.12 84.83,289.13 85.34,281.66 85.85,273.89 86.36,266.04 86.87,258.29 87.37,250.85 87.88,243.9 88.39,237.63 88.9,232.2 89.41,227.74 89.92,224.37 90.42,222.17 90.93,221.21 91.44,221.5 91.95,223.04 92.46,225.78 92.96,229.67 93.47,234.6 93.98,240.44 94.49,247.04 95,254.24 95.5,261.84 96.01,269.67 96.52,277.51 97.03,285.16 97.54,292.43 98.04,299.14 98.55,305.1 99.06,310.18 99.57,314.23 100.08,317.16 100.59,318.89 101.09,319.37 101.6,318.6 102.11,316.59 102.62,313.39 103.13,309.09 103.63,303.8 104.14,297.64 104.65,290.79 105.16,283.41 105.67,275.7 106.17,267.85 106.68,260.06 107.19,252.53 107.7,245.45 108.21,239.01 108.71,233.37 109.22,228.67 109.73,225.04 110.24,222.57 110.75,221.32 111.26,221.32 111.76,222.57 112.27,225.05 112.78,228.68 113.29,233.37 113.8,239.02 114.3,245.46 114.81,252.53 115.32,260.06 115.83,267.85 116.34,275.71 116.84,283.42 117.35,290.8 117.86,297.65 118.37,303.8 118.88,309.09 119.38,313.39 119.89,316.59 120.4,318.6 120.91,319.37 121.42,318.89 121.93,317.16 122.43,314.23 122.94,310.17 123.45,305.1 123.96,299.13 124.47,292.43 124.97,285.15 125.48,277.5 125.99,269.66 126.5,261.84 127.01,254.23 127.51,247.03 128.02,240.43 128.53,234.59 129.04,229.67 129.55,225.78 130.05,223.03 130.56,221.5 131.07,221.21 131.58,222.17 132.09,224.37 132.6,227.74 133.1,232.2 133.61,237.64 134.12,243.91 134.63,250.85 135.14,258.3 135.64,266.04 136.15,273.9 136.66,281.66 137.17,289.14 137.68,296.13 138.18,302.45 138.69,307.96 139.2,312.5 139.71,315.95 140.22,318.24 140.73,319.3 141.23,319.11 141.74,317.66 142.25,315.01 142.76,311.2 143.27,306.35 143.77,300.58 144.28,294.03 144.79,286.87 145.3,279.29 145.81,271.47 146.31,263.63 146.82,255.95 147.33,248.65 147.84,241.89 148.35,235.86 148.85,230.71 149.36,226.58 149.87,223.56 150.38,221.74 150.89,221.16 151.4,221.84 151.9,223.76 152.41,226.86 152.92,231.08 153.43,236.3 153.94,242.4 154.44,249.2 154.95,256.54 155.46,264.24 155.97,272.09 156.48,279.89 156.98,287.45 157.49,294.57 158,301.06 158.51,306.77 159.02,311.54 159.52,315.26 160.03,317.82 160.54,319.17 161.05,319.26 161.56,318.11 162.07,315.72 162.57,312.18 163.08,307.56 163.59,301.99 164.1,295.6 164.61,288.57 165.11,281.06 165.62,273.29 166.13,265.43 166.64,257.7 167.15,250.29 167.65,243.39 168.16,237.18 168.67,231.82 169.18,227.44 169.69,224.15 170.19,222.05 170.7,221.18 171.21,221.57 171.72,223.21 172.23,226.05 172.74,230.02 173.24,235.02 173.75,240.92 174.26,247.58 174.77,254.81 175.28,262.44 175.78,270.28 176.29,278.11 176.8,285.74 177.31,292.97 177.82,299.63 178.32,305.53 178.83,310.53 179.34,314.5 179.85,317.34 180.36,318.97 180.86,319.35 181.37,318.48 181.88,316.38 182.39,313.09 182.9,308.71 183.41,303.35 183.91,297.14 184.42,290.24 184.93,282.83 185.44,275.09 185.95,267.24 186.45,259.46 186.96,251.96 187.47,244.93 187.98,238.54 188.49,232.97 188.99,228.35 189.5,224.81 190.01,222.43 190.52,221.27 191.03,221.37 191.53,222.72 192.04,225.29 192.55,229 193.06,233.78 193.57,239.49 194.08,245.98 194.58,253.1 195.09,260.66 195.6,268.46 196.11,276.31 196.62,284.01 197.12,291.35 197.63,298.15 198.14,304.24 198.65,309.46 199.16,313.68 199.66,316.79 200.17,318.7 200.68,319.38 201.19,318.8 201.7,316.97 202.2,313.95 202.71,309.82 203.22,304.67 203.73,298.64 204.24,291.88 204.75,284.57 205.25,276.9 205.76,269.05 206.27,261.24 206.78,253.65 207.29,246.5 207.79,239.95 208.3,234.18 208.81,229.33 209.32,225.53 209.83,222.87 210.33,221.43 210.84,221.24 211.35,222.3 211.86,224.59 212.37,228.05 212.88,232.59 213.38,238.1 213.89,244.42 214.4,251.41 214.91,258.89 215.42,266.65 215.92,274.51 216.43,282.26 216.94,289.7 217.45,296.64 217.96,302.91 218.46,308.34 218.97,312.8 219.48,316.17 219.99,318.37 220.5,319.33 221,319.04 221.51,317.5 222.02,314.75 222.53,310.86 223.04,305.94 223.55,300.1 224.05,293.49 224.56,286.3 225.07,278.69 225.58,270.86 226.09,263.03 226.59,255.37 227.1,248.1 227.61,241.4 228.12,235.43 228.63,230.36 229.13,226.3 229.64,223.38 230.15,221.65 230.66,221.17 231.17,221.94 231.67,223.96 232.18,227.15 232.69,231.45 233.2,236.75 233.71,242.9 234.22,249.75 234.72,257.13 235.23,264.84 235.74,272.7 236.25,280.49 236.76,288.02 237.26,295.09 237.77,301.53 238.28,307.17 238.79,311.87 239.3,315.5 239.8,317.97 240.31,319.22 240.82,319.22 241.33,317.96 241.84,315.49 242.34,311.86 242.85,307.16 243.36,301.52 243.87,295.08 244.38,288 244.89,280.47 245.39,272.68 245.9,264.82 246.41,257.11 246.92,249.73 247.43,242.88 247.93,236.73 248.44,231.44 248.95,227.14 249.46,223.95 249.97,221.94 250.47,221.17 250.98,221.65 251.49,223.38 252,226.31 252.51,230.37 253.01,235.44 253.52,241.41 254.03,248.12 254.54,255.39 255.05,263.05 255.56,270.88 256.06,278.71 256.57,286.32 257.08,293.51 257.59,300.11 258.1,305.95 258.6,310.88 259.11,314.76 259.62,317.51 260.13,319.04 260.64,319.33 261.14,318.36 261.65,316.17 262.16,312.79 262.67,308.33 263.18,302.9 263.68,296.62 264.19,289.68 264.7,282.24 265.21,274.49 265.72,266.63 266.23,258.87 266.73,251.4 267.24,244.41 267.75,238.08 268.26,232.58 268.77,228.04 269.27,224.58 269.78,222.29 270.29,221.24 270.8,221.43 271.31,222.88 271.81,225.53 272.32,229.34 272.83,234.19 273.34,239.96 273.85,246.52 274.35,253.67 274.86,261.26 275.37,269.07 275.88,276.92 276.39,284.59 276.9,291.9 277.4,298.65 277.91,304.68 278.42,309.83 278.93,313.96 279.44,316.98 279.94,318.8 280.45,319.38 280.96,318.7 281.47,316.78 281.98,313.67 282.48,309.45 282.99,304.23 283.5,298.14 284.01,291.33 284.52,283.99 285.03,276.29 285.53,268.44 286.04,260.64 286.55,253.08 287.06,245.97 287.57,239.47 288.07,233.77 288.58,228.99 289.09,225.28 289.6,222.72 290.11,221.37 290.61,221.27 291.12,222.43 291.63,224.82 292.14,228.36 292.65,232.98 293.15,238.56 293.66,244.94 294.17,251.98 294.68,259.48 295.19,267.26 295.7,275.11 296.2,282.85 296.71,290.26 297.22,297.15 297.73,303.36 298.24,308.73 298.74,313.1 299.25,316.39 299.76,318.49 300.27,319.35 300.78,318.97 301.28,317.33 301.79,314.49 302.3,310.52 302.81,305.52 303.32,299.61 303.82,292.96 304.33,285.72 304.84,278.09 305.35,270.26 305.86,262.42 306.37,254.79 306.87,247.56 307.38,240.91 307.89,235 308.4,230 308.91,226.04 309.41,223.2 309.92,221.57 310.43,221.18 310.94,222.06 311.45,224.16 311.95,227.45 312.46,231.83 312.97,237.19 313.48,243.41 313.99,250.31 314.49,257.72 315,265.45 315.51,273.31 316.02,281.08 316.53,288.58 317.04,295.62 317.54,302 318.05,307.57 318.56,312.19 319.07,315.73 319.58,318.11 320.08,319.27 320.59,319.17 321.1,317.82 321.61,315.25 322.12,311.53 322.62,306.75 323.13,301.05 323.64,294.55 324.15,287.43 324.66,279.87 325.16,272.07 325.67,264.22 326.18,256.53 326.69,249.18 327.2,242.38 327.71,236.29 328.21,231.07 328.72,226.85 329.23,223.75 329.74,221.84 330.25,221.16 330.75,221.74 331.26,223.57 331.77,226.59 332.28,230.73 332.79,235.88 333.29,241.91 333.8,248.66 334.31,255.97 334.82,263.65 335.33,271.49 335.83,279.31 336.34,286.89 336.85,294.05 337.36,300.59 337.87,306.37 338.38,311.21 338.88,315.01 339.39,317.67 339.9,319.11 340.41,319.3 340.92,318.24 341.42,315.95 341.93,312.48 342.44,307.94 342.95,302.44 343.46,296.11 343.96,289.12 344.47,281.64 344.98,273.88 345.49,266.02 346,258.28 346.5,250.83 347.01,243.89 347.52,237.62 348.03,232.19 348.54,227.73 349.05,224.36 349.55,222.17 350.06,221.21 350.57,221.5 351.08,223.04 351.59,225.79 352.09,229.68 352.6,234.61 353.11,240.45 353.62,247.05 354.13,254.25 354.63,261.86 355.14,269.68 355.65,277.52 356.16,285.17 356.67,292.44 357.18,299.15 357.68,305.11 358.19,310.19 358.7,314.24 359.21,317.16 359.72,318.89 360.22,319.37 360.73,318.59 361.24,316.58 361.75,313.38 362.26,309.08 362.76,303.79 363.27,297.63 363.78,290.78 364.29,283.4 364.8,275.69 365.3,267.83 365.81,260.04 366.32,252.51 366.83,245.44 367.34,239 367.85,233.36 368.35,228.67 368.86,225.04 369.37,222.57 369.88,221.32 370.39,221.32 370.89,222.57 371.4,225.05 371.91,228.69 372.42,233.38 372.93,239.03 373.43,245.47 373.94,252.54 374.45,260.08 374.96,267.87 375.47,275.72 375.97,283.43 376.48,290.81 376.99,297.66 377.5,303.81 378.01,309.1 378.52,313.4 379.02,316.59 379.53,318.6 380.04,319.37 380.55,318.88 381.06,317.15 381.56,314.22 382.07,310.17 382.58,305.09 383.09,299.12 383.6,292.41 384.1,285.14 384.61,277.49 385.12,269.65 385.63,261.82 386.14,254.22 386.64,247.02 387.15,240.42 387.66,234.58 388.17,229.66 388.68,225.78 389.19,223.03 389.69,221.49 390.2,221.21 390.71,222.18 391.22,224.37 391.73,227.75 392.23,232.21 392.74,237.65 393.25,243.92 393.76,250.87 394.27,258.31 394.77,266.06 395.28,273.91 395.79,281.68 396.3,289.15 396.81,296.14 397.31,302.46 397.82,307.96 398.33,312.5 398.84,315.96 399.35,318.24 399.86,319.3 400.36,319.11 400.87,317.66 401.38,315 401.89,311.2 402.4,306.34 402.9,300.57 403.41,294.02 403.92,286.86 404.43,279.27 404.94,271.46 405.44,263.62 405.95,255.94 406.46,248.63 406.97,241.88 407.48,235.85 407.98,230.71 408.49,226.57 409,223.56 409.51,221.74 410.02,221.16 410.53,221.84 411.03,223.76 411.54,226.87 412.05,231.09 412.56,236.31 413.07,242.41 413.57,249.21 414.08,256.56 414.59,264.25 415.1,272.1 415.61,279.91 416.11,287.46 416.62,294.58 417.13,301.07 417.64,306.78 418.15,311.55 418.65,315.26 419.16,317.82 419.67,319.17 420.18,319.26 420.69,318.1 421.2,315.72 421.7,312.17 422.21,307.55 422.72,301.97 423.23,295.59 423.74,288.55 424.24,281.05 424.75,273.27 425.26,265.42 425.77,257.69 426.28,250.28 426.78,243.38 427.29,237.17 427.8,231.81 428.31,227.43 428.82,224.15 429.33,222.05 429.83,221.18 430.34,221.57 430.85,223.21 431.36,226.05 431.87,230.02 432.37,235.03 432.88,240.93 433.39,247.59 433.9,254.83 434.41,262.46 434.91,270.29 435.42,278.12 435.93,285.75 436.44,292.99 436.95,299.64 437.45,305.54 437.96,310.54 438.47,314.5 438.98,317.34 439.49,318.97 440,319.35 440.5,318.48 441.01,316.37 441.52,313.09 442.03,308.7 442.54,303.34 443.04,297.13 443.55,290.22 444.06,282.81 444.57,275.08 445.08,267.23 445.58,259.45 446.09,251.95 446.6,244.92 447.11,238.53 447.62,232.96 448.12,228.35 448.63,224.8 449.14,222.43 449.65,221.27 450.16,221.37 450.67,222.72 451.17,225.29 451.68,229.01 452.19,233.79 452.7,239.5 453.21,246 453.71,253.11 454.22,260.67 454.73,268.48 455.24,276.32 455.75,284.02 456.25,291.36 456.76,298.16 457.27,304.25 457.78,309.47 458.29,313.69 458.79,316.79 459.3,318.7 459.81,319.38 460.32,318.79 460.83,316.97 461.34,313.95 461.84,309.81 462.35,304.66 462.86,298.63 463.37,291.87 463.88,284.56 464.38,276.88 464.89,269.04 465.4,261.22 465.91,253.64 466.42,246.49 466.92,239.94 467.43,234.17 467.94,229.32 468.45,225.52 468.96,222.87 469.46,221.43 469.97,221.24 470.48,222.3 470.99,224.59 471.5,228.06 472.01,232.6 472.51,238.11 473.02,244.44 473.53,251.43 474.04,258.9 474.55,266.66 475.05,274.52 475.56,282.27 476.07,289.71 476.58,296.65 477.09,302.92 477.59,308.35 478.1,312.81 478.61,316.18 479.12,318.37 479.63,319.33 480.13,319.04 480.64,317.5 481.15,314.75 481.66,310.86 482.17,305.93 482.68,300.09 483.18,293.48 483.69,286.28 484.2,278.68 484.71,270.85 485.22,263.01 485.72,255.36 486.23,248.09 486.74,241.39 487.25,235.42 487.76,230.35 488.26,226.3 488.77,223.37 489.28,221.65 489.79,221.17 490.3,221.95 490.8,223.96 491.31,227.16 491.82,231.46 492.33,236.76 492.84,242.91 493.35,249.76 493.85,257.14 494.36,264.86 494.87,272.71 495.38,280.5 495.89,288.03 496.39,295.1 496.9,301.54 497.41,307.18 497.92,311.87 498.43,315.5 498.93,317.97 499.44,319.22 499.95,319.22 500.46,317.96 500.97,315.48 501.48,311.85 501.98,307.15 502.49,301.51 503,295.06 503.51,287.99 504.02,280.46 504.52,272.66 505.03,264.81 505.54,257.1 506.05,249.72 506.56,242.87 507.06,236.72 507.57,231.43 508.08,227.14 508.59,223.94 509.1,221.94 509.6,221.17 510.11,221.66 510.62,223.39 511.13,226.32 511.64,230.38 512.15,235.45 512.65,241.42 513.16,248.13 513.67,255.4 514.18,263.06 514.69,270.9 515.19,278.72 515.7,286.33 516.21,293.52 516.72,300.12 517.23,305.96 517.73,310.88 518.24,314.77 518.75,317.51 519.26,319.04 519.77,319.33 520.27,318.36 520.78,316.16 521.29,312.79 521.8,308.32 522.31,302.89 522.82,296.61 523.32,289.67 523.83,282.22 524.34,274.47 524.85,266.62 525.36,258.85 525.86,251.38 526.37,244.4 526.88,238.07 527.39,232.57 527.9,228.03 528.4,224.58 528.91,222.29 529.42,221.23 529.93,221.43 530.44,222.88 530.94,225.54 531.45,229.35 531.96,234.2 532.47,239.98 532.98,246.53 533.49,253.69 533.99,261.27 534.5,269.08 535.01,276.93 535.52,284.6 536.03,291.91 536.53,298.66 537.04,304.69 537.55,309.84 538.06,313.97 538.57,316.98 539.07,318.8 539.58,319.38 540.09,318.7 540.6,316.78 541.11,313.66 541.61,309.44 542.12,304.22 542.63,298.13 543.14,291.32 543.65,283.97 544.16,276.28 544.66,268.43 545.17,260.63 545.68,253.07 546.19,245.95 546.7,239.46 547.2,233.76 547.71,228.99 548.22,225.27 548.73,222.71 549.24,221.37 549.74,221.27 550.25,222.44 550.76,224.82 551.27,228.37 551.78,232.99 552.28,238.57 552.79,244.96 553.3,251.99 553.81,259.49"/>
</g>
</g>
<g clip-path="url(#c0)">
<g fill="none" stroke-linecap="butt" stroke-width="0.66">
<path d="M46.22,319.38l0,-98.21"/>
<path d="M46.22,319.38l4,0M46.22,314.47l4,0M46.22,309.56l4,0M46.22,304.65l4,0M46.22,299.73l4,0M46.22,294.82l4,0M46.22,289.91l4,0M46.22,285l4,0M46.22,280.09l4,0M46.22,275.18l4,0M46.22,270.27l4,0M46.22,265.36l4,0M46.22,260.45l4,0M46.22,255.54l4,0M46.22,250.63l4,0M46.22,245.71l4,0M46.22,240.8l4,0M46.22,235.89l4,0M46.22,230.98l4,0M46.22,226.07l4,0M46.22,221.16l4,0"/>
<path d="M46.22,319.38l8,0M46.22,294.82l8,0M46.22,270.27l8,0M46.22,245.71l8,0M46.22,221.16l8,0"/>
<path d="M46.22,319.38l507.59,0"/>
<path d="M46.22,319.38l0,-4M71.6,319.38l0,-4M96.98,319.38l0,-4M122.36,319.38l0,-4M147.74,319.38l0,-4M173.12,319.38l0,-4M198.5,319.38l0,-4M223.88,319.38l0,-4M249.25,319.38l0,-4M274.63,319.38l0,-4M300.01,319.38l0,-4M325.39,319.38l0,-4M350.77,319.38l0,-4M376.15,319.38l0,-4M401.53,319.38l0,-4M426.91,319.38l0,-4M452.29,319.38l0,-4M477.67,319.38l0,-4M503.05,319.38l0,-4M528.43,319.38l0,-4M553.81,319.38l0,-4"/>
<path d="M46.22,319.38l0,-8M147.74,319.38l0,-8M249.25,319.38l0,-8M350.77,319.38l0,-8M452.29,319.38l0,-8M553.81,319.38l0,-8"/>
<path d="M553.81,319.38l0,-98.21"/>
<path d="M553.81,319.38l-4,0M553.81,314.47l-4,0M553.81,309.56l-4,0M553.81,304.65l-4,0M553.81,299.73l-4,0M553.81,294.82l-4,0M553.81,289.91l-4,0M553.81,285l-4,0M553.81,280.09l-4,0M553.81,275.18l-4,0M553.81,270.27l-4,0M553.81,265.36l-4,0M553.81,260.45l-4,0M553.81,255.54l-4,0M553.81,250.63l-4,0M553.81,245.71l-4,0M553.81,240.8l-4,0M553.81,235.89l-4,0M553.81,230.98l-4,0M553.81,226.07l-4,0M553.81,221.16l-4,0"/>
<path d="M553.81,319.38l-8,0M553.81,294.82l-8,0M553.81,270.27l-8,0M553.81,245.71l-8,0M553.81,221.16l-8,0"/>
<path d="M46.22,221.16l507.59,0"/>
<path d="M46.22,221.16l0,4M71.6,221.16l0,4M96.98,221.16l0,4M122.36,221.16l0,4M147.74,221.16l0,4M173.12,221.16l0,4M198.5,221.16l0,4M223.88,221.16l0,4M249.25,221.16l0,4M274.63,221.16l0,4M300.01,221.16l0,4M325.39,221.16l0,4M350.77,221.16l0,4M376.15,221.16l0,4M401.53,221.16l0,4M426.91,221.16l0,4M452.29,221.16l0,4M477.67,221.16l0,4M503.05,221.16l0,4M528.43,221.16l0,4M553.81,221.16l0,4"/>
<path d="M46.22,221.16l0,8M147.74,221.16l0,8M249.25,221.16l0,8M350.77,221.16l0,8M452.29,221.16l0,8M553.81,221.16l0,8"/>
</g>
<g fill="#ffffff" stroke-width="0.66">
<path d="m46.22,386.2l507.59,0l0,97.23l-507.59,0l0,-97.23"/>
</g>
</g>
<g clip-path="url(#c3)">
<g fill="none" stroke="#e41a1c" stroke-width="0.66">
<polyline fill="none" points="46.22,434.82 46.73,427.54 47.23,420.44 47.74,413.66 48.25,407.36 48.76,401.69 49.27,396.78 49.78,392.72 50.28,389.63 50.79,387.56 51.3,386.56 51.81,386.65 52.32,387.83 52.82,390.07 53.33,393.31 53.84,397.48 54.35,402.48 54.86,408.2 55.36,414.49 55.87,421.22 56.38,428.23 56.89,435.37 57.4,442.46 57.9,449.34 58.41,455.87 58.92,461.88 59.43,467.26 59.94,471.88 60.45,475.63 60.95,478.45 61.46,480.26 61.97,481.04 62.48,480.76 62.99,479.46 63.49,477.16 64,473.92 64.51,469.82 65.02,464.96 65.53,459.46 66.03,453.45 66.54,447.07 67.05,440.46 67.56,433.79 68.07,427.2 68.58,420.84 69.08,414.86 69.59,409.38 70.1,404.53 70.61,400.41 71.12,397.11 71.62,394.7 72.13,393.21 72.64,392.68 73.15,393.11 73.66,394.47 74.16,396.72 74.67,399.81 75.18,403.64 75.69,408.13 76.2,413.16 76.7,418.62 77.21,424.36 77.72,430.26 78.23,436.18 78.74,441.98 79.25,447.53 79.75,452.72 80.26,457.42 80.77,461.53 81.28,464.98 81.79,467.69 82.29,469.62 82.8,470.72 83.31,471 83.82,470.46 84.33,469.12 84.83,467.03 85.34,464.26 85.85,460.87 86.36,456.96 86.87,452.63 87.37,447.99 87.88,443.15 88.39,438.22 88.9,433.32 89.41,428.56 89.92,424.05 90.42,419.89 90.93,416.17 91.44,412.95 91.95,410.31 92.46,408.29 92.96,406.92 93.47,406.22 93.98,406.19 94.49,406.8 95,408.04 95.5,409.84 96.01,412.16 96.52,414.93 97.03,418.06 97.54,421.48 98.04,425.1 98.55,428.82 99.06,432.55 99.57,436.21 100.08,439.71 100.59,442.98 101.09,445.95 101.6,448.55 102.11,450.73 102.62,452.47 103.13,453.73 103.63,454.51 104.14,454.81 104.65,454.62 105.16,453.99 105.67,452.95 106.17,451.53 106.68,449.8 107.19,447.8 107.7,445.59 108.21,443.25 108.71,440.84 109.22,438.42 109.73,436.05 110.24,433.79 110.75,431.69 111.26,429.8 111.76,428.15 112.27,426.78 112.78,425.7 113.29,424.91 113.8,424.44 114.3,424.25 114.81,424.35 115.32,424.71 115.83,425.29 116.34,426.07 116.84,427.01 117.35,428.06 117.86,429.18 118.37,430.33 118.88,431.46 119.38,432.55 119.89,433.56 120.4,434.45 120.91,435.21 121.42,435.81 121.93,436.25 122.43,436.52 122.94,436.63 123.45,436.59 123.96,436.4 124.47,436.1 124.97,435.71 125.48,435.26 125.99,434.78 126.5,434.3 127.01,433.85 127.51,433.48 128.02,433.19 128.53,433.03 129.04,433.01 129.55,433.14 130.05,433.44 130.56,433.91 131.07,434.53 131.58,435.31 132.09,436.23 132.6,437.25 133.1,438.34 133.61,439.49 134.12,440.64 134.63,441.75 135.14,442.78 135.64,443.69 136.15,444.44 136.66,445 137.17,445.31 137.68,445.37 138.18,445.14 138.69,444.62 139.2,443.79 139.71,442.66 140.22,441.24 140.73,439.55 141.23,437.63 141.74,435.5 142.25,433.22 142.76,430.84 143.27,428.42 143.77,426.01 144.28,423.69 144.79,421.51 145.3,419.55 145.81,417.86 146.31,416.5 146.82,415.51 147.33,414.95 147.84,414.84 148.35,415.21 148.85,416.06 149.36,417.4 149.87,419.21 150.38,421.47 150.89,424.12 151.4,427.14 151.9,430.45 152.41,433.98 152.92,437.66 153.43,441.4 153.94,445.11 154.44,448.7 154.95,452.08 155.46,455.16 155.97,457.86 156.48,460.11 156.98,461.83 157.49,462.97 158,463.48 158.51,463.35 159.02,462.54 159.52,461.07 160.03,458.95 160.54,456.22 161.05,452.92 161.56,449.12 162.07,444.9 162.57,440.35 163.08,435.56 163.59,430.65 164.1,425.73 164.61,420.91 165.11,416.31 165.62,412.04 166.13,408.2 166.64,404.91 167.15,402.23 167.65,400.26 168.16,399.04 168.67,398.62 169.18,399.03 169.69,400.26 170.19,402.31 170.7,405.14 171.21,408.7 171.72,412.91 172.23,417.69 172.74,422.94 173.24,428.54 173.75,434.37 174.26,440.29 174.77,446.18 175.28,451.88 175.78,457.28 176.29,462.24 176.8,466.63 177.31,470.35 177.82,473.32 178.32,475.43 178.83,476.65 179.34,476.93 179.85,476.25 180.36,474.62 180.86,472.07 181.37,468.64 181.88,464.4 182.39,459.44 182.9,453.88 183.41,447.83 183.91,441.42 184.42,434.81 184.93,428.14 185.44,421.56 185.95,415.23 186.45,409.28 186.96,403.88 187.47,399.13 187.98,395.16 188.49,392.06 188.99,389.91 189.5,388.76 190.01,388.65 190.52,389.59 191.03,391.56 191.53,394.52 192.04,398.42 192.55,403.16 193.06,408.64 193.57,414.75 194.08,421.34 194.58,428.27 195.09,435.37 195.6,442.5 196.11,449.48 196.62,456.15 197.12,462.36 197.63,467.98 198.14,472.85 198.65,476.89 199.16,479.98 199.66,482.06 200.17,483.07 200.68,482.99 201.19,481.82 201.7,479.59 202.2,476.34 202.71,472.15 203.22,467.11 203.73,461.33 204.24,454.95 204.75,448.11 205.25,440.97 205.76,433.69 206.27,426.43 206.78,419.36 207.29,412.65 207.79,406.44 208.3,400.88 208.81,396.09 209.32,392.18 209.83,389.24 210.33,387.33 210.84,386.5 211.35,386.76 211.86,388.11 212.37,390.51 212.88,393.9 213.38,398.21 213.89,403.32 214.4,409.14 214.91,415.51 215.42,422.29 215.92,429.34 216.43,436.47 216.94,443.54 217.45,450.38 217.96,456.83 218.46,462.76 218.97,468.03 219.48,472.52 219.99,476.13 220.5,478.79 221,480.45 221.51,481.06 222.02,480.63 222.53,479.17 223.04,476.71 223.55,473.33 224.05,469.11 224.56,464.15 225.07,458.56 225.58,452.48 226.09,446.06 226.59,439.43 227.1,432.76 227.61,426.2 228.12,419.89 228.63,413.97 229.13,408.58 229.64,403.84 230.15,399.85 230.66,396.68 231.17,394.41 231.67,393.07 232.18,392.69 232.69,393.26 233.2,394.76 233.71,397.15 234.22,400.36 234.72,404.3 235.23,408.88 235.74,413.98 236.25,419.49 236.76,425.27 237.26,431.18 237.77,437.09 238.28,442.86 238.79,448.36 239.3,453.48 239.8,458.1 240.31,462.11 240.82,465.45 241.33,468.04 241.84,469.84 242.34,470.82 242.85,470.97 243.36,470.3 243.87,468.84 244.38,466.64 244.89,463.77 245.39,460.3 245.9,456.32 246.41,451.93 246.92,447.25 247.43,442.39 247.93,437.45 248.44,432.57 248.95,427.84 249.46,423.38 249.97,419.29 250.47,415.64 250.98,412.51 251.49,409.96 252,408.04 252.51,406.77 253.01,406.17 253.52,406.24 254.03,406.95 254.54,408.28 255.05,410.17 255.56,412.56 256.06,415.39 256.57,418.58 257.08,422.03 257.59,425.67 258.1,429.4 258.6,433.13 259.11,436.77 259.62,440.24 260.13,443.46 260.64,446.37 261.14,448.91 261.65,451.03 262.16,452.7 262.67,453.89 263.18,454.59 263.68,454.81 264.19,454.56 264.7,453.86 265.21,452.75 265.72,451.28 266.23,449.5 266.73,447.47 267.24,445.24 267.75,442.88 268.26,440.46 268.77,438.05 269.27,435.69 269.78,433.45 270.29,431.39 270.8,429.53 271.31,427.92 271.81,426.59 272.32,425.55 272.83,424.82 273.34,424.39 273.85,424.25 274.35,424.39 274.86,424.79 275.37,425.4 275.88,426.21 276.39,427.16 276.9,428.23 277.4,429.35 277.91,430.5 278.42,431.64 278.93,432.71 279.44,433.7 279.94,434.58 280.45,435.31 280.96,435.89 281.47,436.3 281.98,436.55 282.48,436.63 282.99,436.57 283.5,436.36 284.01,436.05 284.52,435.65 285.03,435.19 285.53,434.7 286.04,434.23 286.55,433.79 287.06,433.43 287.57,433.16 288.07,433.02 288.58,433.02 289.09,433.18 289.6,433.5 290.11,433.99 290.61,434.65 291.12,435.45 291.63,436.38 292.14,437.41 292.65,438.52 293.15,439.67 293.66,440.81 294.17,441.91 294.68,442.93 295.19,443.82 295.7,444.54 296.2,445.06 296.71,445.34 297.22,445.35 297.73,445.08 298.24,444.51 298.74,443.63 299.25,442.46 299.76,441 300.27,439.27 300.78,437.31 301.28,435.16 301.79,432.86 302.3,430.47 302.81,428.04 303.32,425.65 303.82,423.34 304.33,421.19 304.84,419.27 305.35,417.63 305.86,416.32 306.37,415.4 306.87,414.9 307.38,414.87 307.89,415.31 308.4,416.24 308.91,417.65 309.41,419.53 309.92,421.85 310.43,424.57 310.94,427.63 311.45,430.98 311.95,434.54 312.46,438.24 312.97,441.98 313.48,445.67 313.99,449.24 314.49,452.58 315,455.61 315.51,458.24 316.02,460.41 316.53,462.04 317.04,463.09 317.54,463.51 318.05,463.27 318.56,462.36 319.07,460.78 319.58,458.57 320.08,455.74 320.59,452.36 321.1,448.49 321.61,444.22 322.12,439.62 322.62,434.81 323.13,429.89 323.64,424.97 324.15,420.18 324.66,415.62 325.16,411.41 325.67,407.66 326.18,404.45 326.69,401.88 327.2,400.02 327.71,398.92 328.21,398.63 328.72,399.17 329.23,400.53 329.74,402.7 330.25,405.64 330.75,409.31 331.26,413.61 331.77,418.48 332.28,423.79 332.79,429.43 333.29,435.28 333.8,441.21 334.31,447.08 334.82,452.74 335.33,458.08 335.83,462.96 336.34,467.25 336.85,470.87 337.36,473.7 337.87,475.68 338.38,476.76 338.88,476.89 339.39,476.06 339.9,474.29 340.41,471.59 340.92,468.03 341.42,463.68 341.93,458.62 342.44,452.97 342.95,446.86 343.46,440.41 343.96,433.78 344.47,427.11 344.98,420.56 345.49,414.28 346,408.41 346.5,403.1 347.01,398.46 347.52,394.62 348.03,391.66 348.54,389.66 349.05,388.67 349.55,388.73 350.06,389.83 350.57,391.95 351.08,395.07 351.59,399.1 352.09,403.96 352.6,409.55 353.11,415.74 353.62,422.39 354.13,429.36 354.63,436.48 355.14,443.59 355.65,450.53 356.16,457.15 356.67,463.28 357.18,468.78 357.68,473.54 358.19,477.43 358.7,480.37 359.21,482.28 359.72,483.13 360.22,482.88 360.73,481.55 361.24,479.15 361.75,475.75 362.26,471.42 362.76,466.26 363.27,460.38 363.78,453.92 364.29,447.02 364.8,439.85 365.3,432.56 365.81,425.32 366.32,418.3 366.83,411.65 367.34,405.53 367.85,400.08 368.35,395.42 368.86,391.66 369.37,388.87 369.88,387.13 370.39,386.47 370.89,386.9 371.4,388.41 371.91,390.97 372.42,394.51 372.93,398.95 373.43,404.18 373.94,410.09 374.45,416.54 374.96,423.37 375.47,430.44 375.97,437.58 376.48,444.62 376.99,451.41 377.5,457.79 378.01,463.62 378.52,468.78 379.02,473.14 379.53,476.61 380.04,479.12 380.55,480.61 381.06,481.06 381.56,480.47 382.07,478.85 382.58,476.25 383.09,472.73 383.6,468.39 384.1,463.32 384.61,457.65 385.12,451.51 385.63,445.04 386.14,438.4 386.64,431.73 387.15,425.2 387.66,418.94 388.17,413.1 388.68,407.8 389.19,403.17 389.69,399.3 390.2,396.27 390.71,394.14 391.22,392.95 391.73,392.71 392.23,393.43 392.74,395.08 393.25,397.59 393.76,400.92 394.27,404.97 394.77,409.64 395.28,414.81 395.79,420.37 396.3,426.18 396.81,432.1 397.31,437.99 397.82,443.73 398.33,449.19 398.84,454.23 399.35,458.76 399.86,462.68 400.36,465.9 400.87,468.37 401.38,470.05 401.89,470.9 402.4,470.92 402.9,470.12 403.41,468.55 403.92,466.24 404.43,463.27 404.94,459.71 405.44,455.66 405.95,451.22 406.46,446.51 406.97,441.62 407.48,436.69 407.98,431.82 408.49,427.13 409,422.72 409.51,418.69 410.02,415.11 410.53,412.07 411.03,409.62 411.54,407.8 412.05,406.64 412.56,406.14 413.07,406.31 413.57,407.12 414.08,408.54 414.59,410.51 415.1,412.97 415.61,415.86 416.11,419.1 416.62,422.59 417.13,426.24 417.64,429.98 418.15,433.7 418.65,437.32 419.16,440.76 419.67,443.94 420.18,446.79 420.69,449.27 421.2,451.32 421.7,452.91 422.21,454.03 422.72,454.65 423.23,454.8 423.74,454.48 424.24,453.71 424.75,452.55 425.26,451.03 425.77,449.2 426.28,447.13 426.78,444.88 427.29,442.51 427.8,440.09 428.31,437.68 428.82,435.34 429.33,433.12 429.83,431.08 430.34,429.26 430.85,427.7 431.36,426.41 431.87,425.42 432.37,424.73 432.88,424.35 433.39,424.26 433.9,424.44 434.41,424.87 434.91,425.52 435.42,426.35 435.93,427.32 436.44,428.4 436.95,429.53 437.45,430.68 437.96,431.81 438.47,432.87 438.98,433.85 439.49,434.7 440,435.41 440.5,435.96 441.01,436.35 441.52,436.57 442.03,436.63 442.54,436.54 443.04,436.32 443.55,435.99 444.06,435.58 444.57,435.11 445.08,434.63 445.58,434.16 446.09,433.73 446.6,433.38 447.11,433.13 447.62,433.01 448.12,433.03 448.63,433.22 449.14,433.57 449.65,434.08 450.16,434.76 450.67,435.58 451.17,436.53 451.68,437.58 452.19,438.7 452.7,439.84 453.21,440.99 453.71,442.08 454.22,443.08 454.73,443.94 455.24,444.64 455.75,445.12 456.25,445.36 456.76,445.33 457.27,445.01 457.78,444.39 458.29,443.47 458.79,442.25 459.3,440.75 459.81,438.98 460.32,436.99 460.83,434.81 461.34,432.49 461.84,430.09 462.35,427.67 462.86,425.28 463.37,423 463.88,420.88 464.38,418.99 464.89,417.4 465.4,416.15 465.91,415.29 466.42,414.87 466.92,414.91 467.43,415.42 467.94,416.43 468.45,417.91 468.96,419.86 469.46,422.25 469.97,425.02 470.48,428.14 470.99,431.52 471.5,435.11 472.01,438.81 472.51,442.55 473.02,446.24 473.53,449.77 474.04,453.07 474.55,456.04 475.05,458.61 475.56,460.7 476.07,462.25 476.58,463.2 477.09,463.51 477.59,463.17 478.1,462.16 478.61,460.48 479.12,458.17 479.63,455.25 480.13,451.79 480.64,447.86 481.15,443.52 481.66,438.89 482.17,434.05 482.68,429.12 483.18,424.22 483.69,419.46 484.2,414.94 484.71,410.8 485.22,407.12 485.72,404.01 486.23,401.54 486.74,399.8 487.25,398.82 487.76,398.66 488.26,399.32 488.77,400.81 489.28,403.11 489.79,406.17 490.3,409.93 490.8,414.33 491.31,419.27 491.82,424.64 492.33,430.33 492.84,436.2 493.35,442.13 493.85,447.97 494.36,453.59 494.87,458.87 495.38,463.66 495.89,467.86 496.39,471.36 496.9,474.07 497.41,475.91 497.92,476.84 498.43,476.82 498.93,475.85 499.44,473.93 499.95,471.1 500.46,467.41 500.97,462.94 501.48,457.78 501.98,452.05 502.49,445.88 503,439.39 503.51,432.74 504.02,426.08 504.52,419.56 505.03,413.34 505.54,407.55 506.05,402.33 506.56,397.81 507.06,394.1 507.57,391.29 508.08,389.44 508.59,388.61 509.1,388.83 509.6,390.09 510.11,392.37 510.62,395.63 511.13,399.8 511.64,404.78 512.15,410.47 512.65,416.75 513.16,423.46 513.67,430.46 514.18,437.59 514.69,444.68 515.19,451.58 515.7,458.13 516.21,464.17 516.72,469.57 517.23,474.2 517.73,477.95 518.24,480.73 518.75,482.48 519.26,483.16 519.77,482.75 520.27,481.25 520.78,478.69 521.29,475.14 521.8,470.68 522.31,465.39 522.82,459.41 523.32,452.88 523.83,445.92 524.34,438.72 524.85,431.43 525.36,424.21 525.86,417.24 526.37,410.67 526.88,404.64 527.39,399.31 527.9,394.78 528.4,391.16 528.91,388.54 529.42,386.96 529.93,386.47 530.44,387.07 530.94,388.74 531.45,391.46 531.96,395.14 532.47,399.71 532.98,405.06 533.49,411.06 533.99,417.58 534.5,424.46 535.01,431.54 535.52,438.68 536.03,445.69 536.53,452.43 537.04,458.73 537.55,464.47 538.06,469.51 538.57,473.74 539.07,477.06 539.58,479.42 540.09,480.75 540.6,481.04 541.11,480.29 541.61,478.51 542.12,475.76 542.63,472.11 543.14,467.65 543.65,462.48 544.16,456.72 544.66,450.52 545.17,444.02 545.68,437.36 546.19,430.71 546.7,424.21 547.2,418 547.71,412.24 548.22,407.04 548.73,402.52 549.24,398.77 549.74,395.88 550.25,393.89 550.76,392.85 551.27,392.76 551.78,393.63 552.28,395.41 552.79,398.06 553.3,401.5 553.81,405.65"/>
</g>
</g>
<g clip-path="url(#c0)">
<g fill="none" stroke-linecap="butt" stroke-width="0.66">
<path d="M46.22,483.43l0,-97.23"/>
<path d="M46.22,483.43l4,0M46.22,478.57l4,0M46.22,473.71l4,0M46.22,468.85l4,0M46.22,463.99l4,0M46.22,459.13l4,0M46.22,454.26l4,0M46.22,449.4l4,0M46.22,444.54l4,0M46.22,439.68l4,0M46.22,434.82l4,0M46.22,429.96l4,0M46.22,425.09l4,0M46.22,420.23l4,0M46.22,415.37l4,0M46.22,410.51l4,0M46.22,405.65l4,0M46.22,400.78l4,0M46.22,395.92l4,0M46.22,391.06l4,0M46.22,386.2l4,0"/>
<path d="M46.22,483.43l8,0M46.22,459.13l8,0M46.22,434.82l8,0M46.22,410.51l8,0M46.22,386.2l8,0"/>
<path d="M46.22,483.43l507.59,0"/>
<path d="M46.22,483.43l0,-4M71.6,483.43l0,-4M96.98,483.43l0,-4M122.36,483.43l0,-4M147.74,483.43l0,-4M173.12,483.43l0,-4M198.5,483.43l0,-4M223.88,483.43l0,-4M249.25,483.43l0,-4M274.63,483.43l0,-4M300.01,483.43l0,-4M325.39,483.43l0,-4M350.77,483.43l0,-4M376.15,483.43l0,-4M401.53,483.43l0,-4M426.91,483.43l0,-4M452.29,483.43l0,-4M477.67,483.43l0,-4M503.05,483.43l0,-4M528.43,483.43l0,-4M553.81,483.43l0,-4"/>
<path d="M46.22,483.43l0,-8M147.74,483.43l0,-8M249.25,483.43l0,-8M350.77,483.43l0,-8M452.29,483.43l0,-8M553.81,483.43l0,-8"/>
<path d="M553.81,483.43l0,-97.23"/>
<path d="M553.81,483.43l-4,0M553.81,478.57l-4,0M553.81,473.71l-4,0M553.81,468.85l-4,0M553.81,463.99l-4,0M553.81,459.13l-4,0M553.81,454.26l-4,0M553.81,449.4l-4,0M553.81,444.54l-4,0M553.81,439.68l-4,0M553.81,434.82l-4,0M553.81,429.96l-4,0M553.81,425.09l-4,0M553.81,420.23l-4,0M553.81,415.37l-4,0M553.81,410.51l-4,0M553.81,405.65l-4,0M553.81,400.78l-4,0M553.81,395.92l-4,0M553.81,391.06l-4,0M553.81,386.2l-4,0"/>
<path d="M553.81,483.43l-8,0M553.81,459.13l-8,0M553.81,434.82l-8,0M553.81,410.51l-8,0M553.81,386.2l-8,0"/>
<path d="M46.22,386.2l507.59,0"/>
<path d="M46.22,386.2l0,4M71.6,386.2l0,4M96.98,386.2l0,4M122.36,386.2l0,4M147.74,386.2l0,4M173.12,386.2l0,4M198.5,386.2l0,4M223.88,386.2l0,4M249.25,386.2l0,4M274.63,386.2l0,4M300.01,386.2l0,4M325.39,386.2l0,4M350.77,386.2l0,4M376.15,386.2l0,4M401.53,386.2l0,4M426.91,386.2l0,4M452.29,386.2l0,4M477.67,386.2l0,4M503.05,386.2l0,4M528.43,386.2l0,4M553.81,386.2l0,4"/>
<path d="M46.22,386.2l0,8M147.74,386.2l0,8M249.25,386.2l0,8M350.77,386.2l0,8M452.29,386.2l0,8M553.81,386.2l0,8"/>
</g>
</g>
</g>
</svg>
