<?xml version="1.0" standalone="no"?>
<!DOCTYPE svg PUBLIC "-//W3C//DTD SVG 1.1//EN"
  "http://www.w3.org/Graphics/SVG/1.1/DTD/svg11.dtd">
<svg width="1209.44px" height="567.91px" version="1.1"
    xmlns="http://www.w3.org/2000/svg"
    xmlns:xlink="http://www.w3.org/1999/xlink">
<desc>Veusz output document</desc>
<defs>
<clipPath id="c0">
<path d="m0,0l1209.44,0l0,567.91l-1209.44,0l0,-567.91"/>
</clipPath>
<clipPath id="c1">
<path d="m130.5,65.08l1063.82,0l0,374.32l-1063.82,0l0,-374.32"/>
</clipPath>
</defs>
<g stroke-linejoin="bevel" stroke-linecap="square" stroke="#000000" fill-rule="evenodd">
<g clip-path="url(#c0)">
<g fill="#ffffff" stroke-width="0.66">
<path d="m130.5,65.08l1063.82,0l0,374.32l-1063.82,0l0,-374.32"/>
</g>
<g fill="none" stroke-width="0.1">
<path d="m1142.95,239.18c0.71,-0.26,1.39,-0.47,2.05,-0.61c0.65,-0.14,1.26,-0.21,1.83,-0.21c1.33,0,2.37,0.28,3.12,0.86c0.74,0.57,1.12,1.37,1.12,2.39c0,0.82,-0.25,1.5,-0.77,2.05c-0.51,0.55,-1.25,0.92,-2.2,1.11c1.11,0.15,1.98,0.56,2.6,1.21c0.61,0.65,0.92,1.5,0.92,2.54c0,1.27,-0.42,2.24,-1.28,2.92c-0.85,0.67,-2.08,1.01,-3.69,1.01c-0.71,0,-1.4,-0.07,-2.08,-0.22c-0.67,-0.15,-1.35,-0.38,-2.02,-0.69l0,-2.64l1.02,0c0.06,0.87,0.35,1.53,0.88,1.98c0.52,0.45,1.27,0.67,2.23,0.67c0.93,0,1.66,-0.26,2.2,-0.8c0.53,-0.53,0.8,-1.27,0.8,-2.21c0,-1.07,-0.27,-1.88,-0.83,-2.43c-0.55,-0.55,-1.36,-0.82,-2.43,-0.82l-0.86,0l0,-0.93l0.45,0c1.06,0,1.86,-0.22,2.39,-0.66c0.53,-0.44,0.79,-1.1,0.79,-1.99c0,-0.79,-0.21,-1.4,-0.65,-1.83c-0.43,-0.42,-1.06,-0.63,-1.88,-0.63c-0.82,0,-1.45,0.19,-1.91,0.58c-0.45,0.38,-0.72,0.96,-0.79,1.73l-1.02,0l0,-2.4m16.19,12.41c0.85,0,1.51,-0.31,1.98,-0.94c0.46,-0.63,0.69,-1.53,0.69,-2.71c0,-1.18,-0.23,-2.08,-0.69,-2.71c-0.46,-0.63,-1.12,-0.94,-1.98,-0.94c-0.86,0,-1.53,0.3,-1.98,0.91c-0.45,0.6,-0.68,1.48,-0.68,2.63c0,1.21,0.23,2.14,0.69,2.79c0.46,0.65,1.12,0.97,1.98,0.97m-2.97,-6.86c0.41,-0.45,0.88,-0.79,1.4,-1.02c0.52,-0.22,1.11,-0.33,1.77,-0.33c1.35,0,2.43,0.4,3.21,1.22c0.78,0.81,1.18,1.92,1.18,3.34c0,1.38,-0.42,2.48,-1.27,3.31c-0.84,0.83,-1.98,1.24,-3.4,1.24c-1.54,0,-2.72,-0.57,-3.55,-1.72c-0.82,-1.14,-1.24,-2.78,-1.24,-4.91c0,-2.38,0.48,-4.23,1.46,-5.54c0.97,-1.3,2.36,-1.96,4.14,-1.96c0.48,0,0.98,0.04,1.51,0.13c0.52,0.09,1.07,0.22,1.62,0.41l0,2.24l-1.03,0c-0.07,-0.61,-0.3,-1.08,-0.7,-1.4c-0.39,-0.32,-0.92,-0.48,-1.59,-0.48c-1.18,0,-2.06,0.44,-2.63,1.34c-0.57,0.89,-0.87,2.27,-0.89,4.12m14.7,6.86c0.93,0,1.62,-0.51,2.09,-1.53c0.46,-1.02,0.69,-2.56,0.69,-4.62c0,-2.06,-0.23,-3.61,-0.69,-4.63c-0.46,-1.02,-1.16,-1.53,-2.09,-1.53c-0.93,0,-1.62,0.51,-2.09,1.53c-0.46,1.02,-0.69,2.56,-0.69,4.63c0,2.06,0.23,3.6,0.69,4.62c0.46,1.02,1.15,1.53,2.09,1.53m0,0.9c-1.47,0,-2.63,-0.62,-3.46,-1.86c-0.83,-1.24,-1.24,-2.97,-1.24,-5.2c0,-2.23,0.41,-3.97,1.24,-5.21c0.83,-1.24,1.98,-1.86,3.46,-1.86c1.48,0,2.64,0.62,3.47,1.86c0.82,1.24,1.24,2.97,1.24,5.21c0,2.22,-0.41,3.96,-1.24,5.2c-0.82,1.24,-1.98,1.86,-3.47,1.86m10.62,-12.88c-0.46,0,-0.85,0.15,-1.16,0.47c-0.31,0.31,-0.47,0.71,-0.47,1.18c0,0.46,0.15,0.85,0.47,1.16c0.31,0.31,0.7,0.46,1.17,0.46c0.46,0,0.85,-0.15,1.16,-0.47c0.31,-0.31,0.47,-0.69,0.47,-1.15c0,-0.45,-0.16,-0.84,-0.48,-1.17c-0.32,-0.32,-0.7,-0.48,-1.15,-0.48m0,-1.26c0.38,0,0.76,0.07,1.12,0.22c0.35,0.14,0.66,0.36,0.93,0.64c0.28,0.27,0.49,0.58,0.62,0.93c0.13,0.34,0.2,0.72,0.2,1.12c0,0.8,-0.28,1.48,-0.84,2.04c-0.56,0.55,-1.25,0.83,-2.06,0.83c-0.82,0,-1.5,-0.27,-2.05,-0.82c-0.54,-0.54,-0.82,-1.23,-0.82,-2.05c0,-0.81,0.27,-1.5,0.83,-2.07c0.55,-0.56,1.24,-0.84,2.05,-0.84" fill="#000000" stroke="none" fill-opacity="1"/>
<path d="m932.89,241.86l-1.02,0l0,-2.42c0.65,-0.34,1.3,-0.61,1.96,-0.79c0.66,-0.18,1.3,-0.27,1.94,-0.27c1.41,0,2.53,0.34,3.35,1.03c0.82,0.68,1.23,1.62,1.23,2.8c0,1.33,-0.93,2.92,-2.79,4.78c-0.14,0.13,-0.25,0.24,-0.32,0.32l-3.44,3.44l5.68,0l0,-1.68l1.06,0l0,3.17l-8.79,0l0,-0.99l4.13,-4.12c0.91,-0.91,1.56,-1.75,1.95,-2.51c0.38,-0.76,0.58,-1.56,0.58,-2.4c0,-0.91,-0.23,-1.63,-0.71,-2.15c-0.47,-0.51,-1.13,-0.77,-1.97,-0.77c-0.86,0,-1.54,0.21,-2.01,0.64c-0.47,0.43,-0.75,1.08,-0.84,1.94m20.05,-2.32l-5.33,12.7l-1.36,0l5.08,-12.13l-6.3,0l0,1.67l-1.06,0l0,-3.17l8.97,0l0,0.93m7.29,12.06c0.93,0,1.62,-0.51,2.09,-1.53c0.46,-1.02,0.69,-2.56,0.69,-4.62c0,-2.06,-0.23,-3.61,-0.69,-4.63c-0.46,-1.02,-1.16,-1.53,-2.09,-1.53c-0.93,0,-1.62,0.51,-2.09,1.53c-0.46,1.02,-0.69,2.56,-0.69,4.63c0,2.06,0.23,3.6,0.69,4.62c0.46,1.02,1.15,1.53,2.09,1.53m0,0.9c-1.47,0,-2.63,-0.62,-3.46,-1.86c-0.83,-1.24,-1.24,-2.97,-1.24,-5.2c0,-2.23,0.41,-3.97,1.24,-5.21c0.83,-1.24,1.98,-1.86,3.46,-1.86c1.48,0,2.64,0.62,3.47,1.86c0.82,1.24,1.24,2.97,1.24,5.21c0,2.22,-0.41,3.96,-1.24,5.2c-0.82,1.24,-1.98,1.86,-3.47,1.86m10.62,-12.88c-0.46,0,-0.85,0.15,-1.16,0.47c-0.31,0.31,-0.47,0.71,-0.47,1.18c0,0.46,0.15,0.85,0.47,1.16c0.31,0.31,0.7,0.46,1.17,0.46c0.46,0,0.85,-0.15,1.16,-0.47c0.31,-0.31,0.47,-0.69,0.47,-1.15c0,-0.45,-0.16,-0.84,-0.48,-1.17c-0.32,-0.32,-0.7,-0.48,-1.15,-0.48m0,-1.26c0.38,0,0.76,0.07,1.12,0.22c0.35,0.14,0.66,0.36,0.93,0.64c0.28,0.27,0.49,0.58,0.62,0.93c0.13,0.34,0.2,0.72,0.2,1.12c0,0.8,-0.28,1.48,-0.84,2.04c-0.56,0.55,-1.25,0.83,-2.06,0.83c-0.82,0,-1.5,-0.27,-2.05,-0.82c-0.54,-0.54,-0.82,-1.23,-0.82,-2.05c0,-0.81,0.27,-1.5,0.83,-2.07c0.55,-0.56,1.24,-0.84,2.05,-0.84" fill="#000000" stroke="none" fill-opacity="1"/>
<path d="m671.02,252.24l0,-0.96l2.37,0l0,-11.34l-2.74,1.77l0,-1.19l3.32,-2.15l1.26,0l0,12.91l2.37,0l0,0.96l-6.58,0m17.95,-3.72c0,-0.97,-0.24,-1.73,-0.72,-2.26c-0.48,-0.53,-1.16,-0.8,-2.04,-0.8c-0.87,0,-1.55,0.26,-2.03,0.8c-0.48,0.53,-0.72,1.29,-0.72,2.26c0,0.98,0.24,1.73,0.72,2.27c0.48,0.53,1.16,0.8,2.03,0.8c0.87,0,1.55,-0.26,2.04,-0.8c0.48,-0.53,0.72,-1.29,0.72,-2.27m-0.37,-6.62c0,-0.82,-0.2,-1.47,-0.62,-1.93c-0.41,-0.46,-1,-0.69,-1.76,-0.69c-0.74,0,-1.33,0.23,-1.75,0.69c-0.42,0.46,-0.63,1.1,-0.63,1.93c0,0.83,0.21,1.48,0.63,1.94c0.42,0.46,1,0.69,1.75,0.69c0.75,0,1.34,-0.23,1.76,-0.69c0.41,-0.46,0.62,-1.11,0.62,-1.94m-0.98,3.08c1.03,0.14,1.84,0.52,2.42,1.14c0.57,0.62,0.86,1.41,0.86,2.38c0,1.27,-0.4,2.26,-1.21,2.95c-0.8,0.69,-1.96,1.03,-3.47,1.03c-1.5,0,-2.66,-0.34,-3.47,-1.03c-0.81,-0.69,-1.21,-1.67,-1.21,-2.95c0,-0.96,0.28,-1.76,0.86,-2.38c0.57,-0.62,1.38,-1,2.42,-1.14c-0.91,-0.16,-1.62,-0.51,-2.11,-1.04c-0.49,-0.53,-0.73,-1.21,-0.73,-2.04c0,-1.09,0.37,-1.95,1.13,-2.58c0.75,-0.63,1.79,-0.94,3.11,-0.94c1.32,0,2.35,0.31,3.11,0.94c0.75,0.63,1.13,1.49,1.13,2.58c0,0.82,-0.24,1.5,-0.73,2.04c-0.49,0.53,-1.19,0.88,-2.1,1.04m10.49,6.62c0.93,0,1.62,-0.51,2.09,-1.53c0.46,-1.02,0.69,-2.56,0.69,-4.62c0,-2.06,-0.23,-3.61,-0.69,-4.63c-0.46,-1.02,-1.16,-1.53,-2.09,-1.53c-0.93,0,-1.62,0.51,-2.09,1.53c-0.46,1.02,-0.69,2.56,-0.69,4.63c0,2.06,0.23,3.6,0.69,4.62c0.46,1.02,1.15,1.53,2.09,1.53m0,0.9c-1.47,0,-2.63,-0.62,-3.46,-1.86c-0.83,-1.24,-1.24,-2.97,-1.24,-5.2c0,-2.23,0.41,-3.97,1.24,-5.21c0.83,-1.24,1.98,-1.86,3.46,-1.86c1.48,0,2.64,0.62,3.47,1.86c0.82,1.24,1.24,2.97,1.24,5.21c0,2.22,-0.41,3.96,-1.24,5.2c-0.82,1.24,-1.98,1.86,-3.47,1.86m10.62,-12.88c-0.46,0,-0.85,0.15,-1.16,0.47c-0.31,0.31,-0.47,0.71,-0.47,1.18c0,0.46,0.15,0.85,0.47,1.16c0.31,0.31,0.7,0.46,1.17,0.46c0.46,0,0.85,-0.15,1.16,-0.47c0.31,-0.31,0.47,-0.69,0.47,-1.15c0,-0.45,-0.16,-0.84,-0.48,-1.17c-0.32,-0.32,-0.7,-0.48,-1.15,-0.48m0,-1.26c0.38,0,0.76,0.07,1.12,0.22c0.35,0.14,0.66,0.36,0.93,0.64c0.28,0.27,0.49,0.58,0.62,0.93c0.13,0.34,0.2,0.72,0.2,1.12c0,0.8,-0.28,1.48,-0.84,2.04c-0.56,0.55,-1.25,0.83,-2.06,0.83c-0.82,0,-1.5,-0.27,-2.05,-0.82c-0.54,-0.54,-0.82,-1.23,-0.82,-2.05c0,-0.81,0.27,-1.5,0.83,-2.07c0.55,-0.56,1.24,-0.84,2.05,-0.84" fill="#000000" stroke="none" fill-opacity="1"/>
<path d="m405.2,246.13c-0.4,0.45,-0.87,0.79,-1.4,1.02c-0.52,0.22,-1.12,0.33,-1.78,0.33c-1.35,0,-2.41,-0.4,-3.2,-1.22c-0.78,-0.81,-1.17,-1.92,-1.17,-3.34c0,-1.38,0.42,-2.48,1.27,-3.31c0.84,-0.83,1.98,-1.24,3.4,-1.24c1.53,0,2.72,0.57,3.54,1.72c0.82,1.14,1.23,2.78,1.23,4.91c0,2.38,-0.49,4.23,-1.47,5.54c-0.98,1.3,-2.35,1.96,-4.13,1.96c-0.48,0,-0.98,-0.04,-1.51,-0.13c-0.52,-0.09,-1.07,-0.22,-1.62,-0.41l0,-2.26l1.02,0c0.07,0.61,0.31,1.08,0.71,1.41c0.39,0.32,0.92,0.49,1.58,0.49c1.18,0,2.05,-0.44,2.63,-1.33c0.57,-0.89,0.87,-2.26,0.89,-4.13m-2.96,-6.86c-0.86,0,-1.52,0.31,-1.98,0.94c-0.45,0.63,-0.68,1.53,-0.68,2.71c0,1.18,0.22,2.08,0.68,2.72c0.45,0.63,1.12,0.95,1.98,0.95c0.86,0,1.52,-0.3,1.98,-0.91c0.45,-0.61,0.68,-1.49,0.68,-2.64c0,-1.21,-0.23,-2.14,-0.69,-2.79c-0.46,-0.65,-1.12,-0.97,-1.98,-0.97m12.06,12.33c0.93,0,1.62,-0.51,2.09,-1.53c0.46,-1.02,0.69,-2.56,0.69,-4.62c0,-2.06,-0.23,-3.61,-0.69,-4.63c-0.46,-1.02,-1.16,-1.53,-2.09,-1.53c-0.93,0,-1.62,0.51,-2.09,1.53c-0.46,1.02,-0.69,2.56,-0.69,4.63c0,2.06,0.23,3.6,0.69,4.62c0.46,1.02,1.15,1.53,2.09,1.53m0,0.9c-1.47,0,-2.63,-0.62,-3.46,-1.86c-0.83,-1.24,-1.24,-2.97,-1.24,-5.2c0,-2.23,0.41,-3.97,1.24,-5.21c0.83,-1.24,1.98,-1.86,3.46,-1.86c1.48,0,2.64,0.62,3.47,1.86c0.82,1.24,1.24,2.97,1.24,5.21c0,2.22,-0.41,3.96,-1.24,5.2c-0.82,1.24,-1.98,1.86,-3.47,1.86m10.62,-12.88c-0.46,0,-0.85,0.15,-1.16,0.47c-0.31,0.31,-0.47,0.71,-0.47,1.18c0,0.46,0.15,0.85,0.47,1.16c0.31,0.31,0.7,0.46,1.17,0.46c0.46,0,0.85,-0.15,1.16,-0.47c0.31,-0.31,0.47,-0.69,0.47,-1.15c0,-0.45,-0.16,-0.84,-0.48,-1.17c-0.32,-0.32,-0.7,-0.48,-1.15,-0.48m0,-1.26c0.38,0,0.76,0.07,1.12,0.22c0.35,0.14,0.66,0.36,0.93,0.64c0.28,0.27,0.49,0.58,0.62,0.93c0.13,0.34,0.2,0.72,0.2,1.12c0,0.8,-0.28,1.48,-0.84,2.04c-0.56,0.55,-1.25,0.83,-2.06,0.83c-0.82,0,-1.5,-0.27,-2.05,-0.82c-0.54,-0.54,-0.82,-1.23,-0.82,-2.05c0,-0.81,0.27,-1.5,0.83,-2.07c0.55,-0.56,1.24,-0.84,2.05,-0.84" fill="#000000" stroke="none" fill-opacity="1"/>
</g>
<g fill="#000000" stroke-linecap="butt" stroke-width="0.66">
<g transform="matrix(0 -1 1 0 928.37 439.4)">
<path d="M0,0l374.32,0"/>
</g>
<g transform="matrix(0 -1 1 0 662.41 439.4)">
<path d="M0,0l374.32,0"/>
</g>
<g transform="matrix(0 -1 1 0 396.46 439.4)">
<path d="M0,0l374.32,0"/>
</g>
</g>
</g>
<g clip-path="url(#c1)">
<g fill="none" stroke="#e41a1c" stroke-width="0.66">
<polyline fill="none" points="130.5,252.24 131.57,251.06 132.63,249.89 133.7,248.71 134.76,247.53 135.83,246.35 136.89,245.18 137.96,244 139.02,242.82 140.09,241.65 141.15,240.47 142.22,239.3 143.28,238.12 144.35,236.95 145.41,235.78 146.48,234.6 147.54,233.43 148.61,232.26 149.67,231.09 150.74,229.92 151.8,228.75 152.86,227.58 153.93,226.42 154.99,225.25 156.06,224.09 157.12,222.92 158.19,221.76 159.25,220.6 160.32,219.44 161.38,218.28 162.45,217.12 163.51,215.97 164.58,214.81 165.64,213.66 166.71,212.51 167.77,211.36 168.84,210.21 169.9,209.06 170.97,207.92 172.03,206.77 173.1,205.63 174.16,204.49 175.23,203.35 176.29,202.22 177.36,201.09 178.42,199.95 179.49,198.82 180.55,197.7 181.62,196.57 182.68,195.45 183.75,194.33 184.81,193.21 185.88,192.09 186.94,190.98 188.01,189.87 189.07,188.76 190.14,187.65 191.2,186.55 192.27,185.45 193.33,184.35 194.4,183.25 195.46,182.16 196.53,181.07 197.59,179.98 198.66,178.89 199.72,177.81 200.78,176.73 201.85,175.66 202.91,174.58 203.98,173.51 205.04,172.45 206.11,171.38 207.17,170.32 208.24,169.27 209.3,168.21 210.37,167.16 211.43,166.11 212.5,165.07 213.56,164.03 214.63,162.99 215.69,161.96 216.76,160.93 217.82,159.9 218.89,158.88 219.95,157.86 221.02,156.85 222.08,155.84 223.15,154.83 224.21,153.83 225.28,152.83 226.34,151.83 227.41,150.84 228.47,149.85 229.54,148.87 230.6,147.89 231.67,146.91 232.73,145.94 233.8,144.97 234.86,144.01 235.93,143.05 236.99,142.1 238.06,141.15 239.12,140.2 240.19,139.26 241.25,138.32 242.32,137.39 243.38,136.46 244.45,135.54 245.51,134.62 246.57,133.71 247.64,132.8 248.7,131.9 249.77,131 250.83,130.1 251.9,129.21 252.96,128.33 254.03,127.45 255.09,126.57 256.16,125.7 257.22,124.84 258.29,123.98 259.35,123.12 260.42,122.27 261.48,121.43 262.55,120.59 263.61,119.75 264.68,118.92 265.74,118.1 266.81,117.28 267.87,116.47 268.94,115.66 270,114.86 271.07,114.06 272.13,113.27 273.2,112.48 274.26,111.7 275.33,110.93 276.39,110.16 277.46,109.39 278.52,108.64 279.59,107.88 280.65,107.14 281.72,106.4 282.78,105.66 283.85,104.93 284.91,104.21 285.98,103.49 287.04,102.78 288.11,102.07 289.17,101.37 290.24,100.68 291.3,99.99 292.37,99.31 293.43,98.63 294.49,97.96 295.56,97.3 296.62,96.64 297.69,95.99 298.75,95.35 299.82,94.71 300.88,94.07 301.95,93.45 303.01,92.83 304.08,92.21 305.14,91.61 306.21,91.01 307.27,90.41 308.34,89.82 309.4,89.24 310.47,88.66 311.53,88.1 312.6,87.53 313.66,86.98 314.73,86.43 315.79,85.89 316.86,85.35 317.92,84.82 318.99,84.3 320.05,83.78 321.12,83.27 322.18,82.77 323.25,82.27 324.31,81.78 325.38,81.3 326.44,80.82 327.51,80.35 328.57,79.89 329.64,79.43 330.7,78.99 331.77,78.54 332.83,78.11 333.9,77.68 334.96,77.26 336.03,76.84 337.09,76.44 338.16,76.04 339.22,75.64 340.29,75.26 341.35,74.88 342.41,74.5 343.48,74.14 344.54,73.78 345.61,73.43 346.67,73.08 347.74,72.75 348.8,72.42 349.87,72.09 350.93,71.78 352,71.47 353.06,71.17 354.13,70.87 355.19,70.59 356.26,70.31 357.32,70.03 358.39,69.77 359.45,69.51 360.52,69.26 361.58,69.01 362.65,68.78 363.71,68.55 364.78,68.33 365.84,68.11 366.91,67.9 367.97,67.7 369.04,67.51 370.1,67.33 371.17,67.15 372.23,66.98 373.3,66.81 374.36,66.66 375.43,66.51 376.49,66.37 377.56,66.23 378.62,66.11 379.69,65.99 380.75,65.87 381.82,65.77 382.88,65.67 383.95,65.58 385.01,65.5 386.08,65.42 387.14,65.36 388.21,65.3 389.27,65.24 390.33,65.2 391.4,65.16 392.46,65.13 393.53,65.1 394.59,65.09 395.66,65.08 396.72,65.08 397.79,65.09 398.85,65.1 399.92,65.12 400.98,65.15 402.05,65.18 403.11,65.23 404.18,65.28 405.24,65.34 406.31,65.4 407.37,65.47 408.44,65.56 409.5,65.64 410.57,65.74 411.63,65.84 412.7,65.95 413.76,66.07 414.83,66.19 415.89,66.32 416.96,66.46 418.02,66.61 419.09,66.76 420.15,66.93 421.22,67.09 422.28,67.27 423.35,67.45 424.41,67.64 425.48,67.84 426.54,68.05 427.61,68.26 428.67,68.48 429.74,68.71 430.8,68.94 431.87,69.18 432.93,69.43 434,69.69 435.06,69.95 436.13,70.22 437.19,70.5 438.25,70.78 439.32,71.08 440.38,71.38 441.45,71.68 442.51,72 443.58,72.32 444.64,72.64 445.71,72.98 446.77,73.32 447.84,73.67 448.9,74.03 449.97,74.39 451.03,74.76 452.1,75.14 453.16,75.52 454.23,75.91 455.29,76.31 456.36,76.72 457.42,77.13 458.49,77.55 459.55,77.98 460.62,78.41 461.68,78.85 462.75,79.29 463.81,79.75 464.88,80.21 465.94,80.68 467.01,81.15 468.07,81.63 469.14,82.12 470.2,82.61 471.27,83.11 472.33,83.62 473.4,84.14 474.46,84.66 475.53,85.18 476.59,85.72 477.66,86.26 478.72,86.81 479.79,87.36 480.85,87.92 481.92,88.49 482.98,89.06 484.05,89.64 485.11,90.23 486.17,90.82 487.24,91.42 488.3,92.03 489.37,92.64 490.43,93.26 491.5,93.88 492.56,94.51 493.63,95.15 494.69,95.79 495.76,96.44 496.82,97.1 497.89,97.76 498.95,98.43 500.02,99.1 501.08,99.78 502.15,100.47 503.21,101.16 504.28,101.86 505.34,102.56 506.41,103.27 507.47,103.99 508.54,104.71 509.6,105.44 510.67,106.17 511.73,106.91 512.8,107.65 513.86,108.4 514.93,109.16 515.99,109.92 517.06,110.69 518.12,111.46 519.19,112.24 520.25,113.03 521.32,113.82 522.38,114.61 523.45,115.41 524.51,116.22 525.58,117.03 526.64,117.85 527.71,118.67 528.77,119.5 529.84,120.33 530.9,121.17 531.97,122.01 533.03,122.86 534.09,123.71 535.16,124.57 536.22,125.44 537.29,126.3 538.35,127.18 539.42,128.06 540.48,128.94 541.55,129.83 542.61,130.72 543.68,131.62 544.74,132.52 545.81,133.43 546.87,134.34 547.94,135.26 549,136.18 550.07,137.11 551.13,138.04 552.2,138.97 553.26,139.91 554.33,140.86 555.39,141.8 556.46,142.76 557.52,143.71 558.59,144.68 559.65,145.64 560.72,146.61 561.78,147.59 562.85,148.56 563.91,149.55 564.98,150.53 566.04,151.52 567.11,152.52 568.17,153.52 569.24,154.52 570.3,155.53 571.37,156.54 572.43,157.55 573.5,158.57 574.56,159.59 575.63,160.61 576.69,161.64 577.76,162.67 578.82,163.71 579.89,164.75 580.95,165.79 582.01,166.84 583.08,167.89 584.14,168.94 585.21,170 586.27,171.06 587.34,172.12 588.4,173.19 589.47,174.25 590.53,175.33 591.6,176.4 592.66,177.48 593.73,178.56 594.79,179.64 595.86,180.73 596.92,181.82 597.99,182.91 599.05,184.01 600.12,185.11 601.18,186.21 602.25,187.31 603.31,188.42 604.38,189.52 605.44,190.64 606.51,191.75 607.57,192.86 608.64,193.98 609.7,195.1 610.77,196.22 611.83,197.35 612.9,198.48 613.96,199.61 615.03,200.74 616.09,201.87 617.16,203 618.22,204.14 619.29,205.28 620.35,206.42 621.42,207.56 622.48,208.71 623.55,209.86 624.61,211 625.68,212.15 626.74,213.3 627.81,214.46 628.87,215.61 629.93,216.77 631,217.92 632.06,219.08 633.13,220.24 634.19,221.4 635.26,222.56 636.32,223.73 637.39,224.89 638.45,226.06 639.52,227.22 640.58,228.39 641.65,229.56 642.71,230.73 643.78,231.9 644.84,233.07 645.91,234.24 646.97,235.41 648.04,236.59 649.1,237.76 650.17,238.94 651.23,240.11 652.3,241.29 653.36,242.46 654.43,243.64 655.49,244.81 656.56,245.99 657.62,247.17 658.69,248.35 659.75,249.52 660.82,250.7 661.88,251.88 662.95,253.06 664.01,254.23 665.08,255.41 666.14,256.59 667.21,257.77 668.27,258.94 669.34,260.12 670.4,261.3 671.47,262.47 672.53,263.65 673.6,264.82 674.66,266 675.73,267.17 676.79,268.34 677.85,269.52 678.92,270.69 679.98,271.86 681.05,273.03 682.11,274.2 683.18,275.37 684.24,276.54 685.31,277.71 686.37,278.87 687.44,280.04 688.5,281.2 689.57,282.36 690.63,283.53 691.7,284.69 692.76,285.85 693.83,287 694.89,288.16 695.96,289.31 697.02,290.47 698.09,291.62 699.15,292.77 700.22,293.92 701.28,295.07 702.35,296.21 703.41,297.36 704.48,298.5 705.54,299.64 706.61,300.78 707.67,301.91 708.74,303.05 709.8,304.18 710.87,305.31 711.93,306.44 713,307.56 714.06,308.69 715.13,309.81 716.19,310.93 717.26,312.05 718.32,313.16 719.39,314.27 720.45,315.38 721.52,316.49 722.58,317.59 723.65,318.7 724.71,319.8 725.77,320.89 726.84,321.99 727.9,323.08 728.97,324.17 730.03,325.25 731.1,326.34 732.16,327.42 733.23,328.49 734.29,329.57 735.36,330.64 736.42,331.71 737.49,332.77 738.55,333.83 739.62,334.89 740.68,335.94 741.75,337 742.81,338.04 743.88,339.09 744.94,340.13 746.01,341.17 747.07,342.2 748.14,343.23 749.2,344.26 750.27,345.28 751.33,346.3 752.4,347.32 753.46,348.33 754.53,349.34 755.59,350.35 756.66,351.35 757.72,352.34 758.79,353.34 759.85,354.33 760.92,355.31 761.98,356.29 763.05,357.27 764.11,358.24 765.18,359.21 766.24,360.17 767.31,361.13 768.37,362.09 769.44,363.04 770.5,363.99 771.57,364.93 772.63,365.87 773.69,366.8 774.76,367.73 775.82,368.66 776.89,369.58 777.95,370.49 779.02,371.4 780.08,372.31 781.15,373.21 782.21,374.1 783.28,375 784.34,375.88 785.41,376.76 786.47,377.64 787.54,378.51 788.6,379.38 789.67,380.24 790.73,381.1 791.8,381.95 792.86,382.79 793.93,383.64 794.99,384.47 796.06,385.3 797.12,386.13 798.19,386.95 799.25,387.76 800.32,388.57 801.38,389.38 802.45,390.18 803.51,390.97 804.58,391.76 805.64,392.54 806.71,393.32 807.77,394.09 808.84,394.85 809.9,395.61 810.97,396.37 812.03,397.11 813.1,397.86 814.16,398.59 815.23,399.32 816.29,400.05 817.36,400.77 818.42,401.48 819.49,402.19 820.55,402.89 821.61,403.59 822.68,404.28 823.74,404.96 824.81,405.64 825.87,406.31 826.94,406.98 828,407.64 829.07,408.29 830.13,408.94 831.2,409.58 832.26,410.21 833.33,410.84 834.39,411.46 835.46,412.08 836.52,412.69 837.59,413.29 838.65,413.89 839.72,414.48 840.78,415.06 841.85,415.64 842.91,416.21 843.98,416.78 845.04,417.33 846.11,417.88 847.17,418.43 848.24,418.97 849.3,419.5 850.37,420.03 851.43,420.54 852.5,421.06 853.56,421.56 854.63,422.06 855.69,422.55 856.76,423.04 857.82,423.51 858.89,423.99 859.95,424.45 861.02,424.91 862.08,425.36 863.15,425.8 864.21,426.24 865.28,426.67 866.34,427.09 867.4,427.51 868.47,427.92 869.53,428.32 870.6,428.72 871.66,429.11 872.73,429.49 873.79,429.86 874.86,430.23 875.92,430.59 876.99,430.95 878.05,431.29 879.12,431.63 880.18,431.96 881.25,432.29 882.31,432.61 883.38,432.92 884.44,433.22 885.51,433.52 886.57,433.81 887.64,434.09 888.7,434.36 889.77,434.63 890.83,434.89 891.9,435.15 892.96,435.39 894.03,435.63 895.09,435.86 896.16,436.09 897.22,436.3 898.29,436.51 899.35,436.72 900.42,436.91 901.48,437.1 902.55,437.28 903.61,437.45 904.68,437.62 905.74,437.78 906.81,437.93 907.87,438.07 908.94,438.21 910,438.34 911.07,438.46 912.13,438.57 913.2,438.68 914.26,438.78 915.32,438.87 916.39,438.96 917.45,439.04 918.52,439.11 919.58,439.17 920.65,439.22 921.71,439.27 922.78,439.31 923.84,439.34 924.91,439.37 925.97,439.39 927.04,439.4 928.1,439.4 929.17,439.4 930.23,439.39 931.3,439.37 932.36,439.34 933.43,439.31 934.49,439.27 935.56,439.22 936.62,439.16 937.69,439.1 938.75,439.03 939.82,438.95 940.88,438.87 941.95,438.77 943.01,438.67 944.08,438.57 945.14,438.45 946.21,438.33 947.27,438.2 948.34,438.06 949.4,437.92 950.47,437.77 951.53,437.61 952.6,437.44 953.66,437.27 954.73,437.09 955.79,436.9 956.86,436.7 957.92,436.5 958.99,436.29 960.05,436.07 961.12,435.85 962.18,435.61 963.24,435.37 964.31,435.13 965.37,434.87 966.44,434.61 967.5,434.34 968.57,434.07 969.63,433.79 970.7,433.5 971.76,433.2 972.83,432.89 973.89,432.58 974.96,432.26 976.02,431.94 977.09,431.61 978.15,431.27 979.22,430.92 980.28,430.56 981.35,430.2 982.41,429.84 983.48,429.46 984.54,429.08 985.61,428.69 986.67,428.29 987.74,427.89 988.8,427.48 989.87,427.06 990.93,426.64 992,426.21 993.06,425.77 994.13,425.32 995.19,424.87 996.26,424.42 997.32,423.95 998.39,423.48 999.45,423 1000.52,422.51 1001.58,422.02 1002.65,421.52 1003.71,421.02 1004.78,420.5 1005.84,419.99 1006.91,419.46 1007.97,418.93 1009.04,418.39 1010.1,417.84 1011.16,417.29 1012.23,416.73 1013.29,416.17 1014.36,415.6 1015.42,415.02 1016.49,414.43 1017.55,413.84 1018.62,413.25 1019.68,412.64 1020.75,412.03 1021.81,411.42 1022.88,410.79 1023.94,410.16 1025.01,409.53 1026.07,408.89 1027.14,408.24 1028.2,407.59 1029.27,406.93 1030.33,406.26 1031.4,405.59 1032.46,404.91 1033.53,404.23 1034.59,403.54 1035.66,402.84 1036.72,402.14 1037.79,401.43 1038.85,400.72 1039.92,400 1040.98,399.27 1042.05,398.54 1043.11,397.8 1044.18,397.06 1045.24,396.31 1046.31,395.55 1047.37,394.79 1048.44,394.03 1049.5,393.26 1050.57,392.48 1051.63,391.7 1052.7,390.91 1053.76,390.12 1054.83,389.32 1055.89,388.51 1056.96,387.7 1058.02,386.89 1059.08,386.07 1060.15,385.24 1061.21,384.41 1062.28,383.57 1063.34,382.73 1064.41,381.88 1065.47,381.03 1066.54,380.18 1067.6,379.31 1068.67,378.45 1069.73,377.57 1070.8,376.7 1071.86,375.81 1072.93,374.93 1073.99,374.04 1075.06,373.14 1076.12,372.24 1077.19,371.33 1078.25,370.42 1079.32,369.51 1080.38,368.59 1081.45,367.66 1082.51,366.73 1083.58,365.8 1084.64,364.86 1085.71,363.92 1086.77,362.97 1087.84,362.02 1088.9,361.06 1089.97,360.1 1091.03,359.14 1092.1,358.17 1093.16,357.2 1094.23,356.22 1095.29,355.24 1096.36,354.25 1097.42,353.26 1098.49,352.27 1099.55,351.27 1100.62,350.27 1101.68,349.27 1102.75,348.26 1103.81,347.24 1104.88,346.23 1105.94,345.21 1107,344.18 1108.07,343.16 1109.13,342.12 1110.2,341.09 1111.26,340.05 1112.33,339.01 1113.39,337.97 1114.46,336.92 1115.52,335.86 1116.59,334.81 1117.65,333.75 1118.72,332.69 1119.78,331.62 1120.85,330.56 1121.91,329.49 1122.98,328.41 1124.04,327.33 1125.11,326.25 1126.17,325.17 1127.24,324.09 1128.3,323 1129.37,321.9 1130.43,320.81 1131.5,319.71 1132.56,318.61 1133.63,317.51 1134.69,316.41 1135.76,315.3 1136.82,314.19 1137.89,313.08 1138.95,311.96 1140.02,310.84 1141.08,309.72 1142.15,308.6 1143.21,307.48 1144.28,306.35 1145.34,305.22 1146.41,304.09 1147.47,302.96 1148.54,301.83 1149.6,300.69 1150.67,299.55 1151.73,298.41 1152.8,297.27 1153.86,296.13 1154.92,294.98 1155.99,293.83 1157.05,292.68 1158.12,291.53 1159.18,290.38 1160.25,289.23 1161.31,288.07 1162.38,286.92 1163.44,285.76 1164.51,284.6 1165.57,283.44 1166.64,282.28 1167.7,281.11 1168.77,279.95 1169.83,278.78 1170.9,277.62 1171.96,276.45 1173.03,275.28 1174.09,274.11 1175.16,272.94 1176.22,271.77 1177.29,270.6 1178.35,269.43 1179.42,268.26 1180.48,267.08 1181.55,265.91 1182.61,264.73 1183.68,263.56 1184.74,262.38 1185.81,261.21 1186.87,260.03 1187.94,258.85 1189,257.68 1190.07,256.5 1191.13,255.32 1192.2,254.14 1193.26,252.97 1194.33,251.79"/>
</g>
</g>
<g clip-path="url(#c0)">
<g fill="none" stroke-linecap="butt" stroke-width="0.66">
<path d="M130.5,439.4l0,-374.32"/>
<path d="M130.5,439.4l4,0M130.5,420.69l4,0M130.5,401.97l4,0M130.5,383.25l4,0M130.5,364.54l4,0M130.5,345.82l4,0M130.5,327.11l4,0M130.5,308.39l4,0M130.5,289.67l4,0M130.5,270.96l4,0M130.5,252.24l4,0M130.5,233.52l4,0M130.5,214.81l4,0M130.5,196.09l4,0M130.5,177.38l4,0M130.5,158.66l4,0M130.5,139.94l4,0M130.5,121.23l4,0M130.5,102.51l4,0M130.5,83.79l4,0M130.5,65.08l4,0"/>
<path d="M130.5,439.4l8,0M130.5,345.82l8,0M130.5,252.24l8,0M130.5,158.66l8,0M130.5,65.08l8,0"/>
</g>
<g fill="none" stroke-width="0.1">
<g transform="matrix(0 -1 1 0 67.4 293.85)">
<path d="m3.83,-5.33l0,0.95c0,1.16,0.22,2.05,0.67,2.67c0.44,0.61,1.09,0.91,1.95,0.91c0.85,0,1.5,-0.34,1.94,-1.03c0.44,-0.68,0.66,-1.7,0.66,-3.04c0,-1.34,-0.22,-2.35,-0.66,-3.03c-0.44,-0.68,-1.09,-1.02,-1.94,-1.02c-0.85,0,-1.5,0.3,-1.95,0.92c-0.44,0.61,-0.67,1.5,-0.67,2.66m-1.67,-3.39l-1.61,0l0,-0.97l3.29,0l0,1.51c0.32,-0.6,0.74,-1.05,1.25,-1.34c0.5,-0.28,1.13,-0.43,1.88,-0.43c1.19,0,2.16,0.47,2.92,1.41c0.75,0.94,1.13,2.17,1.13,3.69c0,1.52,-0.37,2.75,-1.13,3.7c-0.75,0.94,-1.72,1.41,-2.92,1.41c-0.74,0,-1.37,-0.14,-1.88,-0.43c-0.5,-0.28,-0.92,-0.73,-1.25,-1.34l0,4.42l1.58,0l0,0.97l-4.88,0l0,-0.97l1.61,0l0,-11.64m18.75,-0.99l0,2.42l-0.96,0c-0.03,-0.48,-0.16,-0.84,-0.4,-1.07c-0.23,-0.23,-0.58,-0.35,-1.04,-0.35c-0.82,0,-1.46,0.28,-1.9,0.85c-0.44,0.57,-0.66,1.39,-0.66,2.46l0,4.43l1.94,0l0,0.96l-5.14,0l0,-0.96l1.51,0l0,-7.77l-1.6,0l0,-0.95l3.28,0l0,1.72c0.32,-0.67,0.75,-1.17,1.26,-1.5c0.51,-0.32,1.14,-0.48,1.88,-0.48c0.27,0,0.56,0.02,0.86,0.06c0.3,0.04,0.61,0.1,0.95,0.18m10.13,5.05l-7.24,0l0,0.07c0,1.3,0.24,2.29,0.73,2.96c0.49,0.66,1.22,1,2.18,1c0.73,0,1.34,-0.19,1.81,-0.57c0.47,-0.38,0.8,-0.96,0.99,-1.72l1.35,0c-0.26,1.06,-0.76,1.86,-1.48,2.4c-0.72,0.53,-1.66,0.8,-2.84,0.8c-1.41,0,-2.55,-0.46,-3.41,-1.4c-0.86,-0.93,-1.29,-2.17,-1.29,-3.72c0,-1.53,0.42,-2.77,1.26,-3.7c0.84,-0.93,1.95,-1.4,3.33,-1.4c1.46,0,2.59,0.45,3.37,1.35c0.78,0.9,1.19,2.21,1.22,3.93m-1.98,-0.96c-0.03,-1.13,-0.27,-1.98,-0.71,-2.56c-0.44,-0.57,-1.07,-0.86,-1.9,-0.86c-0.77,0,-1.38,0.28,-1.82,0.86c-0.44,0.57,-0.71,1.43,-0.81,2.55l5.25,0m3.96,5.1l0,-2.26l0.96,0c0.02,0.72,0.25,1.26,0.68,1.62c0.42,0.35,1.06,0.53,1.9,0.53c0.75,0,1.33,-0.14,1.72,-0.42c0.39,-0.28,0.59,-0.69,0.59,-1.23c0,-0.42,-0.14,-0.76,-0.43,-1.03c-0.28,-0.26,-0.9,-0.54,-1.83,-0.84l-1.21,-0.41c-0.83,-0.26,-1.43,-0.6,-1.81,-1c-0.37,-0.4,-0.56,-0.91,-0.56,-1.53c0,-0.88,0.32,-1.58,0.97,-2.09c0.65,-0.5,1.55,-0.75,2.7,-0.75c0.51,0,1.05,0.06,1.61,0.2c0.56,0.13,1.15,0.32,1.75,0.58l0,2.11l-0.96,0c-0.02,-0.62,-0.24,-1.11,-0.65,-1.47c-0.41,-0.35,-0.97,-0.52,-1.68,-0.52c-0.7,0,-1.24,0.12,-1.6,0.37c-0.36,0.24,-0.54,0.62,-0.54,1.12c0,0.4,0.13,0.73,0.41,0.98c0.27,0.24,0.82,0.49,1.64,0.75l1.33,0.41c0.91,0.28,1.58,0.64,1.98,1.07c0.4,0.42,0.6,0.98,0.6,1.65c0,0.91,-0.35,1.64,-1.05,2.16c-0.7,0.52,-1.67,0.78,-2.9,0.78c-0.62,0,-1.23,-0.06,-1.83,-0.2c-0.59,-0.13,-1.19,-0.33,-1.78,-0.6m9.59,0l0,-2.26l0.96,0c0.02,0.72,0.25,1.26,0.68,1.62c0.42,0.35,1.06,0.53,1.9,0.53c0.75,0,1.33,-0.14,1.72,-0.42c0.39,-0.28,0.59,-0.69,0.59,-1.23c0,-0.42,-0.14,-0.76,-0.43,-1.03c-0.28,-0.26,-0.9,-0.54,-1.83,-0.84l-1.21,-0.41c-0.83,-0.26,-1.43,-0.6,-1.81,-1c-0.37,-0.4,-0.56,-0.91,-0.56,-1.53c0,-0.88,0.32,-1.58,0.97,-2.09c0.65,-0.5,1.55,-0.75,2.7,-0.75c0.51,0,1.05,0.06,1.61,0.2c0.56,0.13,1.15,0.32,1.75,0.58l0,2.11l-0.96,0c-0.02,-0.62,-0.24,-1.11,-0.65,-1.47c-0.41,-0.35,-0.97,-0.52,-1.68,-0.52c-0.7,0,-1.24,0.12,-1.6,0.37c-0.36,0.24,-0.54,0.62,-0.54,1.12c0,0.4,0.13,0.73,0.41,0.98c0.27,0.24,0.82,0.49,1.64,0.75l1.33,0.41c0.91,0.28,1.58,0.64,1.98,1.07c0.4,0.42,0.6,0.98,0.6,1.65c0,0.91,-0.35,1.64,-1.05,2.16c-0.7,0.52,-1.67,0.78,-2.9,0.78c-0.62,0,-1.23,-0.06,-1.83,-0.2c-0.59,-0.13,-1.19,-0.33,-1.78,-0.6m15.16,-9.16l3.14,0l0,8.73l1.58,0l0,0.96l-3.26,0l0,-1.71c-0.31,0.64,-0.71,1.13,-1.2,1.47c-0.49,0.33,-1.06,0.5,-1.71,0.5c-1.07,0,-1.87,-0.3,-2.37,-0.91c-0.5,-0.61,-0.76,-1.57,-0.76,-2.88l0,-5.19l-1.51,0l0,-0.97l3.2,0l0,5.65c0,1.18,0.14,1.99,0.43,2.42c0.28,0.43,0.8,0.65,1.54,0.65c0.77,0,1.37,-0.28,1.78,-0.85c0.4,-0.57,0.61,-1.4,0.61,-2.49l0,-4.41l-1.46,0l0,-0.97m14.36,-0.01l0,2.42l-0.96,0c-0.03,-0.48,-0.16,-0.84,-0.4,-1.07c-0.23,-0.23,-0.58,-0.35,-1.04,-0.35c-0.82,0,-1.46,0.28,-1.9,0.85c-0.44,0.57,-0.66,1.39,-0.66,2.46l0,4.43l1.94,0l0,0.96l-5.14,0l0,-0.96l1.51,0l0,-7.77l-1.6,0l0,-0.95l3.28,0l0,1.72c0.32,-0.67,0.75,-1.17,1.26,-1.5c0.51,-0.32,1.14,-0.48,1.88,-0.48c0.27,0,0.56,0.02,0.86,0.06c0.3,0.04,0.61,0.1,0.95,0.18m10.13,5.05l-7.24,0l0,0.07c0,1.3,0.24,2.29,0.73,2.96c0.49,0.66,1.22,1,2.18,1c0.73,0,1.34,-0.19,1.81,-0.57c0.47,-0.38,0.8,-0.96,0.99,-1.72l1.35,0c-0.26,1.06,-0.76,1.86,-1.48,2.4c-0.72,0.53,-1.66,0.8,-2.84,0.8c-1.41,0,-2.55,-0.46,-3.41,-1.4c-0.86,-0.93,-1.29,-2.17,-1.29,-3.72c0,-1.53,0.42,-2.77,1.26,-3.7c0.84,-0.93,1.95,-1.4,3.33,-1.4c1.46,0,2.59,0.45,3.37,1.35c0.78,0.9,1.19,2.21,1.22,3.93m-1.98,-0.96c-0.03,-1.13,-0.27,-1.98,-0.71,-2.56c-0.44,-0.57,-1.07,-0.86,-1.9,-0.86c-0.77,0,-1.38,0.28,-1.82,0.86c-0.44,0.57,-0.71,1.43,-0.81,2.55l5.25,0" fill="#000000" stroke="none" fill-opacity="1"/>
</g>
<path d="m100.52,439.9l11.7,0l0,1.47l-11.7,0l0,-1.47m16.34,6.6l0,-0.96l2.37,0l0,-11.34l-2.74,1.77l0,-1.19l3.32,-2.15l1.26,0l0,12.91l2.37,0l0,0.96l-6.58,0" fill="#000000" stroke="none" fill-opacity="1"/>
<path d="m82.68,346.32l11.7,0l0,1.47l-11.7,0l0,-1.47m19.62,5.96c0.93,0,1.62,-0.51,2.09,-1.53c0.46,-1.02,0.69,-2.56,0.69,-4.62c0,-2.06,-0.23,-3.61,-0.69,-4.63c-0.46,-1.02,-1.16,-1.53,-2.09,-1.53c-0.93,0,-1.62,0.51,-2.09,1.53c-0.46,1.02,-0.69,2.56,-0.69,4.63c0,2.06,0.23,3.6,0.69,4.62c0.46,1.02,1.15,1.53,2.09,1.53m0,0.9c-1.47,0,-2.63,-0.62,-3.46,-1.86c-0.83,-1.24,-1.24,-2.97,-1.24,-5.2c0,-2.23,0.41,-3.97,1.24,-5.21c0.83,-1.24,1.98,-1.86,3.46,-1.86c1.48,0,2.64,0.62,3.47,1.86c0.82,1.24,1.24,2.97,1.24,5.21c0,2.22,-0.41,3.96,-1.24,5.2c-0.82,1.24,-1.98,1.86,-3.47,1.86m6.62,1.55c0.57,-0.41,0.99,-0.91,1.26,-1.48c0.26,-0.56,0.4,-1.25,0.4,-2.06l0,-0.33l1.79,0c-0.04,1.04,-0.29,1.93,-0.73,2.68c-0.44,0.74,-1.1,1.39,-1.99,1.93l-0.73,-0.72m14.67,-15.45l0,1.49l-6.24,0l0,3.9c0.31,-0.21,0.68,-0.38,1.1,-0.49c0.42,-0.1,0.89,-0.16,1.42,-0.16c1.47,0,2.63,0.4,3.48,1.22c0.85,0.81,1.27,1.92,1.27,3.34c0,1.44,-0.43,2.56,-1.29,3.37c-0.86,0.8,-2.07,1.2,-3.62,1.2c-0.62,0,-1.26,-0.07,-1.92,-0.22c-0.65,-0.15,-1.32,-0.38,-2.01,-0.69l0,-2.64l1.03,0c0.05,0.86,0.33,1.52,0.82,1.98c0.49,0.45,1.19,0.68,2.08,0.68c0.96,0,1.7,-0.31,2.21,-0.95c0.51,-0.63,0.77,-1.54,0.77,-2.72c0,-1.18,-0.25,-2.08,-0.77,-2.71c-0.51,-0.62,-1.25,-0.94,-2.22,-0.94c-0.54,0,-1.03,0.09,-1.44,0.29c-0.41,0.19,-0.78,0.49,-1.1,0.9l-0.78,0l0,-6.84l7.21,0" fill="#000000" stroke="none" fill-opacity="1"/>
<path d="m120.15,258.7c0.93,0,1.62,-0.51,2.09,-1.53c0.46,-1.02,0.69,-2.56,0.69,-4.62c0,-2.06,-0.23,-3.61,-0.69,-4.63c-0.46,-1.02,-1.16,-1.53,-2.09,-1.53c-0.93,0,-1.62,0.51,-2.09,1.53c-0.46,1.02,-0.69,2.56,-0.69,4.63c0,2.06,0.23,3.6,0.69,4.62c0.46,1.02,1.15,1.53,2.09,1.53m0,0.9c-1.47,0,-2.63,-0.62,-3.46,-1.86c-0.83,-1.24,-1.24,-2.97,-1.24,-5.2c0,-2.23,0.41,-3.97,1.24,-5.21c0.83,-1.24,1.98,-1.86,3.46,-1.86c1.48,0,2.64,0.62,3.47,1.86c0.82,1.24,1.24,2.97,1.24,5.21c0,2.22,-0.41,3.96,-1.24,5.2c-0.82,1.24,-1.98,1.86,-3.47,1.86" fill="#000000" stroke="none" fill-opacity="1"/>
<path d="m102.31,165.12c0.93,0,1.62,-0.51,2.09,-1.53c0.46,-1.02,0.69,-2.56,0.69,-4.62c0,-2.06,-0.23,-3.61,-0.69,-4.63c-0.46,-1.02,-1.16,-1.53,-2.09,-1.53c-0.93,0,-1.62,0.51,-2.09,1.53c-0.46,1.02,-0.69,2.56,-0.69,4.63c0,2.06,0.23,3.6,0.69,4.62c0.46,1.02,1.15,1.53,2.09,1.53m0,0.9c-1.47,0,-2.63,-0.62,-3.46,-1.86c-0.83,-1.24,-1.24,-2.97,-1.24,-5.2c0,-2.23,0.41,-3.97,1.24,-5.21c0.83,-1.24,1.98,-1.86,3.46,-1.86c1.48,0,2.64,0.62,3.47,1.86c0.82,1.24,1.24,2.97,1.24,5.21c0,2.22,-0.41,3.96,-1.24,5.2c-0.82,1.24,-1.98,1.86,-3.47,1.86m6.62,1.55c0.57,-0.41,0.99,-0.91,1.26,-1.48c0.26,-0.56,0.4,-1.25,0.4,-2.06l0,-0.33l1.79,0c-0.04,1.04,-0.29,1.93,-0.73,2.68c-0.44,0.74,-1.1,1.39,-1.99,1.93l-0.73,-0.72m14.67,-15.45l0,1.49l-6.24,0l0,3.9c0.31,-0.21,0.68,-0.38,1.1,-0.49c0.42,-0.1,0.89,-0.16,1.42,-0.16c1.47,0,2.63,0.4,3.48,1.22c0.85,0.81,1.27,1.92,1.27,3.34c0,1.44,-0.43,2.56,-1.29,3.37c-0.86,0.8,-2.07,1.2,-3.62,1.2c-0.62,0,-1.26,-0.07,-1.92,-0.22c-0.65,-0.15,-1.32,-0.38,-2.01,-0.69l0,-2.64l1.03,0c0.05,0.86,0.33,1.52,0.82,1.98c0.49,0.45,1.19,0.68,2.08,0.68c0.96,0,1.7,-0.31,2.21,-0.95c0.51,-0.63,0.77,-1.54,0.77,-2.72c0,-1.18,-0.25,-2.08,-0.77,-2.71c-0.51,-0.62,-1.25,-0.94,-2.22,-0.94c-0.54,0,-1.03,0.09,-1.44,0.29c-0.41,0.19,-0.78,0.49,-1.1,0.9l-0.78,0l0,-6.84l7.21,0" fill="#000000" stroke="none" fill-opacity="1"/>
<path d="m116.86,72.18l0,-0.96l2.37,0l0,-11.34l-2.74,1.77l0,-1.19l3.32,-2.15l1.26,0l0,12.91l2.37,0l0,0.96l-6.58,0" fill="#000000" stroke="none" fill-opacity="1"/>
</g>
<g fill="none" stroke-linecap="butt" stroke-width="0.66">
<path d="M130.5,439.4l1063.82,0"/>
<path d="M130.5,439.4l0,-4M215.13,439.4l0,-4M299.75,439.4l0,-4M384.37,439.4l0,-4M469,439.4l0,-4M553.62,439.4l0,-4M638.25,439.4l0,-4M722.87,439.4l0,-4M807.49,439.4l0,-4M892.12,439.4l0,-4M976.74,439.4l0,-4M1061.36,439.4l0,-4M1145.99,439.4l0,-4"/>
<path d="M130.5,439.4l0,-8M299.75,439.4l0,-8M469,439.4l0,-8M638.25,439.4l0,-8M807.49,439.4l0,-8M976.74,439.4l0,-8M1145.99,439.4l0,-8"/>
</g>
<g fill="none" stroke-width="0.1">
<path d="m643.29,461.27l-1.47,0l0,-0.97l1.47,0l0,-3.01l1.69,0l0,3.01l3.15,0l0,0.97l-3.15,0l0,6.16c0,0.82,0.07,1.34,0.23,1.57c0.15,0.23,0.45,0.34,0.87,0.34c0.43,0,0.75,-0.12,0.95,-0.38c0.2,-0.25,0.3,-0.67,0.32,-1.25l1.26,0c-0.04,0.88,-0.28,1.52,-0.72,1.93c-0.43,0.4,-1.08,0.61,-1.97,0.61c-0.96,0,-1.65,-0.21,-2.05,-0.64c-0.4,-0.42,-0.6,-1.15,-0.6,-2.18l0,-6.16m7.31,-3.98c0,-0.28,0.1,-0.52,0.3,-0.73c0.2,-0.2,0.44,-0.31,0.73,-0.31c0.28,0,0.52,0.1,0.72,0.31c0.2,0.2,0.3,0.45,0.3,0.73c0,0.28,-0.1,0.52,-0.3,0.72c-0.2,0.2,-0.44,0.3,-0.73,0.3c-0.28,0,-0.53,-0.1,-0.73,-0.3c-0.2,-0.2,-0.3,-0.44,-0.3,-0.72m2.14,11.75l1.58,0l0,0.96l-4.87,0l0,-0.96l1.6,0l0,-7.76l-1.6,0l0,-0.97l3.28,0l0,8.73m11.7,-6.84c0.32,-0.71,0.73,-1.24,1.23,-1.61c0.5,-0.36,1.08,-0.54,1.75,-0.54c1.01,0,1.77,0.31,2.27,0.94c0.49,0.62,0.74,1.58,0.74,2.85l0,5.2l1.51,0l0,0.96l-4.65,0l0,-0.96l1.46,0l0,-5.01c0,-0.99,-0.14,-1.69,-0.43,-2.11c-0.29,-0.42,-0.77,-0.63,-1.45,-0.63c-0.74,0,-1.31,0.28,-1.71,0.84c-0.39,0.56,-0.58,1.39,-0.58,2.47l0,4.43l1.46,0l0,0.96l-4.6,0l0,-0.96l1.46,0l0,-5.07c0,-0.96,-0.14,-1.65,-0.43,-2.06c-0.29,-0.41,-0.77,-0.61,-1.45,-0.61c-0.74,0,-1.31,0.28,-1.71,0.84c-0.39,0.56,-0.58,1.39,-0.58,2.47l0,4.43l1.46,0l0,0.96l-4.65,0l0,-0.96l1.51,0l0,-7.77l-1.6,0l0,-0.95l3.28,0l0,1.72c0.31,-0.64,0.7,-1.13,1.18,-1.47c0.48,-0.34,1.02,-0.51,1.63,-0.51c0.75,0,1.38,0.18,1.89,0.56c0.5,0.37,0.84,0.9,1.01,1.59m18.17,3.14l-7.24,0l0,0.07c0,1.3,0.24,2.29,0.73,2.96c0.49,0.66,1.22,1,2.18,1c0.73,0,1.34,-0.19,1.81,-0.57c0.47,-0.38,0.8,-0.96,0.99,-1.72l1.35,0c-0.26,1.06,-0.76,1.86,-1.48,2.4c-0.72,0.53,-1.66,0.8,-2.84,0.8c-1.41,0,-2.55,-0.46,-3.41,-1.4c-0.86,-0.93,-1.29,-2.17,-1.29,-3.72c0,-1.53,0.42,-2.77,1.26,-3.7c0.84,-0.93,1.95,-1.4,3.33,-1.4c1.46,0,2.59,0.45,3.37,1.35c0.78,0.9,1.19,2.21,1.22,3.93m-1.98,-0.96c-0.03,-1.13,-0.27,-1.98,-0.71,-2.56c-0.44,-0.57,-1.07,-0.86,-1.9,-0.86c-0.77,0,-1.38,0.28,-1.82,0.86c-0.44,0.57,-0.71,1.43,-0.81,2.55l5.25,0" fill="#000000" stroke="none" fill-opacity="1"/>
</g>
<g fill="none" stroke-linecap="butt" stroke-width="0.66">
<path d="M1194.33,439.4l0,-374.32"/>
<path d="M1194.33,439.4l-4,0M1194.33,420.69l-4,0M1194.33,401.97l-4,0M1194.33,383.25l-4,0M1194.33,364.54l-4,0M1194.33,345.82l-4,0M1194.33,327.11l-4,0M1194.33,308.39l-4,0M1194.33,289.67l-4,0M1194.33,270.96l-4,0M1194.33,252.24l-4,0M1194.33,233.52l-4,0M1194.33,214.81l-4,0M1194.33,196.09l-4,0M1194.33,177.38l-4,0M1194.33,158.66l-4,0M1194.33,139.94l-4,0M1194.33,121.23l-4,0M1194.33,102.51l-4,0M1194.33,83.79l-4,0M1194.33,65.08l-4,0"/>
<path d="M1194.33,439.4l-8,0M1194.33,345.82l-8,0M1194.33,252.24l-8,0M1194.33,158.66l-8,0M1194.33,65.08l-8,0"/>
<path d="M130.5,65.08l1063.82,0"/>
<path d="M130.5,65.08l0,4M215.13,65.08l0,4M299.75,65.08l0,4M384.37,65.08l0,4M469,65.08l0,4M553.62,65.08l0,4M638.25,65.08l0,4M722.87,65.08l0,4M807.49,65.08l0,4M892.12,65.08l0,4M976.74,65.08l0,4M1061.36,65.08l0,4M1145.99,65.08l0,4"/>
<path d="M130.5,65.08l0,8M299.75,65.08l0,8M469,65.08l0,8M638.25,65.08l0,8M807.49,65.08l0,8M976.74,65.08l0,8M1145.99,65.08l0,8"/>
</g>
</g>
</g>
</svg>
