<?xml version="1.0" standalone="no"?>
<!DOCTYPE svg PUBLIC "-//W3C//DTD SVG 1.1//EN"
  "http://www.w3.org/Graphics/SVG/1.1/DTD/svg11.dtd">
<svg width="1209.44px" height="566.92px" version="1.1"
    xmlns="http://www.w3.org/2000/svg"
    xmlns:xlink="http://www.w3.org/1999/xlink">
<desc>Veusz output document</desc>
<defs>
<clipPath id="c0">
<path d="m0,0l1209.44,0l0,566.92l-1209.44,0l0,-566.92"/>
</clipPath>
<clipPath id="c1">
<path d="m45.24,7.55l1156.64,0l0,527.13l-1156.64,0l0,-527.13"/>
</clipPath>
</defs>
<g stroke-linejoin="bevel" stroke-linecap="square" stroke="#000000" fill-rule="evenodd">
<g clip-path="url(#c0)">
<g fill="#ffffff" stroke-width="0.66">
<path d="m45.24,7.55l1156.64,0l0,527.13l-1156.64,0l0,-527.13"/>
</g>
<g fill="none" stroke-width="0.1">
<path d="m1061.62,517.05l0,2.42l-0.96,0c-0.03,-0.48,-0.16,-0.84,-0.4,-1.07c-0.23,-0.23,-0.58,-0.35,-1.04,-0.35c-0.82,0,-1.46,0.28,-1.9,0.85c-0.44,0.57,-0.66,1.39,-0.66,2.46l0,4.43l1.94,0l0,0.96l-5.14,0l0,-0.96l1.51,0l0,-7.77l-1.6,0l0,-0.95l3.28,0l0,1.72c0.32,-0.67,0.75,-1.17,1.26,-1.5c0.51,-0.32,1.14,-0.48,1.88,-0.48c0.27,0,0.56,0.02,0.86,0.06c0.3,0.04,0.61,0.1,0.95,0.18m10.13,5.05l-7.24,0l0,0.07c0,1.3,0.24,2.29,0.73,2.96c0.49,0.66,1.22,1,2.18,1c0.73,0,1.34,-0.19,1.81,-0.57c0.47,-0.38,0.8,-0.96,0.99,-1.72l1.35,0c-0.26,1.06,-0.76,1.86,-1.48,2.4c-0.72,0.53,-1.66,0.8,-2.84,0.8c-1.41,0,-2.55,-0.46,-3.41,-1.4c-0.86,-0.93,-1.29,-2.17,-1.29,-3.72c0,-1.53,0.42,-2.77,1.26,-3.7c0.84,-0.93,1.95,-1.4,3.33,-1.4c1.46,0,2.59,0.45,3.37,1.35c0.78,0.9,1.19,2.21,1.22,3.93m-1.98,-0.96c-0.03,-1.13,-0.27,-1.98,-0.71,-2.56c-0.44,-0.57,-1.07,-0.86,-1.9,-0.86c-0.77,0,-1.38,0.28,-1.82,0.86c-0.44,0.57,-0.71,1.43,-0.81,2.55l5.25,0m6.74,4.67l1.58,0l0,0.96l-4.88,0l0,-0.96l1.61,0l0,-12.27l-1.61,0l0,-0.96l3.29,0l0,13.24m12.28,-3.7l-7.24,0l0,0.07c0,1.3,0.24,2.29,0.73,2.96c0.49,0.66,1.22,1,2.18,1c0.73,0,1.34,-0.19,1.81,-0.57c0.47,-0.38,0.8,-0.96,0.99,-1.72l1.35,0c-0.26,1.06,-0.76,1.86,-1.48,2.4c-0.72,0.53,-1.66,0.8,-2.84,0.8c-1.41,0,-2.55,-0.46,-3.41,-1.4c-0.86,-0.93,-1.29,-2.17,-1.29,-3.72c0,-1.53,0.42,-2.77,1.26,-3.7c0.84,-0.93,1.95,-1.4,3.33,-1.4c1.46,0,2.59,0.45,3.37,1.35c0.78,0.9,1.19,2.21,1.22,3.93m-1.98,-0.96c-0.03,-1.13,-0.27,-1.98,-0.71,-2.56c-0.44,-0.57,-1.07,-0.86,-1.9,-0.86c-0.77,0,-1.38,0.28,-1.82,0.86c-0.44,0.57,-0.71,1.43,-0.81,2.55l5.25,0m10.35,2.59l0,-2.05l-2.16,0c-0.83,0,-1.45,0.17,-1.86,0.53c-0.4,0.35,-0.61,0.91,-0.61,1.65c0,0.67,0.2,1.21,0.62,1.6c0.41,0.39,0.97,0.59,1.68,0.59c0.7,0,1.26,-0.21,1.69,-0.64c0.42,-0.43,0.64,-0.99,0.64,-1.68m1.67,-3.01l0,5.09l1.49,0l0,0.96l-3.17,0l0,-1.05c-0.37,0.45,-0.8,0.78,-1.28,0.99c-0.48,0.21,-1.05,0.31,-1.7,0.31c-1.07,0,-1.93,-0.28,-2.56,-0.85c-0.63,-0.57,-0.95,-1.34,-0.95,-2.31c0,-1,0.36,-1.78,1.08,-2.33c0.72,-0.55,1.74,-0.83,3.06,-0.83l2.35,0l0,-0.66c0,-0.73,-0.22,-1.3,-0.67,-1.71c-0.44,-0.4,-1.07,-0.6,-1.88,-0.6c-0.66,0,-1.2,0.15,-1.59,0.45c-0.39,0.3,-0.64,0.75,-0.74,1.35l-0.86,0l0,-1.96c0.58,-0.25,1.15,-0.43,1.7,-0.56c0.55,-0.12,1.08,-0.18,1.61,-0.18c1.34,0,2.36,0.33,3.07,0.99c0.7,0.66,1.05,1.63,1.05,2.9m3.07,5.52l0,-2.26l0.96,0c0.02,0.72,0.25,1.26,0.68,1.62c0.42,0.35,1.06,0.53,1.9,0.53c0.75,0,1.33,-0.14,1.72,-0.42c0.39,-0.28,0.59,-0.69,0.59,-1.23c0,-0.42,-0.14,-0.76,-0.43,-1.03c-0.28,-0.26,-0.9,-0.54,-1.83,-0.84l-1.21,-0.41c-0.83,-0.26,-1.43,-0.6,-1.81,-1c-0.37,-0.4,-0.56,-0.91,-0.56,-1.53c0,-0.88,0.32,-1.58,0.97,-2.09c0.65,-0.5,1.55,-0.75,2.7,-0.75c0.51,0,1.05,0.06,1.61,0.2c0.56,0.13,1.15,0.32,1.75,0.58l0,2.11l-0.96,0c-0.02,-0.62,-0.24,-1.11,-0.65,-1.47c-0.41,-0.35,-0.97,-0.52,-1.68,-0.52c-0.7,0,-1.24,0.12,-1.6,0.37c-0.36,0.24,-0.54,0.62,-0.54,1.12c0,0.4,0.13,0.73,0.41,0.98c0.27,0.24,0.82,0.49,1.64,0.75l1.33,0.41c0.91,0.28,1.58,0.64,1.98,1.07c0.4,0.42,0.6,0.98,0.6,1.65c0,0.91,-0.35,1.64,-1.05,2.16c-0.7,0.52,-1.67,0.78,-2.9,0.78c-0.62,0,-1.23,-0.06,-1.83,-0.2c-0.59,-0.13,-1.19,-0.33,-1.78,-0.6m18.68,-4.13l-7.24,0l0,0.07c0,1.3,0.24,2.29,0.73,2.96c0.49,0.66,1.22,1,2.18,1c0.73,0,1.34,-0.19,1.81,-0.57c0.47,-0.38,0.8,-0.96,0.99,-1.72l1.35,0c-0.26,1.06,-0.76,1.86,-1.48,2.4c-0.72,0.53,-1.66,0.8,-2.84,0.8c-1.41,0,-2.55,-0.46,-3.41,-1.4c-0.86,-0.93,-1.29,-2.17,-1.29,-3.72c0,-1.53,0.42,-2.77,1.26,-3.7c0.84,-0.93,1.95,-1.4,3.33,-1.4c1.46,0,2.59,0.45,3.37,1.35c0.78,0.9,1.19,2.21,1.22,3.93m-1.98,-0.96c-0.03,-1.13,-0.27,-1.98,-0.71,-2.56c-0.44,-0.57,-1.07,-0.86,-1.9,-0.86c-0.77,0,-1.38,0.28,-1.82,0.86c-0.44,0.57,-0.71,1.43,-0.81,2.55l5.25,0" fill="#000000" stroke="none" fill-opacity="1"/>
<path d="m606.1,526.24l0,-2.26l0.96,0c0.02,0.72,0.25,1.26,0.68,1.62c0.42,0.35,1.06,0.53,1.9,0.53c0.75,0,1.33,-0.14,1.72,-0.42c0.39,-0.28,0.59,-0.69,0.59,-1.23c0,-0.42,-0.14,-0.76,-0.43,-1.03c-0.28,-0.26,-0.9,-0.54,-1.83,-0.84l-1.21,-0.41c-0.83,-0.26,-1.43,-0.6,-1.81,-1c-0.37,-0.4,-0.56,-0.91,-0.56,-1.53c0,-0.88,0.32,-1.58,0.97,-2.09c0.65,-0.5,1.55,-0.75,2.7,-0.75c0.51,0,1.05,0.06,1.61,0.2c0.56,0.13,1.15,0.32,1.75,0.58l0,2.11l-0.96,0c-0.02,-0.62,-0.24,-1.11,-0.65,-1.47c-0.41,-0.35,-0.97,-0.52,-1.68,-0.52c-0.7,0,-1.24,0.12,-1.6,0.37c-0.36,0.24,-0.54,0.62,-0.54,1.12c0,0.4,0.13,0.73,0.41,0.98c0.27,0.24,0.82,0.49,1.64,0.75l1.33,0.41c0.91,0.28,1.58,0.64,1.98,1.07c0.4,0.42,0.6,0.98,0.6,1.65c0,0.91,-0.35,1.64,-1.05,2.16c-0.7,0.52,-1.67,0.78,-2.9,0.78c-0.62,0,-1.23,-0.06,-1.83,-0.2c-0.59,-0.13,-1.19,-0.33,-1.78,-0.6m15.16,-9.16l3.14,0l0,8.73l1.58,0l0,0.96l-3.26,0l0,-1.71c-0.31,0.64,-0.71,1.13,-1.2,1.47c-0.49,0.33,-1.06,0.5,-1.71,0.5c-1.07,0,-1.87,-0.3,-2.37,-0.91c-0.5,-0.61,-0.76,-1.57,-0.76,-2.88l0,-5.19l-1.51,0l0,-0.97l3.2,0l0,5.65c0,1.18,0.14,1.99,0.43,2.42c0.28,0.43,0.8,0.65,1.54,0.65c0.77,0,1.37,-0.28,1.78,-0.85c0.4,-0.57,0.61,-1.4,0.61,-2.49l0,-4.41l-1.46,0l0,-0.97m6.47,9.16l0,-2.26l0.96,0c0.02,0.72,0.25,1.26,0.68,1.62c0.42,0.35,1.06,0.53,1.9,0.53c0.75,0,1.33,-0.14,1.72,-0.42c0.39,-0.28,0.59,-0.69,0.59,-1.23c0,-0.42,-0.14,-0.76,-0.43,-1.03c-0.28,-0.26,-0.9,-0.54,-1.83,-0.84l-1.21,-0.41c-0.83,-0.26,-1.43,-0.6,-1.81,-1c-0.37,-0.4,-0.56,-0.91,-0.56,-1.53c0,-0.88,0.32,-1.58,0.97,-2.09c0.65,-0.5,1.55,-0.75,2.7,-0.75c0.51,0,1.05,0.06,1.61,0.2c0.56,0.13,1.15,0.32,1.75,0.58l0,2.11l-0.96,0c-0.02,-0.62,-0.24,-1.11,-0.65,-1.47c-0.41,-0.35,-0.97,-0.52,-1.68,-0.52c-0.7,0,-1.24,0.12,-1.6,0.37c-0.36,0.24,-0.54,0.62,-0.54,1.12c0,0.4,0.13,0.73,0.41,0.98c0.27,0.24,0.82,0.49,1.64,0.75l1.33,0.41c0.91,0.28,1.58,0.64,1.98,1.07c0.4,0.42,0.6,0.98,0.6,1.65c0,0.91,-0.35,1.64,-1.05,2.16c-0.7,0.52,-1.67,0.78,-2.9,0.78c-0.62,0,-1.23,-0.06,-1.83,-0.2c-0.59,-0.13,-1.19,-0.33,-1.78,-0.6m10.56,-8.19l-1.47,0l0,-0.97l1.47,0l0,-3.01l1.69,0l0,3.01l3.15,0l0,0.97l-3.15,0l0,6.16c0,0.82,0.07,1.34,0.23,1.57c0.15,0.23,0.45,0.34,0.87,0.34c0.43,0,0.75,-0.12,0.95,-0.38c0.2,-0.25,0.3,-0.67,0.32,-1.25l1.26,0c-0.04,0.88,-0.28,1.52,-0.72,1.93c-0.43,0.4,-1.08,0.61,-1.97,0.61c-0.96,0,-1.65,-0.21,-2.05,-0.64c-0.4,-0.42,-0.6,-1.15,-0.6,-2.18l0,-6.16m12.93,5.67l0,-2.05l-2.16,0c-0.83,0,-1.45,0.17,-1.86,0.53c-0.4,0.35,-0.61,0.91,-0.61,1.65c0,0.67,0.2,1.21,0.62,1.6c0.41,0.39,0.97,0.59,1.68,0.59c0.7,0,1.26,-0.21,1.69,-0.64c0.42,-0.43,0.64,-0.99,0.64,-1.68m1.67,-3.01l0,5.09l1.49,0l0,0.96l-3.17,0l0,-1.05c-0.37,0.45,-0.8,0.78,-1.28,0.99c-0.48,0.21,-1.05,0.31,-1.7,0.31c-1.07,0,-1.93,-0.28,-2.56,-0.85c-0.63,-0.57,-0.95,-1.34,-0.95,-2.31c0,-1,0.36,-1.78,1.08,-2.33c0.72,-0.55,1.74,-0.83,3.06,-0.83l2.35,0l0,-0.66c0,-0.73,-0.22,-1.3,-0.67,-1.71c-0.44,-0.4,-1.07,-0.6,-1.88,-0.6c-0.66,0,-1.2,0.15,-1.59,0.45c-0.39,0.3,-0.64,0.75,-0.74,1.35l-0.86,0l0,-1.96c0.58,-0.25,1.15,-0.43,1.7,-0.56c0.55,-0.12,1.08,-0.18,1.61,-0.18c1.34,0,2.36,0.33,3.07,0.99c0.7,0.66,1.05,1.63,1.05,2.9m3.84,-6.65c0,-0.28,0.1,-0.52,0.3,-0.73c0.2,-0.2,0.44,-0.31,0.73,-0.31c0.28,0,0.52,0.1,0.72,0.31c0.2,0.2,0.3,0.45,0.3,0.73c0,0.28,-0.1,0.52,-0.3,0.72c-0.2,0.2,-0.44,0.3,-0.73,0.3c-0.28,0,-0.53,-0.1,-0.73,-0.3c-0.2,-0.2,-0.3,-0.44,-0.3,-0.72m2.14,11.75l1.58,0l0,0.96l-4.87,0l0,-0.96l1.6,0l0,-7.76l-1.6,0l0,-0.97l3.28,0l0,8.73m2.78,0.96l0,-0.96l1.51,0l0,-7.76l-1.6,0l0,-0.97l3.28,0l0,1.72c0.31,-0.65,0.71,-1.15,1.21,-1.48c0.49,-0.33,1.07,-0.5,1.73,-0.5c1.07,0,1.85,0.3,2.36,0.92c0.5,0.61,0.75,1.57,0.75,2.87l0,5.2l1.49,0l0,0.96l-4.63,0l0,-0.96l1.45,0l0,-4.67c0,-1.18,-0.14,-2,-0.43,-2.44c-0.29,-0.44,-0.8,-0.66,-1.54,-0.66c-0.77,0,-1.37,0.28,-1.78,0.85c-0.4,0.56,-0.61,1.39,-0.61,2.48l0,4.43l1.46,0l0,0.96l-4.65,0" fill="#000000" stroke="none" fill-opacity="1"/>
<path d="m200.79,525.81l1.6,0l0,0.96l-3.28,0l0,-1.51c-0.32,0.6,-0.74,1.05,-1.25,1.34c-0.5,0.28,-1.13,0.43,-1.88,0.43c-1.19,0,-2.16,-0.47,-2.92,-1.41c-0.75,-0.94,-1.13,-2.18,-1.13,-3.7c0,-1.52,0.37,-2.75,1.13,-3.69c0.75,-0.94,1.73,-1.41,2.93,-1.41c0.74,0,1.37,0.14,1.88,0.43c0.5,0.28,0.92,0.73,1.25,1.34l0,-5.04l-1.58,0l0,-0.96l3.26,0l0,13.24m-1.67,-3.4l0,-0.95c0,-1.16,-0.22,-2.05,-0.67,-2.66c-0.44,-0.61,-1.09,-0.92,-1.94,-0.92c-0.86,0,-1.51,0.34,-1.95,1.02c-0.44,0.68,-0.66,1.69,-0.66,3.03c0,1.33,0.22,2.35,0.66,3.04c0.44,0.68,1.09,1.03,1.95,1.03c0.85,0,1.5,-0.3,1.94,-0.91c0.44,-0.61,0.67,-1.5,0.67,-2.67m13.97,-0.3l-7.24,0l0,0.07c0,1.3,0.24,2.29,0.73,2.96c0.49,0.66,1.22,1,2.18,1c0.73,0,1.34,-0.19,1.81,-0.57c0.47,-0.38,0.8,-0.96,0.99,-1.72l1.35,0c-0.26,1.06,-0.76,1.86,-1.48,2.4c-0.72,0.53,-1.66,0.8,-2.84,0.8c-1.41,0,-2.55,-0.46,-3.41,-1.4c-0.86,-0.93,-1.29,-2.17,-1.29,-3.72c0,-1.53,0.42,-2.77,1.26,-3.7c0.84,-0.93,1.95,-1.4,3.33,-1.4c1.46,0,2.59,0.45,3.37,1.35c0.78,0.9,1.19,2.21,1.22,3.93m-1.98,-0.96c-0.03,-1.13,-0.27,-1.98,-0.71,-2.56c-0.44,-0.57,-1.07,-0.86,-1.9,-0.86c-0.77,0,-1.38,0.28,-1.82,0.86c-0.44,0.57,-0.71,1.43,-0.81,2.55l5.25,0m12.52,2.72c-0.23,1.03,-0.69,1.82,-1.36,2.36c-0.67,0.54,-1.54,0.81,-2.62,0.81c-1.41,0,-2.54,-0.46,-3.4,-1.4c-0.85,-0.93,-1.28,-2.17,-1.28,-3.72c0,-1.55,0.42,-2.79,1.28,-3.72c0.85,-0.92,1.99,-1.39,3.4,-1.39c0.61,0,1.22,0.07,1.83,0.21c0.6,0.14,1.22,0.36,1.83,0.65l0,2.48l-0.97,0c-0.12,-0.85,-0.4,-1.47,-0.83,-1.86c-0.42,-0.38,-1.04,-0.58,-1.84,-0.58c-0.9,0,-1.59,0.35,-2.05,1.05c-0.46,0.7,-0.69,1.75,-0.69,3.15c0,1.4,0.22,2.45,0.68,3.15c0.45,0.7,1.14,1.05,2.05,1.05c0.72,0,1.3,-0.18,1.73,-0.56c0.43,-0.37,0.72,-0.94,0.88,-1.7l1.35,0m8.3,-0.13l0,-2.05l-2.16,0c-0.83,0,-1.45,0.17,-1.86,0.53c-0.4,0.35,-0.61,0.91,-0.61,1.65c0,0.67,0.2,1.21,0.62,1.6c0.41,0.39,0.97,0.59,1.68,0.59c0.7,0,1.26,-0.21,1.69,-0.64c0.42,-0.43,0.64,-0.99,0.64,-1.68m1.67,-3.01l0,5.09l1.49,0l0,0.96l-3.17,0l0,-1.05c-0.37,0.45,-0.8,0.78,-1.28,0.99c-0.48,0.21,-1.05,0.31,-1.7,0.31c-1.07,0,-1.93,-0.28,-2.56,-0.85c-0.63,-0.57,-0.95,-1.34,-0.95,-2.31c0,-1,0.36,-1.78,1.08,-2.33c0.72,-0.55,1.74,-0.83,3.06,-0.83l2.35,0l0,-0.66c0,-0.73,-0.22,-1.3,-0.67,-1.71c-0.44,-0.4,-1.07,-0.6,-1.88,-0.6c-0.66,0,-1.2,0.15,-1.59,0.45c-0.39,0.3,-0.64,0.75,-0.74,1.35l-0.86,0l0,-1.96c0.58,-0.25,1.15,-0.43,1.7,-0.56c0.55,-0.12,1.08,-0.18,1.61,-0.18c1.34,0,2.36,0.33,3.07,0.99c0.7,0.66,1.05,1.63,1.05,2.9m6.06,7.84l0.63,-1.61l-3.62,-8.89l-1.1,0l0,-0.97l4.46,0l0,0.97l-1.55,0l2.72,6.67l2.73,-6.67l-1.45,0l0,-0.97l3.64,0l0,0.97l-1.08,0l-4.44,10.92c-0.3,0.75,-0.64,1.26,-1.01,1.54c-0.37,0.27,-0.89,0.41,-1.57,0.41c-0.28,0,-0.58,-0.02,-0.88,-0.07c-0.3,-0.04,-0.6,-0.11,-0.9,-0.2l0,-1.85l0.85,0c0.03,0.41,0.14,0.71,0.31,0.89c0.17,0.17,0.44,0.26,0.8,0.26c0.33,0,0.6,-0.09,0.8,-0.27c0.2,-0.18,0.41,-0.55,0.64,-1.11" fill="#000000" stroke="none" fill-opacity="1"/>
<path d="m81.59,523.73l0,-2.05l-2.16,0c-0.83,0,-1.45,0.17,-1.86,0.53c-0.4,0.35,-0.61,0.91,-0.61,1.65c0,0.67,0.2,1.21,0.62,1.6c0.41,0.39,0.97,0.59,1.68,0.59c0.7,0,1.26,-0.21,1.69,-0.64c0.42,-0.43,0.64,-0.99,0.64,-1.68m1.67,-3.01l0,5.09l1.49,0l0,0.96l-3.17,0l0,-1.05c-0.37,0.45,-0.8,0.78,-1.28,0.99c-0.48,0.21,-1.05,0.31,-1.7,0.31c-1.07,0,-1.93,-0.28,-2.56,-0.85c-0.63,-0.57,-0.95,-1.34,-0.95,-2.31c0,-1,0.36,-1.78,1.08,-2.33c0.72,-0.55,1.74,-0.83,3.06,-0.83l2.35,0l0,-0.66c0,-0.73,-0.22,-1.3,-0.67,-1.71c-0.44,-0.4,-1.07,-0.6,-1.88,-0.6c-0.66,0,-1.2,0.15,-1.59,0.45c-0.39,0.3,-0.64,0.75,-0.74,1.35l-0.86,0l0,-1.96c0.58,-0.25,1.15,-0.43,1.7,-0.56c0.55,-0.12,1.08,-0.18,1.61,-0.18c1.34,0,2.36,0.33,3.07,0.99c0.7,0.66,1.05,1.63,1.05,2.9m4.04,-2.66l-1.47,0l0,-0.97l1.47,0l0,-3.01l1.69,0l0,3.01l3.15,0l0,0.97l-3.15,0l0,6.16c0,0.82,0.07,1.34,0.23,1.57c0.15,0.23,0.45,0.34,0.87,0.34c0.43,0,0.75,-0.12,0.95,-0.38c0.2,-0.25,0.3,-0.67,0.32,-1.25l1.26,0c-0.04,0.88,-0.28,1.52,-0.72,1.93c-0.43,0.4,-1.08,0.61,-1.97,0.61c-0.96,0,-1.65,-0.21,-2.05,-0.64c-0.4,-0.42,-0.6,-1.15,-0.6,-2.18l0,-6.16m7.51,0l-1.47,0l0,-0.97l1.47,0l0,-3.01l1.69,0l0,3.01l3.15,0l0,0.97l-3.15,0l0,6.16c0,0.82,0.07,1.34,0.23,1.57c0.15,0.23,0.45,0.34,0.87,0.34c0.43,0,0.75,-0.12,0.95,-0.38c0.2,-0.25,0.3,-0.67,0.32,-1.25l1.26,0c-0.04,0.88,-0.28,1.52,-0.72,1.93c-0.43,0.4,-1.08,0.61,-1.97,0.61c-0.96,0,-1.65,-0.21,-2.05,-0.64c-0.4,-0.42,-0.6,-1.15,-0.6,-2.18l0,-6.16m12.93,5.67l0,-2.05l-2.16,0c-0.83,0,-1.45,0.17,-1.86,0.53c-0.4,0.35,-0.61,0.91,-0.61,1.65c0,0.67,0.2,1.21,0.62,1.6c0.41,0.39,0.97,0.59,1.68,0.59c0.7,0,1.26,-0.21,1.69,-0.64c0.42,-0.43,0.64,-0.99,0.64,-1.68m1.67,-3.01l0,5.09l1.49,0l0,0.96l-3.17,0l0,-1.05c-0.37,0.45,-0.8,0.78,-1.28,0.99c-0.48,0.21,-1.05,0.31,-1.7,0.31c-1.07,0,-1.93,-0.28,-2.56,-0.85c-0.63,-0.57,-0.95,-1.34,-0.95,-2.31c0,-1,0.36,-1.78,1.08,-2.33c0.72,-0.55,1.74,-0.83,3.06,-0.83l2.35,0l0,-0.66c0,-0.73,-0.22,-1.3,-0.67,-1.71c-0.44,-0.4,-1.07,-0.6,-1.88,-0.6c-0.66,0,-1.2,0.15,-1.59,0.45c-0.39,0.3,-0.64,0.75,-0.74,1.35l-0.86,0l0,-1.96c0.58,-0.25,1.15,-0.43,1.7,-0.56c0.55,-0.12,1.08,-0.18,1.61,-0.18c1.34,0,2.36,0.33,3.07,0.99c0.7,0.66,1.05,1.63,1.05,2.9m11.64,3.15c-0.23,1.03,-0.69,1.82,-1.36,2.36c-0.67,0.54,-1.54,0.81,-2.62,0.81c-1.41,0,-2.54,-0.46,-3.4,-1.4c-0.85,-0.93,-1.28,-2.17,-1.28,-3.72c0,-1.55,0.42,-2.79,1.28,-3.72c0.85,-0.92,1.99,-1.39,3.4,-1.39c0.61,0,1.22,0.07,1.83,0.21c0.6,0.14,1.22,0.36,1.83,0.65l0,2.48l-0.97,0c-0.12,-0.85,-0.4,-1.47,-0.83,-1.86c-0.42,-0.38,-1.04,-0.58,-1.84,-0.58c-0.9,0,-1.59,0.35,-2.05,1.05c-0.46,0.7,-0.69,1.75,-0.69,3.15c0,1.4,0.22,2.45,0.68,3.15c0.45,0.7,1.14,1.05,2.05,1.05c0.72,0,1.3,-0.18,1.73,-0.56c0.43,-0.37,0.72,-0.94,0.88,-1.7l1.35,0m6.2,2.91l-4.71,0l0,-0.96l1.51,0l0,-12.27l-1.61,0l0,-0.96l3.29,0l0,9.25l4.09,-3.77l-1.39,0l0,-0.97l4.39,0l0,0.97l-1.66,0l-2.88,2.66l3.68,5.09l1.39,0l0,0.96l-4.78,0l0,-0.96l1.38,0l-2.9,-3.99l-1.32,1.23l0,2.75l1.51,0l0,0.96" fill="#000000" stroke="none" fill-opacity="1"/>
</g>
<g fill="#000000" stroke-dasharray="5.33,2.66" stroke-linecap="butt" stroke-width="0.66">
<g transform="matrix(0 -1 1 0 972.87 534.68)">
<path d="M0,0l527.13,0"/>
</g>
<g transform="matrix(0 -1 1 0 274.25 534.68)">
<path d="M0,0l527.13,0"/>
</g>
<g transform="matrix(0 -1 1 0 160.9 534.68)">
<path d="M0,0l527.13,0"/>
</g>
</g>
</g>
<g clip-path="url(#c1)">
<g fill="none" stroke-width="0.66">
<polyline fill="none" points="45.24,534.68 46.37,529.52 47.5,524.35 48.63,519.18 49.76,514.01 50.89,508.85 52.02,503.68 53.15,498.51 54.28,493.34 55.41,488.17 56.54,483.01 57.67,477.84 58.8,472.67 59.93,467.5 61.07,462.33 62.2,457.17 63.33,452 64.46,446.83 65.59,441.66 66.72,436.49 67.85,431.33 68.98,426.16 70.11,420.99 71.24,415.82 72.37,410.65 73.5,405.49 74.63,400.32 75.76,395.15 76.89,389.98 78.02,384.81 79.16,379.65 80.29,374.48 81.42,369.31 82.55,364.14 83.68,358.97 84.81,353.81 85.94,348.64 87.07,343.47 88.2,338.3 89.33,333.13 90.46,327.97 91.59,322.8 92.72,317.63 93.85,312.46 94.98,307.29 96.11,302.13 97.25,296.96 98.38,291.79 99.51,286.62 100.64,281.46 101.77,276.29 102.9,271.12 104.03,265.95 105.16,260.78 106.29,255.62 107.42,250.45 108.55,245.28 109.68,240.11 110.81,234.94 111.94,229.78 113.07,224.61 114.21,219.44 115.34,214.27 116.47,209.1 117.6,203.94 118.73,198.77 119.86,193.6 120.99,188.43 122.12,183.26 123.25,178.1 124.38,172.93 125.51,167.76 126.64,162.59 127.77,157.42 128.9,152.26 130.03,147.09 131.16,141.92 132.3,136.75 133.43,131.58 134.56,126.42 135.69,121.25 136.82,116.08 137.95,110.91 139.08,105.75 140.21,100.58 141.34,95.41 142.47,90.24 143.6,85.07 144.73,79.91 145.86,74.74 146.99,69.57 148.12,64.4 149.26,59.23 150.39,54.07 151.52,48.9 152.65,43.73 153.78,38.56 154.91,33.39 156.04,28.23 157.17,23.06 158.3,17.89 159.43,12.72 160.56,7.55 161.69,8.86 162.82,10.16 163.95,11.47 165.08,12.77 166.21,14.08 167.35,15.38 168.48,16.69 169.61,17.99 170.74,19.3 171.87,20.6 173,21.91 174.13,23.21 175.26,24.52 176.39,25.82 177.52,27.13 178.65,28.43 179.78,29.74 180.91,31.04 182.04,32.35 183.17,33.65 184.31,34.95 185.44,36.26 186.57,37.56 187.7,38.87 188.83,40.17 189.96,41.48 191.09,42.78 192.22,44.09 193.35,45.39 194.48,46.7 195.61,48 196.74,49.31 197.87,50.61 199,51.92 200.13,53.22 201.26,54.53 202.4,55.83 203.53,57.14 204.66,58.44 205.79,59.75 206.92,61.05 208.05,62.35 209.18,63.66 210.31,64.96 211.44,66.27 212.57,67.57 213.7,68.88 214.83,70.18 215.96,71.49 217.09,72.79 218.22,74.1 219.36,75.4 220.49,76.71 221.62,78.01 222.75,79.32 223.88,80.62 225.01,81.93 226.14,83.23 227.27,84.54 228.4,85.84 229.53,87.15 230.66,88.45 231.79,89.76 232.92,91.06 234.05,92.36 235.18,93.67 236.31,94.97 237.45,96.28 238.58,97.58 239.71,98.89 240.84,100.19 241.97,101.5 243.1,102.8 244.23,104.11 245.36,105.41 246.49,106.72 247.62,108.02 248.75,109.33 249.88,110.63 251.01,111.94 252.14,113.24 253.27,114.55 254.41,115.85 255.54,117.16 256.67,118.46 257.8,119.76 258.93,121.07 260.06,122.37 261.19,123.68 262.32,124.98 263.45,126.29 264.58,127.59 265.71,128.9 266.84,130.2 267.97,131.51 269.1,132.81 270.23,134.12 271.36,135.42 272.5,136.73 273.63,138.03 274.76,139.34 275.89,139.34 277.02,139.34 278.15,139.34 279.28,139.34 280.41,139.34 281.54,139.34 282.67,139.34 283.8,139.34 284.93,139.34 286.06,139.34 287.19,139.34 288.32,139.34 289.46,139.34 290.59,139.34 291.72,139.34 292.85,139.34 293.98,139.34 295.11,139.34 296.24,139.34 297.37,139.34 298.5,139.34 299.63,139.34 300.76,139.34 301.89,139.34 303.02,139.34 304.15,139.34 305.28,139.34 306.41,139.34 307.55,139.34 308.68,139.34 309.81,139.34 310.94,139.34 312.07,139.34 313.2,139.34 314.33,139.34 315.46,139.34 316.59,139.34 317.72,139.34 318.85,139.34 319.98,139.34 321.11,139.34 322.24,139.34 323.37,139.34 324.51,139.34 325.64,139.34 326.77,139.34 327.9,139.34 329.03,139.34 330.16,139.34 331.29,139.34 332.42,139.34 333.55,139.34 334.68,139.34 335.81,139.34 336.94,139.34 338.07,139.34 339.2,139.34 340.33,139.34 341.46,139.34 342.6,139.34 343.73,139.34 344.86,139.34 345.99,139.34 347.12,139.34 348.25,139.34 349.38,139.34 350.51,139.34 351.64,139.34 352.77,139.34 353.9,139.34 355.03,139.34 356.16,139.34 357.29,139.34 358.42,139.34 359.56,139.34 360.69,139.34 361.82,139.34 362.95,139.34 364.08,139.34 365.21,139.34 366.34,139.34 367.47,139.34 368.6,139.34 369.73,139.34 370.86,139.34 371.99,139.34 373.12,139.34 374.25,139.34 375.38,139.34 376.51,139.34 377.65,139.34 378.78,139.34 379.91,139.34 381.04,139.34 382.17,139.34 383.3,139.34 384.43,139.34 385.56,139.34 386.69,139.34 387.82,139.34 388.95,139.34 390.08,139.34 391.21,139.34 392.34,139.34 393.47,139.34 394.6,139.34 395.74,139.34 396.87,139.34 398,139.34 399.13,139.34 400.26,139.34 401.39,139.34 402.52,139.34 403.65,139.34 404.78,139.34 405.91,139.34 407.04,139.34 408.17,139.34 409.3,139.34 410.43,139.34 411.56,139.34 412.7,139.34 413.83,139.34 414.96,139.34 416.09,139.34 417.22,139.34 418.35,139.34 419.48,139.34 420.61,139.34 421.74,139.34 422.87,139.34 424,139.34 425.13,139.34 426.26,139.34 427.39,139.34 428.52,139.34 429.65,139.34 430.79,139.34 431.92,139.34 433.05,139.34 434.18,139.34 435.31,139.34 436.44,139.34 437.57,139.34 438.7,139.34 439.83,139.34 440.96,139.34 442.09,139.34 443.22,139.34 444.35,139.34 445.48,139.34 446.61,139.34 447.75,139.34 448.88,139.34 450.01,139.34 451.14,139.34 452.27,139.34 453.4,139.34 454.53,139.34 455.66,139.34 456.79,139.34 457.92,139.34 459.05,139.34 460.18,139.34 461.31,139.34 462.44,139.34 463.57,139.34 464.7,139.34 465.84,139.34 466.97,139.34 468.1,139.34 469.23,139.34 470.36,139.34 471.49,139.34 472.62,139.34 473.75,139.34 474.88,139.34 476.01,139.34 477.14,139.34 478.27,139.34 479.4,139.34 480.53,139.34 481.66,139.34 482.8,139.34 483.93,139.34 485.06,139.34 486.19,139.34 487.32,139.34 488.45,139.34 489.58,139.34 490.71,139.34 491.84,139.34 492.97,139.34 494.1,139.34 495.23,139.34 496.36,139.34 497.49,139.34 498.62,139.34 499.75,139.34 500.89,139.34 502.02,139.34 503.15,139.34 504.28,139.34 505.41,139.34 506.54,139.34 507.67,139.34 508.8,139.34 509.93,139.34 511.06,139.34 512.19,139.34 513.32,139.34 514.45,139.34 515.58,139.34 516.71,139.34 517.85,139.34 518.98,139.34 520.11,139.34 521.24,139.34 522.37,139.34 523.5,139.34 524.63,139.34 525.76,139.34 526.89,139.34 528.02,139.34 529.15,139.34 530.28,139.34 531.41,139.34 532.54,139.34 533.67,139.34 534.8,139.34 535.94,139.34 537.07,139.34 538.2,139.34 539.33,139.34 540.46,139.34 541.59,139.34 542.72,139.34 543.85,139.34 544.98,139.34 546.11,139.34 547.24,139.34 548.37,139.34 549.5,139.34 550.63,139.34 551.76,139.34 552.9,139.34 554.03,139.34 555.16,139.34 556.29,139.34 557.42,139.34 558.55,139.34 559.68,139.34 560.81,139.34 561.94,139.34 563.07,139.34 564.2,139.34 565.33,139.34 566.46,139.34 567.59,139.34 568.72,139.34 569.85,139.34 570.99,139.34 572.12,139.34 573.25,139.34 574.38,139.34 575.51,139.34 576.64,139.34 577.77,139.34 578.9,139.34 580.03,139.34 581.16,139.34 582.29,139.34 583.42,139.34 584.55,139.34 585.68,139.34 586.81,139.34 587.95,139.34 589.08,139.34 590.21,139.34 591.34,139.34 592.47,139.34 593.6,139.34 594.73,139.34 595.86,139.34 596.99,139.34 598.12,139.34 599.25,139.34 600.38,139.34 601.51,139.34 602.64,139.34 603.77,139.34 604.9,139.34 606.04,139.34 607.17,139.34 608.3,139.34 609.43,139.34 610.56,139.34 611.69,139.34 612.82,139.34 613.95,139.34 615.08,139.34 616.21,139.34 617.34,139.34 618.47,139.34 619.6,139.34 620.73,139.34 621.86,139.34 623,139.34 624.13,139.34 625.26,139.34 626.39,139.34 627.52,139.34 628.65,139.34 629.78,139.34 630.91,139.34 632.04,139.34 633.17,139.34 634.3,139.34 635.43,139.34 636.56,139.34 637.69,139.34 638.82,139.34 639.95,139.34 641.09,139.34 642.22,139.34 643.35,139.34 644.48,139.34 645.61,139.34 646.74,139.34 647.87,139.34 649,139.34 650.13,139.34 651.26,139.34 652.39,139.34 653.52,139.34 654.65,139.34 655.78,139.34 656.91,139.34 658.05,139.34 659.18,139.34 660.31,139.34 661.44,139.34 662.57,139.34 663.7,139.34 664.83,139.34 665.96,139.34 667.09,139.34 668.22,139.34 669.35,139.34 670.48,139.34 671.61,139.34 672.74,139.34 673.87,139.34 675,139.34 676.14,139.34 677.27,139.34 678.4,139.34 679.53,139.34 680.66,139.34 681.79,139.34 682.92,139.34 684.05,139.34 685.18,139.34 686.31,139.34 687.44,139.34 688.57,139.34 689.7,139.34 690.83,139.34 691.96,139.34 693.1,139.34 694.23,139.34 695.36,139.34 696.49,139.34 697.62,139.34 698.75,139.34 699.88,139.34 701.01,139.34 702.14,139.34 703.27,139.34 704.4,139.34 705.53,139.34 706.66,139.34 707.79,139.34 708.92,139.34 710.05,139.34 711.19,139.34 712.32,139.34 713.45,139.34 714.58,139.34 715.71,139.34 716.84,139.34 717.97,139.34 719.1,139.34 720.23,139.34 721.36,139.34 722.49,139.34 723.62,139.34 724.75,139.34 725.88,139.34 727.01,139.34 728.14,139.34 729.28,139.34 730.41,139.34 731.54,139.34 732.67,139.34 733.8,139.34 734.93,139.34 736.06,139.34 737.19,139.34 738.32,139.34 739.45,139.34 740.58,139.34 741.71,139.34 742.84,139.34 743.97,139.34 745.1,139.34 746.24,139.34 747.37,139.34 748.5,139.34 749.63,139.34 750.76,139.34 751.89,139.34 753.02,139.34 754.15,139.34 755.28,139.34 756.41,139.34 757.54,139.34 758.67,139.34 759.8,139.34 760.93,139.34 762.06,139.34 763.19,139.34 764.33,139.34 765.46,139.34 766.59,139.34 767.72,139.34 768.85,139.34 769.98,139.34 771.11,139.34 772.24,139.34 773.37,139.34 774.5,139.34 775.63,139.34 776.76,139.34 777.89,139.34 779.02,139.34 780.15,139.34 781.29,139.34 782.42,139.34 783.55,139.34 784.68,139.34 785.81,139.34 786.94,139.34 788.07,139.34 789.2,139.34 790.33,139.34 791.46,139.34 792.59,139.34 793.72,139.34 794.85,139.34 795.98,139.34 797.11,139.34 798.24,139.34 799.38,139.34 800.51,139.34 801.64,139.34 802.77,139.34 803.9,139.34 805.03,139.34 806.16,139.34 807.29,139.34 808.42,139.34 809.55,139.34 810.68,139.34 811.81,139.34 812.94,139.34 814.07,139.34 815.2,139.34 816.34,139.34 817.47,139.34 818.6,139.34 819.73,139.34 820.86,139.34 821.99,139.34 823.12,139.34 824.25,139.34 825.38,139.34 826.51,139.34 827.64,139.34 828.77,139.34 829.9,139.34 831.03,139.34 832.16,139.34 833.29,139.34 834.43,139.34 835.56,139.34 836.69,139.34 837.82,139.34 838.95,139.34 840.08,139.34 841.21,139.34 842.34,139.34 843.47,139.34 844.6,139.34 845.73,139.34 846.86,139.34 847.99,139.34 849.12,139.34 850.25,139.34 851.39,139.34 852.52,139.34 853.65,139.34 854.78,139.34 855.91,139.34 857.04,139.34 858.17,139.34 859.3,139.34 860.43,139.34 861.56,139.34 862.69,139.34 863.82,139.34 864.95,139.34 866.08,139.34 867.21,139.34 868.34,139.34 869.48,139.34 870.61,139.34 871.74,139.34 872.87,139.34 874,139.34 875.13,139.34 876.26,139.34 877.39,139.34 878.52,139.34 879.65,139.34 880.78,139.34 881.91,139.34 883.04,139.34 884.17,139.34 885.3,139.34 886.44,139.34 887.57,139.34 888.7,139.34 889.83,139.34 890.96,139.34 892.09,139.34 893.22,139.34 894.35,139.34 895.48,139.34 896.61,139.34 897.74,139.34 898.87,139.34 900,139.34 901.13,139.34 902.26,139.34 903.39,139.34 904.53,139.34 905.66,139.34 906.79,139.34 907.92,139.34 909.05,139.34 910.18,139.34 911.31,139.34 912.44,139.34 913.57,139.34 914.7,139.34 915.83,139.34 916.96,139.34 918.09,139.34 919.22,139.34 920.35,139.34 921.49,139.34 922.62,139.34 923.75,139.34 924.88,139.34 926.01,139.34 927.14,139.34 928.27,139.34 929.4,139.34 930.53,139.34 931.66,139.34 932.79,139.34 933.92,139.34 935.05,139.34 936.18,139.34 937.31,139.34 938.44,139.34 939.58,139.34 940.71,139.34 941.84,139.34 942.97,139.34 944.1,139.34 945.23,139.34 946.36,139.34 947.49,139.34 948.62,139.34 949.75,139.34 950.88,139.34 952.01,139.34 953.14,139.34 954.27,139.34 955.4,139.34 956.54,139.34 957.67,139.34 958.8,139.34 959.93,139.34 961.06,139.34 962.19,139.34 963.32,139.34 964.45,139.34 965.58,139.34 966.71,139.34 967.84,139.34 968.97,139.34 970.1,139.34 971.23,139.34 972.36,139.34 973.49,141.27 974.63,143.21 975.76,145.15 976.89,147.09 978.02,149.03 979.15,150.96 980.28,152.9 981.41,154.84 982.54,156.78 983.67,158.72 984.8,160.65 985.93,162.59 987.06,164.53 988.19,166.47 989.32,168.41 990.45,170.34 991.59,172.28 992.72,174.22 993.85,176.16 994.98,178.1 996.11,180.03 997.24,181.97 998.37,183.91 999.5,185.85 1000.63,187.79 1001.76,189.72 1002.89,191.66 1004.02,193.6 1005.15,195.54 1006.28,197.48 1007.41,199.41 1008.54,201.35 1009.68,203.29 1010.81,205.23 1011.94,207.17 1013.07,209.1 1014.2,211.04 1015.33,212.98 1016.46,214.92 1017.59,216.86 1018.72,218.79 1019.85,220.73 1020.98,222.67 1022.11,224.61 1023.24,226.55 1024.37,228.48 1025.5,230.42 1026.63,232.36 1027.77,234.3 1028.9,236.24 1030.03,238.17 1031.16,240.11 1032.29,242.05 1033.42,243.99 1034.55,245.93 1035.68,247.86 1036.81,249.8 1037.94,251.74 1039.07,253.68 1040.2,255.62 1041.33,257.55 1042.46,259.49 1043.59,261.43 1044.73,263.37 1045.86,265.31 1046.99,267.24 1048.12,269.18 1049.25,271.12 1050.38,273.06 1051.51,275 1052.64,276.93 1053.77,278.87 1054.9,280.81 1056.03,282.75 1057.16,284.69 1058.29,286.62 1059.42,288.56 1060.55,290.5 1061.68,292.44 1062.82,294.38 1063.95,296.31 1065.08,298.25 1066.21,300.19 1067.34,302.13 1068.47,304.07 1069.6,306 1070.73,307.94 1071.86,309.88 1072.99,311.82 1074.12,313.75 1075.25,315.69 1076.38,317.63 1077.51,319.57 1078.64,321.51 1079.78,323.45 1080.91,325.38 1082.04,327.32 1083.17,329.26 1084.3,331.2 1085.43,333.13 1086.56,335.07 1087.69,337.01 1088.82,338.95 1089.95,340.89 1091.08,342.82 1092.21,344.76 1093.34,346.7 1094.47,348.64 1095.6,350.58 1096.73,352.51 1097.87,354.45 1099,356.39 1100.13,358.33 1101.26,360.27 1102.39,362.2 1103.52,364.14 1104.65,366.08 1105.78,368.02 1106.91,369.96 1108.04,371.89 1109.17,373.83 1110.3,375.77 1111.43,377.71 1112.56,379.65 1113.69,381.58 1114.83,383.52 1115.96,385.46 1117.09,387.4 1118.22,389.34 1119.35,391.27 1120.48,393.21 1121.61,395.15 1122.74,397.09 1123.87,399.03 1125,400.96 1126.13,402.9 1127.26,404.84 1128.39,406.78 1129.52,408.72 1130.65,410.65 1131.78,412.59 1132.92,414.53 1134.05,416.47 1135.18,418.41 1136.31,420.34 1137.44,422.28 1138.57,424.22 1139.7,426.16 1140.83,428.1 1141.96,430.03 1143.09,431.97 1144.22,433.91 1145.35,435.85 1146.48,437.79 1147.61,439.72 1148.74,441.66 1149.88,443.6 1151.01,445.54 1152.14,447.48 1153.27,449.41 1154.4,451.35 1155.53,453.29 1156.66,455.23 1157.79,457.17 1158.92,459.1 1160.05,461.04 1161.18,462.98 1162.31,464.92 1163.44,466.86 1164.57,468.79 1165.7,470.73 1166.83,472.67 1167.97,474.61 1169.1,476.55 1170.23,478.48 1171.36,480.42 1172.49,482.36 1173.62,484.3 1174.75,486.24 1175.88,488.17 1177.01,490.11 1178.14,492.05 1179.27,493.99 1180.4,495.93 1181.53,497.86 1182.66,499.8 1183.79,501.74 1184.93,503.68 1186.06,505.62 1187.19,507.55 1188.32,509.49 1189.45,511.43 1190.58,513.37 1191.71,515.31 1192.84,517.24 1193.97,519.18 1195.1,521.12 1196.23,523.06 1197.36,524.99 1198.49,526.93 1199.62,528.87 1200.75,534.68 1201.88,532.75"/>
</g>
<g fill="#000000" stroke-linejoin="miter" stroke-width="0.66">
<g transform="translate(45.24,534.68)">
<path d="m0.33,0c0,0.18,-0.14,0.33,-0.33,0.33c-0.18,0,-0.33,-0.14,-0.33,-0.33c0,-0.18,0.14,-0.33,0.33,-0.33c0.18,0,0.33,0.14,0.33,0.33" id="p0"/>
</g>
<use xlink:href="#p0" x="46.37" y="529.52"/>
<use xlink:href="#p0" x="47.5" y="524.35"/>
<use xlink:href="#p0" x="48.63" y="519.18"/>
<use xlink:href="#p0" x="49.76" y="514.01"/>
<use xlink:href="#p0" x="50.89" y="508.85"/>
<use xlink:href="#p0" x="52.02" y="503.68"/>
<use xlink:href="#p0" x="53.15" y="498.51"/>
<use xlink:href="#p0" x="54.28" y="493.34"/>
<use xlink:href="#p0" x="55.41" y="488.17"/>
<use xlink:href="#p0" x="56.54" y="483.01"/>
<use xlink:href="#p0" x="57.67" y="477.84"/>
<use xlink:href="#p0" x="58.8" y="472.67"/>
<use xlink:href="#p0" x="59.93" y="467.5"/>
<use xlink:href="#p0" x="61.07" y="462.33"/>
<use xlink:href="#p0" x="62.2" y="457.17"/>
<use xlink:href="#p0" x="63.33" y="452"/>
<use xlink:href="#p0" x="64.46" y="446.83"/>
<use xlink:href="#p0" x="65.59" y="441.66"/>
<use xlink:href="#p0" x="66.72" y="436.49"/>
<use xlink:href="#p0" x="67.85" y="431.33"/>
<use xlink:href="#p0" x="68.98" y="426.16"/>
<use xlink:href="#p0" x="70.11" y="420.99"/>
<use xlink:href="#p0" x="71.24" y="415.82"/>
<use xlink:href="#p0" x="72.37" y="410.65"/>
<use xlink:href="#p0" x="73.5" y="405.49"/>
<use xlink:href="#p0" x="74.63" y="400.32"/>
<use xlink:href="#p0" x="75.76" y="395.15"/>
<use xlink:href="#p0" x="76.89" y="389.98"/>
<use xlink:href="#p0" x="78.02" y="384.81"/>
<use xlink:href="#p0" x="79.16" y="379.65"/>
<use xlink:href="#p0" x="80.29" y="374.48"/>
<use xlink:href="#p0" x="81.42" y="369.31"/>
<use xlink:href="#p0" x="82.55" y="364.14"/>
<use xlink:href="#p0" x="83.68" y="358.97"/>
<use xlink:href="#p0" x="84.81" y="353.81"/>
<use xlink:href="#p0" x="85.94" y="348.64"/>
<use xlink:href="#p0" x="87.07" y="343.47"/>
<use xlink:href="#p0" x="88.2" y="338.3"/>
<use xlink:href="#p0" x="89.33" y="333.13"/>
<use xlink:href="#p0" x="90.46" y="327.97"/>
<use xlink:href="#p0" x="91.59" y="322.8"/>
<use xlink:href="#p0" x="92.72" y="317.63"/>
<use xlink:href="#p0" x="93.85" y="312.46"/>
<use xlink:href="#p0" x="94.98" y="307.29"/>
<use xlink:href="#p0" x="96.11" y="302.13"/>
<use xlink:href="#p0" x="97.25" y="296.96"/>
<use xlink:href="#p0" x="98.38" y="291.79"/>
<use xlink:href="#p0" x="99.51" y="286.62"/>
<use xlink:href="#p0" x="100.64" y="281.46"/>
<use xlink:href="#p0" x="101.77" y="276.29"/>
<use xlink:href="#p0" x="102.9" y="271.12"/>
<use xlink:href="#p0" x="104.03" y="265.95"/>
<use xlink:href="#p0" x="105.16" y="260.78"/>
<use xlink:href="#p0" x="106.29" y="255.62"/>
<use xlink:href="#p0" x="107.42" y="250.45"/>
<use xlink:href="#p0" x="108.55" y="245.28"/>
<use xlink:href="#p0" x="109.68" y="240.11"/>
<use xlink:href="#p0" x="110.81" y="234.94"/>
<use xlink:href="#p0" x="111.94" y="229.78"/>
<use xlink:href="#p0" x="113.07" y="224.61"/>
<use xlink:href="#p0" x="114.21" y="219.44"/>
<use xlink:href="#p0" x="115.34" y="214.27"/>
<use xlink:href="#p0" x="116.47" y="209.1"/>
<use xlink:href="#p0" x="117.6" y="203.94"/>
<use xlink:href="#p0" x="118.73" y="198.77"/>
<use xlink:href="#p0" x="119.86" y="193.6"/>
<use xlink:href="#p0" x="120.99" y="188.43"/>
<use xlink:href="#p0" x="122.12" y="183.26"/>
<use xlink:href="#p0" x="123.25" y="178.1"/>
<use xlink:href="#p0" x="124.38" y="172.93"/>
<use xlink:href="#p0" x="125.51" y="167.76"/>
<use xlink:href="#p0" x="126.64" y="162.59"/>
<use xlink:href="#p0" x="127.77" y="157.42"/>
<use xlink:href="#p0" x="128.9" y="152.26"/>
<use xlink:href="#p0" x="130.03" y="147.09"/>
<use xlink:href="#p0" x="131.16" y="141.92"/>
<use xlink:href="#p0" x="132.3" y="136.75"/>
<use xlink:href="#p0" x="133.43" y="131.58"/>
<use xlink:href="#p0" x="134.56" y="126.42"/>
<use xlink:href="#p0" x="135.69" y="121.25"/>
<use xlink:href="#p0" x="136.82" y="116.08"/>
<use xlink:href="#p0" x="137.95" y="110.91"/>
<use xlink:href="#p0" x="139.08" y="105.75"/>
<use xlink:href="#p0" x="140.21" y="100.58"/>
<use xlink:href="#p0" x="141.34" y="95.41"/>
<use xlink:href="#p0" x="142.47" y="90.24"/>
<use xlink:href="#p0" x="143.6" y="85.07"/>
<use xlink:href="#p0" x="144.73" y="79.91"/>
<use xlink:href="#p0" x="145.86" y="74.74"/>
<use xlink:href="#p0" x="146.99" y="69.57"/>
<use xlink:href="#p0" x="148.12" y="64.4"/>
<use xlink:href="#p0" x="149.26" y="59.23"/>
<use xlink:href="#p0" x="150.39" y="54.07"/>
<use xlink:href="#p0" x="151.52" y="48.9"/>
<use xlink:href="#p0" x="152.65" y="43.73"/>
<use xlink:href="#p0" x="153.78" y="38.56"/>
<use xlink:href="#p0" x="154.91" y="33.39"/>
<use xlink:href="#p0" x="156.04" y="28.23"/>
<use xlink:href="#p0" x="157.17" y="23.06"/>
<use xlink:href="#p0" x="158.3" y="17.89"/>
<use xlink:href="#p0" x="159.43" y="12.72"/>
<use xlink:href="#p0" x="160.56" y="7.55"/>
<use xlink:href="#p0" x="161.69" y="8.86"/>
<use xlink:href="#p0" x="162.82" y="10.16"/>
<use xlink:href="#p0" x="163.95" y="11.47"/>
<use xlink:href="#p0" x="165.08" y="12.77"/>
<use xlink:href="#p0" x="166.21" y="14.08"/>
<use xlink:href="#p0" x="167.35" y="15.38"/>
<use xlink:href="#p0" x="168.48" y="16.69"/>
<use xlink:href="#p0" x="169.61" y="17.99"/>
<use xlink:href="#p0" x="170.74" y="19.3"/>
<use xlink:href="#p0" x="171.87" y="20.6"/>
<use xlink:href="#p0" x="173" y="21.91"/>
<use xlink:href="#p0" x="174.13" y="23.21"/>
<use xlink:href="#p0" x="175.26" y="24.52"/>
<use xlink:href="#p0" x="176.39" y="25.82"/>
<use xlink:href="#p0" x="177.52" y="27.13"/>
<use xlink:href="#p0" x="178.65" y="28.43"/>
<use xlink:href="#p0" x="179.78" y="29.74"/>
<use xlink:href="#p0" x="180.91" y="31.04"/>
<use xlink:href="#p0" x="182.04" y="32.35"/>
<use xlink:href="#p0" x="183.17" y="33.65"/>
<use xlink:href="#p0" x="184.31" y="34.95"/>
<use xlink:href="#p0" x="185.44" y="36.26"/>
<use xlink:href="#p0" x="186.57" y="37.56"/>
<use xlink:href="#p0" x="187.7" y="38.87"/>
<use xlink:href="#p0" x="188.83" y="40.17"/>
<use xlink:href="#p0" x="189.96" y="41.48"/>
<use xlink:href="#p0" x="191.09" y="42.78"/>
<use xlink:href="#p0" x="192.22" y="44.09"/>
<use xlink:href="#p0" x="193.35" y="45.39"/>
<use xlink:href="#p0" x="194.48" y="46.7"/>
<use xlink:href="#p0" x="195.61" y="48"/>
<use xlink:href="#p0" x="196.74" y="49.31"/>
<use xlink:href="#p0" x="197.87" y="50.61"/>
<use xlink:href="#p0" x="199" y="51.92"/>
<use xlink:href="#p0" x="200.13" y="53.22"/>
<use xlink:href="#p0" x="201.26" y="54.53"/>
<use xlink:href="#p0" x="202.4" y="55.83"/>
<use xlink:href="#p0" x="203.53" y="57.14"/>
<use xlink:href="#p0" x="204.66" y="58.44"/>
<use xlink:href="#p0" x="205.79" y="59.75"/>
<use xlink:href="#p0" x="206.92" y="61.05"/>
<use xlink:href="#p0" x="208.05" y="62.35"/>
<use xlink:href="#p0" x="209.18" y="63.66"/>
<use xlink:href="#p0" x="210.31" y="64.96"/>
<use xlink:href="#p0" x="211.44" y="66.27"/>
<use xlink:href="#p0" x="212.57" y="67.57"/>
<use xlink:href="#p0" x="213.7" y="68.88"/>
<use xlink:href="#p0" x="214.83" y="70.18"/>
<use xlink:href="#p0" x="215.96" y="71.49"/>
<use xlink:href="#p0" x="217.09" y="72.79"/>
<use xlink:href="#p0" x="218.22" y="74.1"/>
<use xlink:href="#p0" x="219.36" y="75.4"/>
<use xlink:href="#p0" x="220.49" y="76.71"/>
<use xlink:href="#p0" x="221.62" y="78.01"/>
<use xlink:href="#p0" x="222.75" y="79.32"/>
<use xlink:href="#p0" x="223.88" y="80.62"/>
<use xlink:href="#p0" x="225.01" y="81.93"/>
<use xlink:href="#p0" x="226.14" y="83.23"/>
<use xlink:href="#p0" x="227.27" y="84.54"/>
<use xlink:href="#p0" x="228.4" y="85.84"/>
<use xlink:href="#p0" x="229.53" y="87.15"/>
<use xlink:href="#p0" x="230.66" y="88.45"/>
<use xlink:href="#p0" x="231.79" y="89.76"/>
<use xlink:href="#p0" x="232.92" y="91.06"/>
<use xlink:href="#p0" x="234.05" y="92.36"/>
<use xlink:href="#p0" x="235.18" y="93.67"/>
<use xlink:href="#p0" x="236.31" y="94.97"/>
<use xlink:href="#p0" x="237.45" y="96.28"/>
<use xlink:href="#p0" x="238.58" y="97.58"/>
<use xlink:href="#p0" x="239.71" y="98.89"/>
<use xlink:href="#p0" x="240.84" y="100.19"/>
<use xlink:href="#p0" x="241.97" y="101.5"/>
<use xlink:href="#p0" x="243.1" y="102.8"/>
<use xlink:href="#p0" x="244.23" y="104.11"/>
<use xlink:href="#p0" x="245.36" y="105.41"/>
<use xlink:href="#p0" x="246.49" y="106.72"/>
<use xlink:href="#p0" x="247.62" y="108.02"/>
<use xlink:href="#p0" x="248.75" y="109.33"/>
<use xlink:href="#p0" x="249.88" y="110.63"/>
<use xlink:href="#p0" x="251.01" y="111.94"/>
<use xlink:href="#p0" x="252.14" y="113.24"/>
<use xlink:href="#p0" x="253.27" y="114.55"/>
<use xlink:href="#p0" x="254.41" y="115.85"/>
<use xlink:href="#p0" x="255.54" y="117.16"/>
<use xlink:href="#p0" x="256.67" y="118.46"/>
<use xlink:href="#p0" x="257.8" y="119.76"/>
<use xlink:href="#p0" x="258.93" y="121.07"/>
<use xlink:href="#p0" x="260.06" y="122.37"/>
<use xlink:href="#p0" x="261.19" y="123.68"/>
<use xlink:href="#p0" x="262.32" y="124.98"/>
<use xlink:href="#p0" x="263.45" y="126.29"/>
<use xlink:href="#p0" x="264.58" y="127.59"/>
<use xlink:href="#p0" x="265.71" y="128.9"/>
<use xlink:href="#p0" x="266.84" y="130.2"/>
<use xlink:href="#p0" x="267.97" y="131.51"/>
<use xlink:href="#p0" x="269.1" y="132.81"/>
<use xlink:href="#p0" x="270.23" y="134.12"/>
<use xlink:href="#p0" x="271.36" y="135.42"/>
<use xlink:href="#p0" x="272.5" y="136.73"/>
<use xlink:href="#p0" x="273.63" y="138.03"/>
<use xlink:href="#p0" x="274.76" y="139.34"/>
<use xlink:href="#p0" x="275.89" y="139.34"/>
<use xlink:href="#p0" x="277.02" y="139.34"/>
<use xlink:href="#p0" x="278.15" y="139.34"/>
<use xlink:href="#p0" x="279.28" y="139.34"/>
<use xlink:href="#p0" x="280.41" y="139.34"/>
<use xlink:href="#p0" x="281.54" y="139.34"/>
<use xlink:href="#p0" x="282.67" y="139.34"/>
<use xlink:href="#p0" x="283.8" y="139.34"/>
<use xlink:href="#p0" x="284.93" y="139.34"/>
<use xlink:href="#p0" x="286.06" y="139.34"/>
<use xlink:href="#p0" x="287.19" y="139.34"/>
<use xlink:href="#p0" x="288.32" y="139.34"/>
<use xlink:href="#p0" x="289.46" y="139.34"/>
<use xlink:href="#p0" x="290.59" y="139.34"/>
<use xlink:href="#p0" x="291.72" y="139.34"/>
<use xlink:href="#p0" x="292.85" y="139.34"/>
<use xlink:href="#p0" x="293.98" y="139.34"/>
<use xlink:href="#p0" x="295.11" y="139.34"/>
<use xlink:href="#p0" x="296.24" y="139.34"/>
<use xlink:href="#p0" x="297.37" y="139.34"/>
<use xlink:href="#p0" x="298.5" y="139.34"/>
<use xlink:href="#p0" x="299.63" y="139.34"/>
<use xlink:href="#p0" x="300.76" y="139.34"/>
<use xlink:href="#p0" x="301.89" y="139.34"/>
<use xlink:href="#p0" x="303.02" y="139.34"/>
<use xlink:href="#p0" x="304.15" y="139.34"/>
<use xlink:href="#p0" x="305.28" y="139.34"/>
<use xlink:href="#p0" x="306.41" y="139.34"/>
<use xlink:href="#p0" x="307.55" y="139.34"/>
<use xlink:href="#p0" x="308.68" y="139.34"/>
<use xlink:href="#p0" x="309.81" y="139.34"/>
<use xlink:href="#p0" x="310.94" y="139.34"/>
<use xlink:href="#p0" x="312.07" y="139.34"/>
<use xlink:href="#p0" x="313.2" y="139.34"/>
<use xlink:href="#p0" x="314.33" y="139.34"/>
<use xlink:href="#p0" x="315.46" y="139.34"/>
<use xlink:href="#p0" x="316.59" y="139.34"/>
<use xlink:href="#p0" x="317.72" y="139.34"/>
<use xlink:href="#p0" x="318.85" y="139.34"/>
<use xlink:href="#p0" x="319.98" y="139.34"/>
<use xlink:href="#p0" x="321.11" y="139.34"/>
<use xlink:href="#p0" x="322.24" y="139.34"/>
<use xlink:href="#p0" x="323.37" y="139.34"/>
<use xlink:href="#p0" x="324.51" y="139.34"/>
<use xlink:href="#p0" x="325.64" y="139.34"/>
<use xlink:href="#p0" x="326.77" y="139.34"/>
<use xlink:href="#p0" x="327.9" y="139.34"/>
<use xlink:href="#p0" x="329.03" y="139.34"/>
<use xlink:href="#p0" x="330.16" y="139.34"/>
<use xlink:href="#p0" x="331.29" y="139.34"/>
<use xlink:href="#p0" x="332.42" y="139.34"/>
<use xlink:href="#p0" x="333.55" y="139.34"/>
<use xlink:href="#p0" x="334.68" y="139.34"/>
<use xlink:href="#p0" x="335.81" y="139.34"/>
<use xlink:href="#p0" x="336.94" y="139.34"/>
<use xlink:href="#p0" x="338.07" y="139.34"/>
<use xlink:href="#p0" x="339.2" y="139.34"/>
<use xlink:href="#p0" x="340.33" y="139.34"/>
<use xlink:href="#p0" x="341.46" y="139.34"/>
<use xlink:href="#p0" x="342.6" y="139.34"/>
<use xlink:href="#p0" x="343.73" y="139.34"/>
<use xlink:href="#p0" x="344.86" y="139.34"/>
<use xlink:href="#p0" x="345.99" y="139.34"/>
<use xlink:href="#p0" x="347.12" y="139.34"/>
<use xlink:href="#p0" x="348.25" y="139.34"/>
<use xlink:href="#p0" x="349.38" y="139.34"/>
<use xlink:href="#p0" x="350.51" y="139.34"/>
<use xlink:href="#p0" x="351.64" y="139.34"/>
<use xlink:href="#p0" x="352.77" y="139.34"/>
<use xlink:href="#p0" x="353.9" y="139.34"/>
<use xlink:href="#p0" x="355.03" y="139.34"/>
<use xlink:href="#p0" x="356.16" y="139.34"/>
<use xlink:href="#p0" x="357.29" y="139.34"/>
<use xlink:href="#p0" x="358.42" y="139.34"/>
<use xlink:href="#p0" x="359.56" y="139.34"/>
<use xlink:href="#p0" x="360.69" y="139.34"/>
<use xlink:href="#p0" x="361.82" y="139.34"/>
<use xlink:href="#p0" x="362.95" y="139.34"/>
<use xlink:href="#p0" x="364.08" y="139.34"/>
<use xlink:href="#p0" x="365.21" y="139.34"/>
<use xlink:href="#p0" x="366.34" y="139.34"/>
<use xlink:href="#p0" x="367.47" y="139.34"/>
<use xlink:href="#p0" x="368.6" y="139.34"/>
<use xlink:href="#p0" x="369.73" y="139.34"/>
<use xlink:href="#p0" x="370.86" y="139.34"/>
<use xlink:href="#p0" x="371.99" y="139.34"/>
<use xlink:href="#p0" x="373.12" y="139.34"/>
<use xlink:href="#p0" x="374.25" y="139.34"/>
<use xlink:href="#p0" x="375.38" y="139.34"/>
<use xlink:href="#p0" x="376.51" y="139.34"/>
<use xlink:href="#p0" x="377.65" y="139.34"/>
<use xlink:href="#p0" x="378.78" y="139.34"/>
<use xlink:href="#p0" x="379.91" y="139.34"/>
<use xlink:href="#p0" x="381.04" y="139.34"/>
<use xlink:href="#p0" x="382.17" y="139.34"/>
<use xlink:href="#p0" x="383.3" y="139.34"/>
<use xlink:href="#p0" x="384.43" y="139.34"/>
<use xlink:href="#p0" x="385.56" y="139.34"/>
<use xlink:href="#p0" x="386.69" y="139.34"/>
<use xlink:href="#p0" x="387.82" y="139.34"/>
<use xlink:href="#p0" x="388.95" y="139.34"/>
<use xlink:href="#p0" x="390.08" y="139.34"/>
<use xlink:href="#p0" x="391.21" y="139.34"/>
<use xlink:href="#p0" x="392.34" y="139.34"/>
<use xlink:href="#p0" x="393.47" y="139.34"/>
<use xlink:href="#p0" x="394.6" y="139.34"/>
<use xlink:href="#p0" x="395.74" y="139.34"/>
<use xlink:href="#p0" x="396.87" y="139.34"/>
<use xlink:href="#p0" x="398" y="139.34"/>
<use xlink:href="#p0" x="399.13" y="139.34"/>
<use xlink:href="#p0" x="400.26" y="139.34"/>
<use xlink:href="#p0" x="401.39" y="139.34"/>
<use xlink:href="#p0" x="402.52" y="139.34"/>
<use xlink:href="#p0" x="403.65" y="139.34"/>
<use xlink:href="#p0" x="404.78" y="139.34"/>
<use xlink:href="#p0" x="405.91" y="139.34"/>
<use xlink:href="#p0" x="407.04" y="139.34"/>
<use xlink:href="#p0" x="408.17" y="139.34"/>
<use xlink:href="#p0" x="409.3" y="139.34"/>
<use xlink:href="#p0" x="410.43" y="139.34"/>
<use xlink:href="#p0" x="411.56" y="139.34"/>
<use xlink:href="#p0" x="412.7" y="139.34"/>
<use xlink:href="#p0" x="413.83" y="139.34"/>
<use xlink:href="#p0" x="414.96" y="139.34"/>
<use xlink:href="#p0" x="416.09" y="139.34"/>
<use xlink:href="#p0" x="417.22" y="139.34"/>
<use xlink:href="#p0" x="418.35" y="139.34"/>
<use xlink:href="#p0" x="419.48" y="139.34"/>
<use xlink:href="#p0" x="420.61" y="139.34"/>
<use xlink:href="#p0" x="421.74" y="139.34"/>
<use xlink:href="#p0" x="422.87" y="139.34"/>
<use xlink:href="#p0" x="424" y="139.34"/>
<use xlink:href="#p0" x="425.13" y="139.34"/>
<use xlink:href="#p0" x="426.26" y="139.34"/>
<use xlink:href="#p0" x="427.39" y="139.34"/>
<use xlink:href="#p0" x="428.52" y="139.34"/>
<use xlink:href="#p0" x="429.65" y="139.34"/>
<use xlink:href="#p0" x="430.79" y="139.34"/>
<use xlink:href="#p0" x="431.92" y="139.34"/>
<use xlink:href="#p0" x="433.05" y="139.34"/>
<use xlink:href="#p0" x="434.18" y="139.34"/>
<use xlink:href="#p0" x="435.31" y="139.34"/>
<use xlink:href="#p0" x="436.44" y="139.34"/>
<use xlink:href="#p0" x="437.57" y="139.34"/>
<use xlink:href="#p0" x="438.7" y="139.34"/>
<use xlink:href="#p0" x="439.83" y="139.34"/>
<use xlink:href="#p0" x="440.96" y="139.34"/>
<use xlink:href="#p0" x="442.09" y="139.34"/>
<use xlink:href="#p0" x="443.22" y="139.34"/>
<use xlink:href="#p0" x="444.35" y="139.34"/>
<use xlink:href="#p0" x="445.48" y="139.34"/>
<use xlink:href="#p0" x="446.61" y="139.34"/>
<use xlink:href="#p0" x="447.75" y="139.34"/>
<use xlink:href="#p0" x="448.88" y="139.34"/>
<use xlink:href="#p0" x="450.01" y="139.34"/>
<use xlink:href="#p0" x="451.14" y="139.34"/>
<use xlink:href="#p0" x="452.27" y="139.34"/>
<use xlink:href="#p0" x="453.4" y="139.34"/>
<use xlink:href="#p0" x="454.53" y="139.34"/>
<use xlink:href="#p0" x="455.66" y="139.34"/>
<use xlink:href="#p0" x="456.79" y="139.34"/>
<use xlink:href="#p0" x="457.92" y="139.34"/>
<use xlink:href="#p0" x="459.05" y="139.34"/>
<use xlink:href="#p0" x="460.18" y="139.34"/>
<use xlink:href="#p0" x="461.31" y="139.34"/>
<use xlink:href="#p0" x="462.44" y="139.34"/>
<use xlink:href="#p0" x="463.57" y="139.34"/>
<use xlink:href="#p0" x="464.7" y="139.34"/>
<use xlink:href="#p0" x="465.84" y="139.34"/>
<use xlink:href="#p0" x="466.97" y="139.34"/>
<use xlink:href="#p0" x="468.1" y="139.34"/>
<use xlink:href="#p0" x="469.23" y="139.34"/>
<use xlink:href="#p0" x="470.36" y="139.34"/>
<use xlink:href="#p0" x="471.49" y="139.34"/>
<use xlink:href="#p0" x="472.62" y="139.34"/>
<use xlink:href="#p0" x="473.75" y="139.34"/>
<use xlink:href="#p0" x="474.88" y="139.34"/>
<use xlink:href="#p0" x="476.01" y="139.34"/>
<use xlink:href="#p0" x="477.14" y="139.34"/>
<use xlink:href="#p0" x="478.27" y="139.34"/>
<use xlink:href="#p0" x="479.4" y="139.34"/>
<use xlink:href="#p0" x="480.53" y="139.34"/>
<use xlink:href="#p0" x="481.66" y="139.34"/>
<use xlink:href="#p0" x="482.8" y="139.34"/>
<use xlink:href="#p0" x="483.93" y="139.34"/>
<use xlink:href="#p0" x="485.06" y="139.34"/>
<use xlink:href="#p0" x="486.19" y="139.34"/>
<use xlink:href="#p0" x="487.32" y="139.34"/>
<use xlink:href="#p0" x="488.45" y="139.34"/>
<use xlink:href="#p0" x="489.58" y="139.34"/>
<use xlink:href="#p0" x="490.71" y="139.34"/>
<use xlink:href="#p0" x="491.84" y="139.34"/>
<use xlink:href="#p0" x="492.97" y="139.34"/>
<use xlink:href="#p0" x="494.1" y="139.34"/>
<use xlink:href="#p0" x="495.23" y="139.34"/>
<use xlink:href="#p0" x="496.36" y="139.34"/>
<use xlink:href="#p0" x="497.49" y="139.34"/>
<use xlink:href="#p0" x="498.62" y="139.34"/>
<use xlink:href="#p0" x="499.75" y="139.34"/>
<use xlink:href="#p0" x="500.89" y="139.34"/>
<use xlink:href="#p0" x="502.02" y="139.34"/>
<use xlink:href="#p0" x="503.15" y="139.34"/>
<use xlink:href="#p0" x="504.28" y="139.34"/>
<use xlink:href="#p0" x="505.41" y="139.34"/>
<use xlink:href="#p0" x="506.54" y="139.34"/>
<use xlink:href="#p0" x="507.67" y="139.34"/>
<use xlink:href="#p0" x="508.8" y="139.34"/>
<use xlink:href="#p0" x="509.93" y="139.34"/>
<use xlink:href="#p0" x="511.06" y="139.34"/>
<use xlink:href="#p0" x="512.19" y="139.34"/>
<use xlink:href="#p0" x="513.32" y="139.34"/>
<use xlink:href="#p0" x="514.45" y="139.34"/>
<use xlink:href="#p0" x="515.58" y="139.34"/>
<use xlink:href="#p0" x="516.71" y="139.34"/>
<use xlink:href="#p0" x="517.85" y="139.34"/>
<use xlink:href="#p0" x="518.98" y="139.34"/>
<use xlink:href="#p0" x="520.11" y="139.34"/>
<use xlink:href="#p0" x="521.24" y="139.34"/>
<use xlink:href="#p0" x="522.37" y="139.34"/>
<use xlink:href="#p0" x="523.5" y="139.34"/>
<use xlink:href="#p0" x="524.63" y="139.34"/>
<use xlink:href="#p0" x="525.76" y="139.34"/>
<use xlink:href="#p0" x="526.89" y="139.34"/>
<use xlink:href="#p0" x="528.02" y="139.34"/>
<use xlink:href="#p0" x="529.15" y="139.34"/>
<use xlink:href="#p0" x="530.28" y="139.34"/>
<use xlink:href="#p0" x="531.41" y="139.34"/>
<use xlink:href="#p0" x="532.54" y="139.34"/>
<use xlink:href="#p0" x="533.67" y="139.34"/>
<use xlink:href="#p0" x="534.8" y="139.34"/>
<use xlink:href="#p0" x="535.94" y="139.34"/>
<use xlink:href="#p0" x="537.07" y="139.34"/>
<use xlink:href="#p0" x="538.2" y="139.34"/>
<use xlink:href="#p0" x="539.33" y="139.34"/>
<use xlink:href="#p0" x="540.46" y="139.34"/>
<use xlink:href="#p0" x="541.59" y="139.34"/>
<use xlink:href="#p0" x="542.72" y="139.34"/>
<use xlink:href="#p0" x="543.85" y="139.34"/>
<use xlink:href="#p0" x="544.98" y="139.34"/>
<use xlink:href="#p0" x="546.11" y="139.34"/>
<use xlink:href="#p0" x="547.24" y="139.34"/>
<use xlink:href="#p0" x="548.37" y="139.34"/>
<use xlink:href="#p0" x="549.5" y="139.34"/>
<use xlink:href="#p0" x="550.63" y="139.34"/>
<use xlink:href="#p0" x="551.76" y="139.34"/>
<use xlink:href="#p0" x="552.9" y="139.34"/>
<use xlink:href="#p0" x="554.03" y="139.34"/>
<use xlink:href="#p0" x="555.16" y="139.34"/>
<use xlink:href="#p0" x="556.29" y="139.34"/>
<use xlink:href="#p0" x="557.42" y="139.34"/>
<use xlink:href="#p0" x="558.55" y="139.34"/>
<use xlink:href="#p0" x="559.68" y="139.34"/>
<use xlink:href="#p0" x="560.81" y="139.34"/>
<use xlink:href="#p0" x="561.94" y="139.34"/>
<use xlink:href="#p0" x="563.07" y="139.34"/>
<use xlink:href="#p0" x="564.2" y="139.34"/>
<use xlink:href="#p0" x="565.33" y="139.34"/>
<use xlink:href="#p0" x="566.46" y="139.34"/>
<use xlink:href="#p0" x="567.59" y="139.34"/>
<use xlink:href="#p0" x="568.72" y="139.34"/>
<use xlink:href="#p0" x="569.85" y="139.34"/>
<use xlink:href="#p0" x="570.99" y="139.34"/>
<use xlink:href="#p0" x="572.12" y="139.34"/>
<use xlink:href="#p0" x="573.25" y="139.34"/>
<use xlink:href="#p0" x="574.38" y="139.34"/>
<use xlink:href="#p0" x="575.51" y="139.34"/>
<use xlink:href="#p0" x="576.64" y="139.34"/>
<use xlink:href="#p0" x="577.77" y="139.34"/>
<use xlink:href="#p0" x="578.9" y="139.34"/>
<use xlink:href="#p0" x="580.03" y="139.34"/>
<use xlink:href="#p0" x="581.16" y="139.34"/>
<use xlink:href="#p0" x="582.29" y="139.34"/>
<use xlink:href="#p0" x="583.42" y="139.34"/>
<use xlink:href="#p0" x="584.55" y="139.34"/>
<use xlink:href="#p0" x="585.68" y="139.34"/>
<use xlink:href="#p0" x="586.81" y="139.34"/>
<use xlink:href="#p0" x="587.95" y="139.34"/>
<use xlink:href="#p0" x="589.08" y="139.34"/>
<use xlink:href="#p0" x="590.21" y="139.34"/>
<use xlink:href="#p0" x="591.34" y="139.34"/>
<use xlink:href="#p0" x="592.47" y="139.34"/>
<use xlink:href="#p0" x="593.6" y="139.34"/>
<use xlink:href="#p0" x="594.73" y="139.34"/>
<use xlink:href="#p0" x="595.86" y="139.34"/>
<use xlink:href="#p0" x="596.99" y="139.34"/>
<use xlink:href="#p0" x="598.12" y="139.34"/>
<use xlink:href="#p0" x="599.25" y="139.34"/>
<use xlink:href="#p0" x="600.38" y="139.34"/>
<use xlink:href="#p0" x="601.51" y="139.34"/>
<use xlink:href="#p0" x="602.64" y="139.34"/>
<use xlink:href="#p0" x="603.77" y="139.34"/>
<use xlink:href="#p0" x="604.9" y="139.34"/>
<use xlink:href="#p0" x="606.04" y="139.34"/>
<use xlink:href="#p0" x="607.17" y="139.34"/>
<use xlink:href="#p0" x="608.3" y="139.34"/>
<use xlink:href="#p0" x="609.43" y="139.34"/>
<use xlink:href="#p0" x="610.56" y="139.34"/>
<use xlink:href="#p0" x="611.69" y="139.34"/>
<use xlink:href="#p0" x="612.82" y="139.34"/>
<use xlink:href="#p0" x="613.95" y="139.34"/>
<use xlink:href="#p0" x="615.08" y="139.34"/>
<use xlink:href="#p0" x="616.21" y="139.34"/>
<use xlink:href="#p0" x="617.34" y="139.34"/>
<use xlink:href="#p0" x="618.47" y="139.34"/>
<use xlink:href="#p0" x="619.6" y="139.34"/>
<use xlink:href="#p0" x="620.73" y="139.34"/>
<use xlink:href="#p0" x="621.86" y="139.34"/>
<use xlink:href="#p0" x="623" y="139.34"/>
<use xlink:href="#p0" x="624.13" y="139.34"/>
<use xlink:href="#p0" x="625.26" y="139.34"/>
<use xlink:href="#p0" x="626.39" y="139.34"/>
<use xlink:href="#p0" x="627.52" y="139.34"/>
<use xlink:href="#p0" x="628.65" y="139.34"/>
<use xlink:href="#p0" x="629.78" y="139.34"/>
<use xlink:href="#p0" x="630.91" y="139.34"/>
<use xlink:href="#p0" x="632.04" y="139.34"/>
<use xlink:href="#p0" x="633.17" y="139.34"/>
<use xlink:href="#p0" x="634.3" y="139.34"/>
<use xlink:href="#p0" x="635.43" y="139.34"/>
<use xlink:href="#p0" x="636.56" y="139.34"/>
<use xlink:href="#p0" x="637.69" y="139.34"/>
<use xlink:href="#p0" x="638.82" y="139.34"/>
<use xlink:href="#p0" x="639.95" y="139.34"/>
<use xlink:href="#p0" x="641.09" y="139.34"/>
<use xlink:href="#p0" x="642.22" y="139.34"/>
<use xlink:href="#p0" x="643.35" y="139.34"/>
<use xlink:href="#p0" x="644.48" y="139.34"/>
<use xlink:href="#p0" x="645.61" y="139.34"/>
<use xlink:href="#p0" x="646.74" y="139.34"/>
<use xlink:href="#p0" x="647.87" y="139.34"/>
<use xlink:href="#p0" x="649" y="139.34"/>
<use xlink:href="#p0" x="650.13" y="139.34"/>
<use xlink:href="#p0" x="651.26" y="139.34"/>
<use xlink:href="#p0" x="652.39" y="139.34"/>
<use xlink:href="#p0" x="653.52" y="139.34"/>
<use xlink:href="#p0" x="654.65" y="139.34"/>
<use xlink:href="#p0" x="655.78" y="139.34"/>
<use xlink:href="#p0" x="656.91" y="139.34"/>
<use xlink:href="#p0" x="658.05" y="139.34"/>
<use xlink:href="#p0" x="659.18" y="139.34"/>
<use xlink:href="#p0" x="660.31" y="139.34"/>
<use xlink:href="#p0" x="661.44" y="139.34"/>
<use xlink:href="#p0" x="662.57" y="139.34"/>
<use xlink:href="#p0" x="663.7" y="139.34"/>
<use xlink:href="#p0" x="664.83" y="139.34"/>
<use xlink:href="#p0" x="665.96" y="139.34"/>
<use xlink:href="#p0" x="667.09" y="139.34"/>
<use xlink:href="#p0" x="668.22" y="139.34"/>
<use xlink:href="#p0" x="669.35" y="139.34"/>
<use xlink:href="#p0" x="670.48" y="139.34"/>
<use xlink:href="#p0" x="671.61" y="139.34"/>
<use xlink:href="#p0" x="672.74" y="139.34"/>
<use xlink:href="#p0" x="673.87" y="139.34"/>
<use xlink:href="#p0" x="675" y="139.34"/>
<use xlink:href="#p0" x="676.14" y="139.34"/>
<use xlink:href="#p0" x="677.27" y="139.34"/>
<use xlink:href="#p0" x="678.4" y="139.34"/>
<use xlink:href="#p0" x="679.53" y="139.34"/>
<use xlink:href="#p0" x="680.66" y="139.34"/>
<use xlink:href="#p0" x="681.79" y="139.34"/>
<use xlink:href="#p0" x="682.92" y="139.34"/>
<use xlink:href="#p0" x="684.05" y="139.34"/>
<use xlink:href="#p0" x="685.18" y="139.34"/>
<use xlink:href="#p0" x="686.31" y="139.34"/>
<use xlink:href="#p0" x="687.44" y="139.34"/>
<use xlink:href="#p0" x="688.57" y="139.34"/>
<use xlink:href="#p0" x="689.7" y="139.34"/>
<use xlink:href="#p0" x="690.83" y="139.34"/>
<use xlink:href="#p0" x="691.96" y="139.34"/>
<use xlink:href="#p0" x="693.1" y="139.34"/>
<use xlink:href="#p0" x="694.23" y="139.34"/>
<use xlink:href="#p0" x="695.36" y="139.34"/>
<use xlink:href="#p0" x="696.49" y="139.34"/>
<use xlink:href="#p0" x="697.62" y="139.34"/>
<use xlink:href="#p0" x="698.75" y="139.34"/>
<use xlink:href="#p0" x="699.88" y="139.34"/>
<use xlink:href="#p0" x="701.01" y="139.34"/>
<use xlink:href="#p0" x="702.14" y="139.34"/>
<use xlink:href="#p0" x="703.27" y="139.34"/>
<use xlink:href="#p0" x="704.4" y="139.34"/>
<use xlink:href="#p0" x="705.53" y="139.34"/>
<use xlink:href="#p0" x="706.66" y="139.34"/>
<use xlink:href="#p0" x="707.79" y="139.34"/>
<use xlink:href="#p0" x="708.92" y="139.34"/>
<use xlink:href="#p0" x="710.05" y="139.34"/>
<use xlink:href="#p0" x="711.19" y="139.34"/>
<use xlink:href="#p0" x="712.32" y="139.34"/>
<use xlink:href="#p0" x="713.45" y="139.34"/>
<use xlink:href="#p0" x="714.58" y="139.34"/>
<use xlink:href="#p0" x="715.71" y="139.34"/>
<use xlink:href="#p0" x="716.84" y="139.34"/>
<use xlink:href="#p0" x="717.97" y="139.34"/>
<use xlink:href="#p0" x="719.1" y="139.34"/>
<use xlink:href="#p0" x="720.23" y="139.34"/>
<use xlink:href="#p0" x="721.36" y="139.34"/>
<use xlink:href="#p0" x="722.49" y="139.34"/>
<use xlink:href="#p0" x="723.62" y="139.34"/>
<use xlink:href="#p0" x="724.75" y="139.34"/>
<use xlink:href="#p0" x="725.88" y="139.34"/>
<use xlink:href="#p0" x="727.01" y="139.34"/>
<use xlink:href="#p0" x="728.14" y="139.34"/>
<use xlink:href="#p0" x="729.28" y="139.34"/>
<use xlink:href="#p0" x="730.41" y="139.34"/>
<use xlink:href="#p0" x="731.54" y="139.34"/>
<use xlink:href="#p0" x="732.67" y="139.34"/>
<use xlink:href="#p0" x="733.8" y="139.34"/>
<use xlink:href="#p0" x="734.93" y="139.34"/>
<use xlink:href="#p0" x="736.06" y="139.34"/>
<use xlink:href="#p0" x="737.19" y="139.34"/>
<use xlink:href="#p0" x="738.32" y="139.34"/>
<use xlink:href="#p0" x="739.45" y="139.34"/>
<use xlink:href="#p0" x="740.58" y="139.34"/>
<use xlink:href="#p0" x="741.71" y="139.34"/>
<use xlink:href="#p0" x="742.84" y="139.34"/>
<use xlink:href="#p0" x="743.97" y="139.34"/>
<use xlink:href="#p0" x="745.1" y="139.34"/>
<use xlink:href="#p0" x="746.24" y="139.34"/>
<use xlink:href="#p0" x="747.37" y="139.34"/>
<use xlink:href="#p0" x="748.5" y="139.34"/>
<use xlink:href="#p0" x="749.63" y="139.34"/>
<use xlink:href="#p0" x="750.76" y="139.34"/>
<use xlink:href="#p0" x="751.89" y="139.34"/>
<use xlink:href="#p0" x="753.02" y="139.34"/>
<use xlink:href="#p0" x="754.15" y="139.34"/>
<use xlink:href="#p0" x="755.28" y="139.34"/>
<use xlink:href="#p0" x="756.41" y="139.34"/>
<use xlink:href="#p0" x="757.54" y="139.34"/>
<use xlink:href="#p0" x="758.67" y="139.34"/>
<use xlink:href="#p0" x="759.8" y="139.34"/>
<use xlink:href="#p0" x="760.93" y="139.34"/>
<use xlink:href="#p0" x="762.06" y="139.34"/>
<use xlink:href="#p0" x="763.19" y="139.34"/>
<use xlink:href="#p0" x="764.33" y="139.34"/>
<use xlink:href="#p0" x="765.46" y="139.34"/>
<use xlink:href="#p0" x="766.59" y="139.34"/>
<use xlink:href="#p0" x="767.72" y="139.34"/>
<use xlink:href="#p0" x="768.85" y="139.34"/>
<use xlink:href="#p0" x="769.98" y="139.34"/>
<use xlink:href="#p0" x="771.11" y="139.34"/>
<use xlink:href="#p0" x="772.24" y="139.34"/>
<use xlink:href="#p0" x="773.37" y="139.34"/>
<use xlink:href="#p0" x="774.5" y="139.34"/>
<use xlink:href="#p0" x="775.63" y="139.34"/>
<use xlink:href="#p0" x="776.76" y="139.34"/>
<use xlink:href="#p0" x="777.89" y="139.34"/>
<use xlink:href="#p0" x="779.02" y="139.34"/>
<use xlink:href="#p0" x="780.15" y="139.34"/>
<use xlink:href="#p0" x="781.29" y="139.34"/>
<use xlink:href="#p0" x="782.42" y="139.34"/>
<use xlink:href="#p0" x="783.55" y="139.34"/>
<use xlink:href="#p0" x="784.68" y="139.34"/>
<use xlink:href="#p0" x="785.81" y="139.34"/>
<use xlink:href="#p0" x="786.94" y="139.34"/>
<use xlink:href="#p0" x="788.07" y="139.34"/>
<use xlink:href="#p0" x="789.2" y="139.34"/>
<use xlink:href="#p0" x="790.33" y="139.34"/>
<use xlink:href="#p0" x="791.46" y="139.34"/>
<use xlink:href="#p0" x="792.59" y="139.34"/>
<use xlink:href="#p0" x="793.72" y="139.34"/>
<use xlink:href="#p0" x="794.85" y="139.34"/>
<use xlink:href="#p0" x="795.98" y="139.34"/>
<use xlink:href="#p0" x="797.11" y="139.34"/>
<use xlink:href="#p0" x="798.24" y="139.34"/>
<use xlink:href="#p0" x="799.38" y="139.34"/>
<use xlink:href="#p0" x="800.51" y="139.34"/>
<use xlink:href="#p0" x="801.64" y="139.34"/>
<use xlink:href="#p0" x="802.77" y="139.34"/>
<use xlink:href="#p0" x="803.9" y="139.34"/>
<use xlink:href="#p0" x="805.03" y="139.34"/>
<use xlink:href="#p0" x="806.16" y="139.34"/>
<use xlink:href="#p0" x="807.29" y="139.34"/>
<use xlink:href="#p0" x="808.42" y="139.34"/>
<use xlink:href="#p0" x="809.55" y="139.34"/>
<use xlink:href="#p0" x="810.68" y="139.34"/>
<use xlink:href="#p0" x="811.81" y="139.34"/>
<use xlink:href="#p0" x="812.94" y="139.34"/>
<use xlink:href="#p0" x="814.07" y="139.34"/>
<use xlink:href="#p0" x="815.2" y="139.34"/>
<use xlink:href="#p0" x="816.34" y="139.34"/>
<use xlink:href="#p0" x="817.47" y="139.34"/>
<use xlink:href="#p0" x="818.6" y="139.34"/>
<use xlink:href="#p0" x="819.73" y="139.34"/>
<use xlink:href="#p0" x="820.86" y="139.34"/>
<use xlink:href="#p0" x="821.99" y="139.34"/>
<use xlink:href="#p0" x="823.12" y="139.34"/>
<use xlink:href="#p0" x="824.25" y="139.34"/>
<use xlink:href="#p0" x="825.38" y="139.34"/>
<use xlink:href="#p0" x="826.51" y="139.34"/>
<use xlink:href="#p0" x="827.64" y="139.34"/>
<use xlink:href="#p0" x="828.77" y="139.34"/>
<use xlink:href="#p0" x="829.9" y="139.34"/>
<use xlink:href="#p0" x="831.03" y="139.34"/>
<use xlink:href="#p0" x="832.16" y="139.34"/>
<use xlink:href="#p0" x="833.29" y="139.34"/>
<use xlink:href="#p0" x="834.43" y="139.34"/>
<use xlink:href="#p0" x="835.56" y="139.34"/>
<use xlink:href="#p0" x="836.69" y="139.34"/>
<use xlink:href="#p0" x="837.82" y="139.34"/>
<use xlink:href="#p0" x="838.95" y="139.34"/>
<use xlink:href="#p0" x="840.08" y="139.34"/>
<use xlink:href="#p0" x="841.21" y="139.34"/>
<use xlink:href="#p0" x="842.34" y="139.34"/>
<use xlink:href="#p0" x="843.47" y="139.34"/>
<use xlink:href="#p0" x="844.6" y="139.34"/>
<use xlink:href="#p0" x="845.73" y="139.34"/>
<use xlink:href="#p0" x="846.86" y="139.34"/>
<use xlink:href="#p0" x="847.99" y="139.34"/>
<use xlink:href="#p0" x="849.12" y="139.34"/>
<use xlink:href="#p0" x="850.25" y="139.34"/>
<use xlink:href="#p0" x="851.39" y="139.34"/>
<use xlink:href="#p0" x="852.52" y="139.34"/>
<use xlink:href="#p0" x="853.65" y="139.34"/>
<use xlink:href="#p0" x="854.78" y="139.34"/>
<use xlink:href="#p0" x="855.91" y="139.34"/>
<use xlink:href="#p0" x="857.04" y="139.34"/>
<use xlink:href="#p0" x="858.17" y="139.34"/>
<use xlink:href="#p0" x="859.3" y="139.34"/>
<use xlink:href="#p0" x="860.43" y="139.34"/>
<use xlink:href="#p0" x="861.56" y="139.34"/>
<use xlink:href="#p0" x="862.69" y="139.34"/>
<use xlink:href="#p0" x="863.82" y="139.34"/>
<use xlink:href="#p0" x="864.95" y="139.34"/>
<use xlink:href="#p0" x="866.08" y="139.34"/>
<use xlink:href="#p0" x="867.21" y="139.34"/>
<use xlink:href="#p0" x="868.34" y="139.34"/>
<use xlink:href="#p0" x="869.48" y="139.34"/>
<use xlink:href="#p0" x="870.61" y="139.34"/>
<use xlink:href="#p0" x="871.74" y="139.34"/>
<use xlink:href="#p0" x="872.87" y="139.34"/>
<use xlink:href="#p0" x="874" y="139.34"/>
<use xlink:href="#p0" x="875.13" y="139.34"/>
<use xlink:href="#p0" x="876.26" y="139.34"/>
<use xlink:href="#p0" x="877.39" y="139.34"/>
<use xlink:href="#p0" x="878.52" y="139.34"/>
<use xlink:href="#p0" x="879.65" y="139.34"/>
<use xlink:href="#p0" x="880.78" y="139.34"/>
<use xlink:href="#p0" x="881.91" y="139.34"/>
<use xlink:href="#p0" x="883.04" y="139.34"/>
<use xlink:href="#p0" x="884.17" y="139.34"/>
<use xlink:href="#p0" x="885.3" y="139.34"/>
<use xlink:href="#p0" x="886.44" y="139.34"/>
<use xlink:href="#p0" x="887.57" y="139.34"/>
<use xlink:href="#p0" x="888.7" y="139.34"/>
<use xlink:href="#p0" x="889.83" y="139.34"/>
<use xlink:href="#p0" x="890.96" y="139.34"/>
<use xlink:href="#p0" x="892.09" y="139.34"/>
<use xlink:href="#p0" x="893.22" y="139.34"/>
<use xlink:href="#p0" x="894.35" y="139.34"/>
<use xlink:href="#p0" x="895.48" y="139.34"/>
<use xlink:href="#p0" x="896.61" y="139.34"/>
<use xlink:href="#p0" x="897.74" y="139.34"/>
<use xlink:href="#p0" x="898.87" y="139.34"/>
<use xlink:href="#p0" x="900" y="139.34"/>
<use xlink:href="#p0" x="901.13" y="139.34"/>
<use xlink:href="#p0" x="902.26" y="139.34"/>
<use xlink:href="#p0" x="903.39" y="139.34"/>
<use xlink:href="#p0" x="904.53" y="139.34"/>
<use xlink:href="#p0" x="905.66" y="139.34"/>
<use xlink:href="#p0" x="906.79" y="139.34"/>
<use xlink:href="#p0" x="907.92" y="139.34"/>
<use xlink:href="#p0" x="909.05" y="139.34"/>
<use xlink:href="#p0" x="910.18" y="139.34"/>
<use xlink:href="#p0" x="911.31" y="139.34"/>
<use xlink:href="#p0" x="912.44" y="139.34"/>
<use xlink:href="#p0" x="913.57" y="139.34"/>
<use xlink:href="#p0" x="914.7" y="139.34"/>
<use xlink:href="#p0" x="915.83" y="139.34"/>
<use xlink:href="#p0" x="916.96" y="139.34"/>
<use xlink:href="#p0" x="918.09" y="139.34"/>
<use xlink:href="#p0" x="919.22" y="139.34"/>
<use xlink:href="#p0" x="920.35" y="139.34"/>
<use xlink:href="#p0" x="921.49" y="139.34"/>
<use xlink:href="#p0" x="922.62" y="139.34"/>
<use xlink:href="#p0" x="923.75" y="139.34"/>
<use xlink:href="#p0" x="924.88" y="139.34"/>
<use xlink:href="#p0" x="926.01" y="139.34"/>
<use xlink:href="#p0" x="927.14" y="139.34"/>
<use xlink:href="#p0" x="928.27" y="139.34"/>
<use xlink:href="#p0" x="929.4" y="139.34"/>
<use xlink:href="#p0" x="930.53" y="139.34"/>
<use xlink:href="#p0" x="931.66" y="139.34"/>
<use xlink:href="#p0" x="932.79" y="139.34"/>
<use xlink:href="#p0" x="933.92" y="139.34"/>
<use xlink:href="#p0" x="935.05" y="139.34"/>
<use xlink:href="#p0" x="936.18" y="139.34"/>
<use xlink:href="#p0" x="937.31" y="139.34"/>
<use xlink:href="#p0" x="938.44" y="139.34"/>
<use xlink:href="#p0" x="939.58" y="139.34"/>
<use xlink:href="#p0" x="940.71" y="139.34"/>
<use xlink:href="#p0" x="941.84" y="139.34"/>
<use xlink:href="#p0" x="942.97" y="139.34"/>
<use xlink:href="#p0" x="944.1" y="139.34"/>
<use xlink:href="#p0" x="945.23" y="139.34"/>
<use xlink:href="#p0" x="946.36" y="139.34"/>
<use xlink:href="#p0" x="947.49" y="139.34"/>
<use xlink:href="#p0" x="948.62" y="139.34"/>
<use xlink:href="#p0" x="949.75" y="139.34"/>
<use xlink:href="#p0" x="950.88" y="139.34"/>
<use xlink:href="#p0" x="952.01" y="139.34"/>
<use xlink:href="#p0" x="953.14" y="139.34"/>
<use xlink:href="#p0" x="954.27" y="139.34"/>
<use xlink:href="#p0" x="955.4" y="139.34"/>
<use xlink:href="#p0" x="956.54" y="139.34"/>
<use xlink:href="#p0" x="957.67" y="139.34"/>
<use xlink:href="#p0" x="958.8" y="139.34"/>
<use xlink:href="#p0" x="959.93" y="139.34"/>
<use xlink:href="#p0" x="961.06" y="139.34"/>
<use xlink:href="#p0" x="962.19" y="139.34"/>
<use xlink:href="#p0" x="963.32" y="139.34"/>
<use xlink:href="#p0" x="964.45" y="139.34"/>
<use xlink:href="#p0" x="965.58" y="139.34"/>
<use xlink:href="#p0" x="966.71" y="139.34"/>
<use xlink:href="#p0" x="967.84" y="139.34"/>
<use xlink:href="#p0" x="968.97" y="139.34"/>
<use xlink:href="#p0" x="970.1" y="139.34"/>
<use xlink:href="#p0" x="971.23" y="139.34"/>
<use xlink:href="#p0" x="972.36" y="139.34"/>
<use xlink:href="#p0" x="973.49" y="141.27"/>
<use xlink:href="#p0" x="974.63" y="143.21"/>
<use xlink:href="#p0" x="975.76" y="145.15"/>
<use xlink:href="#p0" x="976.89" y="147.09"/>
<use xlink:href="#p0" x="978.02" y="149.03"/>
<use xlink:href="#p0" x="979.15" y="150.96"/>
<use xlink:href="#p0" x="980.28" y="152.9"/>
<use xlink:href="#p0" x="981.41" y="154.84"/>
<use xlink:href="#p0" x="982.54" y="156.78"/>
<use xlink:href="#p0" x="983.67" y="158.72"/>
<use xlink:href="#p0" x="984.8" y="160.65"/>
<use xlink:href="#p0" x="985.93" y="162.59"/>
<use xlink:href="#p0" x="987.06" y="164.53"/>
<use xlink:href="#p0" x="988.19" y="166.47"/>
<use xlink:href="#p0" x="989.32" y="168.41"/>
<use xlink:href="#p0" x="990.45" y="170.34"/>
<use xlink:href="#p0" x="991.59" y="172.28"/>
<use xlink:href="#p0" x="992.72" y="174.22"/>
<use xlink:href="#p0" x="993.85" y="176.16"/>
<use xlink:href="#p0" x="994.98" y="178.1"/>
<use xlink:href="#p0" x="996.11" y="180.03"/>
<use xlink:href="#p0" x="997.24" y="181.97"/>
<use xlink:href="#p0" x="998.37" y="183.91"/>
<use xlink:href="#p0" x="999.5" y="185.85"/>
<use xlink:href="#p0" x="1000.63" y="187.79"/>
<use xlink:href="#p0" x="1001.76" y="189.72"/>
<use xlink:href="#p0" x="1002.89" y="191.66"/>
<use xlink:href="#p0" x="1004.02" y="193.6"/>
<use xlink:href="#p0" x="1005.15" y="195.54"/>
<use xlink:href="#p0" x="1006.28" y="197.48"/>
<use xlink:href="#p0" x="1007.41" y="199.41"/>
<use xlink:href="#p0" x="1008.54" y="201.35"/>
<use xlink:href="#p0" x="1009.68" y="203.29"/>
<use xlink:href="#p0" x="1010.81" y="205.23"/>
<use xlink:href="#p0" x="1011.94" y="207.17"/>
<use xlink:href="#p0" x="1013.07" y="209.1"/>
<use xlink:href="#p0" x="1014.2" y="211.04"/>
<use xlink:href="#p0" x="1015.33" y="212.98"/>
<use xlink:href="#p0" x="1016.46" y="214.92"/>
<use xlink:href="#p0" x="1017.59" y="216.86"/>
<use xlink:href="#p0" x="1018.72" y="218.79"/>
<use xlink:href="#p0" x="1019.85" y="220.73"/>
<use xlink:href="#p0" x="1020.98" y="222.67"/>
<use xlink:href="#p0" x="1022.11" y="224.61"/>
<use xlink:href="#p0" x="1023.24" y="226.55"/>
<use xlink:href="#p0" x="1024.37" y="228.48"/>
<use xlink:href="#p0" x="1025.5" y="230.42"/>
<use xlink:href="#p0" x="1026.63" y="232.36"/>
<use xlink:href="#p0" x="1027.77" y="234.3"/>
<use xlink:href="#p0" x="1028.9" y="236.24"/>
<use xlink:href="#p0" x="1030.03" y="238.17"/>
<use xlink:href="#p0" x="1031.16" y="240.11"/>
<use xlink:href="#p0" x="1032.29" y="242.05"/>
<use xlink:href="#p0" x="1033.42" y="243.99"/>
<use xlink:href="#p0" x="1034.55" y="245.93"/>
<use xlink:href="#p0" x="1035.68" y="247.86"/>
<use xlink:href="#p0" x="1036.81" y="249.8"/>
<use xlink:href="#p0" x="1037.94" y="251.74"/>
<use xlink:href="#p0" x="1039.07" y="253.68"/>
<use xlink:href="#p0" x="1040.2" y="255.62"/>
<use xlink:href="#p0" x="1041.33" y="257.55"/>
<use xlink:href="#p0" x="1042.46" y="259.49"/>
<use xlink:href="#p0" x="1043.59" y="261.43"/>
<use xlink:href="#p0" x="1044.73" y="263.37"/>
<use xlink:href="#p0" x="1045.86" y="265.31"/>
<use xlink:href="#p0" x="1046.99" y="267.24"/>
<use xlink:href="#p0" x="1048.12" y="269.18"/>
<use xlink:href="#p0" x="1049.25" y="271.12"/>
<use xlink:href="#p0" x="1050.38" y="273.06"/>
<use xlink:href="#p0" x="1051.51" y="275"/>
<use xlink:href="#p0" x="1052.64" y="276.93"/>
<use xlink:href="#p0" x="1053.77" y="278.87"/>
<use xlink:href="#p0" x="1054.9" y="280.81"/>
<use xlink:href="#p0" x="1056.03" y="282.75"/>
<use xlink:href="#p0" x="1057.16" y="284.69"/>
<use xlink:href="#p0" x="1058.29" y="286.62"/>
<use xlink:href="#p0" x="1059.42" y="288.56"/>
<use xlink:href="#p0" x="1060.55" y="290.5"/>
<use xlink:href="#p0" x="1061.68" y="292.44"/>
<use xlink:href="#p0" x="1062.82" y="294.38"/>
<use xlink:href="#p0" x="1063.95" y="296.31"/>
<use xlink:href="#p0" x="1065.08" y="298.25"/>
<use xlink:href="#p0" x="1066.21" y="300.19"/>
<use xlink:href="#p0" x="1067.34" y="302.13"/>
<use xlink:href="#p0" x="1068.47" y="304.07"/>
<use xlink:href="#p0" x="1069.6" y="306"/>
<use xlink:href="#p0" x="1070.73" y="307.94"/>
<use xlink:href="#p0" x="1071.86" y="309.88"/>
<use xlink:href="#p0" x="1072.99" y="311.82"/>
<use xlink:href="#p0" x="1074.12" y="313.75"/>
<use xlink:href="#p0" x="1075.25" y="315.69"/>
<use xlink:href="#p0" x="1076.38" y="317.63"/>
<use xlink:href="#p0" x="1077.51" y="319.57"/>
<use xlink:href="#p0" x="1078.64" y="321.51"/>
<use xlink:href="#p0" x="1079.78" y="323.45"/>
<use xlink:href="#p0" x="1080.91" y="325.38"/>
<use xlink:href="#p0" x="1082.04" y="327.32"/>
<use xlink:href="#p0" x="1083.17" y="329.26"/>
<use xlink:href="#p0" x="1084.3" y="331.2"/>
<use xlink:href="#p0" x="1085.43" y="333.13"/>
<use xlink:href="#p0" x="1086.56" y="335.07"/>
<use xlink:href="#p0" x="1087.69" y="337.01"/>
<use xlink:href="#p0" x="1088.82" y="338.95"/>
<use xlink:href="#p0" x="1089.95" y="340.89"/>
<use xlink:href="#p0" x="1091.08" y="342.82"/>
<use xlink:href="#p0" x="1092.21" y="344.76"/>
<use xlink:href="#p0" x="1093.34" y="346.7"/>
<use xlink:href="#p0" x="1094.47" y="348.64"/>
<use xlink:href="#p0" x="1095.6" y="350.58"/>
<use xlink:href="#p0" x="1096.73" y="352.51"/>
<use xlink:href="#p0" x="1097.87" y="354.45"/>
<use xlink:href="#p0" x="1099" y="356.39"/>
<use xlink:href="#p0" x="1100.13" y="358.33"/>
<use xlink:href="#p0" x="1101.26" y="360.27"/>
<use xlink:href="#p0" x="1102.39" y="362.2"/>
<use xlink:href="#p0" x="1103.52" y="364.14"/>
<use xlink:href="#p0" x="1104.65" y="366.08"/>
<use xlink:href="#p0" x="1105.78" y="368.02"/>
<use xlink:href="#p0" x="1106.91" y="369.96"/>
<use xlink:href="#p0" x="1108.04" y="371.89"/>
<use xlink:href="#p0" x="1109.17" y="373.83"/>
<use xlink:href="#p0" x="1110.3" y="375.77"/>
<use xlink:href="#p0" x="1111.43" y="377.71"/>
<use xlink:href="#p0" x="1112.56" y="379.65"/>
<use xlink:href="#p0" x="1113.69" y="381.58"/>
<use xlink:href="#p0" x="1114.83" y="383.52"/>
<use xlink:href="#p0" x="1115.96" y="385.46"/>
<use xlink:href="#p0" x="1117.09" y="387.4"/>
<use xlink:href="#p0" x="1118.22" y="389.34"/>
<use xlink:href="#p0" x="1119.35" y="391.27"/>
<use xlink:href="#p0" x="1120.48" y="393.21"/>
<use xlink:href="#p0" x="1121.61" y="395.15"/>
<use xlink:href="#p0" x="1122.74" y="397.09"/>
<use xlink:href="#p0" x="1123.87" y="399.03"/>
<use xlink:href="#p0" x="1125" y="400.96"/>
<use xlink:href="#p0" x="1126.13" y="402.9"/>
<use xlink:href="#p0" x="1127.26" y="404.84"/>
<use xlink:href="#p0" x="1128.39" y="406.78"/>
<use xlink:href="#p0" x="1129.52" y="408.72"/>
<use xlink:href="#p0" x="1130.65" y="410.65"/>
<use xlink:href="#p0" x="1131.78" y="412.59"/>
<use xlink:href="#p0" x="1132.92" y="414.53"/>
<use xlink:href="#p0" x="1134.05" y="416.47"/>
<use xlink:href="#p0" x="1135.18" y="418.41"/>
<use xlink:href="#p0" x="1136.31" y="420.34"/>
<use xlink:href="#p0" x="1137.44" y="422.28"/>
<use xlink:href="#p0" x="1138.57" y="424.22"/>
<use xlink:href="#p0" x="1139.7" y="426.16"/>
<use xlink:href="#p0" x="1140.83" y="428.1"/>
<use xlink:href="#p0" x="1141.96" y="430.03"/>
<use xlink:href="#p0" x="1143.09" y="431.97"/>
<use xlink:href="#p0" x="1144.22" y="433.91"/>
<use xlink:href="#p0" x="1145.35" y="435.85"/>
<use xlink:href="#p0" x="1146.48" y="437.79"/>
<use xlink:href="#p0" x="1147.61" y="439.72"/>
<use xlink:href="#p0" x="1148.74" y="441.66"/>
<use xlink:href="#p0" x="1149.88" y="443.6"/>
<use xlink:href="#p0" x="1151.01" y="445.54"/>
<use xlink:href="#p0" x="1152.14" y="447.48"/>
<use xlink:href="#p0" x="1153.27" y="449.41"/>
<use xlink:href="#p0" x="1154.4" y="451.35"/>
<use xlink:href="#p0" x="1155.53" y="453.29"/>
<use xlink:href="#p0" x="1156.66" y="455.23"/>
<use xlink:href="#p0" x="1157.79" y="457.17"/>
<use xlink:href="#p0" x="1158.92" y="459.1"/>
<use xlink:href="#p0" x="1160.05" y="461.04"/>
<use xlink:href="#p0" x="1161.18" y="462.98"/>
<use xlink:href="#p0" x="1162.31" y="464.92"/>
<use xlink:href="#p0" x="1163.44" y="466.86"/>
<use xlink:href="#p0" x="1164.57" y="468.79"/>
<use xlink:href="#p0" x="1165.7" y="470.73"/>
<use xlink:href="#p0" x="1166.83" y="472.67"/>
<use xlink:href="#p0" x="1167.97" y="474.61"/>
<use xlink:href="#p0" x="1169.1" y="476.55"/>
<use xlink:href="#p0" x="1170.23" y="478.48"/>
<use xlink:href="#p0" x="1171.36" y="480.42"/>
<use xlink:href="#p0" x="1172.49" y="482.36"/>
<use xlink:href="#p0" x="1173.62" y="484.3"/>
<use xlink:href="#p0" x="1174.75" y="486.24"/>
<use xlink:href="#p0" x="1175.88" y="488.17"/>
<use xlink:href="#p0" x="1177.01" y="490.11"/>
<use xlink:href="#p0" x="1178.14" y="492.05"/>
<use xlink:href="#p0" x="1179.27" y="493.99"/>
<use xlink:href="#p0" x="1180.4" y="495.93"/>
<use xlink:href="#p0" x="1181.53" y="497.86"/>
<use xlink:href="#p0" x="1182.66" y="499.8"/>
<use xlink:href="#p0" x="1183.79" y="501.74"/>
<use xlink:href="#p0" x="1184.93" y="503.68"/>
<use xlink:href="#p0" x="1186.06" y="505.62"/>
<use xlink:href="#p0" x="1187.19" y="507.55"/>
<use xlink:href="#p0" x="1188.32" y="509.49"/>
<use xlink:href="#p0" x="1189.45" y="511.43"/>
<use xlink:href="#p0" x="1190.58" y="513.37"/>
<use xlink:href="#p0" x="1191.71" y="515.31"/>
<use xlink:href="#p0" x="1192.84" y="517.24"/>
<use xlink:href="#p0" x="1193.97" y="519.18"/>
<use xlink:href="#p0" x="1195.1" y="521.12"/>
<use xlink:href="#p0" x="1196.23" y="523.06"/>
<use xlink:href="#p0" x="1197.36" y="524.99"/>
<use xlink:href="#p0" x="1198.49" y="526.93"/>
<use xlink:href="#p0" x="1199.62" y="528.87"/>
<use xlink:href="#p0" x="1200.75" y="534.68"/>
<use xlink:href="#p0" x="1201.88" y="532.75"/>
</g>
</g>
<g clip-path="url(#c0)">
<g fill="none" stroke-linecap="butt" stroke-width="0.66">
<path d="M45.24,534.68l0,-527.13"/>
<path d="M45.24,534.68l4,0M45.24,508.33l4,0M45.24,481.97l4,0M45.24,455.62l4,0M45.24,429.26l4,0M45.24,402.9l4,0M45.24,376.55l4,0M45.24,350.19l4,0M45.24,323.83l4,0M45.24,297.48l4,0M45.24,271.12l4,0M45.24,244.76l4,0M45.24,218.41l4,0M45.24,192.05l4,0M45.24,165.69l4,0M45.24,139.34l4,0M45.24,112.98l4,0M45.24,86.62l4,0M45.24,60.27l4,0M45.24,33.91l4,0M45.24,7.55l4,0"/>
<path d="M45.24,534.68l8,0M45.24,429.26l8,0M45.24,323.83l8,0M45.24,218.41l8,0M45.24,112.98l8,0M45.24,7.55l8,0"/>
</g>
<g fill="none" stroke-width="0.1">
<path d="m34.88,541.15c0.93,0,1.62,-0.51,2.09,-1.53c0.46,-1.02,0.69,-2.56,0.69,-4.62c0,-2.06,-0.23,-3.61,-0.69,-4.63c-0.46,-1.02,-1.16,-1.53,-2.09,-1.53c-0.93,0,-1.62,0.51,-2.09,1.53c-0.46,1.02,-0.69,2.56,-0.69,4.63c0,2.06,0.23,3.6,0.69,4.62c0.46,1.02,1.15,1.53,2.09,1.53m0,0.9c-1.47,0,-2.63,-0.62,-3.46,-1.86c-0.83,-1.24,-1.24,-2.97,-1.24,-5.2c0,-2.23,0.41,-3.97,1.24,-5.21c0.83,-1.24,1.98,-1.86,3.46,-1.86c1.48,0,2.64,0.62,3.47,1.86c0.82,1.24,1.24,2.97,1.24,5.21c0,2.22,-0.41,3.96,-1.24,5.2c-0.82,1.24,-1.98,1.86,-3.47,1.86" fill="#000000" stroke="none" fill-opacity="1"/>
<path d="m17.04,435.72c0.93,0,1.62,-0.51,2.09,-1.53c0.46,-1.02,0.69,-2.56,0.69,-4.62c0,-2.06,-0.23,-3.61,-0.69,-4.63c-0.46,-1.02,-1.16,-1.53,-2.09,-1.53c-0.93,0,-1.62,0.51,-2.09,1.53c-0.46,1.02,-0.69,2.56,-0.69,4.63c0,2.06,0.23,3.6,0.69,4.62c0.46,1.02,1.15,1.53,2.09,1.53m0,0.9c-1.47,0,-2.63,-0.62,-3.46,-1.86c-0.83,-1.24,-1.24,-2.97,-1.24,-5.2c0,-2.23,0.41,-3.97,1.24,-5.21c0.83,-1.24,1.98,-1.86,3.46,-1.86c1.48,0,2.64,0.62,3.47,1.86c0.82,1.24,1.24,2.97,1.24,5.21c0,2.22,-0.41,3.96,-1.24,5.2c-0.82,1.24,-1.98,1.86,-3.47,1.86m6.62,1.55c0.57,-0.41,0.99,-0.91,1.26,-1.48c0.26,-0.56,0.4,-1.25,0.4,-2.06l0,-0.33l1.79,0c-0.04,1.04,-0.29,1.93,-0.73,2.68c-0.44,0.74,-1.1,1.39,-1.99,1.93l-0.73,-0.72m7.66,-12.19l-1.02,0l0,-2.42c0.65,-0.34,1.3,-0.61,1.96,-0.79c0.66,-0.18,1.3,-0.27,1.94,-0.27c1.41,0,2.53,0.34,3.35,1.03c0.82,0.68,1.23,1.62,1.23,2.8c0,1.33,-0.93,2.92,-2.79,4.78c-0.14,0.13,-0.25,0.24,-0.32,0.32l-3.44,3.44l5.68,0l0,-1.68l1.06,0l0,3.17l-8.79,0l0,-0.99l4.13,-4.12c0.91,-0.91,1.56,-1.75,1.95,-2.51c0.38,-0.76,0.58,-1.56,0.58,-2.4c0,-0.91,-0.23,-1.63,-0.71,-2.15c-0.47,-0.51,-1.13,-0.77,-1.97,-0.77c-0.86,0,-1.54,0.21,-2.01,0.64c-0.47,0.43,-0.75,1.08,-0.84,1.94" fill="#000000" stroke="none" fill-opacity="1"/>
<path d="m17.04,330.29c0.93,0,1.62,-0.51,2.09,-1.53c0.46,-1.02,0.69,-2.56,0.69,-4.62c0,-2.06,-0.23,-3.61,-0.69,-4.63c-0.46,-1.02,-1.16,-1.53,-2.09,-1.53c-0.93,0,-1.62,0.51,-2.09,1.53c-0.46,1.02,-0.69,2.56,-0.69,4.63c0,2.06,0.23,3.6,0.69,4.62c0.46,1.02,1.15,1.53,2.09,1.53m0,0.9c-1.47,0,-2.63,-0.62,-3.46,-1.86c-0.83,-1.24,-1.24,-2.97,-1.24,-5.2c0,-2.23,0.41,-3.97,1.24,-5.21c0.83,-1.24,1.98,-1.86,3.46,-1.86c1.48,0,2.64,0.62,3.47,1.86c0.82,1.24,1.24,2.97,1.24,5.21c0,2.22,-0.41,3.96,-1.24,5.2c-0.82,1.24,-1.98,1.86,-3.47,1.86m6.62,1.55c0.57,-0.41,0.99,-0.91,1.26,-1.48c0.26,-0.56,0.4,-1.25,0.4,-2.06l0,-0.33l1.79,0c-0.04,1.04,-0.29,1.93,-0.73,2.68c-0.44,0.74,-1.1,1.39,-1.99,1.93l-0.73,-0.72m11.79,-6.43l0,-7.25l-4.65,7.25l4.65,0m4.01,4.62l-6.2,0l0,-0.96l2.19,0l0,-2.67l-5.95,0l0,-0.99l5.97,-9.24l1.8,0l0,9.25l2.6,0l0,0.97l-2.6,0l0,2.67l2.19,0l0,0.96" fill="#000000" stroke="none" fill-opacity="1"/>
<path d="m17.04,224.87c0.93,0,1.62,-0.51,2.09,-1.53c0.46,-1.02,0.69,-2.56,0.69,-4.62c0,-2.06,-0.23,-3.61,-0.69,-4.63c-0.46,-1.02,-1.16,-1.53,-2.09,-1.53c-0.93,0,-1.62,0.51,-2.09,1.53c-0.46,1.02,-0.69,2.56,-0.69,4.63c0,2.06,0.23,3.6,0.69,4.62c0.46,1.02,1.15,1.53,2.09,1.53m0,0.9c-1.47,0,-2.63,-0.62,-3.46,-1.86c-0.83,-1.24,-1.24,-2.97,-1.24,-5.2c0,-2.23,0.41,-3.97,1.24,-5.21c0.83,-1.24,1.98,-1.86,3.46,-1.86c1.48,0,2.64,0.62,3.47,1.86c0.82,1.24,1.24,2.97,1.24,5.21c0,2.22,-0.41,3.96,-1.24,5.2c-0.82,1.24,-1.98,1.86,-3.47,1.86m6.62,1.55c0.57,-0.41,0.99,-0.91,1.26,-1.48c0.26,-0.56,0.4,-1.25,0.4,-2.06l0,-0.33l1.79,0c-0.04,1.04,-0.29,1.93,-0.73,2.68c-0.44,0.74,-1.1,1.39,-1.99,1.93l-0.73,-0.72m11.38,-2.45c0.85,0,1.51,-0.31,1.98,-0.94c0.46,-0.63,0.69,-1.53,0.69,-2.71c0,-1.18,-0.23,-2.08,-0.69,-2.71c-0.46,-0.63,-1.12,-0.94,-1.98,-0.94c-0.86,0,-1.53,0.3,-1.98,0.91c-0.45,0.6,-0.68,1.48,-0.68,2.63c0,1.21,0.23,2.14,0.69,2.79c0.46,0.65,1.12,0.97,1.98,0.97m-2.97,-6.86c0.41,-0.45,0.88,-0.79,1.4,-1.02c0.52,-0.22,1.11,-0.33,1.77,-0.33c1.35,0,2.43,0.4,3.21,1.22c0.78,0.81,1.18,1.92,1.18,3.34c0,1.38,-0.42,2.48,-1.27,3.31c-0.84,0.83,-1.98,1.24,-3.4,1.24c-1.54,0,-2.72,-0.57,-3.55,-1.72c-0.82,-1.14,-1.24,-2.78,-1.24,-4.91c0,-2.38,0.48,-4.23,1.46,-5.54c0.97,-1.3,2.36,-1.96,4.14,-1.96c0.48,0,0.98,0.04,1.51,0.13c0.52,0.09,1.07,0.22,1.62,0.41l0,2.24l-1.03,0c-0.07,-0.61,-0.3,-1.08,-0.7,-1.4c-0.39,-0.32,-0.92,-0.48,-1.59,-0.48c-1.18,0,-2.06,0.44,-2.63,1.34c-0.57,0.89,-0.87,2.27,-0.89,4.12" fill="#000000" stroke="none" fill-opacity="1"/>
<path d="m17.04,119.44c0.93,0,1.62,-0.51,2.09,-1.53c0.46,-1.02,0.69,-2.56,0.69,-4.62c0,-2.06,-0.23,-3.61,-0.69,-4.63c-0.46,-1.02,-1.16,-1.53,-2.09,-1.53c-0.93,0,-1.62,0.51,-2.09,1.53c-0.46,1.02,-0.69,2.56,-0.69,4.63c0,2.06,0.23,3.6,0.69,4.62c0.46,1.02,1.15,1.53,2.09,1.53m0,0.9c-1.47,0,-2.63,-0.62,-3.46,-1.86c-0.83,-1.24,-1.24,-2.97,-1.24,-5.2c0,-2.23,0.41,-3.97,1.24,-5.21c0.83,-1.24,1.98,-1.86,3.46,-1.86c1.48,0,2.64,0.62,3.47,1.86c0.82,1.24,1.24,2.97,1.24,5.21c0,2.22,-0.41,3.96,-1.24,5.2c-0.82,1.24,-1.98,1.86,-3.47,1.86m6.62,1.55c0.57,-0.41,0.99,-0.91,1.26,-1.48c0.26,-0.56,0.4,-1.25,0.4,-2.06l0,-0.33l1.79,0c-0.04,1.04,-0.29,1.93,-0.73,2.68c-0.44,0.74,-1.1,1.39,-1.99,1.93l-0.73,-0.72m13.97,-5.54c0,-0.97,-0.24,-1.73,-0.72,-2.26c-0.48,-0.53,-1.16,-0.8,-2.04,-0.8c-0.87,0,-1.55,0.26,-2.03,0.8c-0.48,0.53,-0.72,1.29,-0.72,2.26c0,0.98,0.24,1.73,0.72,2.27c0.48,0.53,1.16,0.8,2.03,0.8c0.87,0,1.55,-0.26,2.04,-0.8c0.48,-0.53,0.72,-1.29,0.72,-2.27m-0.37,-6.62c0,-0.82,-0.2,-1.47,-0.62,-1.93c-0.41,-0.46,-1,-0.69,-1.76,-0.69c-0.74,0,-1.33,0.23,-1.75,0.69c-0.42,0.46,-0.63,1.1,-0.63,1.93c0,0.83,0.21,1.48,0.63,1.94c0.42,0.46,1,0.69,1.75,0.69c0.75,0,1.34,-0.23,1.76,-0.69c0.41,-0.46,0.62,-1.11,0.62,-1.94m-0.98,3.08c1.03,0.14,1.84,0.52,2.42,1.14c0.57,0.62,0.86,1.41,0.86,2.38c0,1.27,-0.4,2.26,-1.21,2.95c-0.8,0.69,-1.96,1.03,-3.47,1.03c-1.5,0,-2.66,-0.34,-3.47,-1.03c-0.81,-0.69,-1.21,-1.67,-1.21,-2.95c0,-0.96,0.28,-1.76,0.86,-2.38c0.57,-0.62,1.38,-1,2.42,-1.14c-0.91,-0.16,-1.62,-0.51,-2.11,-1.04c-0.49,-0.53,-0.73,-1.21,-0.73,-2.04c0,-1.09,0.37,-1.95,1.13,-2.58c0.75,-0.63,1.79,-0.94,3.11,-0.94c1.32,0,2.35,0.31,3.11,0.94c0.75,0.63,1.13,1.49,1.13,2.58c0,0.82,-0.24,1.5,-0.73,2.04c-0.49,0.53,-1.19,0.88,-2.1,1.04" fill="#000000" stroke="none" fill-opacity="1"/>
<path d="m31.6,18.57l0,-0.96l2.37,0l0,-11.34l-2.74,1.77l0,-1.19l3.32,-2.15l1.26,0l0,12.91l2.37,0l0,0.96l-6.58,0" fill="#000000" stroke="none" fill-opacity="1"/>
</g>
<g fill="none" stroke-linecap="butt" stroke-width="0.66">
<path d="M1201.88,534.68l0,-527.13"/>
<path d="M1201.88,534.68l-4,0M1201.88,508.33l-4,0M1201.88,481.97l-4,0M1201.88,455.62l-4,0M1201.88,429.26l-4,0M1201.88,402.9l-4,0M1201.88,376.55l-4,0M1201.88,350.19l-4,0M1201.88,323.83l-4,0M1201.88,297.48l-4,0M1201.88,271.12l-4,0M1201.88,244.76l-4,0M1201.88,218.41l-4,0M1201.88,192.05l-4,0M1201.88,165.69l-4,0M1201.88,139.34l-4,0M1201.88,112.98l-4,0M1201.88,86.62l-4,0M1201.88,60.27l-4,0M1201.88,33.91l-4,0M1201.88,7.55l-4,0"/>
<path d="M1201.88,534.68l-8,0M1201.88,429.26l-8,0M1201.88,323.83l-8,0M1201.88,218.41l-8,0M1201.88,112.98l-8,0M1201.88,7.55l-8,0"/>
</g>
</g>
</g>
</svg>
