<?xml version="1.0" standalone="no"?>
<!DOCTYPE svg PUBLIC "-//W3C//DTD SVG 1.1//EN"
  "http://www.w3.org/Graphics/SVG/1.1/DTD/svg11.dtd">
<svg width="1209.44px" height="566.92px" version="1.1"
    xmlns="http://www.w3.org/2000/svg"
    xmlns:xlink="http://www.w3.org/1999/xlink">
<desc>Veusz output document</desc>
<defs>
<clipPath id="c0">
<path d="m0,0l1209.44,0l0,566.92l-1209.44,0l0,-566.92"/>
</clipPath>
<clipPath id="c1">
<path d="m64.25,30.08l1130.07,0l0,192.07l-1130.07,0l0,-192.07"/>
</clipPath>
<clipPath id="c2">
<path d="m64.25,312.64l1130.07,0l0,190.03l-1130.07,0l0,-190.03"/>
</clipPath>
</defs>
<g stroke-linejoin="bevel" stroke-linecap="square" stroke="#000000" fill-rule="evenodd">
<g clip-path="url(#c0)">
<g fill="#ffffff" stroke-width="0.66">
<path d="m64.25,30.08l1130.07,0l0,192.07l-1130.07,0l0,-192.07"/>
</g>
<g fill="none" stroke-width="0.1">
<path d="m1139.64,113.06c0.71,-0.26,1.39,-0.47,2.05,-0.61c0.65,-0.14,1.26,-0.21,1.83,-0.21c1.33,0,2.37,0.28,3.12,0.86c0.74,0.57,1.12,1.37,1.12,2.39c0,0.82,-0.25,1.5,-0.77,2.05c-0.51,0.55,-1.25,0.92,-2.2,1.11c1.11,0.15,1.98,0.56,2.6,1.21c0.61,0.65,0.92,1.5,0.92,2.54c0,1.27,-0.42,2.24,-1.28,2.92c-0.85,0.67,-2.08,1.01,-3.69,1.01c-0.71,0,-1.4,-0.07,-2.08,-0.22c-0.67,-0.15,-1.35,-0.38,-2.02,-0.69l0,-2.64l1.02,0c0.06,0.87,0.35,1.53,0.88,1.98c0.52,0.45,1.27,0.67,2.23,0.67c0.93,0,1.66,-0.26,2.2,-0.8c0.53,-0.53,0.8,-1.27,0.8,-2.21c0,-1.07,-0.27,-1.88,-0.83,-2.43c-0.55,-0.55,-1.36,-0.82,-2.43,-0.82l-0.86,0l0,-0.93l0.45,0c1.06,0,1.86,-0.22,2.39,-0.66c0.53,-0.44,0.79,-1.1,0.79,-1.99c0,-0.79,-0.21,-1.4,-0.65,-1.83c-0.43,-0.42,-1.06,-0.63,-1.88,-0.63c-0.82,0,-1.45,0.19,-1.91,0.58c-0.45,0.38,-0.72,0.96,-0.79,1.73l-1.02,0l0,-2.4m16.19,12.41c0.85,0,1.51,-0.31,1.98,-0.94c0.46,-0.63,0.69,-1.53,0.69,-2.71c0,-1.18,-0.23,-2.08,-0.69,-2.71c-0.46,-0.63,-1.12,-0.94,-1.98,-0.94c-0.86,0,-1.53,0.3,-1.98,0.91c-0.45,0.6,-0.68,1.48,-0.68,2.63c0,1.21,0.23,2.14,0.69,2.79c0.46,0.65,1.12,0.97,1.98,0.97m-2.97,-6.86c0.41,-0.45,0.88,-0.79,1.4,-1.02c0.52,-0.22,1.11,-0.33,1.77,-0.33c1.35,0,2.43,0.4,3.21,1.22c0.78,0.81,1.18,1.92,1.18,3.34c0,1.38,-0.42,2.48,-1.27,3.31c-0.84,0.83,-1.98,1.24,-3.4,1.24c-1.54,0,-2.72,-0.57,-3.55,-1.72c-0.82,-1.14,-1.24,-2.78,-1.24,-4.91c0,-2.38,0.48,-4.23,1.46,-5.54c0.97,-1.3,2.36,-1.96,4.14,-1.96c0.48,0,0.98,0.04,1.51,0.13c0.52,0.09,1.07,0.22,1.62,0.41l0,2.24l-1.03,0c-0.07,-0.61,-0.3,-1.08,-0.7,-1.4c-0.39,-0.32,-0.92,-0.48,-1.59,-0.48c-1.18,0,-2.06,0.44,-2.63,1.34c-0.57,0.89,-0.87,2.27,-0.89,4.12m14.7,6.86c0.93,0,1.62,-0.51,2.09,-1.53c0.46,-1.02,0.69,-2.56,0.69,-4.62c0,-2.06,-0.23,-3.61,-0.69,-4.63c-0.46,-1.02,-1.16,-1.53,-2.09,-1.53c-0.93,0,-1.62,0.51,-2.09,1.53c-0.46,1.02,-0.69,2.56,-0.69,4.63c0,2.06,0.23,3.6,0.69,4.62c0.46,1.02,1.15,1.53,2.09,1.53m0,0.9c-1.47,0,-2.63,-0.62,-3.46,-1.86c-0.83,-1.24,-1.24,-2.97,-1.24,-5.2c0,-2.23,0.41,-3.97,1.24,-5.21c0.83,-1.24,1.98,-1.86,3.46,-1.86c1.48,0,2.64,0.62,3.47,1.86c0.82,1.24,1.24,2.97,1.24,5.21c0,2.22,-0.41,3.96,-1.24,5.2c-0.82,1.24,-1.98,1.86,-3.47,1.86m10.62,-12.88c-0.46,0,-0.85,0.15,-1.16,0.47c-0.31,0.31,-0.47,0.71,-0.47,1.18c0,0.46,0.15,0.85,0.47,1.16c0.31,0.31,0.7,0.46,1.17,0.46c0.46,0,0.85,-0.15,1.16,-0.47c0.31,-0.31,0.47,-0.69,0.47,-1.15c0,-0.45,-0.16,-0.84,-0.48,-1.17c-0.32,-0.32,-0.7,-0.48,-1.15,-0.48m0,-1.26c0.38,0,0.76,0.07,1.12,0.22c0.35,0.14,0.66,0.36,0.93,0.64c0.28,0.27,0.49,0.58,0.62,0.93c0.13,0.34,0.2,0.72,0.2,1.12c0,0.8,-0.28,1.48,-0.84,2.04c-0.56,0.55,-1.25,0.83,-2.06,0.83c-0.82,0,-1.5,-0.27,-2.05,-0.82c-0.54,-0.54,-0.82,-1.23,-0.82,-2.05c0,-0.81,0.27,-1.5,0.83,-2.07c0.55,-0.56,1.24,-0.84,2.05,-0.84" fill="#000000" stroke="none" fill-opacity="1"/>
<path d="m916.46,115.74l-1.02,0l0,-2.42c0.65,-0.34,1.3,-0.61,1.96,-0.79c0.66,-0.18,1.3,-0.27,1.94,-0.27c1.41,0,2.53,0.34,3.35,1.03c0.82,0.68,1.23,1.62,1.23,2.8c0,1.33,-0.93,2.92,-2.79,4.78c-0.14,0.13,-0.25,0.24,-0.32,0.32l-3.44,3.44l5.68,0l0,-1.68l1.06,0l0,3.17l-8.79,0l0,-0.99l4.13,-4.12c0.91,-0.91,1.56,-1.75,1.95,-2.51c0.38,-0.76,0.58,-1.56,0.58,-2.4c0,-0.91,-0.23,-1.63,-0.71,-2.15c-0.47,-0.51,-1.13,-0.77,-1.97,-0.77c-0.86,0,-1.54,0.21,-2.01,0.64c-0.47,0.43,-0.75,1.08,-0.84,1.94m20.05,-2.32l-5.33,12.7l-1.36,0l5.08,-12.13l-6.3,0l0,1.67l-1.06,0l0,-3.17l8.97,0l0,0.93m7.29,12.06c0.93,0,1.62,-0.51,2.09,-1.53c0.46,-1.02,0.69,-2.56,0.69,-4.62c0,-2.06,-0.23,-3.61,-0.69,-4.63c-0.46,-1.02,-1.16,-1.53,-2.09,-1.53c-0.93,0,-1.62,0.51,-2.09,1.53c-0.46,1.02,-0.69,2.56,-0.69,4.63c0,2.06,0.23,3.6,0.69,4.62c0.46,1.02,1.15,1.53,2.09,1.53m0,0.9c-1.47,0,-2.63,-0.62,-3.46,-1.86c-0.83,-1.24,-1.24,-2.97,-1.24,-5.2c0,-2.23,0.41,-3.97,1.24,-5.21c0.83,-1.24,1.98,-1.86,3.46,-1.86c1.48,0,2.64,0.62,3.47,1.86c0.82,1.24,1.24,2.97,1.24,5.21c0,2.22,-0.41,3.96,-1.24,5.2c-0.82,1.24,-1.98,1.86,-3.47,1.86m10.62,-12.88c-0.46,0,-0.85,0.15,-1.16,0.47c-0.31,0.31,-0.47,0.71,-0.47,1.18c0,0.46,0.15,0.85,0.47,1.16c0.31,0.31,0.7,0.46,1.17,0.46c0.46,0,0.85,-0.15,1.16,-0.47c0.31,-0.31,0.47,-0.69,0.47,-1.15c0,-0.45,-0.16,-0.84,-0.48,-1.17c-0.32,-0.32,-0.7,-0.48,-1.15,-0.48m0,-1.26c0.38,0,0.76,0.07,1.12,0.22c0.35,0.14,0.66,0.36,0.93,0.64c0.28,0.27,0.49,0.58,0.62,0.93c0.13,0.34,0.2,0.72,0.2,1.12c0,0.8,-0.28,1.48,-0.84,2.04c-0.56,0.55,-1.25,0.83,-2.06,0.83c-0.82,0,-1.5,-0.27,-2.05,-0.82c-0.54,-0.54,-0.82,-1.23,-0.82,-2.05c0,-0.81,0.27,-1.5,0.83,-2.07c0.55,-0.56,1.24,-0.84,2.05,-0.84" fill="#000000" stroke="none" fill-opacity="1"/>
<path d="m637.89,126.12l0,-0.96l2.37,0l0,-11.34l-2.74,1.77l0,-1.19l3.32,-2.15l1.26,0l0,12.91l2.37,0l0,0.96l-6.58,0m17.95,-3.72c0,-0.97,-0.24,-1.73,-0.72,-2.26c-0.48,-0.53,-1.16,-0.8,-2.04,-0.8c-0.87,0,-1.55,0.26,-2.03,0.8c-0.48,0.53,-0.72,1.29,-0.72,2.26c0,0.98,0.24,1.73,0.72,2.27c0.48,0.53,1.16,0.8,2.03,0.8c0.87,0,1.55,-0.26,2.04,-0.8c0.48,-0.53,0.72,-1.29,0.72,-2.27m-0.37,-6.62c0,-0.82,-0.2,-1.47,-0.62,-1.93c-0.41,-0.46,-1,-0.69,-1.76,-0.69c-0.74,0,-1.33,0.23,-1.75,0.69c-0.42,0.46,-0.63,1.1,-0.63,1.93c0,0.83,0.21,1.48,0.63,1.94c0.42,0.46,1,0.69,1.75,0.69c0.75,0,1.34,-0.23,1.76,-0.69c0.41,-0.46,0.62,-1.11,0.62,-1.94m-0.98,3.08c1.03,0.14,1.84,0.52,2.42,1.14c0.57,0.62,0.86,1.41,0.86,2.38c0,1.27,-0.4,2.26,-1.21,2.95c-0.8,0.69,-1.96,1.03,-3.47,1.03c-1.5,0,-2.66,-0.34,-3.47,-1.03c-0.81,-0.69,-1.21,-1.67,-1.21,-2.95c0,-0.96,0.28,-1.76,0.86,-2.38c0.57,-0.62,1.38,-1,2.42,-1.14c-0.91,-0.16,-1.62,-0.51,-2.11,-1.04c-0.49,-0.53,-0.73,-1.21,-0.73,-2.04c0,-1.09,0.37,-1.95,1.13,-2.58c0.75,-0.63,1.79,-0.94,3.11,-0.94c1.32,0,2.35,0.31,3.11,0.94c0.75,0.63,1.13,1.49,1.13,2.58c0,0.82,-0.24,1.5,-0.73,2.04c-0.49,0.53,-1.19,0.88,-2.1,1.04m10.49,6.62c0.93,0,1.62,-0.51,2.09,-1.53c0.46,-1.02,0.69,-2.56,0.69,-4.62c0,-2.06,-0.23,-3.61,-0.69,-4.63c-0.46,-1.02,-1.16,-1.53,-2.09,-1.53c-0.93,0,-1.62,0.51,-2.09,1.53c-0.46,1.02,-0.69,2.56,-0.69,4.63c0,2.06,0.23,3.6,0.69,4.62c0.46,1.02,1.15,1.53,2.09,1.53m0,0.9c-1.47,0,-2.63,-0.62,-3.46,-1.86c-0.83,-1.24,-1.24,-2.97,-1.24,-5.2c0,-2.23,0.41,-3.97,1.24,-5.21c0.83,-1.24,1.98,-1.86,3.46,-1.86c1.48,0,2.64,0.62,3.47,1.86c0.82,1.24,1.24,2.97,1.24,5.21c0,2.22,-0.41,3.96,-1.24,5.2c-0.82,1.24,-1.98,1.86,-3.47,1.86m10.62,-12.88c-0.46,0,-0.85,0.15,-1.16,0.47c-0.31,0.31,-0.47,0.71,-0.47,1.18c0,0.46,0.15,0.85,0.47,1.16c0.31,0.31,0.7,0.46,1.17,0.46c0.46,0,0.85,-0.15,1.16,-0.47c0.31,-0.31,0.47,-0.69,0.47,-1.15c0,-0.45,-0.16,-0.84,-0.48,-1.17c-0.32,-0.32,-0.7,-0.48,-1.15,-0.48m0,-1.26c0.38,0,0.76,0.07,1.12,0.22c0.35,0.14,0.66,0.36,0.93,0.64c0.28,0.27,0.49,0.58,0.62,0.93c0.13,0.34,0.2,0.72,0.2,1.12c0,0.8,-0.28,1.48,-0.84,2.04c-0.56,0.55,-1.25,0.83,-2.06,0.83c-0.82,0,-1.5,-0.27,-2.05,-0.82c-0.54,-0.54,-0.82,-1.23,-0.82,-2.05c0,-0.81,0.27,-1.5,0.83,-2.07c0.55,-0.56,1.24,-0.84,2.05,-0.84" fill="#000000" stroke="none" fill-opacity="1"/>
<path d="m355.51,120.01c-0.4,0.45,-0.87,0.79,-1.4,1.02c-0.52,0.22,-1.12,0.33,-1.78,0.33c-1.35,0,-2.41,-0.4,-3.2,-1.22c-0.78,-0.81,-1.17,-1.92,-1.17,-3.34c0,-1.38,0.42,-2.48,1.27,-3.31c0.84,-0.83,1.98,-1.24,3.4,-1.24c1.53,0,2.72,0.57,3.54,1.72c0.82,1.14,1.23,2.78,1.23,4.91c0,2.38,-0.49,4.23,-1.47,5.54c-0.98,1.3,-2.35,1.96,-4.13,1.96c-0.48,0,-0.98,-0.04,-1.51,-0.13c-0.52,-0.09,-1.07,-0.22,-1.62,-0.41l0,-2.26l1.02,0c0.07,0.61,0.31,1.08,0.71,1.41c0.39,0.32,0.92,0.49,1.58,0.49c1.18,0,2.05,-0.44,2.63,-1.33c0.57,-0.89,0.87,-2.26,0.89,-4.13m-2.96,-6.86c-0.86,0,-1.52,0.31,-1.98,0.94c-0.45,0.63,-0.68,1.53,-0.68,2.71c0,1.18,0.22,2.08,0.68,2.72c0.45,0.63,1.12,0.95,1.98,0.95c0.86,0,1.52,-0.3,1.98,-0.91c0.45,-0.61,0.68,-1.49,0.68,-2.64c0,-1.21,-0.23,-2.14,-0.69,-2.79c-0.46,-0.65,-1.12,-0.97,-1.98,-0.97m12.06,12.33c0.93,0,1.62,-0.51,2.09,-1.53c0.46,-1.02,0.69,-2.56,0.69,-4.62c0,-2.06,-0.23,-3.61,-0.69,-4.63c-0.46,-1.02,-1.16,-1.53,-2.09,-1.53c-0.93,0,-1.62,0.51,-2.09,1.53c-0.46,1.02,-0.69,2.56,-0.69,4.63c0,2.06,0.23,3.6,0.69,4.62c0.46,1.02,1.15,1.53,2.09,1.53m0,0.9c-1.47,0,-2.63,-0.62,-3.46,-1.86c-0.83,-1.24,-1.24,-2.97,-1.24,-5.2c0,-2.23,0.41,-3.97,1.24,-5.21c0.83,-1.24,1.98,-1.86,3.46,-1.86c1.48,0,2.64,0.62,3.47,1.86c0.82,1.24,1.24,2.97,1.24,5.21c0,2.22,-0.41,3.96,-1.24,5.2c-0.82,1.24,-1.98,1.86,-3.47,1.86m10.62,-12.88c-0.46,0,-0.85,0.15,-1.16,0.47c-0.31,0.31,-0.47,0.71,-0.47,1.18c0,0.46,0.15,0.85,0.47,1.16c0.31,0.31,0.7,0.46,1.17,0.46c0.46,0,0.85,-0.15,1.16,-0.47c0.31,-0.31,0.47,-0.69,0.47,-1.15c0,-0.45,-0.16,-0.84,-0.48,-1.17c-0.32,-0.32,-0.7,-0.48,-1.15,-0.48m0,-1.26c0.38,0,0.76,0.07,1.12,0.22c0.35,0.14,0.66,0.36,0.93,0.64c0.28,0.27,0.49,0.58,0.62,0.93c0.13,0.34,0.2,0.72,0.2,1.12c0,0.8,-0.28,1.48,-0.84,2.04c-0.56,0.55,-1.25,0.83,-2.06,0.83c-0.82,0,-1.5,-0.27,-2.05,-0.82c-0.54,-0.54,-0.82,-1.23,-0.82,-2.05c0,-0.81,0.27,-1.5,0.83,-2.07c0.55,-0.56,1.24,-0.84,2.05,-0.84" fill="#000000" stroke="none" fill-opacity="1"/>
</g>
<g fill="#000000" stroke-linecap="butt" stroke-width="0.66">
<g transform="matrix(0 -1 1 0 911.81 222.16)">
<path d="M0,0l192.07,0"/>
</g>
<g transform="matrix(0 -1 1 0 629.29 222.16)">
<path d="M0,0l192.07,0"/>
</g>
<g transform="matrix(0 -1 1 0 346.77 222.16)">
<path d="M0,0l192.07,0"/>
</g>
</g>
</g>
<g clip-path="url(#c1)">
<g fill="none" stroke="#e41a1c" stroke-width="0.66">
<polyline fill="none" points="64.25,126.12 65.38,125.51 66.51,124.91 67.64,124.31 68.77,123.7 69.9,123.1 71.03,122.49 72.17,121.89 73.3,121.29 74.43,120.68 75.56,120.08 76.69,119.48 77.82,118.87 78.95,118.27 80.08,117.67 81.22,117.07 82.35,116.47 83.48,115.87 84.61,115.26 85.74,114.66 86.87,114.06 88,113.47 89.13,112.87 90.26,112.27 91.4,111.67 92.53,111.07 93.66,110.48 94.79,109.88 95.92,109.29 97.05,108.69 98.18,108.1 99.31,107.5 100.45,106.91 101.58,106.32 102.71,105.73 103.84,105.14 104.97,104.55 106.1,103.96 107.23,103.37 108.36,102.79 109.5,102.2 110.63,101.62 111.76,101.03 112.89,100.45 114.02,99.87 115.15,99.29 116.28,98.71 117.41,98.13 118.55,97.55 119.68,96.98 120.81,96.4 121.94,95.83 123.07,95.25 124.2,94.68 125.33,94.11 126.46,93.54 127.59,92.98 128.73,92.41 129.86,91.84 130.99,91.28 132.12,90.72 133.25,90.16 134.38,89.6 135.51,89.04 136.64,88.48 137.78,87.93 138.91,87.37 140.04,86.82 141.17,86.27 142.3,85.72 143.43,85.17 144.56,84.63 145.69,84.08 146.83,83.54 147.96,83 149.09,82.46 150.22,81.92 151.35,81.39 152.48,80.85 153.61,80.32 154.74,79.79 155.88,79.26 157.01,78.74 158.14,78.21 159.27,77.69 160.4,77.17 161.53,76.65 162.66,76.13 163.79,75.62 164.92,75.11 166.06,74.59 167.19,74.09 168.32,73.58 169.45,73.07 170.58,72.57 171.71,72.07 172.84,71.57 173.97,71.08 175.11,70.58 176.24,70.09 177.37,69.6 178.5,69.11 179.63,68.63 180.76,68.15 181.89,67.66 183.02,67.19 184.16,66.71 185.29,66.24 186.42,65.77 187.55,65.3 188.68,64.83 189.81,64.37 190.94,63.9 192.07,63.45 193.2,62.99 194.34,62.53 195.47,62.08 196.6,61.63 197.73,61.19 198.86,60.74 199.99,60.3 201.12,59.86 202.25,59.43 203.39,58.99 204.52,58.56 205.65,58.14 206.78,57.71 207.91,57.29 209.04,56.87 210.17,56.45 211.3,56.03 212.44,55.62 213.57,55.21 214.7,54.81 215.83,54.4 216.96,54 218.09,53.61 219.22,53.21 220.35,52.82 221.49,52.43 222.62,52.04 223.75,51.66 224.88,51.28 226.01,50.9 227.14,50.53 228.27,50.16 229.4,49.79 230.53,49.43 231.67,49.06 232.8,48.7 233.93,48.35 235.06,48 236.19,47.65 237.32,47.3 238.45,46.95 239.58,46.61 240.72,46.28 241.85,45.94 242.98,45.61 244.11,45.28 245.24,44.96 246.37,44.64 247.5,44.32 248.63,44 249.77,43.69 250.9,43.38 252.03,43.08 253.16,42.78 254.29,42.48 255.42,42.18 256.55,41.89 257.68,41.6 258.82,41.32 259.95,41.04 261.08,40.76 262.21,40.48 263.34,40.21 264.47,39.94 265.6,39.68 266.73,39.41 267.86,39.16 269,38.9 270.13,38.65 271.26,38.4 272.39,38.16 273.52,37.92 274.65,37.68 275.78,37.45 276.91,37.22 278.05,36.99 279.18,36.77 280.31,36.55 281.44,36.33 282.57,36.12 283.7,35.91 284.83,35.7 285.96,35.5 287.1,35.3 288.23,35.11 289.36,34.92 290.49,34.73 291.62,34.55 292.75,34.36 293.88,34.19 295.01,34.02 296.15,33.85 297.28,33.68 298.41,33.52 299.54,33.36 300.67,33.2 301.8,33.05 302.93,32.91 304.06,32.76 305.19,32.62 306.33,32.49 307.46,32.35 308.59,32.23 309.72,32.1 310.85,31.98 311.98,31.86 313.11,31.75 314.24,31.64 315.38,31.53 316.51,31.43 317.64,31.33 318.77,31.23 319.9,31.14 321.03,31.05 322.16,30.97 323.29,30.89 324.43,30.81 325.56,30.74 326.69,30.67 327.82,30.61 328.95,30.55 330.08,30.49 331.21,30.43 332.34,30.38 333.47,30.34 334.61,30.3 335.74,30.26 336.87,30.22 338,30.19 339.13,30.16 340.26,30.14 341.39,30.12 342.52,30.11 343.66,30.09 344.79,30.09 345.92,30.08 347.05,30.08 348.18,30.08 349.31,30.09 350.44,30.1 351.57,30.12 352.71,30.13 353.84,30.16 354.97,30.18 356.1,30.21 357.23,30.25 358.36,30.28 359.49,30.32 360.62,30.37 361.76,30.42 362.89,30.47 364.02,30.53 365.15,30.59 366.28,30.65 367.41,30.72 368.54,30.79 369.67,30.87 370.8,30.94 371.94,31.03 373.07,31.11 374.2,31.2 375.33,31.3 376.46,31.4 377.59,31.5 378.72,31.6 379.85,31.71 380.99,31.83 382.12,31.94 383.25,32.06 384.38,32.19 385.51,32.31 386.64,32.45 387.77,32.58 388.9,32.72 390.04,32.86 391.17,33.01 392.3,33.16 393.43,33.31 394.56,33.47 395.69,33.63 396.82,33.79 397.95,33.96 399.09,34.13 400.22,34.31 401.35,34.49 402.48,34.67 403.61,34.86 404.74,35.05 405.87,35.24 407,35.44 408.13,35.64 409.27,35.84 410.4,36.05 411.53,36.26 412.66,36.48 413.79,36.7 414.92,36.92 416.05,37.15 417.18,37.37 418.32,37.61 419.45,37.84 420.58,38.08 421.71,38.33 422.84,38.57 423.97,38.82 425.1,39.08 426.23,39.33 427.37,39.6 428.5,39.86 429.63,40.13 430.76,40.4 431.89,40.67 433.02,40.95 434.15,41.23 435.28,41.51 436.42,41.8 437.55,42.09 438.68,42.39 439.81,42.68 440.94,42.99 442.07,43.29 443.2,43.6 444.33,43.91 445.46,44.22 446.6,44.54 447.73,44.86 448.86,45.18 449.99,45.51 451.12,45.84 452.25,46.17 453.38,46.51 454.51,46.85 455.65,47.19 456.78,47.54 457.91,47.89 459.04,48.24 460.17,48.59 461.3,48.95 462.43,49.31 463.56,49.68 464.7,50.05 465.83,50.42 466.96,50.79 468.09,51.17 469.22,51.54 470.35,51.93 471.48,52.31 472.61,52.7 473.75,53.09 474.88,53.48 476.01,53.88 477.14,54.28 478.27,54.68 479.4,55.09 480.53,55.5 481.66,55.91 482.79,56.32 483.93,56.74 485.06,57.16 486.19,57.58 487.32,58 488.45,58.43 489.58,58.86 490.71,59.29 491.84,59.73 492.98,60.17 494.11,60.61 495.24,61.05 496.37,61.5 497.5,61.94 498.63,62.4 499.76,62.85 500.89,63.3 502.03,63.76 503.16,64.22 504.29,64.69 505.42,65.15 506.55,65.62 507.68,66.09 508.81,66.56 509.94,67.04 511.07,67.52 512.21,68 513.34,68.48 514.47,68.96 515.6,69.45 516.73,69.94 517.86,70.43 518.99,70.92 520.12,71.42 521.26,71.92 522.39,72.42 523.52,72.92 524.65,73.42 525.78,73.93 526.91,74.44 528.04,74.95 529.17,75.46 530.31,75.97 531.44,76.49 532.57,77.01 533.7,77.53 534.83,78.05 535.96,78.58 537.09,79.1 538.22,79.63 539.36,80.16 540.49,80.69 541.62,81.22 542.75,81.76 543.88,82.3 545.01,82.83 546.14,83.37 547.27,83.92 548.4,84.46 549.54,85.01 550.67,85.55 551.8,86.1 552.93,86.65 554.06,87.2 555.19,87.76 556.32,88.31 557.45,88.87 558.59,89.42 559.72,89.98 560.85,90.54 561.98,91.11 563.11,91.67 564.24,92.23 565.37,92.8 566.5,93.37 567.64,93.94 568.77,94.51 569.9,95.08 571.03,95.65 572.16,96.22 573.29,96.8 574.42,97.37 575.55,97.95 576.69,98.53 577.82,99.11 578.95,99.69 580.08,100.27 581.21,100.85 582.34,101.44 583.47,102.02 584.6,102.61 585.73,103.19 586.87,103.78 588,104.37 589.13,104.96 590.26,105.55 591.39,106.14 592.52,106.73 593.65,107.32 594.78,107.91 595.92,108.51 597.05,109.1 598.18,109.7 599.31,110.29 600.44,110.89 601.57,111.49 602.7,112.08 603.83,112.68 604.97,113.28 606.1,113.88 607.23,114.48 608.36,115.08 609.49,115.68 610.62,116.28 611.75,116.88 612.88,117.48 614.02,118.09 615.15,118.69 616.28,119.29 617.41,119.89 618.54,120.5 619.67,121.1 620.8,121.7 621.93,122.31 623.06,122.91 624.2,123.51 625.33,124.12 626.46,124.72 627.59,125.33 628.72,125.93 629.85,126.54 630.98,127.14 632.11,127.74 633.25,128.35 634.38,128.95 635.51,129.56 636.64,130.16 637.77,130.76 638.9,131.37 640.03,131.97 641.16,132.57 642.3,133.18 643.43,133.78 644.56,134.38 645.69,134.98 646.82,135.58 647.95,136.19 649.08,136.79 650.21,137.39 651.34,137.99 652.48,138.59 653.61,139.18 654.74,139.78 655.87,140.38 657,140.98 658.13,141.57 659.26,142.17 660.39,142.77 661.53,143.36 662.66,143.96 663.79,144.55 664.92,145.14 666.05,145.73 667.18,146.32 668.31,146.91 669.44,147.5 670.58,148.09 671.71,148.68 672.84,149.27 673.97,149.85 675.1,150.44 676.23,151.02 677.36,151.61 678.49,152.19 679.63,152.77 680.76,153.35 681.89,153.93 683.02,154.51 684.15,155.08 685.28,155.66 686.41,156.23 687.54,156.81 688.67,157.38 689.81,157.95 690.94,158.52 692.07,159.09 693.2,159.65 694.33,160.22 695.46,160.78 696.59,161.35 697.72,161.91 698.86,162.47 699.99,163.03 701.12,163.58 702.25,164.14 703.38,164.69 704.51,165.24 705.64,165.8 706.77,166.35 707.91,166.89 709.04,167.44 710.17,167.98 711.3,168.53 712.43,169.07 713.56,169.61 714.69,170.15 715.82,170.68 716.96,171.22 718.09,171.75 719.22,172.28 720.35,172.81 721.48,173.34 722.61,173.86 723.74,174.38 724.87,174.91 726,175.43 727.14,175.94 728.27,176.46 729.4,176.97 730.53,177.48 731.66,177.99 732.79,178.5 733.92,179.01 735.05,179.51 736.19,180.01 737.32,180.51 738.45,181.01 739.58,181.5 740.71,181.99 741.84,182.48 742.97,182.97 744.1,183.46 745.24,183.94 746.37,184.42 747.5,184.9 748.63,185.38 749.76,185.85 750.89,186.33 752.02,186.79 753.15,187.26 754.29,187.73 755.42,188.19 756.55,188.65 757.68,189.11 758.81,189.56 759.94,190.01 761.07,190.46 762.2,190.91 763.33,191.36 764.47,191.8 765.6,192.24 766.73,192.67 767.86,193.11 768.99,193.54 770.12,193.97 771.25,194.4 772.38,194.82 773.52,195.24 774.65,195.66 775.78,196.07 776.91,196.49 778.04,196.9 779.17,197.3 780.3,197.71 781.43,198.11 782.57,198.51 783.7,198.9 784.83,199.3 785.96,199.69 787.09,200.07 788.22,200.46 789.35,200.84 790.48,201.22 791.62,201.59 792.75,201.96 793.88,202.33 795.01,202.7 796.14,203.06 797.27,203.42 798.4,203.78 799.53,204.13 800.66,204.48 801.8,204.83 802.93,205.18 804.06,205.52 805.19,205.86 806.32,206.19 807.45,206.52 808.58,206.85 809.71,207.18 810.85,207.5 811.98,207.82 813.11,208.13 814.24,208.45 815.37,208.76 816.5,209.06 817.63,209.37 818.76,209.67 819.9,209.96 821.03,210.26 822.16,210.54 823.29,210.83 824.42,211.11 825.55,211.39 826.68,211.67 827.81,211.94 828.94,212.21 830.08,212.48 831.21,212.74 832.34,213 833.47,213.26 834.6,213.51 835.73,213.76 836.86,214 837.99,214.24 839.13,214.48 840.26,214.72 841.39,214.95 842.52,215.18 843.65,215.4 844.78,215.62 845.91,215.84 847.04,216.05 848.18,216.26 849.31,216.47 850.44,216.67 851.57,216.87 852.7,217.07 853.83,217.26 854.96,217.45 856.09,217.63 857.23,217.82 858.36,217.99 859.49,218.17 860.62,218.34 861.75,218.51 862.88,218.67 864.01,218.83 865.14,218.98 866.27,219.14 867.41,219.28 868.54,219.43 869.67,219.57 870.8,219.71 871.93,219.84 873.06,219.97 874.19,220.1 875.32,220.22 876.46,220.34 877.59,220.45 878.72,220.57 879.85,220.67 880.98,220.78 882.11,220.88 883.24,220.97 884.37,221.07 885.51,221.16 886.64,221.24 887.77,221.32 888.9,221.4 890.03,221.47 891.16,221.54 892.29,221.61 893.42,221.67 894.56,221.73 895.69,221.79 896.82,221.84 897.95,221.88 899.08,221.93 900.21,221.97 901.34,222 902.47,222.04 903.6,222.06 904.74,222.09 905.87,222.11 907,222.13 908.13,222.14 909.26,222.15 910.39,222.15 911.52,222.16 912.65,222.15 913.79,222.15 914.92,222.14 916.05,222.12 917.18,222.11 918.31,222.09 919.44,222.06 920.57,222.03 921.7,222 922.84,221.96 923.97,221.92 925.1,221.88 926.23,221.83 927.36,221.78 928.49,221.73 929.62,221.67 930.75,221.6 931.89,221.54 933.02,221.47 934.15,221.39 935.28,221.32 936.41,221.23 937.54,221.15 938.67,221.06 939.8,220.97 940.93,220.87 942.07,220.77 943.2,220.67 944.33,220.56 945.46,220.45 946.59,220.33 947.72,220.21 948.85,220.09 949.98,219.96 951.12,219.83 952.25,219.7 953.38,219.56 954.51,219.42 955.64,219.27 956.77,219.12 957.9,218.97 959.03,218.82 960.17,218.66 961.3,218.49 962.43,218.33 963.56,218.15 964.69,217.98 965.82,217.8 966.95,217.62 968.08,217.44 969.21,217.25 970.35,217.05 971.48,216.86 972.61,216.66 973.74,216.45 974.87,216.25 976,216.04 977.13,215.82 978.26,215.61 979.4,215.38 980.53,215.16 981.66,214.93 982.79,214.7 983.92,214.47 985.05,214.23 986.18,213.98 987.31,213.74 988.45,213.49 989.58,213.24 990.71,212.98 991.84,212.72 992.97,212.46 994.1,212.19 995.23,211.92 996.36,211.65 997.5,211.37 998.63,211.09 999.76,210.81 1000.89,210.52 1002.02,210.23 1003.15,209.94 1004.28,209.64 1005.41,209.34 1006.54,209.04 1007.68,208.73 1008.81,208.42 1009.94,208.11 1011.07,207.79 1012.2,207.48 1013.33,207.15 1014.46,206.83 1015.59,206.5 1016.73,206.17 1017.86,205.83 1018.99,205.49 1020.12,205.15 1021.25,204.8 1022.38,204.46 1023.51,204.11 1024.64,203.75 1025.78,203.39 1026.91,203.03 1028.04,202.67 1029.17,202.3 1030.3,201.93 1031.43,201.56 1032.56,201.19 1033.69,200.81 1034.83,200.43 1035.96,200.04 1037.09,199.66 1038.22,199.27 1039.35,198.87 1040.48,198.48 1041.61,198.08 1042.74,197.68 1043.87,197.27 1045.01,196.86 1046.14,196.45 1047.27,196.04 1048.4,195.63 1049.53,195.21 1050.66,194.79 1051.79,194.36 1052.92,193.94 1054.06,193.51 1055.19,193.08 1056.32,192.64 1057.45,192.2 1058.58,191.76 1059.71,191.32 1060.84,190.88 1061.97,190.43 1063.11,189.98 1064.24,189.53 1065.37,189.07 1066.5,188.61 1067.63,188.15 1068.76,187.69 1069.89,187.23 1071.02,186.76 1072.16,186.29 1073.29,185.82 1074.42,185.34 1075.55,184.87 1076.68,184.39 1077.81,183.91 1078.94,183.42 1080.07,182.94 1081.2,182.45 1082.34,181.96 1083.47,181.46 1084.6,180.97 1085.73,180.47 1086.86,179.97 1087.99,179.47 1089.12,178.97 1090.25,178.46 1091.39,177.95 1092.52,177.45 1093.65,176.93 1094.78,176.42 1095.91,175.9 1097.04,175.39 1098.17,174.87 1099.3,174.35 1100.44,173.82 1101.57,173.3 1102.7,172.77 1103.83,172.24 1104.96,171.71 1106.09,171.18 1107.22,170.64 1108.35,170.11 1109.49,169.57 1110.62,169.03 1111.75,168.49 1112.88,167.94 1114.01,167.4 1115.14,166.85 1116.27,166.3 1117.4,165.75 1118.53,165.2 1119.67,164.65 1120.8,164.1 1121.93,163.54 1123.06,162.98 1124.19,162.42 1125.32,161.86 1126.45,161.3 1127.58,160.74 1128.72,160.18 1129.85,159.61 1130.98,159.04 1132.11,158.47 1133.24,157.9 1134.37,157.33 1135.5,156.76 1136.63,156.19 1137.77,155.61 1138.9,155.04 1140.03,154.46 1141.16,153.88 1142.29,153.31 1143.42,152.72 1144.55,152.14 1145.68,151.56 1146.81,150.98 1147.95,150.39 1149.08,149.81 1150.21,149.22 1151.34,148.64 1152.47,148.05 1153.6,147.46 1154.73,146.87 1155.86,146.28 1157,145.69 1158.13,145.1 1159.26,144.5 1160.39,143.91 1161.52,143.32 1162.65,142.72 1163.78,142.13 1164.91,141.53 1166.05,140.93 1167.18,140.34 1168.31,139.74 1169.44,139.14 1170.57,138.54 1171.7,137.94 1172.83,137.34 1173.96,136.74 1175.1,136.14 1176.23,135.54 1177.36,134.94 1178.49,134.34 1179.62,133.73 1180.75,133.13 1181.88,132.53 1183.01,131.93 1184.14,131.32 1185.28,130.72 1186.41,130.11 1187.54,129.51 1188.67,128.91 1189.8,128.3 1190.93,127.7 1192.06,127.09 1193.19,126.49 1194.33,125.89"/>
</g>
</g>
<g clip-path="url(#c0)">
<g fill="none" stroke-linecap="butt" stroke-width="0.66">
<path d="M64.25,222.16l0,-192.07"/>
<path d="M64.25,222.16l4,0M64.25,212.55l4,0M64.25,202.95l4,0M64.25,193.34l4,0M64.25,183.74l4,0M64.25,174.14l4,0M64.25,164.53l4,0M64.25,154.93l4,0M64.25,145.33l4,0M64.25,135.72l4,0M64.25,126.12l4,0M64.25,116.51l4,0M64.25,106.91l4,0M64.25,97.31l4,0M64.25,87.7l4,0M64.25,78.1l4,0M64.25,68.5l4,0M64.25,58.89l4,0M64.25,49.29l4,0M64.25,39.68l4,0M64.25,30.08l4,0"/>
<path d="M64.25,222.16l8,0M64.25,174.14l8,0M64.25,126.12l8,0M64.25,78.1l8,0M64.25,30.08l8,0"/>
</g>
<g fill="none" stroke-width="0.1">
<g transform="matrix(0 -1 1 0 17.4 167.72)">
<path d="m3.83,-5.33l0,0.95c0,1.16,0.22,2.05,0.67,2.67c0.44,0.61,1.09,0.91,1.95,0.91c0.85,0,1.5,-0.34,1.94,-1.03c0.44,-0.68,0.66,-1.7,0.66,-3.04c0,-1.34,-0.22,-2.35,-0.66,-3.03c-0.44,-0.68,-1.09,-1.02,-1.94,-1.02c-0.85,0,-1.5,0.3,-1.95,0.92c-0.44,0.61,-0.67,1.5,-0.67,2.66m-1.67,-3.39l-1.61,0l0,-0.97l3.29,0l0,1.51c0.32,-0.6,0.74,-1.05,1.25,-1.34c0.5,-0.28,1.13,-0.43,1.88,-0.43c1.19,0,2.16,0.47,2.92,1.41c0.75,0.94,1.13,2.17,1.13,3.69c0,1.52,-0.37,2.75,-1.13,3.7c-0.75,0.94,-1.72,1.41,-2.92,1.41c-0.74,0,-1.37,-0.14,-1.88,-0.43c-0.5,-0.28,-0.92,-0.73,-1.25,-1.34l0,4.42l1.58,0l0,0.97l-4.88,0l0,-0.97l1.61,0l0,-11.64m18.75,-0.99l0,2.42l-0.96,0c-0.03,-0.48,-0.16,-0.84,-0.4,-1.07c-0.23,-0.23,-0.58,-0.35,-1.04,-0.35c-0.82,0,-1.46,0.28,-1.9,0.85c-0.44,0.57,-0.66,1.39,-0.66,2.46l0,4.43l1.94,0l0,0.96l-5.14,0l0,-0.96l1.51,0l0,-7.77l-1.6,0l0,-0.95l3.28,0l0,1.72c0.32,-0.67,0.75,-1.17,1.26,-1.5c0.51,-0.32,1.14,-0.48,1.88,-0.48c0.27,0,0.56,0.02,0.86,0.06c0.3,0.04,0.61,0.1,0.95,0.18m10.13,5.05l-7.24,0l0,0.07c0,1.3,0.24,2.29,0.73,2.96c0.49,0.66,1.22,1,2.18,1c0.73,0,1.34,-0.19,1.81,-0.57c0.47,-0.38,0.8,-0.96,0.99,-1.72l1.35,0c-0.26,1.06,-0.76,1.86,-1.48,2.4c-0.72,0.53,-1.66,0.8,-2.84,0.8c-1.41,0,-2.55,-0.46,-3.41,-1.4c-0.86,-0.93,-1.29,-2.17,-1.29,-3.72c0,-1.53,0.42,-2.77,1.26,-3.7c0.84,-0.93,1.95,-1.4,3.33,-1.4c1.46,0,2.59,0.45,3.37,1.35c0.78,0.9,1.19,2.21,1.22,3.93m-1.98,-0.96c-0.03,-1.13,-0.27,-1.98,-0.71,-2.56c-0.44,-0.57,-1.07,-0.86,-1.9,-0.86c-0.77,0,-1.38,0.28,-1.82,0.86c-0.44,0.57,-0.71,1.43,-0.81,2.55l5.25,0m3.96,5.1l0,-2.26l0.96,0c0.02,0.72,0.25,1.26,0.68,1.62c0.42,0.35,1.06,0.53,1.9,0.53c0.75,0,1.33,-0.14,1.72,-0.42c0.39,-0.28,0.59,-0.69,0.59,-1.23c0,-0.42,-0.14,-0.76,-0.43,-1.03c-0.28,-0.26,-0.9,-0.54,-1.83,-0.84l-1.21,-0.41c-0.83,-0.26,-1.43,-0.6,-1.81,-1c-0.37,-0.4,-0.56,-0.91,-0.56,-1.53c0,-0.88,0.32,-1.58,0.97,-2.09c0.65,-0.5,1.55,-0.75,2.7,-0.75c0.51,0,1.05,0.06,1.61,0.2c0.56,0.13,1.15,0.32,1.75,0.58l0,2.11l-0.96,0c-0.02,-0.62,-0.24,-1.11,-0.65,-1.47c-0.41,-0.35,-0.97,-0.52,-1.68,-0.52c-0.7,0,-1.24,0.12,-1.6,0.37c-0.36,0.24,-0.54,0.62,-0.54,1.12c0,0.4,0.13,0.73,0.41,0.98c0.27,0.24,0.82,0.49,1.64,0.75l1.33,0.41c0.91,0.28,1.58,0.64,1.98,1.07c0.4,0.42,0.6,0.98,0.6,1.65c0,0.91,-0.35,1.64,-1.05,2.16c-0.7,0.52,-1.67,0.78,-2.9,0.78c-0.62,0,-1.23,-0.06,-1.83,-0.2c-0.59,-0.13,-1.19,-0.33,-1.78,-0.6m9.59,0l0,-2.26l0.96,0c0.02,0.72,0.25,1.26,0.68,1.62c0.42,0.35,1.06,0.53,1.9,0.53c0.75,0,1.33,-0.14,1.72,-0.42c0.39,-0.28,0.59,-0.69,0.59,-1.23c0,-0.42,-0.14,-0.76,-0.43,-1.03c-0.28,-0.26,-0.9,-0.54,-1.83,-0.84l-1.21,-0.41c-0.83,-0.26,-1.43,-0.6,-1.81,-1c-0.37,-0.4,-0.56,-0.91,-0.56,-1.53c0,-0.88,0.32,-1.58,0.97,-2.09c0.65,-0.5,1.55,-0.75,2.7,-0.75c0.51,0,1.05,0.06,1.61,0.2c0.56,0.13,1.15,0.32,1.75,0.58l0,2.11l-0.96,0c-0.02,-0.62,-0.24,-1.11,-0.65,-1.47c-0.41,-0.35,-0.97,-0.52,-1.68,-0.52c-0.7,0,-1.24,0.12,-1.6,0.37c-0.36,0.24,-0.54,0.62,-0.54,1.12c0,0.4,0.13,0.73,0.41,0.98c0.27,0.24,0.82,0.49,1.64,0.75l1.33,0.41c0.91,0.28,1.58,0.64,1.98,1.07c0.4,0.42,0.6,0.98,0.6,1.65c0,0.91,-0.35,1.64,-1.05,2.16c-0.7,0.52,-1.67,0.78,-2.9,0.78c-0.62,0,-1.23,-0.06,-1.83,-0.2c-0.59,-0.13,-1.19,-0.33,-1.78,-0.6m15.16,-9.16l3.14,0l0,8.73l1.58,0l0,0.96l-3.26,0l0,-1.71c-0.31,0.64,-0.71,1.13,-1.2,1.47c-0.49,0.33,-1.06,0.5,-1.71,0.5c-1.07,0,-1.87,-0.3,-2.37,-0.91c-0.5,-0.61,-0.76,-1.57,-0.76,-2.88l0,-5.19l-1.51,0l0,-0.97l3.2,0l0,5.65c0,1.18,0.14,1.99,0.43,2.42c0.28,0.43,0.8,0.65,1.54,0.65c0.77,0,1.37,-0.28,1.78,-0.85c0.4,-0.57,0.61,-1.4,0.61,-2.49l0,-4.41l-1.46,0l0,-0.97m14.36,-0.01l0,2.42l-0.96,0c-0.03,-0.48,-0.16,-0.84,-0.4,-1.07c-0.23,-0.23,-0.58,-0.35,-1.04,-0.35c-0.82,0,-1.46,0.28,-1.9,0.85c-0.44,0.57,-0.66,1.39,-0.66,2.46l0,4.43l1.94,0l0,0.96l-5.14,0l0,-0.96l1.51,0l0,-7.77l-1.6,0l0,-0.95l3.28,0l0,1.72c0.32,-0.67,0.75,-1.17,1.26,-1.5c0.51,-0.32,1.14,-0.48,1.88,-0.48c0.27,0,0.56,0.02,0.86,0.06c0.3,0.04,0.61,0.1,0.95,0.18m10.13,5.05l-7.24,0l0,0.07c0,1.3,0.24,2.29,0.73,2.96c0.49,0.66,1.22,1,2.18,1c0.73,0,1.34,-0.19,1.81,-0.57c0.47,-0.38,0.8,-0.96,0.99,-1.72l1.35,0c-0.26,1.06,-0.76,1.86,-1.48,2.4c-0.72,0.53,-1.66,0.8,-2.84,0.8c-1.41,0,-2.55,-0.46,-3.41,-1.4c-0.86,-0.93,-1.29,-2.17,-1.29,-3.72c0,-1.53,0.42,-2.77,1.26,-3.7c0.84,-0.93,1.95,-1.4,3.33,-1.4c1.46,0,2.59,0.45,3.37,1.35c0.78,0.9,1.19,2.21,1.22,3.93m-1.98,-0.96c-0.03,-1.13,-0.27,-1.98,-0.71,-2.56c-0.44,-0.57,-1.07,-0.86,-1.9,-0.86c-0.77,0,-1.38,0.28,-1.82,0.86c-0.44,0.57,-0.71,1.43,-0.81,2.55l5.25,0" fill="#000000" stroke="none" fill-opacity="1"/>
</g>
<path d="m34.26,222.65l11.7,0l0,1.47l-11.7,0l0,-1.47m16.34,6.6l0,-0.96l2.37,0l0,-11.34l-2.74,1.77l0,-1.19l3.32,-2.15l1.26,0l0,12.91l2.37,0l0,0.96l-6.58,0" fill="#000000" stroke="none" fill-opacity="1"/>
<path d="m53.89,132.58c0.93,0,1.62,-0.51,2.09,-1.53c0.46,-1.02,0.69,-2.56,0.69,-4.62c0,-2.06,-0.23,-3.61,-0.69,-4.63c-0.46,-1.02,-1.16,-1.53,-2.09,-1.53c-0.93,0,-1.62,0.51,-2.09,1.53c-0.46,1.02,-0.69,2.56,-0.69,4.63c0,2.06,0.23,3.6,0.69,4.62c0.46,1.02,1.15,1.53,2.09,1.53m0,0.9c-1.47,0,-2.63,-0.62,-3.46,-1.86c-0.83,-1.24,-1.24,-2.97,-1.24,-5.2c0,-2.23,0.41,-3.97,1.24,-5.21c0.83,-1.24,1.98,-1.86,3.46,-1.86c1.48,0,2.64,0.62,3.47,1.86c0.82,1.24,1.24,2.97,1.24,5.21c0,2.22,-0.41,3.96,-1.24,5.2c-0.82,1.24,-1.98,1.86,-3.47,1.86" fill="#000000" stroke="none" fill-opacity="1"/>
<path d="m36.05,84.56c0.93,0,1.62,-0.51,2.09,-1.53c0.46,-1.02,0.69,-2.56,0.69,-4.62c0,-2.06,-0.23,-3.61,-0.69,-4.63c-0.46,-1.02,-1.16,-1.53,-2.09,-1.53c-0.93,0,-1.62,0.51,-2.09,1.53c-0.46,1.02,-0.69,2.56,-0.69,4.63c0,2.06,0.23,3.6,0.69,4.62c0.46,1.02,1.15,1.53,2.09,1.53m0,0.9c-1.47,0,-2.63,-0.62,-3.46,-1.86c-0.83,-1.24,-1.24,-2.97,-1.24,-5.2c0,-2.23,0.41,-3.97,1.24,-5.21c0.83,-1.24,1.98,-1.86,3.46,-1.86c1.48,0,2.64,0.62,3.47,1.86c0.82,1.24,1.24,2.97,1.24,5.21c0,2.22,-0.41,3.96,-1.24,5.2c-0.82,1.24,-1.98,1.86,-3.47,1.86m6.62,1.55c0.57,-0.41,0.99,-0.91,1.26,-1.48c0.26,-0.56,0.4,-1.25,0.4,-2.06l0,-0.33l1.79,0c-0.04,1.04,-0.29,1.93,-0.73,2.68c-0.44,0.74,-1.1,1.39,-1.99,1.93l-0.73,-0.72m14.67,-15.45l0,1.49l-6.24,0l0,3.9c0.31,-0.21,0.68,-0.38,1.1,-0.49c0.42,-0.1,0.89,-0.16,1.42,-0.16c1.47,0,2.63,0.4,3.48,1.22c0.85,0.81,1.27,1.92,1.27,3.34c0,1.44,-0.43,2.56,-1.29,3.37c-0.86,0.8,-2.07,1.2,-3.62,1.2c-0.62,0,-1.26,-0.07,-1.92,-0.22c-0.65,-0.15,-1.32,-0.38,-2.01,-0.69l0,-2.64l1.03,0c0.05,0.86,0.33,1.52,0.82,1.98c0.49,0.45,1.19,0.68,2.08,0.68c0.96,0,1.7,-0.31,2.21,-0.95c0.51,-0.63,0.77,-1.54,0.77,-2.72c0,-1.18,-0.25,-2.08,-0.77,-2.71c-0.51,-0.62,-1.25,-0.94,-2.22,-0.94c-0.54,0,-1.03,0.09,-1.44,0.29c-0.41,0.19,-0.78,0.49,-1.1,0.9l-0.78,0l0,-6.84l7.21,0" fill="#000000" stroke="none" fill-opacity="1"/>
<path d="m50.61,37.18l0,-0.96l2.37,0l0,-11.34l-2.74,1.77l0,-1.19l3.32,-2.15l1.26,0l0,12.91l2.37,0l0,0.96l-6.58,0" fill="#000000" stroke="none" fill-opacity="1"/>
</g>
<g fill="none" stroke-linecap="butt" stroke-width="0.66">
<path d="M64.25,222.16l1130.07,0"/>
<path d="M64.25,222.16l0,-4M154.14,222.16l0,-4M244.04,222.16l0,-4M333.93,222.16l0,-4M423.82,222.16l0,-4M513.72,222.16l0,-4M603.61,222.16l0,-4M693.51,222.16l0,-4M783.4,222.16l0,-4M873.3,222.16l0,-4M963.19,222.16l0,-4M1053.08,222.16l0,-4M1142.98,222.16l0,-4"/>
<path d="M64.25,222.16l0,-8M244.04,222.16l0,-8M423.82,222.16l0,-8M603.61,222.16l0,-8M783.4,222.16l0,-8M963.19,222.16l0,-8M1142.98,222.16l0,-8"/>
</g>
<g fill="none" stroke-width="0.1">
<path d="m610.16,241.88l-1.47,0l0,-0.97l1.47,0l0,-3.01l1.69,0l0,3.01l3.15,0l0,0.97l-3.15,0l0,6.16c0,0.82,0.07,1.34,0.23,1.57c0.15,0.23,0.45,0.34,0.87,0.34c0.43,0,0.75,-0.12,0.95,-0.38c0.2,-0.25,0.3,-0.67,0.32,-1.25l1.26,0c-0.04,0.88,-0.28,1.52,-0.72,1.93c-0.43,0.4,-1.08,0.61,-1.97,0.61c-0.96,0,-1.65,-0.21,-2.05,-0.64c-0.4,-0.42,-0.6,-1.15,-0.6,-2.18l0,-6.16m7.31,-3.98c0,-0.28,0.1,-0.52,0.3,-0.73c0.2,-0.2,0.44,-0.31,0.73,-0.31c0.28,0,0.52,0.1,0.72,0.31c0.2,0.2,0.3,0.45,0.3,0.73c0,0.28,-0.1,0.52,-0.3,0.72c-0.2,0.2,-0.44,0.3,-0.73,0.3c-0.28,0,-0.53,-0.1,-0.73,-0.3c-0.2,-0.2,-0.3,-0.44,-0.3,-0.72m2.14,11.75l1.58,0l0,0.96l-4.87,0l0,-0.96l1.6,0l0,-7.76l-1.6,0l0,-0.97l3.28,0l0,8.73m11.7,-6.84c0.32,-0.71,0.73,-1.24,1.23,-1.61c0.5,-0.36,1.08,-0.54,1.75,-0.54c1.01,0,1.77,0.31,2.27,0.94c0.49,0.62,0.74,1.58,0.74,2.85l0,5.2l1.51,0l0,0.96l-4.65,0l0,-0.96l1.46,0l0,-5.01c0,-0.99,-0.14,-1.69,-0.43,-2.11c-0.29,-0.42,-0.77,-0.63,-1.45,-0.63c-0.74,0,-1.31,0.28,-1.71,0.84c-0.39,0.56,-0.58,1.39,-0.58,2.47l0,4.43l1.46,0l0,0.96l-4.6,0l0,-0.96l1.46,0l0,-5.07c0,-0.96,-0.14,-1.65,-0.43,-2.06c-0.29,-0.41,-0.77,-0.61,-1.45,-0.61c-0.74,0,-1.31,0.28,-1.71,0.84c-0.39,0.56,-0.58,1.39,-0.58,2.47l0,4.43l1.46,0l0,0.96l-4.65,0l0,-0.96l1.51,0l0,-7.77l-1.6,0l0,-0.95l3.28,0l0,1.72c0.31,-0.64,0.7,-1.13,1.18,-1.47c0.48,-0.34,1.02,-0.51,1.63,-0.51c0.75,0,1.38,0.18,1.89,0.56c0.5,0.37,0.84,0.9,1.01,1.59m18.17,3.14l-7.24,0l0,0.07c0,1.3,0.24,2.29,0.73,2.96c0.49,0.66,1.22,1,2.18,1c0.73,0,1.34,-0.19,1.81,-0.57c0.47,-0.38,0.8,-0.96,0.99,-1.72l1.35,0c-0.26,1.06,-0.76,1.86,-1.48,2.4c-0.72,0.53,-1.66,0.8,-2.84,0.8c-1.41,0,-2.55,-0.46,-3.41,-1.4c-0.86,-0.93,-1.29,-2.17,-1.29,-3.72c0,-1.53,0.42,-2.77,1.26,-3.7c0.84,-0.93,1.95,-1.4,3.33,-1.4c1.46,0,2.59,0.45,3.37,1.35c0.78,0.9,1.19,2.21,1.22,3.93m-1.98,-0.96c-0.03,-1.13,-0.27,-1.98,-0.71,-2.56c-0.44,-0.57,-1.07,-0.86,-1.9,-0.86c-0.77,0,-1.38,0.28,-1.82,0.86c-0.44,0.57,-0.71,1.43,-0.81,2.55l5.25,0" fill="#000000" stroke="none" fill-opacity="1"/>
</g>
<g fill="none" stroke-linecap="butt" stroke-width="0.66">
<path d="M1194.33,222.16l0,-192.07"/>
<path d="M1194.33,222.16l-4,0M1194.33,212.55l-4,0M1194.33,202.95l-4,0M1194.33,193.34l-4,0M1194.33,183.74l-4,0M1194.33,174.14l-4,0M1194.33,164.53l-4,0M1194.33,154.93l-4,0M1194.33,145.33l-4,0M1194.33,135.72l-4,0M1194.33,126.12l-4,0M1194.33,116.51l-4,0M1194.33,106.91l-4,0M1194.33,97.31l-4,0M1194.33,87.7l-4,0M1194.33,78.1l-4,0M1194.33,68.5l-4,0M1194.33,58.89l-4,0M1194.33,49.29l-4,0M1194.33,39.68l-4,0M1194.33,30.08l-4,0"/>
<path d="M1194.33,222.16l-8,0M1194.33,174.14l-8,0M1194.33,126.12l-8,0M1194.33,78.1l-8,0M1194.33,30.08l-8,0"/>
<path d="M64.25,30.08l1130.07,0"/>
<path d="M64.25,30.08l0,4M154.14,30.08l0,4M244.04,30.08l0,4M333.93,30.08l0,4M423.82,30.08l0,4M513.72,30.08l0,4M603.61,30.08l0,4M693.51,30.08l0,4M783.4,30.08l0,4M873.3,30.08l0,4M963.19,30.08l0,4M1053.08,30.08l0,4M1142.98,30.08l0,4"/>
<path d="M64.25,30.08l0,8M244.04,30.08l0,8M423.82,30.08l0,8M603.61,30.08l0,8M783.4,30.08l0,8M963.19,30.08l0,8M1142.98,30.08l0,8"/>
</g>
<g fill="#ffffff" stroke-width="0.66">
<path d="m64.25,312.64l1130.07,0l0,190.03l-1130.07,0l0,-190.03"/>
</g>
<g fill="none" stroke-width="0.1">
<path d="m1139.64,394.6c0.71,-0.26,1.39,-0.47,2.05,-0.61c0.65,-0.14,1.26,-0.21,1.83,-0.21c1.33,0,2.37,0.28,3.12,0.86c0.74,0.57,1.12,1.37,1.12,2.39c0,0.82,-0.25,1.5,-0.77,2.05c-0.51,0.55,-1.25,0.92,-2.2,1.11c1.11,0.15,1.98,0.56,2.6,1.21c0.61,0.65,0.92,1.5,0.92,2.54c0,1.27,-0.42,2.24,-1.28,2.92c-0.85,0.67,-2.08,1.01,-3.69,1.01c-0.71,0,-1.4,-0.07,-2.08,-0.22c-0.67,-0.15,-1.35,-0.38,-2.02,-0.69l0,-2.64l1.02,0c0.06,0.87,0.35,1.53,0.88,1.98c0.52,0.45,1.27,0.67,2.23,0.67c0.93,0,1.66,-0.26,2.2,-0.8c0.53,-0.53,0.8,-1.27,0.8,-2.21c0,-1.07,-0.27,-1.88,-0.83,-2.43c-0.55,-0.55,-1.36,-0.82,-2.43,-0.82l-0.86,0l0,-0.93l0.45,0c1.06,0,1.86,-0.22,2.39,-0.66c0.53,-0.44,0.79,-1.1,0.79,-1.99c0,-0.79,-0.21,-1.4,-0.65,-1.83c-0.43,-0.42,-1.06,-0.63,-1.88,-0.63c-0.82,0,-1.45,0.19,-1.91,0.58c-0.45,0.38,-0.72,0.96,-0.79,1.73l-1.02,0l0,-2.4m16.19,12.41c0.85,0,1.51,-0.31,1.98,-0.94c0.46,-0.63,0.69,-1.53,0.69,-2.71c0,-1.18,-0.23,-2.08,-0.69,-2.71c-0.46,-0.63,-1.12,-0.94,-1.98,-0.94c-0.86,0,-1.53,0.3,-1.98,0.91c-0.45,0.6,-0.68,1.48,-0.68,2.63c0,1.21,0.23,2.14,0.69,2.79c0.46,0.65,1.12,0.97,1.98,0.97m-2.97,-6.86c0.41,-0.45,0.88,-0.79,1.4,-1.02c0.52,-0.22,1.11,-0.33,1.77,-0.33c1.35,0,2.43,0.4,3.21,1.22c0.78,0.81,1.18,1.92,1.18,3.34c0,1.38,-0.42,2.48,-1.27,3.31c-0.84,0.83,-1.98,1.24,-3.4,1.24c-1.54,0,-2.72,-0.57,-3.55,-1.72c-0.82,-1.14,-1.24,-2.78,-1.24,-4.91c0,-2.38,0.48,-4.23,1.46,-5.54c0.97,-1.3,2.36,-1.96,4.14,-1.96c0.48,0,0.98,0.04,1.51,0.13c0.52,0.09,1.07,0.22,1.62,0.41l0,2.24l-1.03,0c-0.07,-0.61,-0.3,-1.08,-0.7,-1.4c-0.39,-0.32,-0.92,-0.48,-1.59,-0.48c-1.18,0,-2.06,0.44,-2.63,1.34c-0.57,0.89,-0.87,2.27,-0.89,4.12m14.7,6.86c0.93,0,1.62,-0.51,2.09,-1.53c0.46,-1.02,0.69,-2.56,0.69,-4.62c0,-2.06,-0.23,-3.61,-0.69,-4.63c-0.46,-1.02,-1.16,-1.53,-2.09,-1.53c-0.93,0,-1.62,0.51,-2.09,1.53c-0.46,1.02,-0.69,2.56,-0.69,4.63c0,2.06,0.23,3.6,0.69,4.62c0.46,1.02,1.15,1.53,2.09,1.53m0,0.9c-1.47,0,-2.63,-0.62,-3.46,-1.86c-0.83,-1.24,-1.24,-2.97,-1.24,-5.2c0,-2.23,0.41,-3.97,1.24,-5.21c0.83,-1.24,1.98,-1.86,3.46,-1.86c1.48,0,2.64,0.62,3.47,1.86c0.82,1.24,1.24,2.97,1.24,5.21c0,2.22,-0.41,3.96,-1.24,5.2c-0.82,1.24,-1.98,1.86,-3.47,1.86m10.62,-12.88c-0.46,0,-0.85,0.15,-1.16,0.47c-0.31,0.31,-0.47,0.71,-0.47,1.18c0,0.46,0.15,0.85,0.47,1.16c0.31,0.31,0.7,0.46,1.17,0.46c0.46,0,0.85,-0.15,1.16,-0.47c0.31,-0.31,0.47,-0.69,0.47,-1.15c0,-0.45,-0.16,-0.84,-0.48,-1.17c-0.32,-0.32,-0.7,-0.48,-1.15,-0.48m0,-1.26c0.38,0,0.76,0.07,1.12,0.22c0.35,0.14,0.66,0.36,0.93,0.64c0.28,0.27,0.49,0.58,0.62,0.93c0.13,0.34,0.2,0.72,0.2,1.12c0,0.8,-0.28,1.48,-0.84,2.04c-0.56,0.55,-1.25,0.83,-2.06,0.83c-0.82,0,-1.5,-0.27,-2.05,-0.82c-0.54,-0.54,-0.82,-1.23,-0.82,-2.05c0,-0.81,0.27,-1.5,0.83,-2.07c0.55,-0.56,1.24,-0.84,2.05,-0.84" fill="#000000" stroke="none" fill-opacity="1"/>
<path d="m916.46,397.27l-1.02,0l0,-2.42c0.65,-0.34,1.3,-0.61,1.96,-0.79c0.66,-0.18,1.3,-0.27,1.94,-0.27c1.41,0,2.53,0.34,3.35,1.03c0.82,0.68,1.23,1.62,1.23,2.8c0,1.33,-0.93,2.92,-2.79,4.78c-0.14,0.13,-0.25,0.24,-0.32,0.32l-3.44,3.44l5.68,0l0,-1.68l1.06,0l0,3.17l-8.79,0l0,-0.99l4.13,-4.12c0.91,-0.91,1.56,-1.75,1.95,-2.51c0.38,-0.76,0.58,-1.56,0.58,-2.4c0,-0.91,-0.23,-1.63,-0.71,-2.15c-0.47,-0.51,-1.13,-0.77,-1.97,-0.77c-0.86,0,-1.54,0.21,-2.01,0.64c-0.47,0.43,-0.75,1.08,-0.84,1.94m20.05,-2.32l-5.33,12.7l-1.36,0l5.08,-12.13l-6.3,0l0,1.67l-1.06,0l0,-3.17l8.97,0l0,0.93m7.29,12.06c0.93,0,1.62,-0.51,2.09,-1.53c0.46,-1.02,0.69,-2.56,0.69,-4.62c0,-2.06,-0.23,-3.61,-0.69,-4.63c-0.46,-1.02,-1.16,-1.53,-2.09,-1.53c-0.93,0,-1.62,0.51,-2.09,1.53c-0.46,1.02,-0.69,2.56,-0.69,4.63c0,2.06,0.23,3.6,0.69,4.62c0.46,1.02,1.15,1.53,2.09,1.53m0,0.9c-1.47,0,-2.63,-0.62,-3.46,-1.86c-0.83,-1.24,-1.24,-2.97,-1.24,-5.2c0,-2.23,0.41,-3.97,1.24,-5.21c0.83,-1.24,1.98,-1.86,3.46,-1.86c1.48,0,2.64,0.62,3.47,1.86c0.82,1.24,1.24,2.97,1.24,5.21c0,2.22,-0.41,3.96,-1.24,5.2c-0.82,1.24,-1.98,1.86,-3.47,1.86m10.62,-12.88c-0.46,0,-0.85,0.15,-1.16,0.47c-0.31,0.31,-0.47,0.71,-0.47,1.18c0,0.46,0.15,0.85,0.47,1.16c0.31,0.31,0.7,0.46,1.17,0.46c0.46,0,0.85,-0.15,1.16,-0.47c0.31,-0.31,0.47,-0.69,0.47,-1.15c0,-0.45,-0.16,-0.84,-0.48,-1.17c-0.32,-0.32,-0.7,-0.48,-1.15,-0.48m0,-1.26c0.38,0,0.76,0.07,1.12,0.22c0.35,0.14,0.66,0.36,0.93,0.64c0.28,0.27,0.49,0.58,0.62,0.93c0.13,0.34,0.2,0.72,0.2,1.12c0,0.8,-0.28,1.48,-0.84,2.04c-0.56,0.55,-1.25,0.83,-2.06,0.83c-0.82,0,-1.5,-0.27,-2.05,-0.82c-0.54,-0.54,-0.82,-1.23,-0.82,-2.05c0,-0.81,0.27,-1.5,0.83,-2.07c0.55,-0.56,1.24,-0.84,2.05,-0.84" fill="#000000" stroke="none" fill-opacity="1"/>
<path d="m637.89,407.65l0,-0.96l2.37,0l0,-11.34l-2.74,1.77l0,-1.19l3.32,-2.15l1.26,0l0,12.91l2.37,0l0,0.96l-6.58,0m17.95,-3.72c0,-0.97,-0.24,-1.73,-0.72,-2.26c-0.48,-0.53,-1.16,-0.8,-2.04,-0.8c-0.87,0,-1.55,0.26,-2.03,0.8c-0.48,0.53,-0.72,1.29,-0.72,2.26c0,0.98,0.24,1.73,0.72,2.27c0.48,0.53,1.16,0.8,2.03,0.8c0.87,0,1.55,-0.26,2.04,-0.8c0.48,-0.53,0.72,-1.29,0.72,-2.27m-0.37,-6.62c0,-0.82,-0.2,-1.47,-0.62,-1.93c-0.41,-0.46,-1,-0.69,-1.76,-0.69c-0.74,0,-1.33,0.23,-1.75,0.69c-0.42,0.46,-0.63,1.1,-0.63,1.93c0,0.83,0.21,1.48,0.63,1.94c0.42,0.46,1,0.69,1.75,0.69c0.75,0,1.34,-0.23,1.76,-0.69c0.41,-0.46,0.62,-1.11,0.62,-1.94m-0.98,3.08c1.03,0.14,1.84,0.52,2.42,1.14c0.57,0.62,0.86,1.41,0.86,2.38c0,1.27,-0.4,2.26,-1.21,2.95c-0.8,0.69,-1.96,1.03,-3.47,1.03c-1.5,0,-2.66,-0.34,-3.47,-1.03c-0.81,-0.69,-1.21,-1.67,-1.21,-2.95c0,-0.96,0.28,-1.76,0.86,-2.38c0.57,-0.62,1.38,-1,2.42,-1.14c-0.91,-0.16,-1.62,-0.51,-2.11,-1.04c-0.49,-0.53,-0.73,-1.21,-0.73,-2.04c0,-1.09,0.37,-1.95,1.13,-2.58c0.75,-0.63,1.79,-0.94,3.11,-0.94c1.32,0,2.35,0.31,3.11,0.94c0.75,0.63,1.13,1.49,1.13,2.58c0,0.82,-0.24,1.5,-0.73,2.04c-0.49,0.53,-1.19,0.88,-2.1,1.04m10.49,6.62c0.93,0,1.62,-0.51,2.09,-1.53c0.46,-1.02,0.69,-2.56,0.69,-4.62c0,-2.06,-0.23,-3.61,-0.69,-4.63c-0.46,-1.02,-1.16,-1.53,-2.09,-1.53c-0.93,0,-1.62,0.51,-2.09,1.53c-0.46,1.02,-0.69,2.56,-0.69,4.63c0,2.06,0.23,3.6,0.69,4.62c0.46,1.02,1.15,1.53,2.09,1.53m0,0.9c-1.47,0,-2.63,-0.62,-3.46,-1.86c-0.83,-1.24,-1.24,-2.97,-1.24,-5.2c0,-2.23,0.41,-3.97,1.24,-5.21c0.83,-1.24,1.98,-1.86,3.46,-1.86c1.48,0,2.64,0.62,3.47,1.86c0.82,1.24,1.24,2.97,1.24,5.21c0,2.22,-0.41,3.96,-1.24,5.2c-0.82,1.24,-1.98,1.86,-3.47,1.86m10.62,-12.88c-0.46,0,-0.85,0.15,-1.16,0.47c-0.31,0.31,-0.47,0.71,-0.47,1.18c0,0.46,0.15,0.85,0.47,1.16c0.31,0.31,0.7,0.46,1.17,0.46c0.46,0,0.85,-0.15,1.16,-0.47c0.31,-0.31,0.47,-0.69,0.47,-1.15c0,-0.45,-0.16,-0.84,-0.48,-1.17c-0.32,-0.32,-0.7,-0.48,-1.15,-0.48m0,-1.26c0.38,0,0.76,0.07,1.12,0.22c0.35,0.14,0.66,0.36,0.93,0.64c0.28,0.27,0.49,0.58,0.62,0.93c0.13,0.34,0.2,0.72,0.2,1.12c0,0.8,-0.28,1.48,-0.84,2.04c-0.56,0.55,-1.25,0.83,-2.06,0.83c-0.82,0,-1.5,-0.27,-2.05,-0.82c-0.54,-0.54,-0.82,-1.23,-0.82,-2.05c0,-0.81,0.27,-1.5,0.83,-2.07c0.55,-0.56,1.24,-0.84,2.05,-0.84" fill="#000000" stroke="none" fill-opacity="1"/>
<path d="m355.51,401.55c-0.4,0.45,-0.87,0.79,-1.4,1.02c-0.52,0.22,-1.12,0.33,-1.78,0.33c-1.35,0,-2.41,-0.4,-3.2,-1.22c-0.78,-0.81,-1.17,-1.92,-1.17,-3.34c0,-1.38,0.42,-2.48,1.27,-3.31c0.84,-0.83,1.98,-1.24,3.4,-1.24c1.53,0,2.72,0.57,3.54,1.72c0.82,1.14,1.23,2.78,1.23,4.91c0,2.38,-0.49,4.23,-1.47,5.54c-0.98,1.3,-2.35,1.96,-4.13,1.96c-0.48,0,-0.98,-0.04,-1.51,-0.13c-0.52,-0.09,-1.07,-0.22,-1.62,-0.41l0,-2.26l1.02,0c0.07,0.61,0.31,1.08,0.71,1.41c0.39,0.32,0.92,0.49,1.58,0.49c1.18,0,2.05,-0.44,2.63,-1.33c0.57,-0.89,0.87,-2.26,0.89,-4.13m-2.96,-6.86c-0.86,0,-1.52,0.31,-1.98,0.94c-0.45,0.63,-0.68,1.53,-0.68,2.71c0,1.18,0.22,2.08,0.68,2.72c0.45,0.63,1.12,0.95,1.98,0.95c0.86,0,1.52,-0.3,1.98,-0.91c0.45,-0.61,0.68,-1.49,0.68,-2.64c0,-1.21,-0.23,-2.14,-0.69,-2.79c-0.46,-0.65,-1.12,-0.97,-1.98,-0.97m12.06,12.33c0.93,0,1.62,-0.51,2.09,-1.53c0.46,-1.02,0.69,-2.56,0.69,-4.62c0,-2.06,-0.23,-3.61,-0.69,-4.63c-0.46,-1.02,-1.16,-1.53,-2.09,-1.53c-0.93,0,-1.62,0.51,-2.09,1.53c-0.46,1.02,-0.69,2.56,-0.69,4.63c0,2.06,0.23,3.6,0.69,4.62c0.46,1.02,1.15,1.53,2.09,1.53m0,0.9c-1.47,0,-2.63,-0.62,-3.46,-1.86c-0.83,-1.24,-1.24,-2.97,-1.24,-5.2c0,-2.23,0.41,-3.97,1.24,-5.21c0.83,-1.24,1.98,-1.86,3.46,-1.86c1.48,0,2.64,0.62,3.47,1.86c0.82,1.24,1.24,2.97,1.24,5.21c0,2.22,-0.41,3.96,-1.24,5.2c-0.82,1.24,-1.98,1.86,-3.47,1.86m10.62,-12.88c-0.46,0,-0.85,0.15,-1.16,0.47c-0.31,0.31,-0.47,0.71,-0.47,1.18c0,0.46,0.15,0.85,0.47,1.16c0.31,0.31,0.7,0.46,1.17,0.46c0.46,0,0.85,-0.15,1.16,-0.47c0.31,-0.31,0.47,-0.69,0.47,-1.15c0,-0.45,-0.16,-0.84,-0.48,-1.17c-0.32,-0.32,-0.7,-0.48,-1.15,-0.48m0,-1.26c0.38,0,0.76,0.07,1.12,0.22c0.35,0.14,0.66,0.36,0.93,0.64c0.28,0.27,0.49,0.58,0.62,0.93c0.13,0.34,0.2,0.72,0.2,1.12c0,0.8,-0.28,1.48,-0.84,2.04c-0.56,0.55,-1.25,0.83,-2.06,0.83c-0.82,0,-1.5,-0.27,-2.05,-0.82c-0.54,-0.54,-0.82,-1.23,-0.82,-2.05c0,-0.81,0.27,-1.5,0.83,-2.07c0.55,-0.56,1.24,-0.84,2.05,-0.84" fill="#000000" stroke="none" fill-opacity="1"/>
</g>
<g fill="#000000" stroke-linecap="butt" stroke-width="0.66">
<g transform="matrix(0 -1 1 0 911.81 502.67)">
<path d="M0,0l190.03,0"/>
</g>
<g transform="matrix(0 -1 1 0 629.29 502.67)">
<path d="M0,0l190.03,0"/>
</g>
<g transform="matrix(0 -1 1 0 346.77 502.67)">
<path d="M0,0l190.03,0"/>
</g>
</g>
</g>
<g clip-path="url(#c2)">
<g fill="none" stroke="#e41a1c" stroke-width="0.66">
<polyline fill="none" points="64.25,312.64 65.38,312.64 66.51,312.65 67.64,312.65 68.77,312.67 69.9,312.68 71.03,312.71 72.17,312.73 73.3,312.76 74.43,312.79 75.56,312.83 76.69,312.87 77.82,312.91 78.95,312.96 80.08,313.01 81.22,313.06 82.35,313.12 83.48,313.18 84.61,313.25 85.74,313.32 86.87,313.39 88,313.47 89.13,313.55 90.26,313.63 91.4,313.72 92.53,313.81 93.66,313.91 94.79,314.01 95.92,314.11 97.05,314.21 98.18,314.33 99.31,314.44 100.45,314.56 101.58,314.68 102.71,314.8 103.84,314.93 104.97,315.06 106.1,315.2 107.23,315.34 108.36,315.48 109.5,315.63 110.63,315.78 111.76,315.94 112.89,316.09 114.02,316.26 115.15,316.42 116.28,316.59 117.41,316.76 118.55,316.94 119.68,317.12 120.81,317.3 121.94,317.49 123.07,317.68 124.2,317.87 125.33,318.07 126.46,318.27 127.59,318.47 128.73,318.68 129.86,318.89 130.99,319.11 132.12,319.33 133.25,319.55 134.38,319.78 135.51,320.01 136.64,320.24 137.78,320.47 138.91,320.71 140.04,320.96 141.17,321.2 142.3,321.45 143.43,321.71 144.56,321.96 145.69,322.22 146.83,322.49 147.96,322.75 149.09,323.02 150.22,323.3 151.35,323.57 152.48,323.85 153.61,324.14 154.74,324.42 155.88,324.71 157.01,325.01 158.14,325.3 159.27,325.6 160.4,325.91 161.53,326.21 162.66,326.52 163.79,326.83 164.92,327.15 166.06,327.47 167.19,327.79 168.32,328.12 169.45,328.45 170.58,328.78 171.71,329.11 172.84,329.45 173.97,329.79 175.11,330.14 176.24,330.48 177.37,330.83 178.5,331.19 179.63,331.54 180.76,331.9 181.89,332.26 183.02,332.63 184.16,333 185.29,333.37 186.42,333.74 187.55,334.12 188.68,334.5 189.81,334.88 190.94,335.27 192.07,335.66 193.2,336.05 194.34,336.44 195.47,336.84 196.6,337.24 197.73,337.64 198.86,338.05 199.99,338.46 201.12,338.87 202.25,339.28 203.39,339.7 204.52,340.12 205.65,340.54 206.78,340.97 207.91,341.39 209.04,341.82 210.17,342.25 211.3,342.69 212.44,343.13 213.57,343.57 214.7,344.01 215.83,344.45 216.96,344.9 218.09,345.35 219.22,345.81 220.35,346.26 221.49,346.72 222.62,347.18 223.75,347.64 224.88,348.1 226.01,348.57 227.14,349.04 228.27,349.51 229.4,349.99 230.53,350.46 231.67,350.94 232.8,351.42 233.93,351.91 235.06,352.39 236.19,352.88 237.32,353.37 238.45,353.86 239.58,354.35 240.72,354.85 241.85,355.35 242.98,355.85 244.11,356.35 245.24,356.85 246.37,357.36 247.5,357.87 248.63,358.38 249.77,358.89 250.9,359.4 252.03,359.92 253.16,360.44 254.29,360.96 255.42,361.48 256.55,362 257.68,362.53 258.82,363.06 259.95,363.58 261.08,364.11 262.21,364.65 263.34,365.18 264.47,365.72 265.6,366.25 266.73,366.79 267.86,367.33 269,367.88 270.13,368.42 271.26,368.96 272.39,369.51 273.52,370.06 274.65,370.61 275.78,371.16 276.91,371.71 278.05,372.27 279.18,372.82 280.31,373.38 281.44,373.94 282.57,374.5 283.7,375.06 284.83,375.62 285.96,376.18 287.1,376.75 288.23,377.31 289.36,377.88 290.49,378.45 291.62,379.02 292.75,379.59 293.88,380.16 295.01,380.73 296.15,381.31 297.28,381.88 298.41,382.46 299.54,383.04 300.67,383.61 301.8,384.19 302.93,384.77 304.06,385.35 305.19,385.94 306.33,386.52 307.46,387.1 308.59,387.69 309.72,388.27 310.85,388.86 311.98,389.44 313.11,390.03 314.24,390.62 315.38,391.21 316.51,391.79 317.64,392.38 318.77,392.97 319.9,393.57 321.03,394.16 322.16,394.75 323.29,395.34 324.43,395.93 325.56,396.53 326.69,397.12 327.82,397.72 328.95,398.31 330.08,398.91 331.21,399.5 332.34,400.1 333.47,400.69 334.61,401.29 335.74,401.89 336.87,402.48 338,403.08 339.13,403.68 340.26,404.28 341.39,404.87 342.52,405.47 343.66,406.07 344.79,406.67 345.92,407.26 347.05,407.86 348.18,408.46 349.31,409.06 350.44,409.66 351.57,410.25 352.71,410.85 353.84,411.45 354.97,412.05 356.1,412.64 357.23,413.24 358.36,413.84 359.49,414.43 360.62,415.03 361.76,415.62 362.89,416.22 364.02,416.82 365.15,417.41 366.28,418 367.41,418.6 368.54,419.19 369.67,419.79 370.8,420.38 371.94,420.97 373.07,421.56 374.2,422.15 375.33,422.74 376.46,423.33 377.59,423.92 378.72,424.51 379.85,425.1 380.99,425.69 382.12,426.27 383.25,426.86 384.38,427.44 385.51,428.03 386.64,428.61 387.77,429.2 388.9,429.78 390.04,430.36 391.17,430.94 392.3,431.52 393.43,432.1 394.56,432.67 395.69,433.25 396.82,433.82 397.95,434.4 399.09,434.97 400.22,435.54 401.35,436.11 402.48,436.68 403.61,437.25 404.74,437.82 405.87,438.39 407,438.95 408.13,439.52 409.27,440.08 410.4,440.64 411.53,441.2 412.66,441.76 413.79,442.32 414.92,442.87 416.05,443.43 417.18,443.98 418.32,444.53 419.45,445.08 420.58,445.63 421.71,446.18 422.84,446.72 423.97,447.27 425.1,447.81 426.23,448.35 427.37,448.89 428.5,449.43 429.63,449.96 430.76,450.5 431.89,451.03 433.02,451.56 434.15,452.09 435.28,452.62 436.42,453.14 437.55,453.67 438.68,454.19 439.81,454.71 440.94,455.23 442.07,455.75 443.2,456.26 444.33,456.77 445.46,457.28 446.6,457.79 447.73,458.3 448.86,458.8 449.99,459.31 451.12,459.81 452.25,460.31 453.38,460.8 454.51,461.3 455.65,461.79 456.78,462.28 457.91,462.77 459.04,463.25 460.17,463.74 461.3,464.22 462.43,464.7 463.56,465.18 464.7,465.65 465.83,466.12 466.96,466.59 468.09,467.06 469.22,467.53 470.35,467.99 471.48,468.45 472.61,468.91 473.75,469.36 474.88,469.82 476.01,470.27 477.14,470.72 478.27,471.16 479.4,471.61 480.53,472.05 481.66,472.49 482.79,472.92 483.93,473.35 485.06,473.79 486.19,474.21 487.32,474.64 488.45,475.06 489.58,475.48 490.71,475.9 491.84,476.31 492.98,476.73 494.11,477.13 495.24,477.54 496.37,477.94 497.5,478.35 498.63,478.74 499.76,479.14 500.89,479.53 502.03,479.92 503.16,480.31 504.29,480.69 505.42,481.07 506.55,481.45 507.68,481.83 508.81,482.2 509.94,482.57 511.07,482.93 512.21,483.3 513.34,483.66 514.47,484.01 515.6,484.37 516.73,484.72 517.86,485.07 518.99,485.41 520.12,485.75 521.26,486.09 522.39,486.43 523.52,486.76 524.65,487.09 525.78,487.42 526.91,487.74 528.04,488.06 529.17,488.38 530.31,488.69 531.44,489 532.57,489.31 533.7,489.61 534.83,489.92 535.96,490.21 537.09,490.51 538.22,490.8 539.36,491.09 540.49,491.37 541.62,491.65 542.75,491.93 543.88,492.2 545.01,492.47 546.14,492.74 547.27,493.01 548.4,493.27 549.54,493.53 550.67,493.78 551.8,494.03 552.93,494.28 554.06,494.52 555.19,494.76 556.32,495 557.45,495.23 558.59,495.46 559.72,495.69 560.85,495.91 561.98,496.13 563.11,496.35 564.24,496.56 565.37,496.77 566.5,496.98 567.64,497.18 568.77,497.38 569.9,497.57 571.03,497.76 572.16,497.95 573.29,498.14 574.42,498.32 575.55,498.49 576.69,498.67 577.82,498.84 578.95,499 580.08,499.17 581.21,499.33 582.34,499.48 583.47,499.63 584.6,499.78 585.73,499.93 586.87,500.07 588,500.2 589.13,500.34 590.26,500.47 591.39,500.59 592.52,500.72 593.65,500.83 594.78,500.95 595.92,501.06 597.05,501.17 598.18,501.27 599.31,501.37 600.44,501.47 601.57,501.56 602.7,501.65 603.83,501.74 604.97,501.82 606.1,501.9 607.23,501.97 608.36,502.04 609.49,502.11 610.62,502.17 611.75,502.23 612.88,502.29 614.02,502.34 615.15,502.39 616.28,502.43 617.41,502.47 618.54,502.51 619.67,502.54 620.8,502.57 621.93,502.6 623.06,502.62 624.2,502.64 625.33,502.65 626.46,502.66 627.59,502.67 628.72,502.67 629.85,502.67 630.98,502.67 632.11,502.66 633.25,502.65 634.38,502.63 635.51,502.61 636.64,502.59 637.77,502.56 638.9,502.53 640.03,502.5 641.16,502.46 642.3,502.42 643.43,502.37 644.56,502.32 645.69,502.27 646.82,502.21 647.95,502.15 649.08,502.08 650.21,502.02 651.34,501.94 652.48,501.87 653.61,501.79 654.74,501.71 655.87,501.62 657,501.53 658.13,501.43 659.26,501.34 660.39,501.23 661.53,501.13 662.66,501.02 663.79,500.91 664.92,500.79 666.05,500.67 667.18,500.55 668.31,500.42 669.44,500.29 670.58,500.15 671.71,500.01 672.84,499.87 673.97,499.72 675.1,499.57 676.23,499.42 677.36,499.26 678.49,499.1 679.63,498.94 680.76,498.77 681.89,498.6 683.02,498.43 684.15,498.25 685.28,498.07 686.41,497.88 687.54,497.69 688.67,497.5 689.81,497.3 690.94,497.1 692.07,496.9 693.2,496.69 694.33,496.48 695.46,496.27 696.59,496.05 697.72,495.83 698.86,495.6 699.99,495.38 701.12,495.14 702.25,494.91 703.38,494.67 704.51,494.43 705.64,494.18 706.77,493.93 707.91,493.68 709.04,493.43 710.17,493.17 711.3,492.91 712.43,492.64 713.56,492.37 714.69,492.1 715.82,491.82 716.96,491.54 718.09,491.26 719.22,490.98 720.35,490.69 721.48,490.39 722.61,490.1 723.74,489.8 724.87,489.5 726,489.19 727.14,488.88 728.27,488.57 729.4,488.26 730.53,487.94 731.66,487.62 732.79,487.29 733.92,486.97 735.05,486.64 736.19,486.3 737.32,485.96 738.45,485.62 739.58,485.28 740.71,484.93 741.84,484.59 742.97,484.23 744.1,483.88 745.24,483.52 746.37,483.16 747.5,482.79 748.63,482.43 749.76,482.06 750.89,481.68 752.02,481.31 753.15,480.93 754.29,480.54 755.42,480.16 756.55,479.77 757.68,479.38 758.81,478.99 759.94,478.59 761.07,478.19 762.2,477.79 763.33,477.39 764.47,476.98 765.6,476.57 766.73,476.15 767.86,475.74 768.99,475.32 770.12,474.9 771.25,474.48 772.38,474.05 773.52,473.62 774.65,473.19 775.78,472.75 776.91,472.32 778.04,471.88 779.17,471.44 780.3,470.99 781.43,470.55 782.57,470.1 783.7,469.64 784.83,469.19 785.96,468.73 787.09,468.27 788.22,467.81 789.35,467.35 790.48,466.88 791.62,466.41 792.75,465.94 793.88,465.47 795.01,464.99 796.14,464.52 797.27,464.04 798.4,463.55 799.53,463.07 800.66,462.58 801.8,462.09 802.93,461.6 804.06,461.11 805.19,460.61 806.32,460.12 807.45,459.62 808.58,459.12 809.71,458.61 810.85,458.11 811.98,457.6 813.11,457.09 814.24,456.58 815.37,456.06 816.5,455.55 817.63,455.03 818.76,454.51 819.9,453.99 821.03,453.47 822.16,452.94 823.29,452.42 824.42,451.89 825.55,451.36 826.68,450.83 827.81,450.29 828.94,449.76 830.08,449.22 831.21,448.68 832.34,448.14 833.47,447.6 834.6,447.06 835.73,446.51 836.86,445.97 837.99,445.42 839.13,444.87 840.26,444.32 841.39,443.77 842.52,443.21 843.65,442.66 844.78,442.1 845.91,441.54 847.04,440.98 848.18,440.42 849.31,439.86 850.44,439.3 851.57,438.73 852.7,438.17 853.83,437.6 854.96,437.03 856.09,436.47 857.23,435.9 858.36,435.32 859.49,434.75 860.62,434.18 861.75,433.6 862.88,433.03 864.01,432.45 865.14,431.87 866.27,431.29 867.41,430.72 868.54,430.13 869.67,429.55 870.8,428.97 871.93,428.39 873.06,427.8 874.19,427.22 875.32,426.63 876.46,426.05 877.59,425.46 878.72,424.87 879.85,424.29 880.98,423.7 882.11,423.11 883.24,422.52 884.37,421.93 885.51,421.33 886.64,420.74 887.77,420.15 888.9,419.56 890.03,418.96 891.16,418.37 892.29,417.78 893.42,417.18 894.56,416.59 895.69,415.99 896.82,415.4 897.95,414.8 899.08,414.2 900.21,413.61 901.34,413.01 902.47,412.41 903.6,411.82 904.74,411.22 905.87,410.62 907,410.02 908.13,409.43 909.26,408.83 910.39,408.23 911.52,407.63 912.65,407.03 913.79,406.44 914.92,405.84 916.05,405.24 917.18,404.64 918.31,404.05 919.44,403.45 920.57,402.85 921.7,402.25 922.84,401.66 923.97,401.06 925.1,400.47 926.23,399.87 927.36,399.27 928.49,398.68 929.62,398.08 930.75,397.49 931.89,396.89 933.02,396.3 934.15,395.71 935.28,395.11 936.41,394.52 937.54,393.93 938.67,393.34 939.8,392.75 940.93,392.16 942.07,391.57 943.2,390.98 944.33,390.39 945.46,389.8 946.59,389.22 947.72,388.63 948.85,388.05 949.98,387.46 951.12,386.88 952.25,386.29 953.38,385.71 954.51,385.13 955.64,384.55 956.77,383.97 957.9,383.39 959.03,382.82 960.17,382.24 961.3,381.66 962.43,381.09 963.56,380.51 964.69,379.94 965.82,379.37 966.95,378.8 968.08,378.23 969.21,377.66 970.35,377.1 971.48,376.53 972.61,375.97 973.74,375.4 974.87,374.84 976,374.28 977.13,373.72 978.26,373.17 979.4,372.61 980.53,372.05 981.66,371.5 982.79,370.95 983.92,370.4 985.05,369.85 986.18,369.3 987.31,368.75 988.45,368.21 989.58,367.67 990.71,367.13 991.84,366.59 992.97,366.05 994.1,365.51 995.23,364.98 996.36,364.44 997.5,363.91 998.63,363.38 999.76,362.85 1000.89,362.33 1002.02,361.8 1003.15,361.28 1004.28,360.76 1005.41,360.24 1006.54,359.72 1007.68,359.21 1008.81,358.69 1009.94,358.18 1011.07,357.67 1012.2,357.17 1013.33,356.66 1014.46,356.16 1015.59,355.66 1016.73,355.16 1017.86,354.66 1018.99,354.16 1020.12,353.67 1021.25,353.18 1022.38,352.69 1023.51,352.2 1024.64,351.72 1025.78,351.24 1026.91,350.76 1028.04,350.28 1029.17,349.8 1030.3,349.33 1031.43,348.86 1032.56,348.39 1033.69,347.93 1034.83,347.46 1035.96,347 1037.09,346.54 1038.22,346.09 1039.35,345.63 1040.48,345.18 1041.61,344.73 1042.74,344.28 1043.87,343.84 1045.01,343.4 1046.14,342.96 1047.27,342.52 1048.4,342.09 1049.53,341.66 1050.66,341.23 1051.79,340.8 1052.92,340.38 1054.06,339.96 1055.19,339.54 1056.32,339.12 1057.45,338.71 1058.58,338.3 1059.71,337.89 1060.84,337.49 1061.97,337.09 1063.11,336.69 1064.24,336.29 1065.37,335.9 1066.5,335.51 1067.63,335.12 1068.76,334.74 1069.89,334.35 1071.02,333.98 1072.16,333.6 1073.29,333.23 1074.42,332.86 1075.55,332.49 1076.68,332.12 1077.81,331.76 1078.94,331.41 1080.07,331.05 1081.2,330.7 1082.34,330.35 1083.47,330 1084.6,329.66 1085.73,329.32 1086.86,328.98 1087.99,328.65 1089.12,328.32 1090.25,327.99 1091.39,327.67 1092.52,327.35 1093.65,327.03 1094.78,326.71 1095.91,326.4 1097.04,326.09 1098.17,325.79 1099.3,325.49 1100.44,325.19 1101.57,324.89 1102.7,324.6 1103.83,324.31 1104.96,324.03 1106.09,323.74 1107.22,323.47 1108.35,323.19 1109.49,322.92 1110.62,322.65 1111.75,322.38 1112.88,322.12 1114.01,321.86 1115.14,321.61 1116.27,321.36 1117.4,321.11 1118.53,320.86 1119.67,320.62 1120.8,320.38 1121.93,320.15 1123.06,319.92 1124.19,319.69 1125.32,319.46 1126.45,319.24 1127.58,319.03 1128.72,318.81 1129.85,318.6 1130.98,318.4 1132.11,318.19 1133.24,317.99 1134.37,317.8 1135.5,317.6 1136.63,317.42 1137.77,317.23 1138.9,317.05 1140.03,316.87 1141.16,316.7 1142.29,316.52 1143.42,316.36 1144.55,316.19 1145.68,316.03 1146.81,315.88 1147.95,315.72 1149.08,315.57 1150.21,315.43 1151.34,315.29 1152.47,315.15 1153.6,315.01 1154.73,314.88 1155.86,314.76 1157,314.63 1158.13,314.51 1159.26,314.4 1160.39,314.28 1161.52,314.17 1162.65,314.07 1163.78,313.97 1164.91,313.87 1166.05,313.77 1167.18,313.68 1168.31,313.6 1169.44,313.52 1170.57,313.44 1171.7,313.36 1172.83,313.29 1173.96,313.22 1175.1,313.16 1176.23,313.1 1177.36,313.04 1178.49,312.99 1179.62,312.94 1180.75,312.89 1181.88,312.85 1183.01,312.81 1184.14,312.78 1185.28,312.75 1186.41,312.72 1187.54,312.7 1188.67,312.68 1189.8,312.66 1190.93,312.65 1192.06,312.64 1193.19,312.64 1194.33,312.64"/>
</g>
</g>
<g clip-path="url(#c0)">
<g fill="none" stroke-linecap="butt" stroke-width="0.66">
<path d="M64.25,502.67l0,-190.03"/>
<path d="M64.25,502.67l4,0M64.25,493.17l4,0M64.25,483.67l4,0M64.25,474.17l4,0M64.25,464.67l4,0M64.25,455.16l4,0M64.25,445.66l4,0M64.25,436.16l4,0M64.25,426.66l4,0M64.25,417.16l4,0M64.25,407.65l4,0M64.25,398.15l4,0M64.25,388.65l4,0M64.25,379.15l4,0M64.25,369.65l4,0M64.25,360.15l4,0M64.25,350.64l4,0M64.25,341.14l4,0M64.25,331.64l4,0M64.25,322.14l4,0M64.25,312.64l4,0"/>
<path d="M64.25,502.67l8,0M64.25,455.16l8,0M64.25,407.65l8,0M64.25,360.15l8,0M64.25,312.64l8,0"/>
</g>
<g fill="none" stroke-width="0.1">
<g transform="matrix(0 -1 1 0 17.4 449.26)">
<path d="m3.83,-5.33l0,0.95c0,1.16,0.22,2.05,0.67,2.67c0.44,0.61,1.09,0.91,1.95,0.91c0.85,0,1.5,-0.34,1.94,-1.03c0.44,-0.68,0.66,-1.7,0.66,-3.04c0,-1.34,-0.22,-2.35,-0.66,-3.03c-0.44,-0.68,-1.09,-1.02,-1.94,-1.02c-0.85,0,-1.5,0.3,-1.95,0.92c-0.44,0.61,-0.67,1.5,-0.67,2.66m-1.67,-3.39l-1.61,0l0,-0.97l3.29,0l0,1.51c0.32,-0.6,0.74,-1.05,1.25,-1.34c0.5,-0.28,1.13,-0.43,1.88,-0.43c1.19,0,2.16,0.47,2.92,1.41c0.75,0.94,1.13,2.17,1.13,3.69c0,1.52,-0.37,2.75,-1.13,3.7c-0.75,0.94,-1.72,1.41,-2.92,1.41c-0.74,0,-1.37,-0.14,-1.88,-0.43c-0.5,-0.28,-0.92,-0.73,-1.25,-1.34l0,4.42l1.58,0l0,0.97l-4.88,0l0,-0.97l1.61,0l0,-11.64m18.75,-0.99l0,2.42l-0.96,0c-0.03,-0.48,-0.16,-0.84,-0.4,-1.07c-0.23,-0.23,-0.58,-0.35,-1.04,-0.35c-0.82,0,-1.46,0.28,-1.9,0.85c-0.44,0.57,-0.66,1.39,-0.66,2.46l0,4.43l1.94,0l0,0.96l-5.14,0l0,-0.96l1.51,0l0,-7.77l-1.6,0l0,-0.95l3.28,0l0,1.72c0.32,-0.67,0.75,-1.17,1.26,-1.5c0.51,-0.32,1.14,-0.48,1.88,-0.48c0.27,0,0.56,0.02,0.86,0.06c0.3,0.04,0.61,0.1,0.95,0.18m10.13,5.05l-7.24,0l0,0.07c0,1.3,0.24,2.29,0.73,2.96c0.49,0.66,1.22,1,2.18,1c0.73,0,1.34,-0.19,1.81,-0.57c0.47,-0.38,0.8,-0.96,0.99,-1.72l1.35,0c-0.26,1.06,-0.76,1.86,-1.48,2.4c-0.72,0.53,-1.66,0.8,-2.84,0.8c-1.41,0,-2.55,-0.46,-3.41,-1.4c-0.86,-0.93,-1.29,-2.17,-1.29,-3.72c0,-1.53,0.42,-2.77,1.26,-3.7c0.84,-0.93,1.95,-1.4,3.33,-1.4c1.46,0,2.59,0.45,3.37,1.35c0.78,0.9,1.19,2.21,1.22,3.93m-1.98,-0.96c-0.03,-1.13,-0.27,-1.98,-0.71,-2.56c-0.44,-0.57,-1.07,-0.86,-1.9,-0.86c-0.77,0,-1.38,0.28,-1.82,0.86c-0.44,0.57,-0.71,1.43,-0.81,2.55l5.25,0m3.96,5.1l0,-2.26l0.96,0c0.02,0.72,0.25,1.26,0.68,1.62c0.42,0.35,1.06,0.53,1.9,0.53c0.75,0,1.33,-0.14,1.72,-0.42c0.39,-0.28,0.59,-0.69,0.59,-1.23c0,-0.42,-0.14,-0.76,-0.43,-1.03c-0.28,-0.26,-0.9,-0.54,-1.83,-0.84l-1.21,-0.41c-0.83,-0.26,-1.43,-0.6,-1.81,-1c-0.37,-0.4,-0.56,-0.91,-0.56,-1.53c0,-0.88,0.32,-1.58,0.97,-2.09c0.65,-0.5,1.55,-0.75,2.7,-0.75c0.51,0,1.05,0.06,1.61,0.2c0.56,0.13,1.15,0.32,1.75,0.58l0,2.11l-0.96,0c-0.02,-0.62,-0.24,-1.11,-0.65,-1.47c-0.41,-0.35,-0.97,-0.52,-1.68,-0.52c-0.7,0,-1.24,0.12,-1.6,0.37c-0.36,0.24,-0.54,0.62,-0.54,1.12c0,0.4,0.13,0.73,0.41,0.98c0.27,0.24,0.82,0.49,1.64,0.75l1.33,0.41c0.91,0.28,1.58,0.64,1.98,1.07c0.4,0.42,0.6,0.98,0.6,1.65c0,0.91,-0.35,1.64,-1.05,2.16c-0.7,0.52,-1.67,0.78,-2.9,0.78c-0.62,0,-1.23,-0.06,-1.83,-0.2c-0.59,-0.13,-1.19,-0.33,-1.78,-0.6m9.59,0l0,-2.26l0.96,0c0.02,0.72,0.25,1.26,0.68,1.62c0.42,0.35,1.06,0.53,1.9,0.53c0.75,0,1.33,-0.14,1.72,-0.42c0.39,-0.28,0.59,-0.69,0.59,-1.23c0,-0.42,-0.14,-0.76,-0.43,-1.03c-0.28,-0.26,-0.9,-0.54,-1.83,-0.84l-1.21,-0.41c-0.83,-0.26,-1.43,-0.6,-1.81,-1c-0.37,-0.4,-0.56,-0.91,-0.56,-1.53c0,-0.88,0.32,-1.58,0.97,-2.09c0.65,-0.5,1.55,-0.75,2.7,-0.75c0.51,0,1.05,0.06,1.61,0.2c0.56,0.13,1.15,0.32,1.75,0.58l0,2.11l-0.96,0c-0.02,-0.62,-0.24,-1.11,-0.65,-1.47c-0.41,-0.35,-0.97,-0.52,-1.68,-0.52c-0.7,0,-1.24,0.12,-1.6,0.37c-0.36,0.24,-0.54,0.62,-0.54,1.12c0,0.4,0.13,0.73,0.41,0.98c0.27,0.24,0.82,0.49,1.64,0.75l1.33,0.41c0.91,0.28,1.58,0.64,1.98,1.07c0.4,0.42,0.6,0.98,0.6,1.65c0,0.91,-0.35,1.64,-1.05,2.16c-0.7,0.52,-1.67,0.78,-2.9,0.78c-0.62,0,-1.23,-0.06,-1.83,-0.2c-0.59,-0.13,-1.19,-0.33,-1.78,-0.6m15.16,-9.16l3.14,0l0,8.73l1.58,0l0,0.96l-3.26,0l0,-1.71c-0.31,0.64,-0.71,1.13,-1.2,1.47c-0.49,0.33,-1.06,0.5,-1.71,0.5c-1.07,0,-1.87,-0.3,-2.37,-0.91c-0.5,-0.61,-0.76,-1.57,-0.76,-2.88l0,-5.19l-1.51,0l0,-0.97l3.2,0l0,5.65c0,1.18,0.14,1.99,0.43,2.42c0.28,0.43,0.8,0.65,1.54,0.65c0.77,0,1.37,-0.28,1.78,-0.85c0.4,-0.57,0.61,-1.4,0.61,-2.49l0,-4.41l-1.46,0l0,-0.97m14.36,-0.01l0,2.42l-0.96,0c-0.03,-0.48,-0.16,-0.84,-0.4,-1.07c-0.23,-0.23,-0.58,-0.35,-1.04,-0.35c-0.82,0,-1.46,0.28,-1.9,0.85c-0.44,0.57,-0.66,1.39,-0.66,2.46l0,4.43l1.94,0l0,0.96l-5.14,0l0,-0.96l1.51,0l0,-7.77l-1.6,0l0,-0.95l3.28,0l0,1.72c0.32,-0.67,0.75,-1.17,1.26,-1.5c0.51,-0.32,1.14,-0.48,1.88,-0.48c0.27,0,0.56,0.02,0.86,0.06c0.3,0.04,0.61,0.1,0.95,0.18m10.13,5.05l-7.24,0l0,0.07c0,1.3,0.24,2.29,0.73,2.96c0.49,0.66,1.22,1,2.18,1c0.73,0,1.34,-0.19,1.81,-0.57c0.47,-0.38,0.8,-0.96,0.99,-1.72l1.35,0c-0.26,1.06,-0.76,1.86,-1.48,2.4c-0.72,0.53,-1.66,0.8,-2.84,0.8c-1.41,0,-2.55,-0.46,-3.41,-1.4c-0.86,-0.93,-1.29,-2.17,-1.29,-3.72c0,-1.53,0.42,-2.77,1.26,-3.7c0.84,-0.93,1.95,-1.4,3.33,-1.4c1.46,0,2.59,0.45,3.37,1.35c0.78,0.9,1.19,2.21,1.22,3.93m-1.98,-0.96c-0.03,-1.13,-0.27,-1.98,-0.71,-2.56c-0.44,-0.57,-1.07,-0.86,-1.9,-0.86c-0.77,0,-1.38,0.28,-1.82,0.86c-0.44,0.57,-0.71,1.43,-0.81,2.55l5.25,0" fill="#000000" stroke="none" fill-opacity="1"/>
</g>
<path d="m34.26,503.17l11.7,0l0,1.47l-11.7,0l0,-1.47m16.34,6.6l0,-0.96l2.37,0l0,-11.34l-2.74,1.77l0,-1.19l3.32,-2.15l1.26,0l0,12.91l2.37,0l0,0.96l-6.58,0" fill="#000000" stroke="none" fill-opacity="1"/>
<path d="m53.89,414.12c0.93,0,1.62,-0.51,2.09,-1.53c0.46,-1.02,0.69,-2.56,0.69,-4.62c0,-2.06,-0.23,-3.61,-0.69,-4.63c-0.46,-1.02,-1.16,-1.53,-2.09,-1.53c-0.93,0,-1.62,0.51,-2.09,1.53c-0.46,1.02,-0.69,2.56,-0.69,4.63c0,2.06,0.23,3.6,0.69,4.62c0.46,1.02,1.15,1.53,2.09,1.53m0,0.9c-1.47,0,-2.63,-0.62,-3.46,-1.86c-0.83,-1.24,-1.24,-2.97,-1.24,-5.2c0,-2.23,0.41,-3.97,1.24,-5.21c0.83,-1.24,1.98,-1.86,3.46,-1.86c1.48,0,2.64,0.62,3.47,1.86c0.82,1.24,1.24,2.97,1.24,5.21c0,2.22,-0.41,3.96,-1.24,5.2c-0.82,1.24,-1.98,1.86,-3.47,1.86" fill="#000000" stroke="none" fill-opacity="1"/>
<path d="m36.05,366.61c0.93,0,1.62,-0.51,2.09,-1.53c0.46,-1.02,0.69,-2.56,0.69,-4.62c0,-2.06,-0.23,-3.61,-0.69,-4.63c-0.46,-1.02,-1.16,-1.53,-2.09,-1.53c-0.93,0,-1.62,0.51,-2.09,1.53c-0.46,1.02,-0.69,2.56,-0.69,4.63c0,2.06,0.23,3.6,0.69,4.62c0.46,1.02,1.15,1.53,2.09,1.53m0,0.9c-1.47,0,-2.63,-0.62,-3.46,-1.86c-0.83,-1.24,-1.24,-2.97,-1.24,-5.2c0,-2.23,0.41,-3.97,1.24,-5.21c0.83,-1.24,1.98,-1.86,3.46,-1.86c1.48,0,2.64,0.62,3.47,1.86c0.82,1.24,1.24,2.97,1.24,5.21c0,2.22,-0.41,3.96,-1.24,5.2c-0.82,1.24,-1.98,1.86,-3.47,1.86m6.62,1.55c0.57,-0.41,0.99,-0.91,1.26,-1.48c0.26,-0.56,0.4,-1.25,0.4,-2.06l0,-0.33l1.79,0c-0.04,1.04,-0.29,1.93,-0.73,2.68c-0.44,0.74,-1.1,1.39,-1.99,1.93l-0.73,-0.72m14.67,-15.45l0,1.49l-6.24,0l0,3.9c0.31,-0.21,0.68,-0.38,1.1,-0.49c0.42,-0.1,0.89,-0.16,1.42,-0.16c1.47,0,2.63,0.4,3.48,1.22c0.85,0.81,1.27,1.92,1.27,3.34c0,1.44,-0.43,2.56,-1.29,3.37c-0.86,0.8,-2.07,1.2,-3.62,1.2c-0.62,0,-1.26,-0.07,-1.92,-0.22c-0.65,-0.15,-1.32,-0.38,-2.01,-0.69l0,-2.64l1.03,0c0.05,0.86,0.33,1.52,0.82,1.98c0.49,0.45,1.19,0.68,2.08,0.68c0.96,0,1.7,-0.31,2.21,-0.95c0.51,-0.63,0.77,-1.54,0.77,-2.72c0,-1.18,-0.25,-2.08,-0.77,-2.71c-0.51,-0.62,-1.25,-0.94,-2.22,-0.94c-0.54,0,-1.03,0.09,-1.44,0.29c-0.41,0.19,-0.78,0.49,-1.1,0.9l-0.78,0l0,-6.84l7.21,0" fill="#000000" stroke="none" fill-opacity="1"/>
<path d="m50.61,319.74l0,-0.96l2.37,0l0,-11.34l-2.74,1.77l0,-1.19l3.32,-2.15l1.26,0l0,12.91l2.37,0l0,0.96l-6.58,0" fill="#000000" stroke="none" fill-opacity="1"/>
</g>
<g fill="none" stroke-linecap="butt" stroke-width="0.66">
<path d="M64.25,502.67l1130.07,0"/>
<path d="M64.25,502.67l0,-4M154.14,502.67l0,-4M244.04,502.67l0,-4M333.93,502.67l0,-4M423.82,502.67l0,-4M513.72,502.67l0,-4M603.61,502.67l0,-4M693.51,502.67l0,-4M783.4,502.67l0,-4M873.3,502.67l0,-4M963.19,502.67l0,-4M1053.08,502.67l0,-4M1142.98,502.67l0,-4"/>
<path d="M64.25,502.67l0,-8M244.04,502.67l0,-8M423.82,502.67l0,-8M603.61,502.67l0,-8M783.4,502.67l0,-8M963.19,502.67l0,-8M1142.98,502.67l0,-8"/>
</g>
<g fill="none" stroke-width="0.1">
<path d="m610.16,524.54l-1.47,0l0,-0.97l1.47,0l0,-3.01l1.69,0l0,3.01l3.15,0l0,0.97l-3.15,0l0,6.16c0,0.82,0.07,1.34,0.23,1.57c0.15,0.23,0.45,0.34,0.87,0.34c0.43,0,0.75,-0.12,0.95,-0.38c0.2,-0.25,0.3,-0.67,0.32,-1.25l1.26,0c-0.04,0.88,-0.28,1.52,-0.72,1.93c-0.43,0.4,-1.08,0.61,-1.97,0.61c-0.96,0,-1.65,-0.21,-2.05,-0.64c-0.4,-0.42,-0.6,-1.15,-0.6,-2.18l0,-6.16m7.31,-3.98c0,-0.28,0.1,-0.52,0.3,-0.73c0.2,-0.2,0.44,-0.31,0.73,-0.31c0.28,0,0.52,0.1,0.72,0.31c0.2,0.2,0.3,0.45,0.3,0.73c0,0.28,-0.1,0.52,-0.3,0.72c-0.2,0.2,-0.44,0.3,-0.73,0.3c-0.28,0,-0.53,-0.1,-0.73,-0.3c-0.2,-0.2,-0.3,-0.44,-0.3,-0.72m2.14,11.75l1.58,0l0,0.96l-4.87,0l0,-0.96l1.6,0l0,-7.76l-1.6,0l0,-0.97l3.28,0l0,8.73m11.7,-6.84c0.32,-0.71,0.73,-1.24,1.23,-1.61c0.5,-0.36,1.08,-0.54,1.75,-0.54c1.01,0,1.77,0.31,2.27,0.94c0.49,0.62,0.74,1.58,0.74,2.85l0,5.2l1.51,0l0,0.96l-4.65,0l0,-0.96l1.46,0l0,-5.01c0,-0.99,-0.14,-1.69,-0.43,-2.11c-0.29,-0.42,-0.77,-0.63,-1.45,-0.63c-0.74,0,-1.31,0.28,-1.71,0.84c-0.39,0.56,-0.58,1.39,-0.58,2.47l0,4.43l1.46,0l0,0.96l-4.6,0l0,-0.96l1.46,0l0,-5.07c0,-0.96,-0.14,-1.65,-0.43,-2.06c-0.29,-0.41,-0.77,-0.61,-1.45,-0.61c-0.74,0,-1.31,0.28,-1.71,0.84c-0.39,0.56,-0.58,1.39,-0.58,2.47l0,4.43l1.46,0l0,0.96l-4.65,0l0,-0.96l1.51,0l0,-7.77l-1.6,0l0,-0.95l3.28,0l0,1.72c0.31,-0.64,0.7,-1.13,1.18,-1.47c0.48,-0.34,1.02,-0.51,1.63,-0.51c0.75,0,1.38,0.18,1.89,0.56c0.5,0.37,0.84,0.9,1.01,1.59m18.17,3.14l-7.24,0l0,0.07c0,1.3,0.24,2.29,0.73,2.96c0.49,0.66,1.22,1,2.18,1c0.73,0,1.34,-0.19,1.81,-0.57c0.47,-0.38,0.8,-0.96,0.99,-1.72l1.35,0c-0.26,1.06,-0.76,1.86,-1.48,2.4c-0.72,0.53,-1.66,0.8,-2.84,0.8c-1.41,0,-2.55,-0.46,-3.41,-1.4c-0.86,-0.93,-1.29,-2.17,-1.29,-3.72c0,-1.53,0.42,-2.77,1.26,-3.7c0.84,-0.93,1.95,-1.4,3.33,-1.4c1.46,0,2.59,0.45,3.37,1.35c0.78,0.9,1.19,2.21,1.22,3.93m-1.98,-0.96c-0.03,-1.13,-0.27,-1.98,-0.71,-2.56c-0.44,-0.57,-1.07,-0.86,-1.9,-0.86c-0.77,0,-1.38,0.28,-1.82,0.86c-0.44,0.57,-0.71,1.43,-0.81,2.55l5.25,0" fill="#000000" stroke="none" fill-opacity="1"/>
</g>
<g fill="none" stroke-linecap="butt" stroke-width="0.66">
<path d="M1194.33,502.67l0,-190.03"/>
<path d="M1194.33,502.67l-4,0M1194.33,493.17l-4,0M1194.33,483.67l-4,0M1194.33,474.17l-4,0M1194.33,464.67l-4,0M1194.33,455.16l-4,0M1194.33,445.66l-4,0M1194.33,436.16l-4,0M1194.33,426.66l-4,0M1194.33,417.16l-4,0M1194.33,407.65l-4,0M1194.33,398.15l-4,0M1194.33,388.65l-4,0M1194.33,379.15l-4,0M1194.33,369.65l-4,0M1194.33,360.15l-4,0M1194.33,350.64l-4,0M1194.33,341.14l-4,0M1194.33,331.64l-4,0M1194.33,322.14l-4,0M1194.33,312.64l-4,0"/>
<path d="M1194.33,502.67l-8,0M1194.33,455.16l-8,0M1194.33,407.65l-8,0M1194.33,360.15l-8,0M1194.33,312.64l-8,0"/>
<path d="M64.25,312.64l1130.07,0"/>
<path d="M64.25,312.64l0,4M154.14,312.64l0,4M244.04,312.64l0,4M333.93,312.64l0,4M423.82,312.64l0,4M513.72,312.64l0,4M603.61,312.64l0,4M693.51,312.64l0,4M783.4,312.64l0,4M873.3,312.64l0,4M963.19,312.64l0,4M1053.08,312.64l0,4M1142.98,312.64l0,4"/>
<path d="M64.25,312.64l0,8M244.04,312.64l0,8M423.82,312.64l0,8M603.61,312.64l0,8M783.4,312.64l0,8M963.19,312.64l0,8M1142.98,312.64l0,8"/>
</g>
</g>
</g>
</svg>
