<?xml version="1.0" standalone="no"?>
<!DOCTYPE svg PUBLIC "-//W3C//DTD SVG 1.1//EN"
  "http://www.w3.org/Graphics/SVG/1.1/DTD/svg11.dtd">
<svg width="1212.28px" height="1114.69px" version="1.1"
    xmlns="http://www.w3.org/2000/svg"
    xmlns:xlink="http://www.w3.org/1999/xlink">
<desc>Veusz output document</desc>
<defs>
<clipPath id="c0">
<path d="m0,0l1212.28,0l0,1114.69l-1212.28,0l0,-1114.69"/>
</clipPath>
<clipPath id="c1">
<path d="m64.25,15.11l1132.91,0l0,271.58l-1132.91,0l0,-271.58"/>
</clipPath>
<clipPath id="c2">
<path d="m64.25,355.18l1132.91,0l0,293.27l-1132.91,0l0,-293.27"/>
</clipPath>
<clipPath id="c3">
<path d="m64.25,702.81l1132.91,0l0,283.37l-1132.91,0l0,-283.37"/>
</clipPath>
</defs>
<g stroke-linejoin="bevel" stroke-linecap="square" stroke="#000000" fill-rule="evenodd">
<g clip-path="url(#c0)">
<g fill="#ffffff" stroke-width="0.66">
<path d="m64.25,15.11l1132.91,0l0,271.58l-1132.91,0l0,-271.58"/>
</g>
</g>
<g clip-path="url(#c1)">
<g fill="none" stroke="#e41a1c" stroke-width="0.66">
<polyline fill="none" points="64.25,15.11 65.35,16.18 66.46,19.36 67.57,24.61 68.68,31.84 69.78,40.93 70.89,51.76 72,64.14 73.11,77.88 74.21,92.77 75.32,108.58 76.43,125.04 77.54,141.92 78.64,158.93 79.75,175.82 80.86,192.31 81.97,208.16 83.07,223.11 84.18,236.92 85.29,249.39 86.4,260.3 87.5,269.5 88.61,276.84 89.72,282.21 90.83,285.51 91.93,286.69 93.04,285.75 94.15,282.69 95.26,277.56 96.36,270.44 97.47,261.44 98.58,250.71 99.69,238.41 100.79,224.74 101.9,209.91 103.01,194.15 104.11,177.72 105.22,160.86 106.33,143.85 107.44,126.95 108.54,110.42 109.65,94.53 110.76,79.52 111.87,65.64 112.97,53.09 114.08,42.08 115.19,32.78 116.3,25.33 117.4,19.86 118.51,16.44 119.62,15.13 120.73,15.95 121.83,18.9 122.94,23.91 124.05,30.92 125.16,39.81 126.26,50.45 127.37,62.66 128.48,76.26 129.59,91.03 130.69,106.74 131.8,123.15 132.91,139.99 134.02,157 135.12,173.91 136.23,190.47 137.34,206.4 138.45,221.46 139.55,235.42 140.66,248.05 141.77,259.15 142.88,268.55 143.98,276.11 145.09,281.7 146.2,285.24 147.31,286.66 148.41,285.96 149.52,283.14 150.63,278.24 151.73,271.34 152.84,262.55 153.95,252.01 155.06,239.88 156.16,226.36 157.27,211.65 158.38,195.98 159.49,179.61 160.59,162.79 161.7,145.78 162.81,128.85 163.92,112.27 165.02,96.29 166.13,81.18 167.24,67.15 168.35,54.44 169.45,43.25 170.56,33.75 171.67,26.08 172.78,20.38 173.88,16.72 174.99,15.17 176.1,15.75 177.21,18.45 178.31,23.24 179.42,30.03 180.53,38.71 181.64,49.16 182.74,61.2 183.85,74.65 184.96,89.3 186.07,104.92 187.17,121.25 188.28,138.06 189.39,155.06 190.5,172 191.6,188.61 192.71,204.63 193.82,219.8 194.93,233.89 196.03,246.68 197.14,257.97 198.25,267.57 199.35,275.35 200.46,281.16 201.57,284.94 202.68,286.61 203.78,286.15 204.89,283.56 206,278.9 207.11,272.22 208.21,263.64 209.32,253.29 210.43,241.33 211.54,227.96 212.64,213.37 213.75,197.8 214.86,181.5 215.97,164.72 217.07,147.71 218.18,130.76 219.29,114.13 220.4,98.07 221.5,82.84 222.61,68.68 223.72,55.82 224.83,44.44 225.93,34.74 227.04,26.85 228.15,20.92 229.26,17.03 230.36,15.24 231.47,15.58 232.58,18.04 233.69,22.59 234.79,29.16 235.9,37.63 237.01,47.89 238.12,59.76 239.22,73.06 240.33,87.58 241.44,103.1 242.55,119.37 243.65,136.13 244.76,153.13 245.87,170.09 246.97,186.75 248.08,202.85 249.19,218.13 250.3,232.35 251.4,245.3 252.51,256.77 253.62,266.57 254.73,274.56 255.83,280.6 256.94,284.62 258.05,286.53 259.16,286.31 260.26,283.96 261.37,279.53 262.48,273.08 263.59,264.71 264.69,254.55 265.8,242.77 266.91,229.54 268.02,215.08 269.12,199.61 270.23,183.38 271.34,166.64 272.45,149.65 273.55,132.68 274.66,115.99 275.77,99.86 276.88,84.52 277.98,70.23 279.09,57.21 280.2,45.65 281.31,35.75 282.41,27.65 283.52,21.49 284.63,17.37 285.74,15.34 286.84,15.43 287.95,17.66 289.06,21.97 290.17,28.31 291.27,36.58 292.38,46.64 293.49,58.33 294.59,71.48 295.7,85.88 296.81,101.3 297.92,117.49 299.02,134.21 300.13,151.2 301.24,168.17 302.35,184.88 303.45,201.05 304.56,216.44 305.67,230.8 306.78,243.9 307.88,255.55 308.99,265.55 310.1,273.75 311.21,280.02 312.31,284.26 313.42,286.42 314.53,286.44 315.64,284.34 316.74,280.14 317.85,273.91 318.96,265.75 320.07,255.79 321.17,244.18 322.28,231.11 323.39,216.78 324.5,201.42 325.6,185.26 326.71,168.56 327.82,151.58 328.93,134.6 330.03,117.87 331.14,101.66 332.25,86.22 333.36,71.8 334.46,58.62 335.57,46.88 336.68,36.79 337.79,28.48 338.89,22.09 340,17.73 341.11,15.46 342.22,15.31 343.32,17.3 344.43,21.38 345.54,27.49 346.64,35.54 347.75,45.41 348.86,56.93 349.97,69.92 351.07,84.19 352.18,99.5 353.29,115.62 354.4,132.29 355.5,149.26 356.61,166.25 357.72,183 358.83,199.25 359.93,214.74 361.04,229.23 362.15,242.48 363.26,254.3 364.36,264.5 365.47,272.91 366.58,279.41 367.69,283.89 368.79,286.28 369.9,286.55 371.01,284.68 372.12,280.72 373.22,274.72 374.33,266.77 375.44,257.01 376.55,245.58 377.65,232.67 378.76,218.47 379.87,203.21 380.98,187.13 382.08,170.47 383.19,153.52 384.3,136.52 385.41,119.75 386.51,103.46 387.62,87.93 388.73,73.38 389.84,60.04 390.94,48.14 392.05,37.85 393.16,29.33 394.26,22.72 395.37,18.12 396.48,15.61 397.59,15.22 398.69,16.97 399.8,20.81 400.91,26.7 402.02,34.53 403.12,44.2 404.23,55.54 405.34,68.38 406.45,82.51 407.55,97.71 408.66,113.76 409.77,130.38 410.88,147.33 411.98,164.33 413.09,181.12 414.2,197.44 415.31,213.03 416.41,227.64 417.52,241.05 418.63,253.04 419.74,263.43 420.84,272.05 421.95,278.77 423.06,283.48 424.17,286.11 425.27,286.62 426.38,285 427.49,281.28 428.6,275.5 429.7,267.77 430.81,258.21 431.92,246.96 433.03,234.2 434.13,220.14 435.24,204.99 436.35,188.99 437.46,172.39 438.56,155.45 439.67,138.45 440.78,121.63 441.88,105.28 442.99,89.65 444.1,74.97 445.21,61.49 446.31,49.41 447.42,38.93 448.53,30.2 449.64,23.37 450.74,18.54 451.85,15.79 452.96,15.16 454.07,16.66 455.17,20.27 456.28,25.93 457.39,33.55 458.5,43.01 459.6,54.17 460.71,66.85 461.82,80.84 462.93,95.94 464.03,111.9 465.14,128.47 466.25,145.39 467.36,162.4 468.46,179.23 469.57,195.62 470.68,211.3 471.79,226.03 472.89,239.59 474,251.75 475.11,262.33 476.22,271.16 477.32,278.11 478.43,283.05 479.54,285.92 480.65,286.67 481.75,285.29 482.86,281.8 483.97,276.26 485.08,268.74 486.18,259.38 487.29,248.32 488.4,235.72 489.5,221.79 490.61,206.75 491.72,190.84 492.83,174.3 493.93,157.38 495.04,140.37 496.15,123.53 497.26,107.11 498.36,91.38 499.47,76.58 500.58,62.96 501.69,50.71 502.79,40.03 503.9,31.1 505.01,24.05 506.12,18.99 507.22,16 508.33,15.12 509.44,16.38 510.55,19.75 511.65,25.19 512.76,32.59 513.87,41.85 514.98,52.82 516.08,65.34 517.19,79.19 518.3,94.18 519.41,110.05 520.51,126.56 521.62,143.46 522.73,160.47 523.84,177.34 524.94,193.79 526.05,209.56 527.16,224.41 528.27,238.12 529.37,250.45 530.48,261.21 531.59,270.25 532.7,277.41 533.8,282.59 534.91,285.7 536.02,286.69 537.12,285.56 538.23,282.3 539.34,276.99 540.45,269.69 541.55,260.53 542.66,249.65 543.77,237.22 544.88,223.44 545.98,208.51 547.09,192.68 548.2,176.2 549.31,159.32 550.41,142.3 551.52,125.42 552.63,108.94 553.74,93.12 554.84,78.21 555.95,64.44 557.06,52.03 558.17,41.16 559.27,32.02 560.38,24.75 561.49,19.46 562.6,16.23 563.7,15.12 564.81,16.13 565.92,19.27 567.03,24.47 568.13,31.65 569.24,40.71 570.35,51.49 571.46,63.84 572.56,77.56 573.67,92.42 574.78,108.21 575.89,124.66 576.99,141.53 578.1,158.54 579.21,175.44 580.32,191.95 581.42,207.81 582.53,222.78 583.64,236.62 584.74,249.12 585.85,260.08 586.96,269.32 588.07,276.7 589.17,282.11 590.28,285.46 591.39,286.69 592.5,285.79 593.6,282.78 594.71,277.69 595.82,270.62 596.93,261.67 598.03,250.97 599.14,238.71 600.25,225.07 601.36,210.26 602.46,194.52 603.57,178.1 604.68,161.25 605.79,144.23 606.89,127.33 608,110.79 609.11,94.88 610.22,79.85 611.32,65.94 612.43,53.36 613.54,42.31 614.65,32.97 615.75,25.48 616.86,19.96 617.97,16.49 619.08,15.14 620.18,15.91 621.29,18.8 622.4,23.77 623.51,30.74 624.61,39.59 625.72,50.19 626.83,62.37 627.94,75.94 629.04,90.68 630.15,106.38 631.26,122.77 632.36,139.6 633.47,156.61 634.58,173.53 635.69,190.1 636.79,206.05 637.9,221.13 639.01,235.11 640.12,247.77 641.22,258.91 642.33,268.36 643.44,275.96 644.55,281.59 645.65,285.18 646.76,286.66 647.87,286 648.98,283.23 650.08,278.37 651.19,271.52 652.3,262.77 653.41,252.27 654.51,240.17 655.62,226.68 656.73,211.99 657.84,196.35 658.94,179.99 660.05,163.17 661.16,146.17 662.27,129.23 663.37,112.64 664.48,96.65 665.59,81.51 666.7,67.46 667.8,54.72 668.91,43.49 670.02,33.94 671.13,26.23 672.23,20.48 673.34,16.78 674.45,15.18 675.56,15.72 676.66,18.37 677.77,23.11 678.88,29.85 679.98,38.49 681.09,48.9 682.2,60.91 683.31,74.33 684.41,88.96 685.52,104.55 686.63,120.88 687.74,137.67 688.84,154.68 689.95,171.62 691.06,188.24 692.17,204.27 693.27,219.47 694.38,233.59 695.49,246.41 696.6,257.73 697.7,267.38 698.81,275.19 699.92,281.05 701.03,284.88 702.13,286.6 703.24,286.18 704.35,283.65 705.46,279.03 706.56,272.4 707.67,263.86 708.78,253.55 709.89,241.62 710.99,228.28 712.1,213.71 713.21,198.17 714.32,181.88 715.42,165.1 716.53,148.1 717.64,131.15 718.75,114.5 719.85,98.43 720.96,83.18 722.07,68.99 723.18,56.09 724.28,44.68 725.39,34.94 726.5,27.01 727.6,21.03 728.71,17.09 729.82,15.26 730.93,15.55 732.03,17.96 733.14,22.46 734.25,28.98 735.36,37.42 736.46,47.63 737.57,59.47 738.68,72.74 739.79,87.24 740.89,102.74 742,118.99 743.11,135.75 744.22,152.74 745.32,169.71 746.43,186.38 747.54,202.49 748.65,217.79 749.75,232.04 750.86,245.02 751.97,256.52 753.08,266.37 754.18,274.4 755.29,280.49 756.4,284.55 757.51,286.51 758.61,286.34 759.72,284.04 760.83,279.66 761.94,273.25 763.04,264.92 764.15,254.8 765.26,243.05 766.37,229.86 767.47,215.42 768.58,199.98 769.69,183.76 770.8,167.02 771.9,150.04 773.01,133.06 774.12,116.37 775.22,100.22 776.33,84.86 777.44,70.54 778.55,57.49 779.65,45.9 780.76,35.95 781.87,27.82 782.98,21.61 784.08,17.44 785.19,15.36 786.3,15.41 787.41,17.58 788.51,21.85 789.62,28.14 790.73,36.37 791.84,46.39 792.94,58.05 794.05,71.17 795.16,85.54 796.27,100.94 797.37,117.12 798.48,133.83 799.59,150.81 800.7,167.79 801.8,184.51 802.91,200.69 804.02,216.1 805.13,230.49 806.23,243.62 807.34,255.3 808.45,265.34 809.56,273.58 810.66,279.9 811.77,284.19 812.88,286.39 813.99,286.46 815.09,284.41 816.2,280.26 817.31,274.07 818.42,265.96 819.52,256.04 820.63,244.47 821.74,231.42 822.84,217.12 823.95,201.77 825.06,185.63 826.17,168.94 827.27,151.97 828.38,134.98 829.49,118.24 830.6,102.02 831.7,86.56 832.81,72.11 833.92,58.9 835.03,47.13 836.13,37 837.24,28.65 838.35,22.22 839.46,17.81 840.56,15.49 841.67,15.29 842.78,17.23 843.89,21.26 844.99,27.33 846.1,35.34 847.21,45.16 848.32,56.65 849.42,69.61 850.53,83.85 851.64,99.14 852.75,115.25 853.85,131.91 854.96,148.87 856.07,165.87 857.18,182.63 858.28,198.89 859.39,214.4 860.5,228.91 861.61,242.2 862.71,254.05 863.82,264.28 864.93,272.74 866.04,279.28 867.14,283.81 868.25,286.25 869.36,286.56 870.46,284.75 871.57,280.83 872.68,274.88 873.79,266.98 874.89,257.25 876,245.86 877.11,232.97 878.22,218.8 879.32,203.56 880.43,187.5 881.54,170.86 882.65,153.9 883.75,136.9 884.86,120.12 885.97,103.83 887.08,88.27 888.18,73.69 889.29,60.33 890.4,48.39 891.51,38.06 892.61,29.5 893.72,22.85 894.83,18.21 895.94,15.64 897.04,15.21 898.15,16.9 899.26,20.7 900.37,26.54 901.47,34.34 902.58,43.96 903.69,55.26 904.8,68.07 905.9,82.17 907.01,97.36 908.12,113.38 909.23,130 910.33,146.94 911.44,163.94 912.55,180.74 913.66,197.07 914.76,212.68 915.87,227.32 916.98,240.76 918.08,252.78 919.19,263.21 920.3,271.87 921.41,278.64 922.51,283.4 923.62,286.08 924.73,286.63 925.84,285.06 926.94,281.38 928.05,275.66 929.16,267.97 930.27,258.44 931.37,247.23 932.48,234.51 933.59,220.47 934.7,205.34 935.8,189.36 936.91,172.77 938.02,155.84 939.13,138.83 940.23,122.01 941.34,105.65 942.45,89.99 943.56,75.29 944.66,61.78 945.77,49.67 946.88,39.15 947.99,30.38 949.09,23.5 950.2,18.63 951.31,15.83 952.42,15.15 953.52,16.6 954.63,20.16 955.74,25.78 956.85,33.36 957.95,42.78 959.06,53.9 960.17,66.54 961.28,80.51 962.38,95.59 963.49,111.53 964.6,128.09 965.7,145.01 966.81,162.02 967.92,178.85 969.03,195.25 970.13,210.95 971.24,225.71 972.35,239.3 973.46,251.49 974.56,262.11 975.67,270.98 976.78,277.97 977.89,282.96 978.99,285.88 980.1,286.68 981.21,285.35 982.32,281.9 983.42,276.41 984.53,268.94 985.64,259.61 986.75,248.59 987.85,236.02 988.96,222.13 990.07,207.11 991.18,191.21 992.28,174.68 993.39,157.77 994.5,140.76 995.61,123.91 996.71,107.48 997.82,91.73 998.93,76.91 1000.04,63.25 1001.14,50.97 1002.25,40.26 1003.36,31.28 1004.47,24.19 1005.57,19.08 1006.68,16.04 1007.79,15.12 1008.9,16.33 1010,19.65 1011.11,25.04 1012.22,32.4 1013.32,41.62 1014.43,52.55 1015.54,65.04 1016.65,78.87 1017.75,93.82 1018.86,109.68 1019.97,126.18 1021.08,143.07 1022.18,160.09 1023.29,176.96 1024.4,193.42 1025.51,209.21 1026.61,224.09 1027.72,237.82 1028.83,250.18 1029.94,260.99 1031.04,270.07 1032.15,277.27 1033.26,282.5 1034.37,285.65 1035.47,286.7 1036.58,285.61 1037.69,282.4 1038.8,277.13 1039.9,269.88 1041.01,260.76 1042.12,249.92 1043.23,237.52 1044.33,223.76 1045.44,208.86 1046.55,193.05 1047.66,176.58 1048.76,159.7 1049.87,142.69 1050.98,125.8 1052.09,109.31 1053.19,93.48 1054.3,78.54 1055.41,64.74 1056.52,52.29 1057.62,41.39 1058.73,32.21 1059.84,24.89 1060.95,19.56 1062.05,16.28 1063.16,15.12 1064.27,16.09 1065.37,19.17 1066.48,24.33 1067.59,31.47 1068.7,40.48 1069.8,51.23 1070.91,63.55 1072.02,77.23 1073.13,92.07 1074.23,107.84 1075.34,124.28 1076.45,141.14 1077.56,158.16 1078.66,175.06 1079.77,191.58 1080.88,207.46 1081.99,222.45 1083.09,236.32 1084.2,248.85 1085.31,259.85 1086.42,269.13 1087.52,276.55 1088.63,282 1089.74,285.4 1090.85,286.69 1091.95,285.84 1093.06,282.87 1094.17,277.83 1095.28,270.8 1096.38,261.89 1097.49,251.23 1098.6,239 1099.71,225.39 1100.81,210.61 1101.92,194.89 1103.03,178.48 1104.14,161.63 1105.24,144.62 1106.35,127.71 1107.46,111.16 1108.57,95.23 1109.67,80.18 1110.78,66.24 1111.89,53.63 1112.99,42.55 1114.1,33.16 1115.21,25.63 1116.32,20.06 1117.42,16.55 1118.53,15.14 1119.64,15.87 1120.75,18.72 1121.85,23.64 1122.96,30.56 1124.07,39.37 1125.18,49.93 1126.28,62.07 1127.39,75.61 1128.5,90.34 1129.61,106.01 1130.71,122.39 1131.82,139.21 1132.93,156.22 1134.04,173.15 1135.14,189.73 1136.25,205.69 1137.36,220.8 1138.47,234.81 1139.57,247.5 1140.68,258.68 1141.79,268.16 1142.9,275.81 1144,281.49 1145.11,285.12 1146.22,286.65 1147.33,286.04 1148.43,283.31 1149.54,278.51 1150.65,271.7 1151.76,262.99 1152.86,252.53 1153.97,240.47 1155.08,227 1156.19,212.34 1157.29,196.71 1158.4,180.37 1159.51,163.56 1160.61,146.55 1161.72,129.62 1162.83,113.01 1163.94,97 1165.04,81.84 1166.15,67.76 1167.26,54.99 1168.37,43.72 1169.47,34.14 1170.58,26.39 1171.69,20.59 1172.8,16.84 1173.9,15.19 1175.01,15.68 1176.12,18.29 1177.23,22.98 1178.33,29.67 1179.44,38.28 1180.55,48.65 1181.66,60.62 1182.76,74.01 1183.87,88.61 1184.98,104.19 1186.09,120.5 1187.19,137.29 1188.3,154.29 1189.41,171.24 1190.52,187.87 1191.62,203.92 1192.73,219.13 1193.84,233.28 1194.95,246.13 1196.05,257.49 1197.16,267.17"/>
</g>
</g>
<g clip-path="url(#c0)">
<g fill="none" stroke-linecap="butt" stroke-width="0.66">
<path d="M64.25,286.7l0,-271.58"/>
<path d="M64.25,286.7l4,0M64.25,273.12l4,0M64.25,259.54l4,0M64.25,245.96l4,0M64.25,232.38l4,0M64.25,218.8l4,0M64.25,205.22l4,0M64.25,191.64l4,0M64.25,178.06l4,0M64.25,164.48l4,0M64.25,150.91l4,0M64.25,137.33l4,0M64.25,123.75l4,0M64.25,110.17l4,0M64.25,96.59l4,0M64.25,83.01l4,0M64.25,69.43l4,0M64.25,55.85l4,0M64.25,42.27l4,0M64.25,28.69l4,0M64.25,15.11l4,0"/>
<path d="M64.25,286.7l8,0M64.25,218.8l8,0M64.25,150.91l8,0M64.25,83.01l8,0M64.25,15.11l8,0"/>
</g>
<g fill="none" stroke-width="0.1">
<path d="m34.26,287.2l11.7,0l0,1.47l-11.7,0l0,-1.47m16.34,6.6l0,-0.96l2.37,0l0,-11.34l-2.74,1.77l0,-1.19l3.32,-2.15l1.26,0l0,12.91l2.37,0l0,0.96l-6.58,0" fill="#000000" stroke="none" fill-opacity="1"/>
<path d="m16.42,219.3l11.7,0l0,1.47l-11.7,0l0,-1.47m19.62,5.96c0.93,0,1.62,-0.51,2.09,-1.53c0.46,-1.02,0.69,-2.56,0.69,-4.62c0,-2.06,-0.23,-3.61,-0.69,-4.63c-0.46,-1.02,-1.16,-1.53,-2.09,-1.53c-0.93,0,-1.62,0.51,-2.09,1.53c-0.46,1.02,-0.69,2.56,-0.69,4.63c0,2.06,0.23,3.6,0.69,4.62c0.46,1.02,1.15,1.53,2.09,1.53m0,0.9c-1.47,0,-2.63,-0.62,-3.46,-1.86c-0.83,-1.24,-1.24,-2.97,-1.24,-5.2c0,-2.23,0.41,-3.97,1.24,-5.21c0.83,-1.24,1.98,-1.86,3.46,-1.86c1.48,0,2.64,0.62,3.47,1.86c0.82,1.24,1.24,2.97,1.24,5.21c0,2.22,-0.41,3.96,-1.24,5.2c-0.82,1.24,-1.98,1.86,-3.47,1.86m6.62,1.55c0.57,-0.41,0.99,-0.91,1.26,-1.48c0.26,-0.56,0.4,-1.25,0.4,-2.06l0,-0.33l1.79,0c-0.04,1.04,-0.29,1.93,-0.73,2.68c-0.44,0.74,-1.1,1.39,-1.99,1.93l-0.73,-0.72m14.67,-15.45l0,1.49l-6.24,0l0,3.9c0.31,-0.21,0.68,-0.38,1.1,-0.49c0.42,-0.1,0.89,-0.16,1.42,-0.16c1.47,0,2.63,0.4,3.48,1.22c0.85,0.81,1.27,1.92,1.27,3.34c0,1.44,-0.43,2.56,-1.29,3.37c-0.86,0.8,-2.07,1.2,-3.62,1.2c-0.62,0,-1.26,-0.07,-1.92,-0.22c-0.65,-0.15,-1.32,-0.38,-2.01,-0.69l0,-2.64l1.03,0c0.05,0.86,0.33,1.52,0.82,1.98c0.49,0.45,1.19,0.68,2.08,0.68c0.96,0,1.7,-0.31,2.21,-0.95c0.51,-0.63,0.77,-1.54,0.77,-2.72c0,-1.18,-0.25,-2.08,-0.77,-2.71c-0.51,-0.62,-1.25,-0.94,-2.22,-0.94c-0.54,0,-1.03,0.09,-1.44,0.29c-0.41,0.19,-0.78,0.49,-1.1,0.9l-0.78,0l0,-6.84l7.21,0" fill="#000000" stroke="none" fill-opacity="1"/>
<path d="m53.89,157.37c0.93,0,1.62,-0.51,2.09,-1.53c0.46,-1.02,0.69,-2.56,0.69,-4.62c0,-2.06,-0.23,-3.61,-0.69,-4.63c-0.46,-1.02,-1.16,-1.53,-2.09,-1.53c-0.93,0,-1.62,0.51,-2.09,1.53c-0.46,1.02,-0.69,2.56,-0.69,4.63c0,2.06,0.23,3.6,0.69,4.62c0.46,1.02,1.15,1.53,2.09,1.53m0,0.9c-1.47,0,-2.63,-0.62,-3.46,-1.86c-0.83,-1.24,-1.24,-2.97,-1.24,-5.2c0,-2.23,0.41,-3.97,1.24,-5.21c0.83,-1.24,1.98,-1.86,3.46,-1.86c1.48,0,2.64,0.62,3.47,1.86c0.82,1.24,1.24,2.97,1.24,5.21c0,2.22,-0.41,3.96,-1.24,5.2c-0.82,1.24,-1.98,1.86,-3.47,1.86" fill="#000000" stroke="none" fill-opacity="1"/>
<path d="m36.05,89.47c0.93,0,1.62,-0.51,2.09,-1.53c0.46,-1.02,0.69,-2.56,0.69,-4.62c0,-2.06,-0.23,-3.61,-0.69,-4.63c-0.46,-1.02,-1.16,-1.53,-2.09,-1.53c-0.93,0,-1.62,0.51,-2.09,1.53c-0.46,1.02,-0.69,2.56,-0.69,4.63c0,2.06,0.23,3.6,0.69,4.62c0.46,1.02,1.15,1.53,2.09,1.53m0,0.9c-1.47,0,-2.63,-0.62,-3.46,-1.86c-0.83,-1.24,-1.24,-2.97,-1.24,-5.2c0,-2.23,0.41,-3.97,1.24,-5.21c0.83,-1.24,1.98,-1.86,3.46,-1.86c1.48,0,2.64,0.62,3.47,1.86c0.82,1.24,1.24,2.97,1.24,5.21c0,2.22,-0.41,3.96,-1.24,5.2c-0.82,1.24,-1.98,1.86,-3.47,1.86m6.62,1.55c0.57,-0.41,0.99,-0.91,1.26,-1.48c0.26,-0.56,0.4,-1.25,0.4,-2.06l0,-0.33l1.79,0c-0.04,1.04,-0.29,1.93,-0.73,2.68c-0.44,0.74,-1.1,1.39,-1.99,1.93l-0.73,-0.72m14.67,-15.45l0,1.49l-6.24,0l0,3.9c0.31,-0.21,0.68,-0.38,1.1,-0.49c0.42,-0.1,0.89,-0.16,1.42,-0.16c1.47,0,2.63,0.4,3.48,1.22c0.85,0.81,1.27,1.92,1.27,3.34c0,1.44,-0.43,2.56,-1.29,3.37c-0.86,0.8,-2.07,1.2,-3.62,1.2c-0.62,0,-1.26,-0.07,-1.92,-0.22c-0.65,-0.15,-1.32,-0.38,-2.01,-0.69l0,-2.64l1.03,0c0.05,0.86,0.33,1.52,0.82,1.98c0.49,0.45,1.19,0.68,2.08,0.68c0.96,0,1.7,-0.31,2.21,-0.95c0.51,-0.63,0.77,-1.54,0.77,-2.72c0,-1.18,-0.25,-2.08,-0.77,-2.71c-0.51,-0.62,-1.25,-0.94,-2.22,-0.94c-0.54,0,-1.03,0.09,-1.44,0.29c-0.41,0.19,-0.78,0.49,-1.1,0.9l-0.78,0l0,-6.84l7.21,0" fill="#000000" stroke="none" fill-opacity="1"/>
<path d="m50.61,22.21l0,-0.96l2.37,0l0,-11.34l-2.74,1.77l0,-1.19l3.32,-2.15l1.26,0l0,12.91l2.37,0l0,0.96l-6.58,0" fill="#000000" stroke="none" fill-opacity="1"/>
</g>
<g fill="none" stroke-linecap="butt" stroke-width="0.66">
<path d="M64.25,286.7l1132.91,0"/>
<path d="M64.25,286.7l0,-4M119.62,286.7l0,-4M174.99,286.7l0,-4M230.36,286.7l0,-4M285.74,286.7l0,-4M341.11,286.7l0,-4M396.48,286.7l0,-4M451.85,286.7l0,-4M507.22,286.7l0,-4M562.6,286.7l0,-4M617.97,286.7l0,-4M673.34,286.7l0,-4M728.71,286.7l0,-4M784.08,286.7l0,-4M839.46,286.7l0,-4M894.83,286.7l0,-4M950.2,286.7l0,-4M1005.57,286.7l0,-4M1060.95,286.7l0,-4M1116.32,286.7l0,-4M1171.69,286.7l0,-4"/>
<path d="M64.25,286.7l0,-8M285.74,286.7l0,-8M507.22,286.7l0,-8M728.71,286.7l0,-8M950.2,286.7l0,-8M1171.69,286.7l0,-8"/>
<path d="M1197.16,286.7l0,-271.58"/>
<path d="M1197.16,286.7l-4,0M1197.16,273.12l-4,0M1197.16,259.54l-4,0M1197.16,245.96l-4,0M1197.16,232.38l-4,0M1197.16,218.8l-4,0M1197.16,205.22l-4,0M1197.16,191.64l-4,0M1197.16,178.06l-4,0M1197.16,164.48l-4,0M1197.16,150.91l-4,0M1197.16,137.33l-4,0M1197.16,123.75l-4,0M1197.16,110.17l-4,0M1197.16,96.59l-4,0M1197.16,83.01l-4,0M1197.16,69.43l-4,0M1197.16,55.85l-4,0M1197.16,42.27l-4,0M1197.16,28.69l-4,0M1197.16,15.11l-4,0"/>
<path d="M1197.16,286.7l-8,0M1197.16,218.8l-8,0M1197.16,150.91l-8,0M1197.16,83.01l-8,0M1197.16,15.11l-8,0"/>
<path d="M64.25,15.11l1132.91,0"/>
<path d="M64.25,15.11l0,4M119.62,15.11l0,4M174.99,15.11l0,4M230.36,15.11l0,4M285.74,15.11l0,4M341.11,15.11l0,4M396.48,15.11l0,4M451.85,15.11l0,4M507.22,15.11l0,4M562.6,15.11l0,4M617.97,15.11l0,4M673.34,15.11l0,4M728.71,15.11l0,4M784.08,15.11l0,4M839.46,15.11l0,4M894.83,15.11l0,4M950.2,15.11l0,4M1005.57,15.11l0,4M1060.95,15.11l0,4M1116.32,15.11l0,4M1171.69,15.11l0,4"/>
<path d="M64.25,15.11l0,8M285.74,15.11l0,8M507.22,15.11l0,8M728.71,15.11l0,8M950.2,15.11l0,8M1171.69,15.11l0,8"/>
</g>
<g fill="#ffffff" stroke-width="0.66">
<path d="m64.25,355.18l1132.91,0l0,293.27l-1132.91,0l0,-293.27"/>
</g>
</g>
<g clip-path="url(#c2)">
<g fill="none" stroke="#e41a1c" stroke-width="0.66">
<polyline fill="none" points="64.25,648.46 65.35,645.59 66.46,642.71 67.57,639.84 68.68,636.96 69.78,634.08 70.89,631.21 72,628.33 73.11,625.46 74.21,622.58 75.32,619.71 76.43,616.83 77.54,613.96 78.64,611.08 79.75,608.21 80.86,605.33 81.97,602.46 83.07,599.58 84.18,596.71 85.29,593.83 86.4,590.96 87.5,588.08 88.61,585.21 89.72,582.33 90.83,579.45 91.93,576.58 93.04,573.7 94.15,570.83 95.26,567.95 96.36,565.08 97.47,562.2 98.58,559.33 99.69,556.45 100.79,553.58 101.9,550.7 103.01,547.83 104.11,544.95 105.22,542.08 106.33,539.2 107.44,536.33 108.54,533.45 109.65,530.57 110.76,527.7 111.87,524.82 112.97,521.95 114.08,519.07 115.19,516.2 116.3,513.32 117.4,510.45 118.51,507.57 119.62,504.7 120.73,501.82 121.83,498.95 122.94,496.07 124.05,493.2 125.16,490.32 126.26,487.45 127.37,484.57 128.48,481.69 129.59,478.82 130.69,475.94 131.8,473.07 132.91,470.19 134.02,467.32 135.12,464.44 136.23,461.57 137.34,458.69 138.45,455.82 139.55,452.94 140.66,450.07 141.77,447.19 142.88,444.32 143.98,441.44 145.09,438.57 146.2,435.69 147.31,432.82 148.41,429.94 149.52,427.06 150.63,424.19 151.73,421.31 152.84,418.44 153.95,415.56 155.06,412.69 156.16,409.81 157.27,406.94 158.38,404.06 159.49,401.19 160.59,398.31 161.7,395.44 162.81,392.56 163.92,389.69 165.02,386.81 166.13,383.94 167.24,381.06 168.35,378.18 169.45,375.31 170.56,372.43 171.67,369.56 172.78,366.68 173.88,363.81 174.99,360.93 176.1,358.06 177.21,355.18 178.31,355.91 179.42,356.63 180.53,357.36 181.64,358.09 182.74,358.81 183.85,359.54 184.96,360.26 186.07,360.99 187.17,361.72 188.28,362.44 189.39,363.17 190.5,363.89 191.6,364.62 192.71,365.35 193.82,366.07 194.93,366.8 196.03,367.52 197.14,368.25 198.25,368.98 199.35,369.7 200.46,370.43 201.57,371.15 202.68,371.88 203.78,372.6 204.89,373.33 206,374.06 207.11,374.78 208.21,375.51 209.32,376.23 210.43,376.96 211.54,377.69 212.64,378.41 213.75,379.14 214.86,379.86 215.97,380.59 217.07,381.32 218.18,382.04 219.29,382.77 220.4,383.49 221.5,384.22 222.61,384.95 223.72,385.67 224.83,386.4 225.93,387.12 227.04,387.85 228.15,388.58 229.26,389.3 230.36,390.03 231.47,390.75 232.58,391.48 233.69,392.21 234.79,392.93 235.9,393.66 237.01,394.38 238.12,395.11 239.22,395.83 240.33,396.56 241.44,397.29 242.55,398.01 243.65,398.74 244.76,399.46 245.87,400.19 246.97,400.92 248.08,401.64 249.19,402.37 250.3,403.09 251.4,403.82 252.51,404.55 253.62,405.27 254.73,406 255.83,406.72 256.94,407.45 258.05,408.18 259.16,408.9 260.26,409.63 261.37,410.35 262.48,411.08 263.59,411.81 264.69,412.53 265.8,413.26 266.91,413.98 268.02,414.71 269.12,415.44 270.23,416.16 271.34,416.89 272.45,417.61 273.55,418.34 274.66,419.07 275.77,419.79 276.88,420.52 277.98,421.24 279.09,421.97 280.2,422.69 281.31,423.42 282.41,424.15 283.52,424.87 284.63,425.6 285.74,426.32 286.84,427.05 287.95,427.78 289.06,428.5 290.17,428.5 291.27,428.5 292.38,428.5 293.49,428.5 294.59,428.5 295.7,428.5 296.81,428.5 297.92,428.5 299.02,428.5 300.13,428.5 301.24,428.5 302.35,428.5 303.45,428.5 304.56,428.5 305.67,428.5 306.78,428.5 307.88,428.5 308.99,428.5 310.1,428.5 311.21,428.5 312.31,428.5 313.42,428.5 314.53,428.5 315.64,428.5 316.74,428.5 317.85,428.5 318.96,428.5 320.07,428.5 321.17,428.5 322.28,428.5 323.39,428.5 324.5,428.5 325.6,428.5 326.71,428.5 327.82,428.5 328.93,428.5 330.03,428.5 331.14,428.5 332.25,428.5 333.36,428.5 334.46,428.5 335.57,428.5 336.68,428.5 337.79,428.5 338.89,428.5 340,428.5 341.11,428.5 342.22,428.5 343.32,428.5 344.43,428.5 345.54,428.5 346.64,428.5 347.75,428.5 348.86,428.5 349.97,428.5 351.07,428.5 352.18,428.5 353.29,428.5 354.4,428.5 355.5,428.5 356.61,428.5 357.72,428.5 358.83,428.5 359.93,428.5 361.04,428.5 362.15,428.5 363.26,428.5 364.36,428.5 365.47,428.5 366.58,428.5 367.69,428.5 368.79,428.5 369.9,428.5 371.01,428.5 372.12,428.5 373.22,428.5 374.33,428.5 375.44,428.5 376.55,428.5 377.65,428.5 378.76,428.5 379.87,428.5 380.98,428.5 382.08,428.5 383.19,428.5 384.3,428.5 385.41,428.5 386.51,428.5 387.62,428.5 388.73,428.5 389.84,428.5 390.94,428.5 392.05,428.5 393.16,428.5 394.26,428.5 395.37,428.5 396.48,428.5 397.59,428.5 398.69,428.5 399.8,428.5 400.91,428.5 402.02,428.5 403.12,428.5 404.23,428.5 405.34,428.5 406.45,428.5 407.55,428.5 408.66,428.5 409.77,428.5 410.88,428.5 411.98,428.5 413.09,428.5 414.2,428.5 415.31,428.5 416.41,428.5 417.52,428.5 418.63,428.5 419.74,428.5 420.84,428.5 421.95,428.5 423.06,428.5 424.17,428.5 425.27,428.5 426.38,428.5 427.49,428.5 428.6,428.5 429.7,428.5 430.81,428.5 431.92,428.5 433.03,428.5 434.13,428.5 435.24,428.5 436.35,428.5 437.46,428.5 438.56,428.5 439.67,428.5 440.78,428.5 441.88,428.5 442.99,428.5 444.1,428.5 445.21,428.5 446.31,428.5 447.42,428.5 448.53,428.5 449.64,428.5 450.74,428.5 451.85,428.5 452.96,428.5 454.07,428.5 455.17,428.5 456.28,428.5 457.39,428.5 458.5,428.5 459.6,428.5 460.71,428.5 461.82,428.5 462.93,428.5 464.03,428.5 465.14,428.5 466.25,428.5 467.36,428.5 468.46,428.5 469.57,428.5 470.68,428.5 471.79,428.5 472.89,428.5 474,428.5 475.11,428.5 476.22,428.5 477.32,428.5 478.43,428.5 479.54,428.5 480.65,428.5 481.75,428.5 482.86,428.5 483.97,428.5 485.08,428.5 486.18,428.5 487.29,428.5 488.4,428.5 489.5,428.5 490.61,428.5 491.72,428.5 492.83,428.5 493.93,428.5 495.04,428.5 496.15,428.5 497.26,428.5 498.36,428.5 499.47,428.5 500.58,428.5 501.69,428.5 502.79,428.5 503.9,428.5 505.01,428.5 506.12,428.5 507.22,428.5 508.33,428.5 509.44,428.5 510.55,428.5 511.65,428.5 512.76,428.5 513.87,428.5 514.98,428.5 516.08,428.5 517.19,428.5 518.3,428.5 519.41,428.5 520.51,428.5 521.62,428.5 522.73,428.5 523.84,428.5 524.94,428.5 526.05,428.5 527.16,428.5 528.27,428.5 529.37,428.5 530.48,428.5 531.59,428.5 532.7,428.5 533.8,428.5 534.91,428.5 536.02,428.5 537.12,428.5 538.23,428.5 539.34,428.5 540.45,428.5 541.55,428.5 542.66,428.5 543.77,428.5 544.88,428.5 545.98,428.5 547.09,428.5 548.2,428.5 549.31,428.5 550.41,428.5 551.52,428.5 552.63,428.5 553.74,428.5 554.84,428.5 555.95,428.5 557.06,428.5 558.17,428.5 559.27,428.5 560.38,428.5 561.49,428.5 562.6,428.5 563.7,428.5 564.81,428.5 565.92,428.5 567.03,428.5 568.13,428.5 569.24,428.5 570.35,428.5 571.46,428.5 572.56,428.5 573.67,428.5 574.78,428.5 575.89,428.5 576.99,428.5 578.1,428.5 579.21,428.5 580.32,428.5 581.42,428.5 582.53,428.5 583.64,428.5 584.74,428.5 585.85,428.5 586.96,428.5 588.07,428.5 589.17,428.5 590.28,428.5 591.39,428.5 592.5,428.5 593.6,428.5 594.71,428.5 595.82,428.5 596.93,428.5 598.03,428.5 599.14,428.5 600.25,428.5 601.36,428.5 602.46,428.5 603.57,428.5 604.68,428.5 605.79,428.5 606.89,428.5 608,428.5 609.11,428.5 610.22,428.5 611.32,428.5 612.43,428.5 613.54,428.5 614.65,428.5 615.75,428.5 616.86,428.5 617.97,428.5 619.08,428.5 620.18,428.5 621.29,428.5 622.4,428.5 623.51,428.5 624.61,428.5 625.72,428.5 626.83,428.5 627.94,428.5 629.04,428.5 630.15,428.5 631.26,428.5 632.36,428.5 633.47,428.5 634.58,428.5 635.69,428.5 636.79,428.5 637.9,428.5 639.01,428.5 640.12,428.5 641.22,428.5 642.33,428.5 643.44,428.5 644.55,428.5 645.65,428.5 646.76,428.5 647.87,428.5 648.98,428.5 650.08,428.5 651.19,428.5 652.3,428.5 653.41,428.5 654.51,428.5 655.62,428.5 656.73,428.5 657.84,428.5 658.94,428.5 660.05,428.5 661.16,428.5 662.27,428.5 663.37,428.5 664.48,428.5 665.59,428.5 666.7,428.5 667.8,428.5 668.91,428.5 670.02,428.5 671.13,428.5 672.23,428.5 673.34,428.5 674.45,428.5 675.56,428.5 676.66,428.5 677.77,428.5 678.88,428.5 679.98,428.5 681.09,428.5 682.2,428.5 683.31,428.5 684.41,428.5 685.52,428.5 686.63,428.5 687.74,428.5 688.84,428.5 689.95,428.5 691.06,428.5 692.17,428.5 693.27,428.5 694.38,428.5 695.49,428.5 696.6,428.5 697.7,428.5 698.81,428.5 699.92,428.5 701.03,428.5 702.13,428.5 703.24,428.5 704.35,428.5 705.46,428.5 706.56,428.5 707.67,428.5 708.78,428.5 709.89,428.5 710.99,428.5 712.1,428.5 713.21,428.5 714.32,428.5 715.42,428.5 716.53,428.5 717.64,428.5 718.75,428.5 719.85,428.5 720.96,428.5 722.07,428.5 723.18,428.5 724.28,428.5 725.39,428.5 726.5,428.5 727.6,428.5 728.71,428.5 729.82,428.5 730.93,428.5 732.03,428.5 733.14,428.5 734.25,428.5 735.36,428.5 736.46,428.5 737.57,428.5 738.68,428.5 739.79,428.5 740.89,428.5 742,428.5 743.11,428.5 744.22,428.5 745.32,428.5 746.43,428.5 747.54,428.5 748.65,428.5 749.75,428.5 750.86,428.5 751.97,428.5 753.08,428.5 754.18,428.5 755.29,428.5 756.4,428.5 757.51,428.5 758.61,428.5 759.72,428.5 760.83,428.5 761.94,428.5 763.04,428.5 764.15,428.5 765.26,428.5 766.37,428.5 767.47,428.5 768.58,428.5 769.69,428.5 770.8,428.5 771.9,428.5 773.01,428.5 774.12,428.5 775.22,428.5 776.33,428.5 777.44,428.5 778.55,428.5 779.65,428.5 780.76,428.5 781.87,428.5 782.98,428.5 784.08,428.5 785.19,428.5 786.3,428.5 787.41,428.5 788.51,428.5 789.62,428.5 790.73,428.5 791.84,428.5 792.94,428.5 794.05,428.5 795.16,428.5 796.27,428.5 797.37,428.5 798.48,428.5 799.59,428.5 800.7,428.5 801.8,428.5 802.91,428.5 804.02,428.5 805.13,428.5 806.23,428.5 807.34,428.5 808.45,428.5 809.56,428.5 810.66,428.5 811.77,428.5 812.88,428.5 813.99,428.5 815.09,428.5 816.2,428.5 817.31,428.5 818.42,428.5 819.52,428.5 820.63,428.5 821.74,428.5 822.84,428.5 823.95,428.5 825.06,428.5 826.17,428.5 827.27,428.5 828.38,428.5 829.49,428.5 830.6,428.5 831.7,428.5 832.81,428.5 833.92,428.5 835.03,428.5 836.13,428.5 837.24,428.5 838.35,428.5 839.46,428.5 840.56,428.5 841.67,428.5 842.78,428.5 843.89,428.5 844.99,428.5 846.1,428.5 847.21,428.5 848.32,428.5 849.42,428.5 850.53,428.5 851.64,428.5 852.75,428.5 853.85,428.5 854.96,428.5 856.07,428.5 857.18,428.5 858.28,428.5 859.39,428.5 860.5,428.5 861.61,428.5 862.71,428.5 863.82,428.5 864.93,428.5 866.04,428.5 867.14,428.5 868.25,428.5 869.36,428.5 870.46,428.5 871.57,428.5 872.68,428.5 873.79,428.5 874.89,428.5 876,428.5 877.11,428.5 878.22,428.5 879.32,428.5 880.43,428.5 881.54,428.5 882.65,428.5 883.75,428.5 884.86,428.5 885.97,428.5 887.08,428.5 888.18,428.5 889.29,428.5 890.4,428.5 891.51,428.5 892.61,428.5 893.72,428.5 894.83,428.5 895.94,428.5 897.04,428.5 898.15,428.5 899.26,428.5 900.37,428.5 901.47,428.5 902.58,428.5 903.69,428.5 904.8,428.5 905.9,428.5 907.01,428.5 908.12,428.5 909.23,428.5 910.33,428.5 911.44,428.5 912.55,428.5 913.66,428.5 914.76,428.5 915.87,428.5 916.98,428.5 918.08,428.5 919.19,428.5 920.3,428.5 921.41,428.5 922.51,428.5 923.62,428.5 924.73,428.5 925.84,428.5 926.94,428.5 928.05,428.5 929.16,428.5 930.27,428.5 931.37,428.5 932.48,428.5 933.59,428.5 934.7,428.5 935.8,428.5 936.91,428.5 938.02,428.5 939.13,428.5 940.23,428.5 941.34,428.5 942.45,428.5 943.56,428.5 944.66,428.5 945.77,428.5 946.88,428.5 947.99,428.5 949.09,428.5 950.2,428.5 951.31,428.5 952.42,428.5 953.52,428.5 954.63,428.5 955.74,428.5 956.85,428.5 957.95,428.5 959.06,428.5 960.17,428.5 961.28,428.5 962.38,428.5 963.49,428.5 964.6,428.5 965.7,428.5 966.81,428.5 967.92,428.5 969.03,428.5 970.13,428.5 971.24,428.5 972.35,428.5 973.46,429.58 974.56,430.66 975.67,431.74 976.78,432.82 977.89,433.89 978.99,434.97 980.1,436.05 981.21,437.13 982.32,438.21 983.42,439.28 984.53,440.36 985.64,441.44 986.75,442.52 987.85,443.6 988.96,444.68 990.07,445.75 991.18,446.83 992.28,447.91 993.39,448.99 994.5,450.07 995.61,451.15 996.71,452.22 997.82,453.3 998.93,454.38 1000.04,455.46 1001.14,456.54 1002.25,457.61 1003.36,458.69 1004.47,459.77 1005.57,460.85 1006.68,461.93 1007.79,463.01 1008.9,464.08 1010,465.16 1011.11,466.24 1012.22,467.32 1013.32,468.4 1014.43,469.47 1015.54,470.55 1016.65,471.63 1017.75,472.71 1018.86,473.79 1019.97,474.87 1021.08,475.94 1022.18,477.02 1023.29,478.1 1024.4,479.18 1025.51,480.26 1026.61,481.34 1027.72,482.41 1028.83,483.49 1029.94,484.57 1031.04,485.65 1032.15,486.73 1033.26,487.8 1034.37,488.88 1035.47,489.96 1036.58,491.04 1037.69,492.12 1038.8,493.2 1039.9,494.27 1041.01,495.35 1042.12,496.43 1043.23,497.51 1044.33,498.59 1045.44,499.67 1046.55,500.74 1047.66,501.82 1048.76,502.9 1049.87,503.98 1050.98,505.06 1052.09,506.13 1053.19,507.21 1054.3,508.29 1055.41,509.37 1056.52,510.45 1057.62,511.53 1058.73,512.6 1059.84,513.68 1060.95,514.76 1062.05,515.84 1063.16,516.92 1064.27,518 1065.37,519.07 1066.48,520.15 1067.59,521.23 1068.7,522.31 1069.8,523.39 1070.91,524.46 1072.02,525.54 1073.13,526.62 1074.23,527.7 1075.34,528.78 1076.45,529.86 1077.56,530.93 1078.66,532.01 1079.77,533.09 1080.88,534.17 1081.99,535.25 1083.09,536.33 1084.2,537.4 1085.31,538.48 1086.42,539.56 1087.52,540.64 1088.63,541.72 1089.74,542.79 1090.85,543.87 1091.95,544.95 1093.06,546.03 1094.17,547.11 1095.28,548.19 1096.38,549.26 1097.49,550.34 1098.6,551.42 1099.71,552.5 1100.81,553.58 1101.92,554.66 1103.03,555.73 1104.14,556.81 1105.24,557.89 1106.35,558.97 1107.46,560.05 1108.57,561.12 1109.67,562.2 1110.78,563.28 1111.89,564.36 1112.99,565.44 1114.1,566.52 1115.21,567.59 1116.32,568.67 1117.42,569.75 1118.53,570.83 1119.64,571.91 1120.75,572.99 1121.85,574.06 1122.96,575.14 1124.07,576.22 1125.18,577.3 1126.28,578.38 1127.39,579.45 1128.5,580.53 1129.61,581.61 1130.71,582.69 1131.82,583.77 1132.93,584.85 1134.04,585.92 1135.14,587 1136.25,588.08 1137.36,589.16 1138.47,590.24 1139.57,591.31 1140.68,592.39 1141.79,593.47 1142.9,594.55 1144,595.63 1145.11,596.71 1146.22,597.78 1147.33,598.86 1148.43,599.94 1149.54,601.02 1150.65,602.1 1151.76,603.18 1152.86,604.25 1153.97,605.33 1155.08,606.41 1156.19,607.49 1157.29,608.57 1158.4,609.64 1159.51,610.72 1160.61,611.8 1161.72,612.88 1162.83,613.96 1163.94,615.04 1165.04,616.11 1166.15,617.19 1167.26,618.27 1168.37,619.35 1169.47,620.43 1170.58,621.51 1171.69,622.58 1172.8,623.66 1173.9,624.74 1175.01,625.82 1176.12,626.9 1177.23,627.97 1178.33,629.05 1179.44,630.13 1180.55,631.21 1181.66,632.29 1182.76,633.37 1183.87,634.44 1184.98,635.52 1186.09,636.6 1187.19,637.68 1188.3,638.76 1189.41,639.84 1190.52,640.91 1191.62,641.99 1192.73,643.07 1193.84,644.15 1194.95,645.23 1196.05,648.46 1197.16,647.38"/>
</g>
</g>
<g clip-path="url(#c0)">
<g fill="none" stroke-linecap="butt" stroke-width="0.66">
<path d="M64.25,648.46l0,-293.27"/>
<path d="M64.25,648.46l4,0M64.25,633.8l4,0M64.25,619.13l4,0M64.25,604.47l4,0M64.25,589.81l4,0M64.25,575.14l4,0M64.25,560.48l4,0M64.25,545.81l4,0M64.25,531.15l4,0M64.25,516.49l4,0M64.25,501.82l4,0M64.25,487.16l4,0M64.25,472.49l4,0M64.25,457.83l4,0M64.25,443.17l4,0M64.25,428.5l4,0M64.25,413.84l4,0M64.25,399.17l4,0M64.25,384.51l4,0M64.25,369.85l4,0M64.25,355.18l4,0"/>
<path d="M64.25,648.46l8,0M64.25,589.81l8,0M64.25,531.15l8,0M64.25,472.49l8,0M64.25,413.84l8,0M64.25,355.18l8,0"/>
</g>
<g fill="none" stroke-width="0.1">
<path d="m53.89,654.92c0.93,0,1.62,-0.51,2.09,-1.53c0.46,-1.02,0.69,-2.56,0.69,-4.62c0,-2.06,-0.23,-3.61,-0.69,-4.63c-0.46,-1.02,-1.16,-1.53,-2.09,-1.53c-0.93,0,-1.62,0.51,-2.09,1.53c-0.46,1.02,-0.69,2.56,-0.69,4.63c0,2.06,0.23,3.6,0.69,4.62c0.46,1.02,1.15,1.53,2.09,1.53m0,0.9c-1.47,0,-2.63,-0.62,-3.46,-1.86c-0.83,-1.24,-1.24,-2.97,-1.24,-5.2c0,-2.23,0.41,-3.97,1.24,-5.21c0.83,-1.24,1.98,-1.86,3.46,-1.86c1.48,0,2.64,0.62,3.47,1.86c0.82,1.24,1.24,2.97,1.24,5.21c0,2.22,-0.41,3.96,-1.24,5.2c-0.82,1.24,-1.98,1.86,-3.47,1.86" fill="#000000" stroke="none" fill-opacity="1"/>
<path d="m36.05,596.27c0.93,0,1.62,-0.51,2.09,-1.53c0.46,-1.02,0.69,-2.56,0.69,-4.62c0,-2.06,-0.23,-3.61,-0.69,-4.63c-0.46,-1.02,-1.16,-1.53,-2.09,-1.53c-0.93,0,-1.62,0.51,-2.09,1.53c-0.46,1.02,-0.69,2.56,-0.69,4.63c0,2.06,0.23,3.6,0.69,4.62c0.46,1.02,1.15,1.53,2.09,1.53m0,0.9c-1.47,0,-2.63,-0.62,-3.46,-1.86c-0.83,-1.24,-1.24,-2.97,-1.24,-5.2c0,-2.23,0.41,-3.97,1.24,-5.21c0.83,-1.24,1.98,-1.86,3.46,-1.86c1.48,0,2.64,0.62,3.47,1.86c0.82,1.24,1.24,2.97,1.24,5.21c0,2.22,-0.41,3.96,-1.24,5.2c-0.82,1.24,-1.98,1.86,-3.47,1.86m6.62,1.55c0.57,-0.41,0.99,-0.91,1.26,-1.48c0.26,-0.56,0.4,-1.25,0.4,-2.06l0,-0.33l1.79,0c-0.04,1.04,-0.29,1.93,-0.73,2.68c-0.44,0.74,-1.1,1.39,-1.99,1.93l-0.73,-0.72m7.66,-12.19l-1.02,0l0,-2.42c0.65,-0.34,1.3,-0.61,1.96,-0.79c0.66,-0.18,1.3,-0.27,1.94,-0.27c1.41,0,2.53,0.34,3.35,1.03c0.82,0.68,1.23,1.62,1.23,2.8c0,1.33,-0.93,2.92,-2.79,4.78c-0.14,0.13,-0.25,0.24,-0.32,0.32l-3.44,3.44l5.68,0l0,-1.68l1.06,0l0,3.17l-8.79,0l0,-0.99l4.13,-4.12c0.91,-0.91,1.56,-1.75,1.95,-2.51c0.38,-0.76,0.58,-1.56,0.58,-2.4c0,-0.91,-0.23,-1.63,-0.71,-2.15c-0.47,-0.51,-1.13,-0.77,-1.97,-0.77c-0.86,0,-1.54,0.21,-2.01,0.64c-0.47,0.43,-0.75,1.08,-0.84,1.94" fill="#000000" stroke="none" fill-opacity="1"/>
<path d="m36.05,537.61c0.93,0,1.62,-0.51,2.09,-1.53c0.46,-1.02,0.69,-2.56,0.69,-4.62c0,-2.06,-0.23,-3.61,-0.69,-4.63c-0.46,-1.02,-1.16,-1.53,-2.09,-1.53c-0.93,0,-1.62,0.51,-2.09,1.53c-0.46,1.02,-0.69,2.56,-0.69,4.63c0,2.06,0.23,3.6,0.69,4.62c0.46,1.02,1.15,1.53,2.09,1.53m0,0.9c-1.47,0,-2.63,-0.62,-3.46,-1.86c-0.83,-1.24,-1.24,-2.97,-1.24,-5.2c0,-2.23,0.41,-3.97,1.24,-5.21c0.83,-1.24,1.98,-1.86,3.46,-1.86c1.48,0,2.64,0.62,3.47,1.86c0.82,1.24,1.24,2.97,1.24,5.21c0,2.22,-0.41,3.96,-1.24,5.2c-0.82,1.24,-1.98,1.86,-3.47,1.86m6.62,1.55c0.57,-0.41,0.99,-0.91,1.26,-1.48c0.26,-0.56,0.4,-1.25,0.4,-2.06l0,-0.33l1.79,0c-0.04,1.04,-0.29,1.93,-0.73,2.68c-0.44,0.74,-1.1,1.39,-1.99,1.93l-0.73,-0.72m11.79,-6.43l0,-7.25l-4.65,7.25l4.65,0m4.01,4.62l-6.2,0l0,-0.96l2.19,0l0,-2.67l-5.95,0l0,-0.99l5.97,-9.24l1.8,0l0,9.25l2.6,0l0,0.97l-2.6,0l0,2.67l2.19,0l0,0.96" fill="#000000" stroke="none" fill-opacity="1"/>
<path d="m36.05,478.95c0.93,0,1.62,-0.51,2.09,-1.53c0.46,-1.02,0.69,-2.56,0.69,-4.62c0,-2.06,-0.23,-3.61,-0.69,-4.63c-0.46,-1.02,-1.16,-1.53,-2.09,-1.53c-0.93,0,-1.62,0.51,-2.09,1.53c-0.46,1.02,-0.69,2.56,-0.69,4.63c0,2.06,0.23,3.6,0.69,4.62c0.46,1.02,1.15,1.53,2.09,1.53m0,0.9c-1.47,0,-2.63,-0.62,-3.46,-1.86c-0.83,-1.24,-1.24,-2.97,-1.24,-5.2c0,-2.23,0.41,-3.97,1.24,-5.21c0.83,-1.24,1.98,-1.86,3.46,-1.86c1.48,0,2.64,0.62,3.47,1.86c0.82,1.24,1.24,2.97,1.24,5.21c0,2.22,-0.41,3.96,-1.24,5.2c-0.82,1.24,-1.98,1.86,-3.47,1.86m6.62,1.55c0.57,-0.41,0.99,-0.91,1.26,-1.48c0.26,-0.56,0.4,-1.25,0.4,-2.06l0,-0.33l1.79,0c-0.04,1.04,-0.29,1.93,-0.73,2.68c-0.44,0.74,-1.1,1.39,-1.99,1.93l-0.73,-0.72m11.38,-2.45c0.85,0,1.51,-0.31,1.98,-0.94c0.46,-0.63,0.69,-1.53,0.69,-2.71c0,-1.18,-0.23,-2.08,-0.69,-2.71c-0.46,-0.63,-1.12,-0.94,-1.98,-0.94c-0.86,0,-1.53,0.3,-1.98,0.91c-0.45,0.6,-0.68,1.48,-0.68,2.63c0,1.21,0.23,2.14,0.69,2.79c0.46,0.65,1.12,0.97,1.98,0.97m-2.97,-6.86c0.41,-0.45,0.88,-0.79,1.4,-1.02c0.52,-0.22,1.11,-0.33,1.77,-0.33c1.35,0,2.43,0.4,3.21,1.22c0.78,0.81,1.18,1.92,1.18,3.34c0,1.38,-0.42,2.48,-1.27,3.31c-0.84,0.83,-1.98,1.24,-3.4,1.24c-1.54,0,-2.72,-0.57,-3.55,-1.72c-0.82,-1.14,-1.24,-2.78,-1.24,-4.91c0,-2.38,0.48,-4.23,1.46,-5.54c0.97,-1.3,2.36,-1.96,4.14,-1.96c0.48,0,0.98,0.04,1.51,0.13c0.52,0.09,1.07,0.22,1.62,0.41l0,2.24l-1.03,0c-0.07,-0.61,-0.3,-1.08,-0.7,-1.4c-0.39,-0.32,-0.92,-0.48,-1.59,-0.48c-1.18,0,-2.06,0.44,-2.63,1.34c-0.57,0.89,-0.87,2.27,-0.89,4.12" fill="#000000" stroke="none" fill-opacity="1"/>
<path d="m36.05,420.3c0.93,0,1.62,-0.51,2.09,-1.53c0.46,-1.02,0.69,-2.56,0.69,-4.62c0,-2.06,-0.23,-3.61,-0.69,-4.63c-0.46,-1.02,-1.16,-1.53,-2.09,-1.53c-0.93,0,-1.62,0.51,-2.09,1.53c-0.46,1.02,-0.69,2.56,-0.69,4.63c0,2.06,0.23,3.6,0.69,4.62c0.46,1.02,1.15,1.53,2.09,1.53m0,0.9c-1.47,0,-2.63,-0.62,-3.46,-1.86c-0.83,-1.24,-1.24,-2.97,-1.24,-5.2c0,-2.23,0.41,-3.97,1.24,-5.21c0.83,-1.24,1.98,-1.86,3.46,-1.86c1.48,0,2.64,0.62,3.47,1.86c0.82,1.24,1.24,2.97,1.24,5.21c0,2.22,-0.41,3.96,-1.24,5.2c-0.82,1.24,-1.98,1.86,-3.47,1.86m6.62,1.55c0.57,-0.41,0.99,-0.91,1.26,-1.48c0.26,-0.56,0.4,-1.25,0.4,-2.06l0,-0.33l1.79,0c-0.04,1.04,-0.29,1.93,-0.73,2.68c-0.44,0.74,-1.1,1.39,-1.99,1.93l-0.73,-0.72m13.97,-5.54c0,-0.97,-0.24,-1.73,-0.72,-2.26c-0.48,-0.53,-1.16,-0.8,-2.04,-0.8c-0.87,0,-1.55,0.26,-2.03,0.8c-0.48,0.53,-0.72,1.29,-0.72,2.26c0,0.98,0.24,1.73,0.72,2.27c0.48,0.53,1.16,0.8,2.03,0.8c0.87,0,1.55,-0.26,2.04,-0.8c0.48,-0.53,0.72,-1.29,0.72,-2.27m-0.37,-6.62c0,-0.82,-0.2,-1.47,-0.62,-1.93c-0.41,-0.46,-1,-0.69,-1.76,-0.69c-0.74,0,-1.33,0.23,-1.75,0.69c-0.42,0.46,-0.63,1.1,-0.63,1.93c0,0.83,0.21,1.48,0.63,1.94c0.42,0.46,1,0.69,1.75,0.69c0.75,0,1.34,-0.23,1.76,-0.69c0.41,-0.46,0.62,-1.11,0.62,-1.94m-0.98,3.08c1.03,0.14,1.84,0.52,2.42,1.14c0.57,0.62,0.86,1.41,0.86,2.38c0,1.27,-0.4,2.26,-1.21,2.95c-0.8,0.69,-1.96,1.03,-3.47,1.03c-1.5,0,-2.66,-0.34,-3.47,-1.03c-0.81,-0.69,-1.21,-1.67,-1.21,-2.95c0,-0.96,0.28,-1.76,0.86,-2.38c0.57,-0.62,1.38,-1,2.42,-1.14c-0.91,-0.16,-1.62,-0.51,-2.11,-1.04c-0.49,-0.53,-0.73,-1.21,-0.73,-2.04c0,-1.09,0.37,-1.95,1.13,-2.58c0.75,-0.63,1.79,-0.94,3.11,-0.94c1.32,0,2.35,0.31,3.11,0.94c0.75,0.63,1.13,1.49,1.13,2.58c0,0.82,-0.24,1.5,-0.73,2.04c-0.49,0.53,-1.19,0.88,-2.1,1.04" fill="#000000" stroke="none" fill-opacity="1"/>
<path d="m50.61,373.76l0,-0.96l2.37,0l0,-11.34l-2.74,1.77l0,-1.19l3.32,-2.15l1.26,0l0,12.91l2.37,0l0,0.96l-6.58,0" fill="#000000" stroke="none" fill-opacity="1"/>
</g>
<g fill="none" stroke-linecap="butt" stroke-width="0.66">
<path d="M64.25,648.46l1132.91,0"/>
<path d="M64.25,648.46l0,-4M119.62,648.46l0,-4M174.99,648.46l0,-4M230.36,648.46l0,-4M285.74,648.46l0,-4M341.11,648.46l0,-4M396.48,648.46l0,-4M451.85,648.46l0,-4M507.22,648.46l0,-4M562.6,648.46l0,-4M617.97,648.46l0,-4M673.34,648.46l0,-4M728.71,648.46l0,-4M784.08,648.46l0,-4M839.46,648.46l0,-4M894.83,648.46l0,-4M950.2,648.46l0,-4M1005.57,648.46l0,-4M1060.95,648.46l0,-4M1116.32,648.46l0,-4M1171.69,648.46l0,-4"/>
<path d="M64.25,648.46l0,-8M285.74,648.46l0,-8M507.22,648.46l0,-8M728.71,648.46l0,-8M950.2,648.46l0,-8M1171.69,648.46l0,-8"/>
<path d="M1197.16,648.46l0,-293.27"/>
<path d="M1197.16,648.46l-4,0M1197.16,633.8l-4,0M1197.16,619.13l-4,0M1197.16,604.47l-4,0M1197.16,589.81l-4,0M1197.16,575.14l-4,0M1197.16,560.48l-4,0M1197.16,545.81l-4,0M1197.16,531.15l-4,0M1197.16,516.49l-4,0M1197.16,501.82l-4,0M1197.16,487.16l-4,0M1197.16,472.49l-4,0M1197.16,457.83l-4,0M1197.16,443.17l-4,0M1197.16,428.5l-4,0M1197.16,413.84l-4,0M1197.16,399.17l-4,0M1197.16,384.51l-4,0M1197.16,369.85l-4,0M1197.16,355.18l-4,0"/>
<path d="M1197.16,648.46l-8,0M1197.16,589.81l-8,0M1197.16,531.15l-8,0M1197.16,472.49l-8,0M1197.16,413.84l-8,0M1197.16,355.18l-8,0"/>
<path d="M64.25,355.18l1132.91,0"/>
<path d="M64.25,355.18l0,4M119.62,355.18l0,4M174.99,355.18l0,4M230.36,355.18l0,4M285.74,355.18l0,4M341.11,355.18l0,4M396.48,355.18l0,4M451.85,355.18l0,4M507.22,355.18l0,4M562.6,355.18l0,4M617.97,355.18l0,4M673.34,355.18l0,4M728.71,355.18l0,4M784.08,355.18l0,4M839.46,355.18l0,4M894.83,355.18l0,4M950.2,355.18l0,4M1005.57,355.18l0,4M1060.95,355.18l0,4M1116.32,355.18l0,4M1171.69,355.18l0,4"/>
<path d="M64.25,355.18l0,8M285.74,355.18l0,8M507.22,355.18l0,8M728.71,355.18l0,8M950.2,355.18l0,8M1171.69,355.18l0,8"/>
</g>
<g fill="#ffffff" stroke-width="0.66">
<path d="m64.25,702.81l1132.91,0l0,283.37l-1132.91,0l0,-283.37"/>
</g>
</g>
<g clip-path="url(#c3)">
<g fill="none" stroke="#e41a1c" stroke-width="0.66">
<polyline fill="none" points="64.25,844.5 65.35,843.12 66.46,841.81 67.57,840.62 68.68,839.63 69.78,838.87 70.89,838.41 72,838.29 73.11,838.52 74.21,839.15 75.32,840.17 76.43,841.59 77.54,843.4 78.64,845.57 79.75,848.07 80.86,850.85 81.97,853.87 83.07,857.06 84.18,860.34 85.29,863.64 86.4,866.88 87.5,869.98 88.61,872.84 89.72,875.39 90.83,877.54 91.93,879.22 93.04,880.36 94.15,880.9 95.26,880.78 96.36,879.96 97.47,878.42 98.58,876.15 99.69,873.14 100.79,869.42 101.9,865.02 103.01,859.98 104.11,854.37 105.22,848.27 106.33,841.76 107.44,834.94 108.54,827.93 109.65,820.85 110.76,813.83 111.87,806.99 112.97,800.47 114.08,794.4 115.19,788.91 116.3,784.12 117.4,780.15 118.51,777.1 119.62,775.05 120.73,774.09 121.83,774.28 122.94,775.65 124.05,778.22 125.16,781.99 126.26,786.95 127.37,793.05 128.48,800.21 129.59,808.36 130.69,817.39 131.8,827.18 132.91,837.57 134.02,848.42 135.12,859.56 136.23,870.8 137.34,881.97 138.45,892.86 139.55,903.29 140.66,913.07 141.77,922.01 142.88,929.95 143.98,936.71 145.09,942.17 146.2,946.19 147.31,948.66 148.41,949.5 149.52,948.66 150.63,946.1 151.73,941.83 152.84,935.87 153.95,928.28 155.06,919.14 156.16,908.56 157.27,896.69 158.38,883.69 159.49,869.75 160.59,855.08 161.7,839.89 162.81,824.42 163.92,808.93 165.02,793.66 166.13,778.87 167.24,764.82 168.35,751.74 169.45,739.88 170.56,729.44 171.67,720.64 172.78,713.64 173.88,708.61 174.99,705.65 176.1,704.86 177.21,706.3 178.31,711.62 179.42,719 180.53,728.3 181.64,739.38 182.74,752.06 183.85,766.12 184.96,781.33 186.07,797.46 187.17,814.25 188.28,831.43 189.39,848.72 190.5,865.86 191.6,882.58 192.71,898.61 193.82,913.72 194.93,927.66 196.03,940.23 197.14,951.24 198.25,960.51 199.35,967.91 200.46,973.35 201.57,976.74 202.68,978.04 203.78,977.23 204.89,974.35 206,969.46 207.11,962.63 208.21,953.98 209.32,943.66 210.43,931.85 211.54,918.73 212.64,904.51 213.75,889.44 214.86,873.73 215.97,857.66 217.07,841.47 218.18,825.41 219.29,809.73 220.4,794.69 221.5,780.51 222.61,767.41 223.72,755.59 224.83,745.23 225.93,736.49 227.04,729.48 228.15,724.31 229.26,721.06 230.36,719.76 231.47,720.42 232.58,723.02 233.69,727.52 234.79,733.82 235.9,741.81 237.01,751.37 238.12,762.34 239.22,774.53 240.33,787.75 241.44,801.78 242.55,816.4 243.65,831.38 244.76,846.47 245.87,861.45 246.97,876.07 248.08,890.11 249.19,903.36 250.3,915.6 251.4,926.66 252.51,936.37 253.62,944.58 254.73,951.17 255.83,956.05 256.94,959.15 258.05,960.44 259.16,959.9 260.26,957.56 261.37,953.46 262.48,947.68 263.59,940.32 264.69,931.5 265.8,921.37 266.91,910.1 268.02,897.87 269.12,884.88 270.23,871.34 271.34,857.46 272.45,843.47 273.55,829.58 274.66,816.01 275.77,802.97 276.88,790.67 277.98,779.28 279.09,768.99 280.2,759.96 281.31,752.3 282.41,746.14 283.52,741.55 284.63,738.62 285.74,737.36 286.84,737.78 287.95,739.88 289.06,743.6 290.17,748.56 291.27,755.03 292.38,762.9 293.49,772.05 294.59,782.34 295.7,793.61 296.81,805.68 297.92,818.35 299.02,831.44 300.13,844.73 301.24,858.01 302.35,871.09 303.45,883.74 304.56,895.79 305.67,907.02 306.78,917.27 307.88,926.39 308.99,934.21 310.1,940.63 311.21,945.54 312.31,948.86 313.42,950.55 314.53,950.57 315.64,948.92 316.74,945.63 317.85,940.76 318.96,934.38 320.07,926.58 321.17,917.5 322.28,907.27 323.39,896.05 324.5,884.03 325.6,871.38 326.71,858.31 327.82,845.03 328.93,831.74 330.03,818.64 331.14,805.96 332.25,793.88 333.36,782.59 334.46,772.28 335.57,763.1 336.68,755.19 337.79,748.69 338.89,743.7 340,740.28 341.11,738.5 342.22,738.39 343.32,739.94 344.43,743.14 345.54,747.92 346.64,754.22 347.75,761.94 348.86,770.95 349.97,781.12 351.07,792.29 352.18,804.27 353.29,816.89 354.4,829.93 355.5,843.21 356.61,856.51 357.72,869.62 358.83,882.33 359.93,894.45 361.04,905.79 362.15,916.16 363.26,925.41 364.36,933.39 365.47,939.98 366.58,945.06 367.69,948.57 368.79,950.44 369.9,950.65 371.01,949.19 372.12,946.09 373.22,941.39 374.33,935.17 375.44,927.53 376.55,918.59 377.65,908.48 378.76,897.37 379.87,885.43 380.98,872.84 382.08,859.81 383.19,846.54 384.3,833.24 385.41,820.12 386.51,807.37 387.62,795.21 388.73,783.83 389.84,773.39 390.94,764.08 392.05,756.02 393.16,749.36 394.26,744.19 395.37,740.59 396.48,738.62 397.59,738.32 398.69,739.68 399.8,742.69 400.91,747.3 402.02,753.43 403.12,760.99 404.23,769.87 405.34,779.91 406.45,790.97 407.55,802.87 408.66,815.43 409.77,828.44 410.88,841.7 411.98,855 413.09,868.14 414.2,880.91 415.31,893.11 416.41,904.55 417.52,915.04 418.63,924.42 419.74,932.55 420.84,939.3 421.95,944.56 423.06,948.25 424.17,950.31 425.27,950.71 426.38,949.44 427.49,946.52 428.6,942 429.7,935.95 430.81,928.47 431.92,919.67 433.03,909.68 434.13,898.68 435.24,886.82 436.35,874.3 437.46,861.31 438.56,848.06 439.67,834.75 440.78,821.59 441.88,808.8 442.99,796.56 444.1,785.08 445.21,774.53 446.31,765.07 447.42,756.87 448.53,750.04 449.64,744.7 450.74,740.92 451.85,738.76 452.96,738.27 454.07,739.44 455.17,742.27 456.28,746.7 457.39,752.66 458.5,760.07 459.6,768.8 460.71,778.72 461.82,789.67 462.93,801.48 464.03,813.97 465.14,826.94 466.25,840.18 467.36,853.5 468.46,866.67 469.57,879.49 470.68,891.76 471.79,903.29 472.89,913.9 474,923.42 475.11,931.7 476.22,938.61 477.32,944.04 478.43,947.91 479.54,950.16 480.65,950.74 481.75,949.67 482.86,946.94 483.97,942.6 485.08,936.72 486.18,929.39 487.29,920.73 488.4,910.87 489.5,899.97 490.61,888.2 491.72,875.75 492.83,862.8 493.93,849.57 495.04,836.26 496.15,823.07 497.26,810.23 498.36,797.92 499.47,786.34 500.58,775.67 501.69,766.09 502.79,757.74 503.9,750.74 505.01,745.23 506.12,741.26 507.22,738.92 508.33,738.24 509.44,739.23 510.55,741.87 511.65,746.11 512.76,751.91 513.87,759.16 514.98,767.74 516.08,777.54 517.19,788.38 518.3,800.1 519.41,812.53 520.51,825.45 521.62,838.67 522.73,851.99 523.84,865.18 524.94,878.06 526.05,890.4 527.16,902.02 528.27,912.75 529.37,922.4 530.48,930.82 531.59,937.89 532.7,943.5 533.8,947.55 534.91,949.99 536.02,950.76 537.12,949.87 538.23,947.33 539.34,943.17 540.45,937.46 541.55,930.29 542.66,921.78 543.77,912.05 544.88,901.26 545.98,889.58 547.09,877.19 548.2,864.29 549.31,851.08 550.41,837.77 551.52,824.56 552.63,811.66 553.74,799.28 554.84,787.61 555.95,776.83 557.06,767.12 558.17,758.62 559.27,751.47 560.38,745.77 561.49,741.63 562.6,739.11 563.7,738.23 564.81,739.03 565.92,741.48 567.03,745.55 568.13,751.18 569.24,758.26 570.35,766.7 571.46,776.37 572.56,787.1 573.67,798.73 574.78,811.09 575.89,823.96 576.99,837.16 578.1,850.48 579.21,863.7 580.32,876.62 581.42,889.03 582.53,900.75 583.64,911.58 584.74,921.36 585.85,929.93 586.96,937.16 588.07,942.94 589.17,947.17 590.28,949.79 591.39,950.76 592.5,950.06 593.6,947.7 594.71,943.72 595.82,938.18 596.93,931.18 598.03,922.81 599.14,913.21 600.25,902.53 601.36,890.95 602.46,878.63 603.57,865.78 604.68,852.59 605.79,839.28 606.89,826.05 608,813.11 609.11,800.66 610.22,788.9 611.32,778.01 612.43,768.16 613.54,759.52 614.65,752.21 615.75,746.34 616.86,742.02 617.97,739.31 619.08,738.25 620.18,738.86 621.29,741.12 622.4,745.01 623.51,750.46 624.61,757.39 625.72,765.68 626.83,775.21 627.94,785.83 629.04,797.37 630.15,809.65 631.26,822.48 632.36,835.65 633.47,848.96 634.58,862.21 635.69,875.17 636.79,887.65 637.9,899.46 639.01,910.4 640.12,920.31 641.22,929.02 642.33,936.41 643.44,942.36 644.55,946.77 645.65,949.58 646.76,950.73 647.87,950.22 648.98,948.05 650.08,944.25 651.19,938.89 652.3,932.04 653.41,923.82 654.51,914.36 655.62,903.8 656.73,892.3 657.84,880.06 658.94,867.26 660.05,854.1 661.16,840.79 662.27,827.54 663.37,814.55 664.48,802.04 665.59,790.19 666.7,779.2 667.8,769.22 668.91,760.44 670.02,752.97 671.13,746.94 672.23,742.43 673.34,739.54 674.45,738.29 675.56,738.7 676.66,740.78 677.77,744.49 678.88,749.77 679.98,756.53 681.09,764.67 682.2,774.07 683.31,784.57 684.41,796.02 685.52,808.23 686.63,821 687.74,834.14 688.84,847.45 689.95,860.71 691.06,873.72 692.17,886.26 693.27,898.15 694.38,909.2 695.49,919.24 696.6,928.1 697.7,935.64 698.81,941.76 699.92,946.35 701.03,949.34 702.13,950.69 703.24,950.36 704.35,948.38 705.46,944.76 706.56,939.57 707.67,932.89 708.78,924.82 709.89,915.49 710.99,905.05 712.1,893.65 713.21,881.48 714.32,868.74 715.42,855.61 716.53,842.3 717.64,829.04 718.75,816.01 719.85,803.43 720.96,791.5 722.07,780.4 723.18,770.3 724.28,761.37 725.39,753.75 726.5,747.55 727.6,742.87 728.71,739.78 729.82,738.34 730.93,738.57 732.03,740.46 733.14,743.99 734.25,749.09 735.36,755.69 736.46,763.68 737.57,772.94 738.68,783.33 739.79,794.68 740.89,806.81 742,819.53 743.11,832.64 744.22,845.94 745.32,859.21 746.43,872.26 747.54,884.87 748.65,896.84 749.75,908 750.86,918.15 751.97,927.15 753.08,934.86 754.18,941.14 755.29,945.91 756.4,949.08 757.51,950.62 758.61,950.48 759.72,948.69 760.83,945.25 761.94,940.24 763.04,933.72 764.15,925.81 765.26,916.61 766.37,906.28 767.47,894.99 768.58,882.9 769.69,870.21 770.8,857.11 771.9,843.82 773.01,830.54 774.12,817.47 775.22,804.83 776.33,792.82 777.44,781.61 778.55,771.39 779.65,762.32 780.76,754.54 781.87,748.18 782.98,743.32 784.08,740.05 785.19,738.42 786.3,738.46 787.41,740.17 788.51,743.51 789.62,748.43 790.73,754.87 791.84,762.71 792.94,771.83 794.05,782.1 795.16,793.34 796.27,805.39 797.37,818.06 798.48,831.13 799.59,844.42 800.7,857.71 801.8,870.79 802.91,883.46 804.02,895.52 805.13,906.78 806.23,917.05 807.34,926.19 808.45,934.05 809.56,940.5 810.66,945.45 811.77,948.8 812.88,950.52 813.99,950.58 815.09,948.98 816.2,945.73 817.31,940.89 818.42,934.54 819.52,926.77 820.63,917.72 821.74,907.51 822.84,896.32 823.95,884.31 825.06,871.67 826.17,858.61 827.27,845.33 828.38,832.04 829.49,818.94 830.6,806.24 831.7,794.14 832.81,782.84 833.92,772.5 835.03,763.29 836.13,755.36 837.24,748.82 838.35,743.79 839.46,740.34 840.56,738.52 841.67,738.37 842.78,739.89 843.89,743.05 844.99,747.79 846.1,754.06 847.21,761.75 848.32,770.74 849.42,780.88 850.53,792.02 851.64,803.99 852.75,816.59 853.85,829.63 854.96,842.91 856.07,856.21 857.18,869.32 858.28,882.05 859.39,894.19 860.5,905.54 861.61,915.94 862.71,925.22 863.82,933.23 864.93,939.84 866.04,944.96 867.14,948.5 868.25,950.41 869.36,950.66 870.46,949.24 871.57,946.18 872.68,941.52 873.79,935.33 874.89,927.72 876,918.81 877.11,908.72 878.22,897.63 879.32,885.71 880.43,873.13 881.54,860.11 882.65,846.85 883.75,833.54 884.86,820.41 885.97,807.66 887.08,795.48 888.18,784.08 889.29,773.62 890.4,764.28 891.51,756.19 892.61,749.49 893.72,744.29 894.83,740.65 895.94,738.65 897.04,738.31 898.15,739.63 899.26,742.61 900.37,747.18 901.47,753.28 902.58,760.81 903.69,769.65 904.8,779.67 905.9,790.71 907.01,802.59 908.12,815.14 909.23,828.14 910.33,841.4 911.44,854.7 912.55,867.85 913.66,880.63 914.76,892.84 915.87,904.3 916.98,914.81 918.08,924.22 919.19,932.38 920.3,939.16 921.41,944.46 922.51,948.18 923.62,950.28 924.73,950.72 925.84,949.48 926.94,946.61 928.05,942.12 929.16,936.11 930.27,928.65 931.37,919.88 932.48,909.92 933.59,898.94 934.7,887.1 935.8,874.59 936.91,861.61 938.02,848.36 939.13,835.05 940.23,821.89 941.34,809.08 942.45,796.83 943.56,785.33 944.66,774.76 945.77,765.28 946.88,757.04 947.99,750.18 949.09,744.8 950.2,740.98 951.31,738.79 952.42,738.26 953.52,739.4 954.63,742.19 955.74,746.58 956.85,752.51 957.95,759.88 959.06,768.59 960.17,778.48 961.28,789.41 962.38,801.21 963.49,813.68 964.6,826.64 965.7,839.88 966.81,853.19 967.92,866.37 969.03,879.2 970.13,891.49 971.24,903.04 972.35,913.67 973.46,922.83 974.56,930.67 975.67,937.08 976.78,941.98 977.89,945.31 978.99,947.02 980.1,947.1 981.21,945.58 982.32,942.49 983.42,937.9 984.53,931.89 985.64,924.57 986.75,916.07 987.85,906.54 988.96,896.14 990.07,885.03 991.18,873.41 992.28,861.46 993.39,849.37 994.5,837.34 995.61,825.54 996.71,814.18 997.82,803.41 998.93,793.4 1000.04,784.31 1001.14,776.26 1002.25,769.37 1003.36,763.74 1004.47,759.43 1005.57,756.51 1006.68,755 1007.79,754.91 1008.9,756.22 1010,758.91 1011.11,762.9 1012.22,768.13 1013.32,774.49 1014.43,781.87 1015.54,790.15 1016.65,799.18 1017.75,808.81 1018.86,818.88 1019.97,829.23 1021.08,839.69 1022.18,850.1 1023.29,860.29 1024.4,870.1 1025.51,879.39 1026.61,888.01 1027.72,895.84 1028.83,902.77 1029.94,908.69 1031.04,913.52 1032.15,917.21 1033.26,919.71 1034.37,921 1035.47,921.07 1036.58,919.94 1037.69,917.64 1038.8,914.23 1039.9,909.77 1041.01,904.34 1042.12,898.05 1043.23,891.02 1044.33,883.35 1045.44,875.18 1046.55,866.65 1047.66,857.89 1048.76,849.06 1049.87,840.28 1050.98,831.69 1052.09,823.44 1053.19,815.64 1054.3,808.41 1055.41,801.86 1056.52,796.08 1057.62,791.15 1058.73,787.13 1059.84,784.07 1060.95,782.02 1062.05,780.98 1063.16,780.95 1064.27,781.92 1065.37,783.86 1066.48,786.72 1067.59,790.43 1068.7,794.94 1069.8,800.15 1070.91,805.96 1072.02,812.28 1073.13,819 1074.23,826 1075.34,833.16 1076.45,840.38 1077.56,847.53 1078.66,854.5 1079.77,861.19 1080.88,867.49 1081.99,873.32 1083.09,878.58 1084.2,883.2 1085.31,887.13 1086.42,890.3 1087.52,892.7 1088.63,894.29 1089.74,895.06 1090.85,895.02 1091.95,894.19 1093.06,892.59 1094.17,890.27 1095.28,887.27 1096.38,883.67 1097.49,879.52 1098.6,874.91 1099.71,869.93 1100.81,864.65 1101.92,859.18 1103.03,853.59 1104.14,848 1105.24,842.47 1106.35,837.11 1107.46,832 1108.57,827.2 1109.67,822.8 1110.78,818.84 1111.89,815.39 1112.99,812.49 1114.1,810.17 1115.21,808.46 1116.32,807.36 1117.42,806.87 1118.53,807 1119.64,807.72 1120.75,809 1121.85,810.81 1122.96,813.11 1124.07,815.83 1125.18,818.93 1126.28,822.35 1127.39,826.01 1128.5,829.86 1129.61,833.82 1130.71,837.83 1131.82,841.81 1132.93,845.7 1134.04,849.45 1135.14,852.99 1136.25,856.27 1137.36,859.25 1138.47,861.88 1139.57,864.14 1140.68,866 1141.79,867.44 1142.9,868.46 1144,869.04 1145.11,869.21 1146.22,868.97 1147.33,868.35 1148.43,867.36 1149.54,866.04 1150.65,864.42 1151.76,862.56 1152.86,860.48 1153.97,858.24 1155.08,855.88 1156.19,853.45 1157.29,851 1158.4,848.57 1159.51,846.2 1160.61,843.93 1161.72,841.8 1162.83,839.85 1163.94,838.09 1165.04,836.55 1166.15,835.25 1167.26,834.2 1168.37,833.4 1169.47,832.85 1170.58,832.56 1171.69,832.5 1172.8,832.67 1173.9,833.05 1175.01,833.61 1176.12,834.32 1177.23,835.17 1178.33,836.13 1179.44,837.15 1180.55,838.22 1181.66,839.3 1182.76,840.37 1183.87,841.39 1184.98,842.35 1186.09,843.22 1187.19,843.98 1188.3,844.62 1189.41,845.12 1190.52,845.49 1191.62,845.72 1192.73,845.81 1193.84,845.76 1194.95,845.59 1196.05,844.5 1197.16,844.95"/>
</g>
</g>
<g clip-path="url(#c0)">
<g fill="none" stroke-linecap="butt" stroke-width="0.66">
<path d="M64.25,986.19l0,-283.37"/>
<path d="M64.25,986.19l4,0M64.25,972.02l4,0M64.25,957.85l4,0M64.25,943.68l4,0M64.25,929.51l4,0M64.25,915.34l4,0M64.25,901.17l4,0M64.25,887.01l4,0M64.25,872.84l4,0M64.25,858.67l4,0M64.25,844.5l4,0M64.25,830.33l4,0M64.25,816.16l4,0M64.25,801.99l4,0M64.25,787.82l4,0M64.25,773.65l4,0M64.25,759.49l4,0M64.25,745.32l4,0M64.25,731.15l4,0M64.25,716.98l4,0M64.25,702.81l4,0"/>
<path d="M64.25,986.19l8,0M64.25,915.34l8,0M64.25,844.5l8,0M64.25,773.65l8,0M64.25,702.81l8,0"/>
</g>
<g fill="none" stroke-width="0.1">
<path d="m34.26,986.68l11.7,0l0,1.47l-11.7,0l0,-1.47m16.34,6.6l0,-0.96l2.37,0l0,-11.34l-2.74,1.77l0,-1.19l3.32,-2.15l1.26,0l0,12.91l2.37,0l0,0.96l-6.58,0" fill="#000000" stroke="none" fill-opacity="1"/>
<path d="m16.42,915.84l11.7,0l0,1.47l-11.7,0l0,-1.47m19.62,5.96c0.93,0,1.62,-0.51,2.09,-1.53c0.46,-1.02,0.69,-2.56,0.69,-4.62c0,-2.06,-0.23,-3.61,-0.69,-4.63c-0.46,-1.02,-1.16,-1.53,-2.09,-1.53c-0.93,0,-1.62,0.51,-2.09,1.53c-0.46,1.02,-0.69,2.56,-0.69,4.63c0,2.06,0.23,3.6,0.69,4.62c0.46,1.02,1.15,1.53,2.09,1.53m0,0.9c-1.47,0,-2.63,-0.62,-3.46,-1.86c-0.83,-1.24,-1.24,-2.97,-1.24,-5.2c0,-2.23,0.41,-3.97,1.24,-5.21c0.83,-1.24,1.98,-1.86,3.46,-1.86c1.48,0,2.64,0.62,3.47,1.86c0.82,1.24,1.24,2.97,1.24,5.21c0,2.22,-0.41,3.96,-1.24,5.2c-0.82,1.24,-1.98,1.86,-3.47,1.86m6.62,1.55c0.57,-0.41,0.99,-0.91,1.26,-1.48c0.26,-0.56,0.4,-1.25,0.4,-2.06l0,-0.33l1.79,0c-0.04,1.04,-0.29,1.93,-0.73,2.68c-0.44,0.74,-1.1,1.39,-1.99,1.93l-0.73,-0.72m14.67,-15.45l0,1.49l-6.24,0l0,3.9c0.31,-0.21,0.68,-0.38,1.1,-0.49c0.42,-0.1,0.89,-0.16,1.42,-0.16c1.47,0,2.63,0.4,3.48,1.22c0.85,0.81,1.27,1.92,1.27,3.34c0,1.44,-0.43,2.56,-1.29,3.37c-0.86,0.8,-2.07,1.2,-3.62,1.2c-0.62,0,-1.26,-0.07,-1.92,-0.22c-0.65,-0.15,-1.32,-0.38,-2.01,-0.69l0,-2.64l1.03,0c0.05,0.86,0.33,1.52,0.82,1.98c0.49,0.45,1.19,0.68,2.08,0.68c0.96,0,1.7,-0.31,2.21,-0.95c0.51,-0.63,0.77,-1.54,0.77,-2.72c0,-1.18,-0.25,-2.08,-0.77,-2.71c-0.51,-0.62,-1.25,-0.94,-2.22,-0.94c-0.54,0,-1.03,0.09,-1.44,0.29c-0.41,0.19,-0.78,0.49,-1.1,0.9l-0.78,0l0,-6.84l7.21,0" fill="#000000" stroke="none" fill-opacity="1"/>
<path d="m53.89,850.96c0.93,0,1.62,-0.51,2.09,-1.53c0.46,-1.02,0.69,-2.56,0.69,-4.62c0,-2.06,-0.23,-3.61,-0.69,-4.63c-0.46,-1.02,-1.16,-1.53,-2.09,-1.53c-0.93,0,-1.62,0.51,-2.09,1.53c-0.46,1.02,-0.69,2.56,-0.69,4.63c0,2.06,0.23,3.6,0.69,4.62c0.46,1.02,1.15,1.53,2.09,1.53m0,0.9c-1.47,0,-2.63,-0.62,-3.46,-1.86c-0.83,-1.24,-1.24,-2.97,-1.24,-5.2c0,-2.23,0.41,-3.97,1.24,-5.21c0.83,-1.24,1.98,-1.86,3.46,-1.86c1.48,0,2.64,0.62,3.47,1.86c0.82,1.24,1.24,2.97,1.24,5.21c0,2.22,-0.41,3.96,-1.24,5.2c-0.82,1.24,-1.98,1.86,-3.47,1.86" fill="#000000" stroke="none" fill-opacity="1"/>
<path d="m36.05,780.12c0.93,0,1.62,-0.51,2.09,-1.53c0.46,-1.02,0.69,-2.56,0.69,-4.62c0,-2.06,-0.23,-3.61,-0.69,-4.63c-0.46,-1.02,-1.16,-1.53,-2.09,-1.53c-0.93,0,-1.62,0.51,-2.09,1.53c-0.46,1.02,-0.69,2.56,-0.69,4.63c0,2.06,0.23,3.6,0.69,4.62c0.46,1.02,1.15,1.53,2.09,1.53m0,0.9c-1.47,0,-2.63,-0.62,-3.46,-1.86c-0.83,-1.24,-1.24,-2.97,-1.24,-5.2c0,-2.23,0.41,-3.97,1.24,-5.21c0.83,-1.24,1.98,-1.86,3.46,-1.86c1.48,0,2.64,0.62,3.47,1.86c0.82,1.24,1.24,2.97,1.24,5.21c0,2.22,-0.41,3.96,-1.24,5.2c-0.82,1.24,-1.98,1.86,-3.47,1.86m6.62,1.55c0.57,-0.41,0.99,-0.91,1.26,-1.48c0.26,-0.56,0.4,-1.25,0.4,-2.06l0,-0.33l1.79,0c-0.04,1.04,-0.29,1.93,-0.73,2.68c-0.44,0.74,-1.1,1.39,-1.99,1.93l-0.73,-0.72m14.67,-15.45l0,1.49l-6.24,0l0,3.9c0.31,-0.21,0.68,-0.38,1.1,-0.49c0.42,-0.1,0.89,-0.16,1.42,-0.16c1.47,0,2.63,0.4,3.48,1.22c0.85,0.81,1.27,1.92,1.27,3.34c0,1.44,-0.43,2.56,-1.29,3.37c-0.86,0.8,-2.07,1.2,-3.62,1.2c-0.62,0,-1.26,-0.07,-1.92,-0.22c-0.65,-0.15,-1.32,-0.38,-2.01,-0.69l0,-2.64l1.03,0c0.05,0.86,0.33,1.52,0.82,1.98c0.49,0.45,1.19,0.68,2.08,0.68c0.96,0,1.7,-0.31,2.21,-0.95c0.51,-0.63,0.77,-1.54,0.77,-2.72c0,-1.18,-0.25,-2.08,-0.77,-2.71c-0.51,-0.62,-1.25,-0.94,-2.22,-0.94c-0.54,0,-1.03,0.09,-1.44,0.29c-0.41,0.19,-0.78,0.49,-1.1,0.9l-0.78,0l0,-6.84l7.21,0" fill="#000000" stroke="none" fill-opacity="1"/>
<path d="m50.61,721.39l0,-0.96l2.37,0l0,-11.34l-2.74,1.77l0,-1.19l3.32,-2.15l1.26,0l0,12.91l2.37,0l0,0.96l-6.58,0" fill="#000000" stroke="none" fill-opacity="1"/>
</g>
<g fill="none" stroke-linecap="butt" stroke-width="0.66">
<path d="M64.25,986.19l1132.91,0"/>
<path d="M64.25,986.19l0,-4M119.62,986.19l0,-4M174.99,986.19l0,-4M230.36,986.19l0,-4M285.74,986.19l0,-4M341.11,986.19l0,-4M396.48,986.19l0,-4M451.85,986.19l0,-4M507.22,986.19l0,-4M562.6,986.19l0,-4M617.97,986.19l0,-4M673.34,986.19l0,-4M728.71,986.19l0,-4M784.08,986.19l0,-4M839.46,986.19l0,-4M894.83,986.19l0,-4M950.2,986.19l0,-4M1005.57,986.19l0,-4M1060.95,986.19l0,-4M1116.32,986.19l0,-4M1171.69,986.19l0,-4"/>
<path d="M64.25,986.19l0,-8M285.74,986.19l0,-8M507.22,986.19l0,-8M728.71,986.19l0,-8M950.2,986.19l0,-8M1171.69,986.19l0,-8"/>
<path d="M1197.16,986.19l0,-283.37"/>
<path d="M1197.16,986.19l-4,0M1197.16,972.02l-4,0M1197.16,957.85l-4,0M1197.16,943.68l-4,0M1197.16,929.51l-4,0M1197.16,915.34l-4,0M1197.16,901.17l-4,0M1197.16,887.01l-4,0M1197.16,872.84l-4,0M1197.16,858.67l-4,0M1197.16,844.5l-4,0M1197.16,830.33l-4,0M1197.16,816.16l-4,0M1197.16,801.99l-4,0M1197.16,787.82l-4,0M1197.16,773.65l-4,0M1197.16,759.49l-4,0M1197.16,745.32l-4,0M1197.16,731.15l-4,0M1197.16,716.98l-4,0M1197.16,702.81l-4,0"/>
<path d="M1197.16,986.19l-8,0M1197.16,915.34l-8,0M1197.16,844.5l-8,0M1197.16,773.65l-8,0M1197.16,702.81l-8,0"/>
<path d="M64.25,702.81l1132.91,0"/>
<path d="M64.25,702.81l0,4M119.62,702.81l0,4M174.99,702.81l0,4M230.36,702.81l0,4M285.74,702.81l0,4M341.11,702.81l0,4M396.48,702.81l0,4M451.85,702.81l0,4M507.22,702.81l0,4M562.6,702.81l0,4M617.97,702.81l0,4M673.34,702.81l0,4M728.71,702.81l0,4M784.08,702.81l0,4M839.46,702.81l0,4M894.83,702.81l0,4M950.2,702.81l0,4M1005.57,702.81l0,4M1060.95,702.81l0,4M1116.32,702.81l0,4M1171.69,702.81l0,4"/>
<path d="M64.25,702.81l0,8M285.74,702.81l0,8M507.22,702.81l0,8M728.71,702.81l0,8M950.2,702.81l0,8M1171.69,702.81l0,8"/>
</g>
</g>
</g>
</svg>
