<?xml version="1.0" standalone="no"?>
<!DOCTYPE svg PUBLIC "-//W3C//DTD SVG 1.1//EN"
  "http://www.w3.org/Graphics/SVG/1.1/DTD/svg11.dtd">
<svg width="1209.44px" height="1209.44px" version="1.1"
    xmlns="http://www.w3.org/2000/svg"
    xmlns:xlink="http://www.w3.org/1999/xlink">
<desc>Veusz output document</desc>
<defs>
<clipPath id="c0">
<path d="m0,0l1209.44,0l0,1209.44l-1209.44,0l0,-1209.44"/>
</clipPath>
<clipPath id="c1">
<path d="m64.25,7.55l1130.07,0l0,314.96l-1130.07,0l0,-314.96"/>
</clipPath>
<clipPath id="c2">
<path d="m64.25,386.77l1130.07,0l0,314.96l-1130.07,0l0,-314.96"/>
</clipPath>
<clipPath id="c3">
<path d="m64.25,765.98l1130.07,0l0,314.96l-1130.07,0l0,-314.96"/>
</clipPath>
</defs>
<g stroke-linejoin="bevel" stroke-linecap="square" stroke="#000000" fill-rule="evenodd">
<g clip-path="url(#c0)">
<g fill="#ffffff" stroke-width="0.66">
<path d="m64.25,7.55l1130.07,0l0,314.96l-1130.07,0l0,-314.96"/>
</g>
</g>
<g clip-path="url(#c1)">
<g fill="none" stroke="#e41a1c" stroke-width="0.66">
<polyline fill="none" points="64.25,165.03 65.38,161.88 66.51,158.74 67.64,155.6 68.77,152.48 69.9,149.38 71.03,146.3 72.17,143.25 73.3,140.24 74.43,137.27 75.56,134.34 76.69,131.46 77.82,128.64 78.95,125.87 80.08,123.17 81.22,120.54 82.35,117.97 83.48,115.48 84.61,113.07 85.74,110.75 86.87,108.51 88,106.36 89.13,104.3 90.26,102.34 91.4,100.49 92.53,98.73 93.66,97.09 94.79,95.55 95.92,94.12 97.05,92.81 98.18,91.61 99.31,90.53 100.45,89.57 101.58,88.73 102.71,88.01 103.84,87.42 104.97,86.95 106.1,86.61 107.23,86.39 108.36,86.3 109.5,86.33 110.63,86.49 111.76,86.78 112.89,87.19 114.02,87.73 115.15,88.39 116.28,89.17 117.41,90.07 118.55,91.1 119.68,92.24 120.81,93.5 121.94,94.88 123.07,96.36 124.2,97.96 125.33,99.67 126.46,101.48 127.59,103.39 128.73,105.4 129.86,107.5 130.99,109.7 132.12,111.99 133.25,114.36 134.38,116.81 135.51,119.34 136.64,121.95 137.78,124.62 138.91,127.36 140.04,130.15 141.17,133.01 142.3,135.91 143.43,138.87 144.56,141.86 145.69,144.89 146.83,147.95 147.96,151.04 149.09,154.16 150.22,157.29 151.35,160.43 152.48,163.58 153.61,166.73 154.74,169.88 155.88,173.02 157.01,176.15 158.14,179.27 159.27,182.35 160.4,185.41 161.53,188.44 162.66,191.43 163.79,194.38 164.92,197.28 166.06,200.13 167.19,202.93 168.32,205.66 169.45,208.33 170.58,210.92 171.71,213.45 172.84,215.9 173.97,218.26 175.11,220.54 176.24,222.73 177.37,224.83 178.5,226.83 179.63,228.74 180.76,230.54 181.89,232.24 183.02,233.82 184.16,235.3 185.29,236.67 186.42,237.92 187.55,239.05 188.68,240.07 189.81,240.96 190.94,241.74 192.07,242.39 193.2,242.92 194.34,243.32 195.47,243.59 196.6,243.74 197.73,243.77 198.86,243.67 199.99,243.44 201.12,243.08 202.25,242.61 203.39,242 204.52,241.28 205.65,240.43 206.78,239.46 207.91,238.37 209.04,237.16 210.17,235.84 211.3,234.4 212.44,232.86 213.57,231.2 214.7,229.44 215.83,227.58 216.96,225.61 218.09,223.55 219.22,221.39 220.35,219.15 221.49,216.81 222.62,214.4 223.75,211.9 224.88,209.33 226.01,206.69 227.14,203.98 228.27,201.21 229.4,198.38 230.53,195.5 231.67,192.57 232.8,189.6 233.93,186.58 235.06,183.53 236.19,180.45 237.32,177.35 238.45,174.23 239.58,171.09 240.72,167.94 241.85,164.79 242.98,161.64 244.11,158.49 245.24,155.36 246.37,152.24 247.5,149.14 248.63,146.06 249.77,143.02 250.9,140.01 252.03,137.04 253.16,134.12 254.29,131.24 255.42,128.42 256.55,125.66 257.68,122.96 258.82,120.33 259.95,117.78 261.08,115.29 262.21,112.89 263.34,110.57 264.47,108.34 265.6,106.19 266.73,104.15 267.86,102.2 269,100.35 270.13,98.6 271.26,96.96 272.39,95.43 273.52,94.02 274.65,92.71 275.78,91.52 276.91,90.45 278.05,89.5 279.18,88.67 280.31,87.96 281.44,87.38 282.57,86.92 283.7,86.59 284.83,86.38 285.96,86.3 287.1,86.34 288.23,86.51 289.36,86.81 290.49,87.23 291.62,87.77 292.75,88.44 293.88,89.23 295.01,90.15 296.15,91.18 297.28,92.34 298.41,93.6 299.54,94.99 300.67,96.48 301.8,98.09 302.93,99.8 304.06,101.62 305.19,103.54 306.33,105.56 307.46,107.67 308.59,109.88 309.72,112.17 310.85,114.55 311.98,117.01 313.11,119.54 314.24,122.15 315.38,124.83 316.51,127.57 317.64,130.37 318.77,133.23 319.9,136.14 321.03,139.1 322.16,142.09 323.29,145.13 324.43,148.19 325.56,151.28 326.69,154.4 327.82,157.53 328.95,160.67 330.08,163.82 331.21,166.98 332.34,170.13 333.47,173.27 334.61,176.4 335.74,179.51 336.87,182.59 338,185.65 339.13,188.68 340.26,191.66 341.39,194.61 342.52,197.51 343.66,200.35 344.79,203.14 345.92,205.87 347.05,208.53 348.18,211.12 349.31,213.64 350.44,216.08 351.57,218.44 352.71,220.71 353.84,222.9 354.97,224.99 356.1,226.98 357.23,228.88 358.36,230.67 359.49,232.36 360.62,233.94 361.76,235.41 362.89,236.77 364.02,238.01 365.15,239.14 366.28,240.14 367.41,241.03 368.54,241.79 369.67,242.43 370.8,242.95 371.94,243.34 373.07,243.61 374.2,243.75 375.33,243.77 376.46,243.65 377.59,243.42 378.72,243.05 379.85,242.56 380.99,241.95 382.12,241.21 383.25,240.36 384.38,239.38 385.51,238.28 386.64,237.06 387.77,235.73 388.9,234.29 390.04,232.73 391.17,231.07 392.3,229.3 393.43,227.43 394.56,225.45 395.69,223.39 396.82,221.22 397.95,218.97 399.09,216.63 400.22,214.21 401.35,211.71 402.48,209.13 403.61,206.48 404.74,203.77 405.87,200.99 407,198.16 408.13,195.28 409.27,192.34 410.4,189.36 411.53,186.35 412.66,183.29 413.79,180.21 414.92,177.11 416.05,173.98 417.18,170.85 418.32,167.7 419.45,164.55 420.58,161.39 421.71,158.25 422.84,155.11 423.97,152 425.1,148.9 426.23,145.83 427.37,142.78 428.5,139.78 429.63,136.81 430.76,133.89 431.89,131.02 433.02,128.21 434.15,125.45 435.28,122.76 436.42,120.13 437.55,117.58 438.68,115.1 439.81,112.71 440.94,110.39 442.07,108.17 443.2,106.03 444.33,103.99 445.46,102.05 446.6,100.21 447.73,98.47 448.86,96.84 449.99,95.32 451.12,93.91 452.25,92.62 453.38,91.44 454.51,90.37 455.65,89.43 456.78,88.61 457.91,87.91 459.04,87.34 460.17,86.89 461.3,86.57 462.43,86.37 463.56,86.29 464.7,86.35 465.83,86.53 466.96,86.83 468.09,87.26 469.22,87.82 470.35,88.5 471.48,89.3 472.61,90.22 473.75,91.27 474.88,92.43 476.01,93.71 477.14,95.1 478.27,96.6 479.4,98.22 480.53,99.94 481.66,101.76 482.79,103.69 483.93,105.72 485.06,107.84 486.19,110.05 487.32,112.35 488.45,114.73 489.58,117.2 490.71,119.74 491.84,122.36 492.98,125.04 494.11,127.79 495.24,130.59 496.37,133.46 497.5,136.37 498.63,139.33 499.76,142.33 500.89,145.36 502.03,148.43 503.16,151.52 504.29,154.64 505.42,157.77 506.55,160.92 507.68,164.07 508.81,167.22 509.94,170.37 511.07,173.51 512.21,176.64 513.34,179.75 514.47,182.83 515.6,185.89 516.73,188.91 517.86,191.89 518.99,194.83 520.12,197.73 521.26,200.57 522.39,203.35 523.52,206.08 524.65,208.73 525.78,211.32 526.91,213.83 528.04,216.27 529.17,218.62 530.31,220.89 531.44,223.06 532.57,225.15 533.7,227.13 534.83,229.02 535.96,230.81 537.09,232.49 538.22,234.06 539.36,235.52 540.49,236.87 541.62,238.1 542.75,239.22 543.88,240.22 545.01,241.09 546.14,241.85 547.27,242.48 548.4,242.99 549.54,243.37 550.67,243.63 551.8,243.76 552.93,243.76 554.06,243.64 555.19,243.39 556.32,243.02 557.45,242.52 558.59,241.9 559.72,241.15 560.85,240.29 561.98,239.3 563.11,238.19 564.24,236.97 565.37,235.63 566.5,234.17 567.64,232.61 568.77,230.94 569.9,229.16 571.03,227.28 572.16,225.3 573.29,223.22 574.42,221.05 575.55,218.79 576.69,216.44 577.82,214.02 578.95,211.51 580.08,208.93 581.21,206.28 582.34,203.56 583.47,200.78 584.6,197.94 585.73,195.05 586.87,192.11 588,189.13 589.13,186.11 590.26,183.06 591.39,179.97 592.52,176.87 593.65,173.74 594.78,170.6 595.92,167.45 597.05,164.3 598.18,161.15 599.31,158.01 600.44,154.87 601.57,151.75 602.7,148.66 603.83,145.59 604.97,142.55 606.1,139.55 607.23,136.59 608.36,133.67 609.49,130.8 610.62,127.99 611.75,125.24 612.88,122.55 614.02,119.93 615.15,117.39 616.28,114.91 617.41,112.52 618.54,110.22 619.67,108 620.8,105.87 621.93,103.84 623.06,101.9 624.2,100.07 625.33,98.34 626.46,96.72 627.59,95.21 628.72,93.81 629.85,92.52 630.98,91.35 632.11,90.3 633.25,89.37 634.38,88.55 635.51,87.87 636.64,87.3 637.77,86.86 638.9,86.55 640.03,86.36 641.16,86.29 642.3,86.36 643.43,86.55 644.56,86.86 645.69,87.3 646.82,87.87 647.95,88.56 649.08,89.37 650.21,90.3 651.34,91.35 652.48,92.52 653.61,93.81 654.74,95.21 655.87,96.73 657,98.35 658.13,100.08 659.26,101.91 660.39,103.85 661.53,105.88 662.66,108.01 663.79,110.22 664.92,112.53 666.05,114.92 667.18,117.39 668.31,119.94 669.44,122.56 670.58,125.25 671.71,128 672.84,130.81 673.97,133.68 675.1,136.6 676.23,139.56 677.36,142.56 678.49,145.6 679.63,148.67 680.76,151.77 681.89,154.88 683.02,158.02 684.15,161.16 685.28,164.31 686.41,167.47 687.54,170.61 688.67,173.75 689.81,176.88 690.94,179.99 692.07,183.07 693.2,186.12 694.33,189.14 695.46,192.12 696.59,195.06 697.72,197.95 698.86,200.79 699.99,203.57 701.12,206.28 702.25,208.94 703.38,211.52 704.51,214.02 705.64,216.45 706.77,218.8 707.91,221.06 709.04,223.23 710.17,225.3 711.3,227.28 712.43,229.16 713.56,230.94 714.69,232.61 715.82,234.18 716.96,235.63 718.09,236.97 719.22,238.19 720.35,239.3 721.48,240.29 722.61,241.16 723.74,241.9 724.87,242.52 726,243.02 727.14,243.39 728.27,243.64 729.4,243.76 730.53,243.76 731.66,243.62 732.79,243.37 733.92,242.98 735.05,242.48 736.19,241.85 737.32,241.09 738.45,240.21 739.58,239.22 740.71,238.1 741.84,236.87 742.97,235.52 744.1,234.06 745.24,232.48 746.37,230.8 747.5,229.02 748.63,227.13 749.76,225.14 750.89,223.06 752.02,220.88 753.15,218.61 754.29,216.26 755.42,213.82 756.55,211.31 757.68,208.72 758.81,206.07 759.94,203.34 761.07,200.56 762.2,197.72 763.33,194.82 764.47,191.88 765.6,188.9 766.73,185.88 767.86,182.82 768.99,179.73 770.12,176.63 771.25,173.5 772.38,170.36 773.52,167.21 774.65,164.06 775.78,160.91 776.91,157.76 778.04,154.63 779.17,151.51 780.3,148.42 781.43,145.35 782.57,142.32 783.7,139.32 784.83,136.36 785.96,133.45 787.09,130.58 788.22,127.78 789.35,125.03 790.48,122.35 791.62,119.73 792.75,117.19 793.88,114.73 795.01,112.34 796.14,110.04 797.27,107.83 798.4,105.71 799.53,103.69 800.66,101.76 801.8,99.93 802.93,98.21 804.06,96.6 805.19,95.09 806.32,93.7 807.45,92.43 808.58,91.26 809.71,90.22 810.85,89.3 811.98,88.5 813.11,87.82 814.24,87.26 815.37,86.83 816.5,86.53 817.63,86.35 818.76,86.29 819.9,86.37 821.03,86.57 822.16,86.89 823.29,87.34 824.42,87.92 825.55,88.62 826.68,89.44 827.81,90.38 828.94,91.44 830.08,92.62 831.21,93.92 832.34,95.33 833.47,96.85 834.6,98.48 835.73,100.22 836.86,102.06 837.99,104 839.13,106.04 840.26,108.17 841.39,110.4 842.52,112.71 843.65,115.11 844.78,117.59 845.91,120.14 847.04,122.77 848.18,125.46 849.31,128.22 850.44,131.03 851.57,133.9 852.7,136.82 853.83,139.79 854.96,142.79 856.09,145.84 857.23,148.91 858.36,152.01 859.49,155.12 860.62,158.26 861.75,161.41 862.88,164.56 864.01,167.71 865.14,170.86 866.27,174 867.41,177.12 868.54,180.22 869.67,183.31 870.8,186.36 871.93,189.37 873.06,192.35 874.19,195.29 875.32,198.17 876.46,201 877.59,203.78 878.72,206.49 879.85,209.14 880.98,211.71 882.11,214.22 883.24,216.64 884.37,218.98 885.51,221.23 886.64,223.39 887.77,225.46 888.9,227.43 890.03,229.31 891.16,231.08 892.29,232.74 893.42,234.29 894.56,235.74 895.69,237.07 896.82,238.28 897.95,239.38 899.08,240.36 900.21,241.22 901.34,241.95 902.47,242.57 903.6,243.05 904.74,243.42 905.87,243.65 907,243.77 908.13,243.75 909.26,243.61 910.39,243.34 911.52,242.95 912.65,242.43 913.79,241.79 914.92,241.03 916.05,240.14 917.18,239.13 918.31,238.01 919.44,236.77 920.57,235.41 921.7,233.94 922.84,232.36 923.97,230.67 925.1,228.87 926.23,226.98 927.36,224.98 928.49,222.89 929.62,220.71 930.75,218.43 931.89,216.07 933.02,213.63 934.15,211.11 935.28,208.52 936.41,205.86 937.54,203.13 938.67,200.34 939.8,197.5 940.93,194.6 942.07,191.65 943.2,188.67 944.33,185.64 945.46,182.58 946.59,179.49 947.72,176.38 948.85,173.26 949.98,170.12 951.12,166.97 952.25,163.81 953.38,160.66 954.51,157.52 955.64,154.39 956.77,151.27 957.9,148.18 959.03,145.12 960.17,142.08 961.3,139.09 962.43,136.13 963.56,133.22 964.69,130.36 965.82,127.56 966.95,124.82 968.08,122.14 969.21,119.53 970.35,117 971.48,114.54 972.61,112.16 973.74,109.87 974.87,107.66 976,105.55 977.13,103.53 978.26,101.61 979.4,99.8 980.53,98.08 981.66,96.48 982.79,94.98 983.92,93.6 985.05,92.33 986.18,91.18 987.31,90.15 988.45,89.23 989.58,88.44 990.71,87.77 991.84,87.22 992.97,86.8 994.1,86.51 995.23,86.34 996.36,86.3 997.5,86.38 998.63,86.59 999.76,86.92 1000.89,87.38 1002.02,87.97 1003.15,88.67 1004.28,89.5 1005.41,90.46 1006.54,91.53 1007.68,92.72 1008.81,94.02 1009.94,95.44 1011.07,96.97 1012.2,98.61 1013.33,100.35 1014.46,102.2 1015.59,104.15 1016.73,106.2 1017.86,108.34 1018.99,110.58 1020.12,112.9 1021.25,115.3 1022.38,117.78 1023.51,120.34 1024.64,122.97 1025.78,125.67 1026.91,128.43 1028.04,131.25 1029.17,134.13 1030.3,137.05 1031.43,140.02 1032.56,143.03 1033.69,146.07 1034.83,149.15 1035.96,152.25 1037.09,155.37 1038.22,158.5 1039.35,161.65 1040.48,164.8 1041.61,167.95 1042.74,171.1 1043.87,174.24 1045.01,177.36 1046.14,180.46 1047.27,183.54 1048.4,186.59 1049.53,189.61 1050.66,192.58 1051.79,195.51 1052.92,198.39 1054.06,201.22 1055.19,203.99 1056.32,206.7 1057.45,209.34 1058.58,211.91 1059.71,214.41 1060.84,216.82 1061.97,219.15 1063.11,221.4 1064.24,223.56 1065.37,225.62 1066.5,227.58 1067.63,229.45 1068.76,231.21 1069.89,232.86 1071.02,234.41 1072.16,235.85 1073.29,237.17 1074.42,238.37 1075.55,239.46 1076.68,240.43 1077.81,241.28 1078.94,242.01 1080.07,242.61 1081.2,243.09 1082.34,243.44 1083.47,243.67 1084.6,243.77 1085.73,243.74 1086.86,243.59 1087.99,243.32 1089.12,242.91 1090.25,242.39 1091.39,241.74 1092.52,240.96 1093.65,240.07 1094.78,239.05 1095.91,237.92 1097.04,236.66 1098.17,235.3 1099.3,233.82 1100.44,232.23 1101.57,230.53 1102.7,228.73 1103.83,226.83 1104.96,224.82 1106.09,222.72 1107.22,220.53 1108.35,218.25 1109.49,215.89 1110.62,213.44 1111.75,210.92 1112.88,208.32 1114.01,205.65 1115.14,202.92 1116.27,200.12 1117.4,197.27 1118.53,194.37 1119.67,191.42 1120.8,188.43 1121.93,185.4 1123.06,182.34 1124.19,179.25 1125.32,176.14 1126.45,173.01 1127.58,169.87 1128.72,166.72 1129.85,163.57 1130.98,160.42 1132.11,157.28 1133.24,154.15 1134.37,151.03 1135.5,147.94 1136.63,144.88 1137.77,141.85 1138.9,138.86 1140.03,135.9 1141.16,133 1142.29,130.15 1143.42,127.35 1144.55,124.61 1145.68,121.94 1146.81,119.33 1147.95,116.8 1149.08,114.35 1150.21,111.98 1151.34,109.69 1152.47,107.5 1153.6,105.39 1154.73,103.38 1155.86,101.47 1157,99.66 1158.13,97.96 1159.26,96.36 1160.39,94.87 1161.52,93.5 1162.65,92.24 1163.78,91.09 1164.91,90.07 1166.05,89.17 1167.18,88.38 1168.31,87.72 1169.44,87.19 1170.57,86.78 1171.7,86.49 1172.83,86.33 1173.96,86.3 1175.1,86.39 1176.23,86.61 1177.36,86.95 1178.49,87.42 1179.62,88.02 1180.75,88.73 1181.88,89.57 1183.01,90.54 1184.14,91.62 1185.28,92.81 1186.41,94.13 1187.54,95.55 1188.67,97.09 1189.8,98.74 1190.93,100.49 1192.06,102.35 1193.19,104.31 1194.33,106.36"/>
</g>
</g>
<g clip-path="url(#c0)">
<g fill="none" stroke-linecap="butt" stroke-width="0.66">
<path d="M64.25,322.51l0,-314.96"/>
<path d="M64.25,322.51l4,0M64.25,306.77l4,0M64.25,291.02l4,0M64.25,275.27l4,0M64.25,259.52l4,0M64.25,243.77l4,0M64.25,228.03l4,0M64.25,212.28l4,0M64.25,196.53l4,0M64.25,180.78l4,0M64.25,165.03l4,0M64.25,149.29l4,0M64.25,133.54l4,0M64.25,117.79l4,0M64.25,102.04l4,0M64.25,86.29l4,0M64.25,70.55l4,0M64.25,54.8l4,0M64.25,39.05l4,0M64.25,23.3l4,0M64.25,7.55l4,0"/>
<path d="M64.25,322.51l8,0M64.25,243.77l8,0M64.25,165.03l8,0M64.25,86.29l8,0M64.25,7.55l8,0"/>
</g>
<g fill="none" stroke-width="0.1">
<path d="m34.26,323.01l11.7,0l0,1.47l-11.7,0l0,-1.47m16.07,-3.77l-1.02,0l0,-2.42c0.65,-0.34,1.3,-0.61,1.96,-0.79c0.66,-0.18,1.3,-0.27,1.94,-0.27c1.41,0,2.53,0.34,3.35,1.03c0.82,0.68,1.23,1.62,1.23,2.8c0,1.33,-0.93,2.92,-2.79,4.78c-0.14,0.13,-0.25,0.24,-0.32,0.32l-3.44,3.44l5.68,0l0,-1.68l1.06,0l0,3.17l-8.79,0l0,-0.99l4.13,-4.12c0.91,-0.91,1.56,-1.75,1.95,-2.51c0.38,-0.76,0.58,-1.56,0.58,-2.4c0,-0.91,-0.23,-1.63,-0.71,-2.15c-0.47,-0.51,-1.13,-0.77,-1.97,-0.77c-0.86,0,-1.54,0.21,-2.01,0.64c-0.47,0.43,-0.75,1.08,-0.84,1.94" fill="#000000" stroke="none" fill-opacity="1"/>
<path d="m34.26,244.27l11.7,0l0,1.47l-11.7,0l0,-1.47m16.34,6.6l0,-0.96l2.37,0l0,-11.34l-2.74,1.77l0,-1.19l3.32,-2.15l1.26,0l0,12.91l2.37,0l0,0.96l-6.58,0" fill="#000000" stroke="none" fill-opacity="1"/>
<path d="m53.89,171.5c0.93,0,1.62,-0.51,2.09,-1.53c0.46,-1.02,0.69,-2.56,0.69,-4.62c0,-2.06,-0.23,-3.61,-0.69,-4.63c-0.46,-1.02,-1.16,-1.53,-2.09,-1.53c-0.93,0,-1.62,0.51,-2.09,1.53c-0.46,1.02,-0.69,2.56,-0.69,4.63c0,2.06,0.23,3.6,0.69,4.62c0.46,1.02,1.15,1.53,2.09,1.53m0,0.9c-1.47,0,-2.63,-0.62,-3.46,-1.86c-0.83,-1.24,-1.24,-2.97,-1.24,-5.2c0,-2.23,0.41,-3.97,1.24,-5.21c0.83,-1.24,1.98,-1.86,3.46,-1.86c1.48,0,2.64,0.62,3.47,1.86c0.82,1.24,1.24,2.97,1.24,5.21c0,2.22,-0.41,3.96,-1.24,5.2c-0.82,1.24,-1.98,1.86,-3.47,1.86" fill="#000000" stroke="none" fill-opacity="1"/>
<path d="m50.61,93.39l0,-0.96l2.37,0l0,-11.34l-2.74,1.77l0,-1.19l3.32,-2.15l1.26,0l0,12.91l2.37,0l0,0.96l-6.58,0" fill="#000000" stroke="none" fill-opacity="1"/>
<path d="m50.34,8.19l-1.02,0l0,-2.42c0.65,-0.34,1.3,-0.61,1.96,-0.79c0.66,-0.18,1.3,-0.27,1.94,-0.27c1.41,0,2.53,0.34,3.35,1.03c0.82,0.68,1.23,1.62,1.23,2.8c0,1.33,-0.93,2.92,-2.79,4.78c-0.14,0.13,-0.25,0.24,-0.32,0.32l-3.44,3.44l5.68,0l0,-1.68l1.06,0l0,3.17l-8.79,0l0,-0.99l4.13,-4.12c0.91,-0.91,1.56,-1.75,1.95,-2.51c0.38,-0.76,0.58,-1.56,0.58,-2.4c0,-0.91,-0.23,-1.63,-0.71,-2.15c-0.47,-0.51,-1.13,-0.77,-1.97,-0.77c-0.86,0,-1.54,0.21,-2.01,0.64c-0.47,0.43,-0.75,1.08,-0.84,1.94" fill="#000000" stroke="none" fill-opacity="1"/>
</g>
<g fill="none" stroke-linecap="butt" stroke-width="0.66">
<path d="M64.25,322.51l1130.07,0"/>
<path d="M64.25,322.51l0,-4M120.75,322.51l0,-4M177.25,322.51l0,-4M233.76,322.51l0,-4M290.26,322.51l0,-4M346.77,322.51l0,-4M403.27,322.51l0,-4M459.77,322.51l0,-4M516.28,322.51l0,-4M572.78,322.51l0,-4M629.29,322.51l0,-4M685.79,322.51l0,-4M742.29,322.51l0,-4M798.8,322.51l0,-4M855.3,322.51l0,-4M911.81,322.51l0,-4M968.31,322.51l0,-4M1024.81,322.51l0,-4M1081.32,322.51l0,-4M1137.82,322.51l0,-4M1194.33,322.51l0,-4"/>
<path d="M64.25,322.51l0,-8M290.26,322.51l0,-8M516.28,322.51l0,-8M742.29,322.51l0,-8M968.31,322.51l0,-8M1194.33,322.51l0,-8"/>
</g>
<g fill="none" stroke-width="0.1">
<path d="m64.24,343.67c0.93,0,1.62,-0.51,2.09,-1.53c0.46,-1.02,0.69,-2.56,0.69,-4.62c0,-2.06,-0.23,-3.61,-0.69,-4.63c-0.46,-1.02,-1.16,-1.53,-2.09,-1.53c-0.93,0,-1.62,0.51,-2.09,1.53c-0.46,1.02,-0.69,2.56,-0.69,4.63c0,2.06,0.23,3.6,0.69,4.62c0.46,1.02,1.15,1.53,2.09,1.53m0,0.9c-1.47,0,-2.63,-0.62,-3.46,-1.86c-0.83,-1.24,-1.24,-2.97,-1.24,-5.2c0,-2.23,0.41,-3.97,1.24,-5.21c0.83,-1.24,1.98,-1.86,3.46,-1.86c1.48,0,2.64,0.62,3.47,1.86c0.82,1.24,1.24,2.97,1.24,5.21c0,2.22,-0.41,3.96,-1.24,5.2c-0.82,1.24,-1.98,1.86,-3.47,1.86" fill="#000000" stroke="none" fill-opacity="1"/>
<path d="m281.34,343.67c0.93,0,1.62,-0.51,2.09,-1.53c0.46,-1.02,0.69,-2.56,0.69,-4.62c0,-2.06,-0.23,-3.61,-0.69,-4.63c-0.46,-1.02,-1.16,-1.53,-2.09,-1.53c-0.93,0,-1.62,0.51,-2.09,1.53c-0.46,1.02,-0.69,2.56,-0.69,4.63c0,2.06,0.23,3.6,0.69,4.62c0.46,1.02,1.15,1.53,2.09,1.53m0,0.9c-1.47,0,-2.63,-0.62,-3.46,-1.86c-0.83,-1.24,-1.24,-2.97,-1.24,-5.2c0,-2.23,0.41,-3.97,1.24,-5.21c0.83,-1.24,1.98,-1.86,3.46,-1.86c1.48,0,2.64,0.62,3.47,1.86c0.82,1.24,1.24,2.97,1.24,5.21c0,2.22,-0.41,3.96,-1.24,5.2c-0.82,1.24,-1.98,1.86,-3.47,1.86m6.62,1.55c0.57,-0.41,0.99,-0.91,1.26,-1.48c0.26,-0.56,0.4,-1.25,0.4,-2.06l0,-0.33l1.79,0c-0.04,1.04,-0.29,1.93,-0.73,2.68c-0.44,0.74,-1.1,1.39,-1.99,1.93l-0.73,-0.72m7.66,-12.19l-1.02,0l0,-2.42c0.65,-0.34,1.3,-0.61,1.96,-0.79c0.66,-0.18,1.3,-0.27,1.94,-0.27c1.41,0,2.53,0.34,3.35,1.03c0.82,0.68,1.23,1.62,1.23,2.8c0,1.33,-0.93,2.92,-2.79,4.78c-0.14,0.13,-0.25,0.24,-0.32,0.32l-3.44,3.44l5.68,0l0,-1.68l1.06,0l0,3.17l-8.79,0l0,-0.99l4.13,-4.12c0.91,-0.91,1.56,-1.75,1.95,-2.51c0.38,-0.76,0.58,-1.56,0.58,-2.4c0,-0.91,-0.23,-1.63,-0.71,-2.15c-0.47,-0.51,-1.13,-0.77,-1.97,-0.77c-0.86,0,-1.54,0.21,-2.01,0.64c-0.47,0.43,-0.75,1.08,-0.84,1.94" fill="#000000" stroke="none" fill-opacity="1"/>
<path d="m507.35,343.67c0.93,0,1.62,-0.51,2.09,-1.53c0.46,-1.02,0.69,-2.56,0.69,-4.62c0,-2.06,-0.23,-3.61,-0.69,-4.63c-0.46,-1.02,-1.16,-1.53,-2.09,-1.53c-0.93,0,-1.62,0.51,-2.09,1.53c-0.46,1.02,-0.69,2.56,-0.69,4.63c0,2.06,0.23,3.6,0.69,4.62c0.46,1.02,1.15,1.53,2.09,1.53m0,0.9c-1.47,0,-2.63,-0.62,-3.46,-1.86c-0.83,-1.24,-1.24,-2.97,-1.24,-5.2c0,-2.23,0.41,-3.97,1.24,-5.21c0.83,-1.24,1.98,-1.86,3.46,-1.86c1.48,0,2.64,0.62,3.47,1.86c0.82,1.24,1.24,2.97,1.24,5.21c0,2.22,-0.41,3.96,-1.24,5.2c-0.82,1.24,-1.98,1.86,-3.47,1.86m6.62,1.55c0.57,-0.41,0.99,-0.91,1.26,-1.48c0.26,-0.56,0.4,-1.25,0.4,-2.06l0,-0.33l1.79,0c-0.04,1.04,-0.29,1.93,-0.73,2.68c-0.44,0.74,-1.1,1.39,-1.99,1.93l-0.73,-0.72m11.79,-6.43l0,-7.25l-4.65,7.25l4.65,0m4.01,4.62l-6.2,0l0,-0.96l2.19,0l0,-2.67l-5.95,0l0,-0.99l5.97,-9.24l1.8,0l0,9.25l2.6,0l0,0.97l-2.6,0l0,2.67l2.19,0l0,0.96" fill="#000000" stroke="none" fill-opacity="1"/>
<path d="m733.37,343.67c0.93,0,1.62,-0.51,2.09,-1.53c0.46,-1.02,0.69,-2.56,0.69,-4.62c0,-2.06,-0.23,-3.61,-0.69,-4.63c-0.46,-1.02,-1.16,-1.53,-2.09,-1.53c-0.93,0,-1.62,0.51,-2.09,1.53c-0.46,1.02,-0.69,2.56,-0.69,4.63c0,2.06,0.23,3.6,0.69,4.62c0.46,1.02,1.15,1.53,2.09,1.53m0,0.9c-1.47,0,-2.63,-0.62,-3.46,-1.86c-0.83,-1.24,-1.24,-2.97,-1.24,-5.2c0,-2.23,0.41,-3.97,1.24,-5.21c0.83,-1.24,1.98,-1.86,3.46,-1.86c1.48,0,2.64,0.62,3.47,1.86c0.82,1.24,1.24,2.97,1.24,5.21c0,2.22,-0.41,3.96,-1.24,5.2c-0.82,1.24,-1.98,1.86,-3.47,1.86m6.62,1.55c0.57,-0.41,0.99,-0.91,1.26,-1.48c0.26,-0.56,0.4,-1.25,0.4,-2.06l0,-0.33l1.79,0c-0.04,1.04,-0.29,1.93,-0.73,2.68c-0.44,0.74,-1.1,1.39,-1.99,1.93l-0.73,-0.72m11.38,-2.45c0.85,0,1.51,-0.31,1.98,-0.94c0.46,-0.63,0.69,-1.53,0.69,-2.71c0,-1.18,-0.23,-2.08,-0.69,-2.71c-0.46,-0.63,-1.12,-0.94,-1.98,-0.94c-0.86,0,-1.53,0.3,-1.98,0.91c-0.45,0.6,-0.68,1.48,-0.68,2.63c0,1.21,0.23,2.14,0.69,2.79c0.46,0.65,1.12,0.97,1.98,0.97m-2.97,-6.86c0.41,-0.45,0.88,-0.79,1.4,-1.02c0.52,-0.22,1.11,-0.33,1.77,-0.33c1.35,0,2.43,0.4,3.21,1.22c0.78,0.81,1.18,1.92,1.18,3.34c0,1.38,-0.42,2.48,-1.27,3.31c-0.84,0.83,-1.98,1.24,-3.4,1.24c-1.54,0,-2.72,-0.57,-3.55,-1.72c-0.82,-1.14,-1.24,-2.78,-1.24,-4.91c0,-2.38,0.48,-4.23,1.46,-5.54c0.97,-1.3,2.36,-1.96,4.14,-1.96c0.48,0,0.98,0.04,1.51,0.13c0.52,0.09,1.07,0.22,1.62,0.41l0,2.24l-1.03,0c-0.07,-0.61,-0.3,-1.08,-0.7,-1.4c-0.39,-0.32,-0.92,-0.48,-1.59,-0.48c-1.18,0,-2.06,0.44,-2.63,1.34c-0.57,0.89,-0.87,2.27,-0.89,4.12" fill="#000000" stroke="none" fill-opacity="1"/>
<path d="m959.38,343.67c0.93,0,1.62,-0.51,2.09,-1.53c0.46,-1.02,0.69,-2.56,0.69,-4.62c0,-2.06,-0.23,-3.61,-0.69,-4.63c-0.46,-1.02,-1.16,-1.53,-2.09,-1.53c-0.93,0,-1.62,0.51,-2.09,1.53c-0.46,1.02,-0.69,2.56,-0.69,4.63c0,2.06,0.23,3.6,0.69,4.62c0.46,1.02,1.15,1.53,2.09,1.53m0,0.9c-1.47,0,-2.63,-0.62,-3.46,-1.86c-0.83,-1.24,-1.24,-2.97,-1.24,-5.2c0,-2.23,0.41,-3.97,1.24,-5.21c0.83,-1.24,1.98,-1.86,3.46,-1.86c1.48,0,2.64,0.62,3.47,1.86c0.82,1.24,1.24,2.97,1.24,5.21c0,2.22,-0.41,3.96,-1.24,5.2c-0.82,1.24,-1.98,1.86,-3.47,1.86m6.62,1.55c0.57,-0.41,0.99,-0.91,1.26,-1.48c0.26,-0.56,0.4,-1.25,0.4,-2.06l0,-0.33l1.79,0c-0.04,1.04,-0.29,1.93,-0.73,2.68c-0.44,0.74,-1.1,1.39,-1.99,1.93l-0.73,-0.72m13.97,-5.54c0,-0.97,-0.24,-1.73,-0.72,-2.26c-0.48,-0.53,-1.16,-0.8,-2.04,-0.8c-0.87,0,-1.55,0.26,-2.03,0.8c-0.48,0.53,-0.72,1.29,-0.72,2.26c0,0.98,0.24,1.73,0.72,2.27c0.48,0.53,1.16,0.8,2.03,0.8c0.87,0,1.55,-0.26,2.04,-0.8c0.48,-0.53,0.72,-1.29,0.72,-2.27m-0.37,-6.62c0,-0.82,-0.2,-1.47,-0.62,-1.93c-0.41,-0.46,-1,-0.69,-1.76,-0.69c-0.74,0,-1.33,0.23,-1.75,0.69c-0.42,0.46,-0.63,1.1,-0.63,1.93c0,0.83,0.21,1.48,0.63,1.94c0.42,0.46,1,0.69,1.75,0.69c0.75,0,1.34,-0.23,1.76,-0.69c0.41,-0.46,0.62,-1.11,0.62,-1.94m-0.98,3.08c1.03,0.14,1.84,0.52,2.42,1.14c0.57,0.62,0.86,1.41,0.86,2.38c0,1.27,-0.4,2.26,-1.21,2.95c-0.8,0.69,-1.96,1.03,-3.47,1.03c-1.5,0,-2.66,-0.34,-3.47,-1.03c-0.81,-0.69,-1.21,-1.67,-1.21,-2.95c0,-0.96,0.28,-1.76,0.86,-2.38c0.57,-0.62,1.38,-1,2.42,-1.14c-0.91,-0.16,-1.62,-0.51,-2.11,-1.04c-0.49,-0.53,-0.73,-1.21,-0.73,-2.04c0,-1.09,0.37,-1.95,1.13,-2.58c0.75,-0.63,1.79,-0.94,3.11,-0.94c1.32,0,2.35,0.31,3.11,0.94c0.75,0.63,1.13,1.49,1.13,2.58c0,0.82,-0.24,1.5,-0.73,2.04c-0.49,0.53,-1.19,0.88,-2.1,1.04" fill="#000000" stroke="none" fill-opacity="1"/>
<path d="m1191.03,344.31l0,-0.96l2.37,0l0,-11.34l-2.74,1.77l0,-1.19l3.32,-2.15l1.26,0l0,12.91l2.37,0l0,0.96l-6.58,0" fill="#000000" stroke="none" fill-opacity="1"/>
</g>
<g fill="none" stroke-linecap="butt" stroke-width="0.66">
<path d="M1194.33,322.51l0,-314.96"/>
<path d="M1194.33,322.51l-4,0M1194.33,306.77l-4,0M1194.33,291.02l-4,0M1194.33,275.27l-4,0M1194.33,259.52l-4,0M1194.33,243.77l-4,0M1194.33,228.03l-4,0M1194.33,212.28l-4,0M1194.33,196.53l-4,0M1194.33,180.78l-4,0M1194.33,165.03l-4,0M1194.33,149.29l-4,0M1194.33,133.54l-4,0M1194.33,117.79l-4,0M1194.33,102.04l-4,0M1194.33,86.29l-4,0M1194.33,70.55l-4,0M1194.33,54.8l-4,0M1194.33,39.05l-4,0M1194.33,23.3l-4,0M1194.33,7.55l-4,0"/>
<path d="M1194.33,322.51l-8,0M1194.33,243.77l-8,0M1194.33,165.03l-8,0M1194.33,86.29l-8,0M1194.33,7.55l-8,0"/>
<path d="M64.25,7.55l1130.07,0"/>
<path d="M64.25,7.55l0,4M120.75,7.55l0,4M177.25,7.55l0,4M233.76,7.55l0,4M290.26,7.55l0,4M346.77,7.55l0,4M403.27,7.55l0,4M459.77,7.55l0,4M516.28,7.55l0,4M572.78,7.55l0,4M629.29,7.55l0,4M685.79,7.55l0,4M742.29,7.55l0,4M798.8,7.55l0,4M855.3,7.55l0,4M911.81,7.55l0,4M968.31,7.55l0,4M1024.81,7.55l0,4M1081.32,7.55l0,4M1137.82,7.55l0,4M1194.33,7.55l0,4"/>
<path d="M64.25,7.55l0,8M290.26,7.55l0,8M516.28,7.55l0,8M742.29,7.55l0,8M968.31,7.55l0,8M1194.33,7.55l0,8"/>
</g>
<g fill="#ffffff" stroke-width="0.66">
<path d="m64.25,386.77l1130.07,0l0,314.96l-1130.07,0l0,-314.96"/>
</g>
</g>
<g clip-path="url(#c2)">
<g fill="none" stroke="#e41a1c" stroke-width="0.66">
<polyline fill="none" points="64.25,544.25 65.38,541.1 66.51,537.95 67.64,534.81 68.77,531.69 69.9,528.59 71.03,525.51 72.17,522.47 73.3,519.45 74.43,516.48 75.56,513.56 76.69,510.68 77.82,507.85 78.95,505.09 80.08,502.38 81.22,499.75 82.35,497.18 83.48,494.69 84.61,492.28 85.74,489.96 86.87,487.72 88,485.57 89.13,483.51 90.26,481.56 91.4,479.7 92.53,477.95 93.66,476.3 94.79,474.76 95.92,473.33 97.05,472.02 98.18,470.82 99.31,469.74 100.45,468.78 101.58,467.94 102.71,467.23 103.84,466.63 104.97,466.16 106.1,465.82 107.23,465.6 108.36,465.51 109.5,465.54 110.63,465.7 111.76,465.99 112.89,466.4 114.02,466.94 115.15,467.6 116.28,468.38 117.41,469.29 118.55,470.31 119.68,471.45 120.81,472.71 121.94,474.09 123.07,475.58 124.2,477.17 125.33,478.88 126.46,480.69 127.59,482.6 128.73,484.61 129.86,486.72 130.99,488.91 132.12,491.2 133.25,493.57 134.38,496.03 135.51,498.56 136.64,501.16 137.78,503.83 138.91,506.57 140.04,509.37 141.17,512.22 142.3,515.13 143.43,518.08 144.56,521.07 145.69,524.1 146.83,527.17 147.96,530.26 149.09,533.37 150.22,536.5 151.35,539.64 152.48,542.79 153.61,545.95 154.74,549.1 155.88,552.24 157.01,555.37 158.14,558.48 159.27,561.57 160.4,564.63 161.53,567.66 162.66,570.65 163.79,573.59 164.92,576.5 166.06,579.35 167.19,582.14 168.32,584.87 169.45,587.54 170.58,590.14 171.71,592.66 172.84,595.11 173.97,597.47 175.11,599.75 176.24,601.94 177.37,604.04 178.5,606.05 179.63,607.95 180.76,609.75 181.89,611.45 183.02,613.04 184.16,614.52 185.29,615.88 186.42,617.13 187.55,618.27 188.68,619.28 189.81,620.18 190.94,620.95 192.07,621.6 193.2,622.13 194.34,622.53 195.47,622.81 196.6,622.96 197.73,622.98 198.86,622.88 199.99,622.65 201.12,622.3 202.25,621.82 203.39,621.22 204.52,620.49 205.65,619.64 206.78,618.67 207.91,617.58 209.04,616.38 210.17,615.05 211.3,613.62 212.44,612.07 213.57,610.42 214.7,608.65 215.83,606.79 216.96,604.82 218.09,602.76 219.22,600.61 220.35,598.36 221.49,596.03 222.62,593.61 223.75,591.11 224.88,588.54 226.01,585.9 227.14,583.19 228.27,580.42 229.4,577.6 230.53,574.71 231.67,571.78 232.8,568.81 233.93,565.79 235.06,562.74 236.19,559.67 237.32,556.56 238.45,553.44 239.58,550.3 240.72,547.15 241.85,544 242.98,540.85 244.11,537.7 245.24,534.57 246.37,531.45 247.5,528.35 248.63,525.27 249.77,522.23 250.9,519.22 252.03,516.25 253.16,513.33 254.29,510.46 255.42,507.64 256.55,504.88 257.68,502.18 258.82,499.55 259.95,496.99 261.08,494.5 262.21,492.1 263.34,489.78 264.47,487.55 265.6,485.41 266.73,483.36 267.86,481.41 269,479.56 270.13,477.82 271.26,476.18 272.39,474.65 273.52,473.23 274.65,471.92 275.78,470.74 276.91,469.67 278.05,468.71 279.18,467.88 280.31,467.18 281.44,466.59 282.57,466.13 283.7,465.8 284.83,465.59 285.96,465.51 287.1,465.55 288.23,465.72 289.36,466.02 290.49,466.44 291.62,466.98 292.75,467.65 293.88,468.45 295.01,469.36 296.15,470.4 297.28,471.55 298.41,472.82 299.54,474.2 300.67,475.7 301.8,477.3 302.93,479.01 304.06,480.83 305.19,482.75 306.33,484.77 307.46,486.88 308.59,489.09 309.72,491.38 310.85,493.76 311.98,496.22 313.11,498.75 314.24,501.36 315.38,504.04 316.51,506.78 317.64,509.59 318.77,512.44 319.9,515.35 321.03,518.31 322.16,521.31 323.29,524.34 324.43,527.4 325.56,530.5 326.69,533.61 327.82,536.74 328.95,539.89 330.08,543.04 331.21,546.19 332.34,549.34 333.47,552.48 334.61,555.61 335.74,558.72 336.87,561.8 338,564.86 339.13,567.89 340.26,570.88 341.39,573.82 342.52,576.72 343.66,579.56 344.79,582.35 345.92,585.08 347.05,587.74 348.18,590.34 349.31,592.85 350.44,595.29 351.57,597.65 352.71,599.93 353.84,602.11 354.97,604.2 356.1,606.2 357.23,608.09 358.36,609.89 359.49,611.57 360.62,613.16 361.76,614.63 362.89,615.98 364.02,617.22 365.15,618.35 366.28,619.36 367.41,620.24 368.54,621.01 369.67,621.65 370.8,622.16 371.94,622.56 373.07,622.82 374.2,622.96 375.33,622.98 376.46,622.87 377.59,622.63 378.72,622.26 379.85,621.78 380.99,621.16 382.12,620.43 383.25,619.57 384.38,618.59 385.51,617.49 386.64,616.28 387.77,614.95 388.9,613.5 390.04,611.95 391.17,610.28 392.3,608.51 393.43,606.64 394.56,604.67 395.69,602.6 396.82,600.43 397.95,598.18 399.09,595.84 400.22,593.42 401.35,590.92 402.48,588.34 403.61,585.7 404.74,582.98 405.87,580.21 407,577.37 408.13,574.49 409.27,571.55 410.4,568.58 411.53,565.56 412.66,562.51 413.79,559.43 414.92,556.32 416.05,553.2 417.18,550.06 418.32,546.91 419.45,543.76 420.58,540.61 421.71,537.46 422.84,534.33 423.97,531.21 425.1,528.11 426.23,525.04 427.37,522 428.5,518.99 429.63,516.03 430.76,513.11 431.89,510.24 433.02,507.42 434.15,504.66 435.28,501.97 436.42,499.35 437.55,496.79 438.68,494.32 439.81,491.92 440.94,489.61 442.07,487.38 443.2,485.25 444.33,483.21 445.46,481.26 446.6,479.42 447.73,477.68 448.86,476.05 449.99,474.53 451.12,473.12 452.25,471.83 453.38,470.65 454.51,469.59 455.65,468.65 456.78,467.83 457.91,467.13 459.04,466.55 460.17,466.1 461.3,465.78 462.43,465.58 463.56,465.51 464.7,465.56 465.83,465.74 466.96,466.05 468.09,466.48 469.22,467.03 470.35,467.71 471.48,468.51 472.61,469.44 473.75,470.48 474.88,471.64 476.01,472.92 477.14,474.31 478.27,475.82 479.4,477.43 480.53,479.15 481.66,480.98 482.79,482.9 483.93,484.93 485.06,487.05 486.19,489.26 487.32,491.56 488.45,493.95 489.58,496.41 490.71,498.95 491.84,501.57 492.98,504.25 494.11,507 495.24,509.81 496.37,512.67 497.5,515.58 498.63,518.54 499.76,521.54 500.89,524.58 502.03,527.64 503.16,530.74 504.29,533.85 505.42,536.99 506.55,540.13 507.68,543.28 508.81,546.43 509.94,549.58 511.07,552.72 512.21,555.85 513.34,558.96 514.47,562.04 515.6,565.1 516.73,568.12 517.86,571.11 518.99,574.05 520.12,576.94 521.26,579.78 522.39,582.57 523.52,585.29 524.65,587.95 525.78,590.53 526.91,593.05 528.04,595.48 529.17,597.83 530.31,600.1 531.44,602.28 532.57,604.36 533.7,606.35 534.83,608.24 535.96,610.02 537.09,611.7 538.22,613.27 539.36,614.73 540.49,616.08 541.62,617.32 542.75,618.43 543.88,619.43 545.01,620.31 546.14,621.06 547.27,621.69 548.4,622.2 549.54,622.58 550.67,622.84 551.8,622.97 552.93,622.97 554.06,622.85 555.19,622.6 556.32,622.23 557.45,621.73 558.59,621.11 559.72,620.37 560.85,619.5 561.98,618.51 563.11,617.4 564.24,616.18 565.37,614.84 566.5,613.39 567.64,611.82 568.77,610.15 569.9,608.37 571.03,606.49 572.16,604.51 573.29,602.43 574.42,600.26 575.55,598 576.69,595.66 577.82,593.23 578.95,590.72 580.08,588.14 581.21,585.49 582.34,582.77 583.47,579.99 584.6,577.15 585.73,574.26 586.87,571.33 588,568.34 589.13,565.32 590.26,562.27 591.39,559.19 592.52,556.08 593.65,552.95 594.78,549.82 595.92,546.67 597.05,543.51 598.18,540.36 599.31,537.22 600.44,534.08 601.57,530.97 602.7,527.87 603.83,524.8 604.97,521.76 606.1,518.76 607.23,515.8 608.36,512.88 609.49,510.02 610.62,507.2 611.75,504.45 612.88,501.77 614.02,499.15 615.15,496.6 616.28,494.13 617.41,491.74 618.54,489.43 619.67,487.21 620.8,485.08 621.93,483.05 623.06,481.12 624.2,479.28 625.33,477.55 626.46,475.93 627.59,474.42 628.72,473.02 629.85,471.73 630.98,470.56 632.11,469.51 633.25,468.58 634.38,467.77 635.51,467.08 636.64,466.51 637.77,466.07 638.9,465.76 640.03,465.57 641.16,465.51 642.3,465.57 643.43,465.76 644.56,466.07 645.69,466.52 646.82,467.08 647.95,467.77 649.08,468.58 650.21,469.51 651.34,470.57 652.48,471.74 653.61,473.02 654.74,474.42 655.87,475.94 657,477.56 658.13,479.29 659.26,481.12 660.39,483.06 661.53,485.09 662.66,487.22 663.79,489.44 664.92,491.74 666.05,494.14 667.18,496.61 668.31,499.15 669.44,501.77 670.58,504.46 671.71,507.21 672.84,510.03 673.97,512.89 675.1,515.81 676.23,518.77 677.36,521.77 678.49,524.81 679.63,527.88 680.76,530.98 681.89,534.1 683.02,537.23 684.15,540.37 685.28,543.53 686.41,546.68 687.54,549.83 688.67,552.97 689.81,556.09 690.94,559.2 692.07,562.28 693.2,565.33 694.33,568.35 695.46,571.34 696.59,574.27 697.72,577.16 698.86,580 699.99,582.78 701.12,585.5 702.25,588.15 703.38,590.73 704.51,593.24 705.64,595.67 706.77,598.01 707.91,600.27 709.04,602.44 710.17,604.52 711.3,606.5 712.43,608.38 713.56,610.15 714.69,611.83 715.82,613.39 716.96,614.84 718.09,616.18 719.22,617.41 720.35,618.51 721.48,619.5 722.61,620.37 723.74,621.11 724.87,621.74 726,622.23 727.14,622.61 728.27,622.85 729.4,622.97 730.53,622.97 731.66,622.84 732.79,622.58 733.92,622.2 735.05,621.69 736.19,621.06 737.32,620.3 738.45,619.43 739.58,618.43 740.71,617.31 741.84,616.08 742.97,614.73 744.1,613.27 745.24,611.7 746.37,610.02 747.5,608.23 748.63,606.34 749.76,604.35 750.89,602.27 752.02,600.09 753.15,597.82 754.29,595.47 755.42,593.04 756.55,590.52 757.68,587.94 758.81,585.28 759.94,582.56 761.07,579.77 762.2,576.93 763.33,574.04 764.47,571.1 765.6,568.11 766.73,565.09 767.86,562.03 768.99,558.95 770.12,555.84 771.25,552.71 772.38,549.57 773.52,546.42 774.65,543.27 775.78,540.12 776.91,536.98 778.04,533.84 779.17,530.73 780.3,527.63 781.43,524.56 782.57,521.53 783.7,518.53 784.83,515.57 785.96,512.66 787.09,509.8 788.22,506.99 789.35,504.24 790.48,501.56 791.62,498.95 792.75,496.4 793.88,493.94 795.01,491.55 796.14,489.25 797.27,487.04 798.4,484.92 799.53,482.9 800.66,480.97 801.8,479.15 802.93,477.43 804.06,475.81 805.19,474.31 806.32,472.92 807.45,471.64 808.58,470.48 809.71,469.43 810.85,468.51 811.98,467.71 813.11,467.03 814.24,466.48 815.37,466.04 816.5,465.74 817.63,465.56 818.76,465.51 819.9,465.58 821.03,465.78 822.16,466.1 823.29,466.55 824.42,467.13 825.55,467.83 826.68,468.65 827.81,469.59 828.94,470.65 830.08,471.83 831.21,473.13 832.34,474.54 833.47,476.06 834.6,477.69 835.73,479.43 836.86,481.27 837.99,483.21 839.13,485.25 840.26,487.39 841.39,489.61 842.52,491.93 843.65,494.32 844.78,496.8 845.91,499.35 847.04,501.98 848.18,504.67 849.31,507.43 850.44,510.25 851.57,513.12 852.7,516.04 853.83,519 854.96,522.01 856.09,525.05 857.23,528.12 858.36,531.22 859.49,534.34 860.62,537.47 861.75,540.62 862.88,543.77 864.01,546.92 865.14,550.07 866.27,553.21 867.41,556.33 868.54,559.44 869.67,562.52 870.8,565.57 871.93,568.59 873.06,571.56 874.19,574.5 875.32,577.38 876.46,580.22 877.59,582.99 878.72,585.7 879.85,588.35 880.98,590.93 882.11,593.43 883.24,595.85 884.37,598.19 885.51,600.44 886.64,602.6 887.77,604.67 888.9,606.65 890.03,608.52 891.16,610.29 892.29,611.95 893.42,613.51 894.56,614.95 895.69,616.28 896.82,617.5 897.95,618.59 899.08,619.57 900.21,620.43 901.34,621.17 902.47,621.78 903.6,622.27 904.74,622.63 905.87,622.87 907,622.98 908.13,622.96 909.26,622.82 910.39,622.56 911.52,622.16 912.65,621.65 913.79,621 914.92,620.24 916.05,619.35 917.18,618.35 918.31,617.22 919.44,615.98 920.57,614.62 921.7,613.15 922.84,611.57 923.97,609.88 925.1,608.09 926.23,606.19 927.36,604.19 928.49,602.1 929.62,599.92 930.75,597.65 931.89,595.29 933.02,592.85 934.15,590.33 935.28,587.73 936.41,585.07 937.54,582.34 938.67,579.55 939.8,576.71 940.93,573.81 942.07,570.87 943.2,567.88 944.33,564.85 945.46,561.79 946.59,558.71 947.72,555.6 948.85,552.47 949.98,549.33 951.12,546.18 952.25,543.03 953.38,539.88 954.51,536.73 955.64,533.6 956.77,530.49 957.9,527.39 959.03,524.33 960.17,521.29 961.3,518.3 962.43,515.34 963.56,512.43 964.69,509.58 965.82,506.77 966.95,504.03 968.08,501.36 969.21,498.75 970.35,496.21 971.48,493.75 972.61,491.37 973.74,489.08 974.87,486.88 976,484.76 977.13,482.75 978.26,480.83 979.4,479.01 980.53,477.3 981.66,475.69 982.79,474.2 983.92,472.81 985.05,471.54 986.18,470.39 987.31,469.36 988.45,468.44 989.58,467.65 990.71,466.98 991.84,466.44 992.97,466.02 994.1,465.72 995.23,465.55 996.36,465.51 997.5,465.59 998.63,465.8 999.76,466.13 1000.89,466.59 1002.02,467.18 1003.15,467.89 1004.28,468.72 1005.41,469.67 1006.54,470.74 1007.68,471.93 1008.81,473.23 1009.94,474.65 1011.07,476.18 1012.2,477.82 1013.33,479.57 1014.46,481.42 1015.59,483.37 1016.73,485.41 1017.86,487.56 1018.99,489.79 1020.12,492.11 1021.25,494.51 1022.38,497 1023.51,499.56 1024.64,502.19 1025.78,504.88 1026.91,507.65 1028.04,510.47 1029.17,513.34 1030.3,516.26 1031.43,519.23 1032.56,522.24 1033.69,525.29 1034.83,528.36 1035.96,531.46 1037.09,534.58 1038.22,537.72 1039.35,540.86 1040.48,544.01 1041.61,547.17 1042.74,550.31 1043.87,553.45 1045.01,556.57 1046.14,559.68 1047.27,562.76 1048.4,565.8 1049.53,568.82 1050.66,571.79 1051.79,574.72 1052.92,577.61 1054.06,580.43 1055.19,583.2 1056.32,585.91 1057.45,588.55 1058.58,591.12 1059.71,593.62 1060.84,596.03 1061.97,598.37 1063.11,600.61 1064.24,602.77 1065.37,604.83 1066.5,606.8 1067.63,608.66 1068.76,610.42 1069.89,612.08 1071.02,613.62 1072.16,615.06 1073.29,616.38 1074.42,617.59 1075.55,618.67 1076.68,619.64 1077.81,620.49 1078.94,621.22 1080.07,621.82 1081.2,622.3 1082.34,622.65 1083.47,622.88 1084.6,622.98 1085.73,622.96 1086.86,622.81 1087.99,622.53 1089.12,622.13 1090.25,621.6 1091.39,620.95 1092.52,620.17 1093.65,619.28 1094.78,618.26 1095.91,617.13 1097.04,615.88 1098.17,614.51 1099.3,613.03 1100.44,611.44 1101.57,609.75 1102.7,607.94 1103.83,606.04 1104.96,604.04 1106.09,601.94 1107.22,599.75 1108.35,597.47 1109.49,595.1 1110.62,592.65 1111.75,590.13 1112.88,587.53 1114.01,584.86 1115.14,582.13 1116.27,579.34 1117.4,576.49 1118.53,573.58 1119.67,570.64 1120.8,567.65 1121.93,564.62 1123.06,561.56 1124.19,558.47 1125.32,555.36 1126.45,552.23 1127.58,549.08 1128.72,545.93 1129.85,542.78 1130.98,539.63 1132.11,536.49 1133.24,533.36 1134.37,530.25 1135.5,527.16 1136.63,524.09 1137.77,521.06 1138.9,518.07 1140.03,515.12 1141.16,512.21 1142.29,509.36 1143.42,506.56 1144.55,503.82 1145.68,501.15 1146.81,498.55 1147.95,496.02 1149.08,493.56 1150.21,491.19 1151.34,488.91 1152.47,486.71 1153.6,484.6 1154.73,482.59 1155.86,480.68 1157,478.87 1158.13,477.17 1159.26,475.57 1160.39,474.08 1161.52,472.71 1162.65,471.45 1163.78,470.31 1164.91,469.28 1166.05,468.38 1167.18,467.6 1168.31,466.94 1169.44,466.4 1170.57,465.99 1171.7,465.7 1172.83,465.54 1173.96,465.51 1175.1,465.6 1176.23,465.82 1177.36,466.17 1178.49,466.64 1179.62,467.23 1180.75,467.95 1181.88,468.79 1183.01,469.75 1184.14,470.83 1185.28,472.03 1186.41,473.34 1187.54,474.77 1188.67,476.31 1189.8,477.95 1190.93,479.71 1192.06,481.56 1193.19,483.52 1194.33,485.58"/>
</g>
</g>
<g clip-path="url(#c0)">
<g fill="none" stroke-linecap="butt" stroke-width="0.66">
<path d="M64.25,701.73l0,-314.96"/>
<path d="M64.25,701.73l4,0M64.25,685.98l4,0M64.25,670.23l4,0M64.25,654.48l4,0M64.25,638.74l4,0M64.25,622.99l4,0M64.25,607.24l4,0M64.25,591.49l4,0M64.25,575.74l4,0M64.25,560l4,0M64.25,544.25l4,0M64.25,528.5l4,0M64.25,512.75l4,0M64.25,497l4,0M64.25,481.25l4,0M64.25,465.51l4,0M64.25,449.76l4,0M64.25,434.01l4,0M64.25,418.26l4,0M64.25,402.51l4,0M64.25,386.77l4,0"/>
<path d="M64.25,701.73l8,0M64.25,622.99l8,0M64.25,544.25l8,0M64.25,465.51l8,0M64.25,386.77l8,0"/>
</g>
<g fill="none" stroke-width="0.1">
<path d="m34.26,702.22l11.7,0l0,1.47l-11.7,0l0,-1.47m16.07,-3.77l-1.02,0l0,-2.42c0.65,-0.34,1.3,-0.61,1.96,-0.79c0.66,-0.18,1.3,-0.27,1.94,-0.27c1.41,0,2.53,0.34,3.35,1.03c0.82,0.68,1.23,1.62,1.23,2.8c0,1.33,-0.93,2.92,-2.79,4.78c-0.14,0.13,-0.25,0.24,-0.32,0.32l-3.44,3.44l5.68,0l0,-1.68l1.06,0l0,3.17l-8.79,0l0,-0.99l4.13,-4.12c0.91,-0.91,1.56,-1.75,1.95,-2.51c0.38,-0.76,0.58,-1.56,0.58,-2.4c0,-0.91,-0.23,-1.63,-0.71,-2.15c-0.47,-0.51,-1.13,-0.77,-1.97,-0.77c-0.86,0,-1.54,0.21,-2.01,0.64c-0.47,0.43,-0.75,1.08,-0.84,1.94" fill="#000000" stroke="none" fill-opacity="1"/>
<path d="m34.26,623.48l11.7,0l0,1.47l-11.7,0l0,-1.47m16.34,6.6l0,-0.96l2.37,0l0,-11.34l-2.74,1.77l0,-1.19l3.32,-2.15l1.26,0l0,12.91l2.37,0l0,0.96l-6.58,0" fill="#000000" stroke="none" fill-opacity="1"/>
<path d="m53.89,550.71c0.93,0,1.62,-0.51,2.09,-1.53c0.46,-1.02,0.69,-2.56,0.69,-4.62c0,-2.06,-0.23,-3.61,-0.69,-4.63c-0.46,-1.02,-1.16,-1.53,-2.09,-1.53c-0.93,0,-1.62,0.51,-2.09,1.53c-0.46,1.02,-0.69,2.56,-0.69,4.63c0,2.06,0.23,3.6,0.69,4.62c0.46,1.02,1.15,1.53,2.09,1.53m0,0.9c-1.47,0,-2.63,-0.62,-3.46,-1.86c-0.83,-1.24,-1.24,-2.97,-1.24,-5.2c0,-2.23,0.41,-3.97,1.24,-5.21c0.83,-1.24,1.98,-1.86,3.46,-1.86c1.48,0,2.64,0.62,3.47,1.86c0.82,1.24,1.24,2.97,1.24,5.21c0,2.22,-0.41,3.96,-1.24,5.2c-0.82,1.24,-1.98,1.86,-3.47,1.86" fill="#000000" stroke="none" fill-opacity="1"/>
<path d="m50.61,472.61l0,-0.96l2.37,0l0,-11.34l-2.74,1.77l0,-1.19l3.32,-2.15l1.26,0l0,12.91l2.37,0l0,0.96l-6.58,0" fill="#000000" stroke="none" fill-opacity="1"/>
<path d="m50.34,394.97l-1.02,0l0,-2.42c0.65,-0.34,1.3,-0.61,1.96,-0.79c0.66,-0.18,1.3,-0.27,1.94,-0.27c1.41,0,2.53,0.34,3.35,1.03c0.82,0.68,1.23,1.62,1.23,2.8c0,1.33,-0.93,2.92,-2.79,4.78c-0.14,0.13,-0.25,0.24,-0.32,0.32l-3.44,3.44l5.68,0l0,-1.68l1.06,0l0,3.17l-8.79,0l0,-0.99l4.13,-4.12c0.91,-0.91,1.56,-1.75,1.95,-2.51c0.38,-0.76,0.58,-1.56,0.58,-2.4c0,-0.91,-0.23,-1.63,-0.71,-2.15c-0.47,-0.51,-1.13,-0.77,-1.97,-0.77c-0.86,0,-1.54,0.21,-2.01,0.64c-0.47,0.43,-0.75,1.08,-0.84,1.94" fill="#000000" stroke="none" fill-opacity="1"/>
</g>
<g fill="none" stroke-linecap="butt" stroke-width="0.66">
<path d="M64.25,701.73l1130.07,0"/>
<path d="M64.25,701.73l0,-4M120.75,701.73l0,-4M177.25,701.73l0,-4M233.76,701.73l0,-4M290.26,701.73l0,-4M346.77,701.73l0,-4M403.27,701.73l0,-4M459.77,701.73l0,-4M516.28,701.73l0,-4M572.78,701.73l0,-4M629.29,701.73l0,-4M685.79,701.73l0,-4M742.29,701.73l0,-4M798.8,701.73l0,-4M855.3,701.73l0,-4M911.81,701.73l0,-4M968.31,701.73l0,-4M1024.81,701.73l0,-4M1081.32,701.73l0,-4M1137.82,701.73l0,-4M1194.33,701.73l0,-4"/>
<path d="M64.25,701.73l0,-8M290.26,701.73l0,-8M516.28,701.73l0,-8M742.29,701.73l0,-8M968.31,701.73l0,-8M1194.33,701.73l0,-8"/>
</g>
<g fill="none" stroke-width="0.1">
<path d="m64.24,722.89c0.93,0,1.62,-0.51,2.09,-1.53c0.46,-1.02,0.69,-2.56,0.69,-4.62c0,-2.06,-0.23,-3.61,-0.69,-4.63c-0.46,-1.02,-1.16,-1.53,-2.09,-1.53c-0.93,0,-1.62,0.51,-2.09,1.53c-0.46,1.02,-0.69,2.56,-0.69,4.63c0,2.06,0.23,3.6,0.69,4.62c0.46,1.02,1.15,1.53,2.09,1.53m0,0.9c-1.47,0,-2.63,-0.62,-3.46,-1.86c-0.83,-1.24,-1.24,-2.97,-1.24,-5.2c0,-2.23,0.41,-3.97,1.24,-5.21c0.83,-1.24,1.98,-1.86,3.46,-1.86c1.48,0,2.64,0.62,3.47,1.86c0.82,1.24,1.24,2.97,1.24,5.21c0,2.22,-0.41,3.96,-1.24,5.2c-0.82,1.24,-1.98,1.86,-3.47,1.86" fill="#000000" stroke="none" fill-opacity="1"/>
<path d="m281.34,722.89c0.93,0,1.62,-0.51,2.09,-1.53c0.46,-1.02,0.69,-2.56,0.69,-4.62c0,-2.06,-0.23,-3.61,-0.69,-4.63c-0.46,-1.02,-1.16,-1.53,-2.09,-1.53c-0.93,0,-1.62,0.51,-2.09,1.53c-0.46,1.02,-0.69,2.56,-0.69,4.63c0,2.06,0.23,3.6,0.69,4.62c0.46,1.02,1.15,1.53,2.09,1.53m0,0.9c-1.47,0,-2.63,-0.62,-3.46,-1.86c-0.83,-1.24,-1.24,-2.97,-1.24,-5.2c0,-2.23,0.41,-3.97,1.24,-5.21c0.83,-1.24,1.98,-1.86,3.46,-1.86c1.48,0,2.64,0.62,3.47,1.86c0.82,1.24,1.24,2.97,1.24,5.21c0,2.22,-0.41,3.96,-1.24,5.2c-0.82,1.24,-1.98,1.86,-3.47,1.86m6.62,1.55c0.57,-0.41,0.99,-0.91,1.26,-1.48c0.26,-0.56,0.4,-1.25,0.4,-2.06l0,-0.33l1.79,0c-0.04,1.04,-0.29,1.93,-0.73,2.68c-0.44,0.74,-1.1,1.39,-1.99,1.93l-0.73,-0.72m7.66,-12.19l-1.02,0l0,-2.42c0.65,-0.34,1.3,-0.61,1.96,-0.79c0.66,-0.18,1.3,-0.27,1.94,-0.27c1.41,0,2.53,0.34,3.35,1.03c0.82,0.68,1.23,1.62,1.23,2.8c0,1.33,-0.93,2.92,-2.79,4.78c-0.14,0.13,-0.25,0.24,-0.32,0.32l-3.44,3.44l5.68,0l0,-1.68l1.06,0l0,3.17l-8.79,0l0,-0.99l4.13,-4.12c0.91,-0.91,1.56,-1.75,1.95,-2.51c0.38,-0.76,0.58,-1.56,0.58,-2.4c0,-0.91,-0.23,-1.63,-0.71,-2.15c-0.47,-0.51,-1.13,-0.77,-1.97,-0.77c-0.86,0,-1.54,0.21,-2.01,0.64c-0.47,0.43,-0.75,1.08,-0.84,1.94" fill="#000000" stroke="none" fill-opacity="1"/>
<path d="m507.35,722.89c0.93,0,1.62,-0.51,2.09,-1.53c0.46,-1.02,0.69,-2.56,0.69,-4.62c0,-2.06,-0.23,-3.61,-0.69,-4.63c-0.46,-1.02,-1.16,-1.53,-2.09,-1.53c-0.93,0,-1.62,0.51,-2.09,1.53c-0.46,1.02,-0.69,2.56,-0.69,4.63c0,2.06,0.23,3.6,0.69,4.62c0.46,1.02,1.15,1.53,2.09,1.53m0,0.9c-1.47,0,-2.63,-0.62,-3.46,-1.86c-0.83,-1.24,-1.24,-2.97,-1.24,-5.2c0,-2.23,0.41,-3.97,1.24,-5.21c0.83,-1.24,1.98,-1.86,3.46,-1.86c1.48,0,2.64,0.62,3.47,1.86c0.82,1.24,1.24,2.97,1.24,5.21c0,2.22,-0.41,3.96,-1.24,5.2c-0.82,1.24,-1.98,1.86,-3.47,1.86m6.62,1.55c0.57,-0.41,0.99,-0.91,1.26,-1.48c0.26,-0.56,0.4,-1.25,0.4,-2.06l0,-0.33l1.79,0c-0.04,1.04,-0.29,1.93,-0.73,2.68c-0.44,0.74,-1.1,1.39,-1.99,1.93l-0.73,-0.72m11.79,-6.43l0,-7.25l-4.65,7.25l4.65,0m4.01,4.62l-6.2,0l0,-0.96l2.19,0l0,-2.67l-5.95,0l0,-0.99l5.97,-9.24l1.8,0l0,9.25l2.6,0l0,0.97l-2.6,0l0,2.67l2.19,0l0,0.96" fill="#000000" stroke="none" fill-opacity="1"/>
<path d="m733.37,722.89c0.93,0,1.62,-0.51,2.09,-1.53c0.46,-1.02,0.69,-2.56,0.69,-4.62c0,-2.06,-0.23,-3.61,-0.69,-4.63c-0.46,-1.02,-1.16,-1.53,-2.09,-1.53c-0.93,0,-1.62,0.51,-2.09,1.53c-0.46,1.02,-0.69,2.56,-0.69,4.63c0,2.06,0.23,3.6,0.69,4.62c0.46,1.02,1.15,1.53,2.09,1.53m0,0.9c-1.47,0,-2.63,-0.62,-3.46,-1.86c-0.83,-1.24,-1.24,-2.97,-1.24,-5.2c0,-2.23,0.41,-3.97,1.24,-5.21c0.83,-1.24,1.98,-1.86,3.46,-1.86c1.48,0,2.64,0.62,3.47,1.86c0.82,1.24,1.24,2.97,1.24,5.21c0,2.22,-0.41,3.96,-1.24,5.2c-0.82,1.24,-1.98,1.86,-3.47,1.86m6.62,1.55c0.57,-0.41,0.99,-0.91,1.26,-1.48c0.26,-0.56,0.4,-1.25,0.4,-2.06l0,-0.33l1.79,0c-0.04,1.04,-0.29,1.93,-0.73,2.68c-0.44,0.74,-1.1,1.39,-1.99,1.93l-0.73,-0.72m11.38,-2.45c0.85,0,1.51,-0.31,1.98,-0.94c0.46,-0.63,0.69,-1.53,0.69,-2.71c0,-1.18,-0.23,-2.08,-0.69,-2.71c-0.46,-0.63,-1.12,-0.94,-1.98,-0.94c-0.86,0,-1.53,0.3,-1.98,0.91c-0.45,0.6,-0.68,1.48,-0.68,2.63c0,1.21,0.23,2.14,0.69,2.79c0.46,0.65,1.12,0.97,1.98,0.97m-2.97,-6.86c0.41,-0.45,0.88,-0.79,1.4,-1.02c0.52,-0.22,1.11,-0.33,1.77,-0.33c1.35,0,2.43,0.4,3.21,1.22c0.78,0.81,1.18,1.92,1.18,3.34c0,1.38,-0.42,2.48,-1.27,3.31c-0.84,0.83,-1.98,1.24,-3.4,1.24c-1.54,0,-2.72,-0.57,-3.55,-1.72c-0.82,-1.14,-1.24,-2.78,-1.24,-4.91c0,-2.38,0.48,-4.23,1.46,-5.54c0.97,-1.3,2.36,-1.96,4.14,-1.96c0.48,0,0.98,0.04,1.51,0.13c0.52,0.09,1.07,0.22,1.62,0.41l0,2.24l-1.03,0c-0.07,-0.61,-0.3,-1.08,-0.7,-1.4c-0.39,-0.32,-0.92,-0.48,-1.59,-0.48c-1.18,0,-2.06,0.44,-2.63,1.34c-0.57,0.89,-0.87,2.27,-0.89,4.12" fill="#000000" stroke="none" fill-opacity="1"/>
<path d="m959.38,722.89c0.93,0,1.62,-0.51,2.09,-1.53c0.46,-1.02,0.69,-2.56,0.69,-4.62c0,-2.06,-0.23,-3.61,-0.69,-4.63c-0.46,-1.02,-1.16,-1.53,-2.09,-1.53c-0.93,0,-1.62,0.51,-2.09,1.53c-0.46,1.02,-0.69,2.56,-0.69,4.63c0,2.06,0.23,3.6,0.69,4.62c0.46,1.02,1.15,1.53,2.09,1.53m0,0.9c-1.47,0,-2.63,-0.62,-3.46,-1.86c-0.83,-1.24,-1.24,-2.97,-1.24,-5.2c0,-2.23,0.41,-3.97,1.24,-5.21c0.83,-1.24,1.98,-1.86,3.46,-1.86c1.48,0,2.64,0.62,3.47,1.86c0.82,1.24,1.24,2.97,1.24,5.21c0,2.22,-0.41,3.96,-1.24,5.2c-0.82,1.24,-1.98,1.86,-3.47,1.86m6.62,1.55c0.57,-0.41,0.99,-0.91,1.26,-1.48c0.26,-0.56,0.4,-1.25,0.4,-2.06l0,-0.33l1.79,0c-0.04,1.04,-0.29,1.93,-0.73,2.68c-0.44,0.74,-1.1,1.39,-1.99,1.93l-0.73,-0.72m13.97,-5.54c0,-0.97,-0.24,-1.73,-0.72,-2.26c-0.48,-0.53,-1.16,-0.8,-2.04,-0.8c-0.87,0,-1.55,0.26,-2.03,0.8c-0.48,0.53,-0.72,1.29,-0.72,2.26c0,0.98,0.24,1.73,0.72,2.27c0.48,0.53,1.16,0.8,2.03,0.8c0.87,0,1.55,-0.26,2.04,-0.8c0.48,-0.53,0.72,-1.29,0.72,-2.27m-0.37,-6.62c0,-0.82,-0.2,-1.47,-0.62,-1.93c-0.41,-0.46,-1,-0.69,-1.76,-0.69c-0.74,0,-1.33,0.23,-1.75,0.69c-0.42,0.46,-0.63,1.1,-0.63,1.93c0,0.83,0.21,1.48,0.63,1.94c0.42,0.46,1,0.69,1.75,0.69c0.75,0,1.34,-0.23,1.76,-0.69c0.41,-0.46,0.62,-1.11,0.62,-1.94m-0.98,3.08c1.03,0.14,1.84,0.52,2.42,1.14c0.57,0.62,0.86,1.41,0.86,2.38c0,1.27,-0.4,2.26,-1.21,2.95c-0.8,0.69,-1.96,1.03,-3.47,1.03c-1.5,0,-2.66,-0.34,-3.47,-1.03c-0.81,-0.69,-1.21,-1.67,-1.21,-2.95c0,-0.96,0.28,-1.76,0.86,-2.38c0.57,-0.62,1.38,-1,2.42,-1.14c-0.91,-0.16,-1.62,-0.51,-2.11,-1.04c-0.49,-0.53,-0.73,-1.21,-0.73,-2.04c0,-1.09,0.37,-1.95,1.13,-2.58c0.75,-0.63,1.79,-0.94,3.11,-0.94c1.32,0,2.35,0.31,3.11,0.94c0.75,0.63,1.13,1.49,1.13,2.58c0,0.82,-0.24,1.5,-0.73,2.04c-0.49,0.53,-1.19,0.88,-2.1,1.04" fill="#000000" stroke="none" fill-opacity="1"/>
<path d="m1191.03,723.53l0,-0.96l2.37,0l0,-11.34l-2.74,1.77l0,-1.19l3.32,-2.15l1.26,0l0,12.91l2.37,0l0,0.96l-6.58,0" fill="#000000" stroke="none" fill-opacity="1"/>
</g>
<g fill="none" stroke-linecap="butt" stroke-width="0.66">
<path d="M1194.33,701.73l0,-314.96"/>
<path d="M1194.33,701.73l-4,0M1194.33,685.98l-4,0M1194.33,670.23l-4,0M1194.33,654.48l-4,0M1194.33,638.74l-4,0M1194.33,622.99l-4,0M1194.33,607.24l-4,0M1194.33,591.49l-4,0M1194.33,575.74l-4,0M1194.33,560l-4,0M1194.33,544.25l-4,0M1194.33,528.5l-4,0M1194.33,512.75l-4,0M1194.33,497l-4,0M1194.33,481.25l-4,0M1194.33,465.51l-4,0M1194.33,449.76l-4,0M1194.33,434.01l-4,0M1194.33,418.26l-4,0M1194.33,402.51l-4,0M1194.33,386.77l-4,0"/>
<path d="M1194.33,701.73l-8,0M1194.33,622.99l-8,0M1194.33,544.25l-8,0M1194.33,465.51l-8,0M1194.33,386.77l-8,0"/>
<path d="M64.25,386.77l1130.07,0"/>
<path d="M64.25,386.77l0,4M120.75,386.77l0,4M177.25,386.77l0,4M233.76,386.77l0,4M290.26,386.77l0,4M346.77,386.77l0,4M403.27,386.77l0,4M459.77,386.77l0,4M516.28,386.77l0,4M572.78,386.77l0,4M629.29,386.77l0,4M685.79,386.77l0,4M742.29,386.77l0,4M798.8,386.77l0,4M855.3,386.77l0,4M911.81,386.77l0,4M968.31,386.77l0,4M1024.81,386.77l0,4M1081.32,386.77l0,4M1137.82,386.77l0,4M1194.33,386.77l0,4"/>
<path d="M64.25,386.77l0,8M290.26,386.77l0,8M516.28,386.77l0,8M742.29,386.77l0,8M968.31,386.77l0,8M1194.33,386.77l0,8"/>
</g>
<g fill="#ffffff" stroke-width="0.66">
<path d="m64.25,765.98l1130.07,0l0,314.96l-1130.07,0l0,-314.96"/>
</g>
</g>
<g clip-path="url(#c3)">
<g fill="none" stroke="#e41a1c" stroke-width="0.66">
<polyline fill="none" points="64.25,923.46 65.38,917.16 66.51,910.86 67.64,904.59 68.77,898.35 69.9,892.14 71.03,885.99 72.17,879.9 73.3,873.87 74.43,867.93 75.56,862.08 76.69,856.32 77.82,850.67 78.95,845.14 80.08,839.73 81.22,834.46 82.35,829.33 83.48,824.35 84.61,819.53 85.74,814.88 86.87,810.4 88,806.1 89.13,802 90.26,798.08 91.4,794.37 92.53,790.86 93.66,787.57 94.79,784.49 95.92,781.63 97.05,779.01 98.18,776.61 99.31,774.45 100.45,772.53 101.58,770.85 102.71,769.42 103.84,768.23 104.97,767.3 106.1,766.61 107.23,766.17 108.36,765.99 109.5,766.05 110.63,766.37 111.76,766.95 112.89,767.77 114.02,768.84 115.15,770.16 116.28,771.73 117.41,773.54 118.55,775.59 119.68,777.87 120.81,780.39 121.94,783.14 123.07,786.12 124.2,789.31 125.33,792.72 126.46,796.34 127.59,800.16 128.73,804.19 129.86,808.4 130.99,812.79 132.12,817.37 133.25,822.11 134.38,827.02 135.51,832.08 136.64,837.28 137.78,842.63 138.91,848.1 140.04,853.7 141.17,859.41 142.3,865.22 143.43,871.12 144.56,877.11 145.69,883.17 146.83,889.3 147.96,895.48 149.09,901.7 150.22,907.97 151.35,914.25 152.48,920.55 153.61,926.86 154.74,933.16 155.88,939.44 157.01,945.7 158.14,951.92 159.27,958.1 160.4,964.22 161.53,970.28 162.66,976.26 163.79,982.15 164.92,987.96 166.06,993.66 167.19,999.24 168.32,1004.71 169.45,1010.04 170.58,1015.24 171.71,1020.29 172.84,1025.18 173.97,1029.91 175.11,1034.47 176.24,1038.86 177.37,1043.05 178.5,1047.06 179.63,1050.87 180.76,1054.47 181.89,1057.86 183.02,1061.04 184.16,1064 185.29,1066.73 186.42,1069.23 187.55,1071.5 188.68,1073.53 189.81,1075.32 190.94,1076.87 192.07,1078.17 193.2,1079.22 194.34,1080.03 195.47,1080.58 196.6,1080.88 197.73,1080.93 198.86,1080.72 199.99,1080.27 201.12,1079.56 202.25,1078.6 203.39,1077.4 204.52,1075.94 205.65,1074.25 206.78,1072.31 207.91,1070.13 209.04,1067.72 210.17,1065.07 211.3,1062.2 212.44,1059.11 213.57,1055.8 214.7,1052.27 215.83,1048.54 216.96,1044.61 218.09,1040.49 219.22,1036.18 220.35,1031.68 221.49,1027.02 222.62,1022.19 223.75,1017.2 224.88,1012.05 226.01,1006.77 227.14,1001.36 228.27,995.81 229.4,990.16 230.53,984.39 231.67,978.53 232.8,972.58 233.93,966.55 235.06,960.46 236.19,954.3 237.32,948.09 238.45,941.85 239.58,935.57 240.72,929.28 241.85,922.97 242.98,916.67 244.11,910.38 245.24,904.1 246.37,897.86 247.5,891.66 248.63,885.52 249.77,879.43 250.9,873.41 252.03,867.47 253.16,861.63 254.29,855.88 255.42,850.24 256.55,844.72 257.68,839.32 258.82,834.06 259.95,828.94 261.08,823.97 262.21,819.17 263.34,814.53 264.47,810.06 265.6,805.78 266.73,801.68 267.86,797.79 269,794.09 270.13,790.6 271.26,787.32 272.39,784.26 273.52,781.42 274.65,778.81 275.78,776.44 276.91,774.3 278.05,772.39 279.18,770.73 280.31,769.32 281.44,768.15 282.57,767.23 283.7,766.56 284.83,766.15 285.96,765.98 287.1,766.07 288.23,766.41 289.36,767 290.49,767.84 291.62,768.94 292.75,770.28 293.88,771.86 295.01,773.69 296.15,775.76 297.28,778.06 298.41,780.6 299.54,783.37 300.67,786.36 301.8,789.57 302.93,793 304.06,796.63 305.19,800.47 306.33,804.5 307.46,808.73 308.59,813.14 309.72,817.73 310.85,822.48 311.98,827.4 313.11,832.48 314.24,837.69 315.38,843.05 316.51,848.53 317.64,854.14 318.77,859.85 319.9,865.67 321.03,871.58 322.16,877.58 323.29,883.64 324.43,889.77 325.56,895.96 326.69,902.19 327.82,908.45 328.95,914.74 330.08,921.04 331.21,927.34 332.34,933.64 333.47,939.93 334.61,946.18 335.74,952.4 336.87,958.57 338,964.69 339.13,970.74 340.26,976.72 341.39,982.61 342.52,988.4 343.66,994.09 344.79,999.67 345.92,1005.13 347.05,1010.45 348.18,1015.64 349.31,1020.67 350.44,1025.55 351.57,1030.27 352.71,1034.82 353.84,1039.19 354.97,1043.37 356.1,1047.36 357.23,1051.15 358.36,1054.74 359.49,1058.12 360.62,1061.28 361.76,1064.22 362.89,1066.93 364.02,1069.41 365.15,1071.66 366.28,1073.68 367.41,1075.45 368.54,1076.98 369.67,1078.26 370.8,1079.29 371.94,1080.08 373.07,1080.61 374.2,1080.89 375.33,1080.92 376.46,1080.7 377.59,1080.22 378.72,1079.5 379.85,1078.52 380.99,1077.29 382.12,1075.82 383.25,1074.1 384.38,1072.15 385.51,1069.95 386.64,1067.52 387.77,1064.86 388.9,1061.97 390.04,1058.86 391.17,1055.53 392.3,1051.99 393.43,1048.25 394.56,1044.3 395.69,1040.16 396.82,1035.83 397.95,1031.33 399.09,1026.65 400.22,1021.8 401.35,1016.8 402.48,1011.65 403.61,1006.36 404.74,1000.93 405.87,995.38 407,989.71 408.13,983.94 409.27,978.07 410.4,972.12 411.53,966.08 412.66,959.98 413.79,953.82 414.92,947.61 416.05,941.36 417.18,935.08 418.32,928.79 419.45,922.48 420.58,916.18 421.71,909.89 422.84,903.62 423.97,897.38 425.1,891.19 426.23,885.04 427.37,878.96 428.5,872.95 429.63,867.02 430.76,861.18 431.89,855.44 433.02,849.81 434.15,844.29 435.28,838.91 436.42,833.66 437.55,828.55 438.68,823.6 439.81,818.8 440.94,814.18 442.07,809.72 443.2,805.46 444.33,801.38 445.46,797.49 446.6,793.81 447.73,790.34 448.86,787.07 449.99,784.03 451.12,781.21 452.25,778.62 453.38,776.26 454.51,774.14 455.65,772.26 456.78,770.62 457.91,769.22 459.04,768.07 460.17,767.17 461.3,766.52 462.43,766.13 463.56,765.98 464.7,766.09 465.83,766.45 466.96,767.06 468.09,767.92 469.22,769.03 470.35,770.39 471.48,771.99 472.61,773.84 473.75,775.93 474.88,778.25 476.01,780.81 477.14,783.59 478.27,786.6 479.4,789.83 480.53,793.27 481.66,796.92 482.79,800.77 483.93,804.83 485.06,809.07 486.19,813.49 487.32,818.09 488.45,822.86 489.58,827.79 490.71,832.87 491.84,838.1 492.98,843.47 494.11,848.96 495.24,854.58 496.37,860.3 497.5,866.13 498.63,872.04 499.76,878.04 500.89,884.12 502.03,890.25 503.16,896.44 504.29,902.67 505.42,908.94 506.55,915.23 507.68,921.53 508.81,927.83 509.94,934.13 511.07,940.41 512.21,946.66 513.34,952.88 514.47,959.05 515.6,965.16 516.73,971.21 517.86,977.18 518.99,983.06 520.12,988.85 521.26,994.53 522.39,1000.1 523.52,1005.54 524.65,1010.86 525.78,1016.03 526.91,1021.06 528.04,1025.93 529.17,1030.63 530.31,1035.16 531.44,1039.52 532.57,1043.69 533.7,1047.66 534.83,1051.44 535.96,1055.01 537.09,1058.37 538.22,1061.51 539.36,1064.43 540.49,1067.13 541.62,1069.6 542.75,1071.83 543.88,1073.82 545.01,1075.58 546.14,1077.09 547.27,1078.35 548.4,1079.36 549.54,1080.13 550.67,1080.64 551.8,1080.9 552.93,1080.91 554.06,1080.67 555.19,1080.17 556.32,1079.43 557.45,1078.43 558.59,1077.19 559.72,1075.7 560.85,1073.96 561.98,1071.98 563.11,1069.77 564.24,1067.32 565.37,1064.64 566.5,1061.74 567.64,1058.61 568.77,1055.26 569.9,1051.71 571.03,1047.95 572.16,1043.99 573.29,1039.83 574.42,1035.49 575.55,1030.97 576.69,1026.28 577.82,1021.42 578.95,1016.41 580.08,1011.25 581.21,1005.94 582.34,1000.51 583.47,994.95 584.6,989.27 585.73,983.49 586.87,977.62 588,971.65 589.13,965.61 590.26,959.51 591.39,953.34 592.52,947.13 593.65,940.88 594.78,934.6 595.92,928.3 597.05,921.99 598.18,915.69 599.31,909.4 600.44,903.13 601.57,896.9 602.7,890.71 603.83,884.57 604.97,878.49 606.1,872.49 607.23,866.56 608.36,860.73 609.49,855 610.62,849.38 611.75,843.87 612.88,838.5 614.02,833.26 615.15,828.16 616.28,823.22 617.41,818.44 618.54,813.82 619.67,809.39 620.8,805.13 621.93,801.07 623.06,797.2 624.2,793.53 625.33,790.07 626.46,786.83 627.59,783.81 628.72,781 629.85,778.43 630.98,776.09 632.11,773.99 633.25,772.12 634.38,770.5 635.51,769.12 636.64,767.99 637.77,767.11 638.9,766.48 640.03,766.11 641.16,765.98 642.3,766.11 643.43,766.48 644.56,767.12 645.69,768 646.82,769.13 647.95,770.5 649.08,772.13 650.21,773.99 651.34,776.1 652.48,778.44 653.61,781.01 654.74,783.82 655.87,786.84 657,790.09 658.13,793.55 659.26,797.21 660.39,801.08 661.53,805.15 662.66,809.4 663.79,813.84 664.92,818.45 666.05,823.24 667.18,828.18 668.31,833.27 669.44,838.51 670.58,843.89 671.71,849.39 672.84,855.02 673.97,860.75 675.1,866.58 676.23,872.51 677.36,878.51 678.49,884.59 679.63,890.73 680.76,896.92 681.89,903.16 683.02,909.42 684.15,915.71 685.28,922.02 686.41,928.32 687.54,934.62 688.67,940.9 689.81,947.15 690.94,953.36 692.07,959.53 693.2,965.63 694.33,971.67 695.46,977.64 696.59,983.51 697.72,989.29 698.86,994.96 699.99,1000.52 701.12,1005.96 702.25,1011.26 703.38,1016.43 704.51,1021.44 705.64,1026.3 706.77,1030.99 707.91,1035.51 709.04,1039.85 710.17,1044 711.3,1047.96 712.43,1051.72 713.56,1055.28 714.69,1058.62 715.82,1061.75 716.96,1064.65 718.09,1067.33 719.22,1069.78 720.35,1071.99 721.48,1073.97 722.61,1075.7 723.74,1077.19 724.87,1078.44 726,1079.43 727.14,1080.18 728.27,1080.67 729.4,1080.91 730.53,1080.9 731.66,1080.64 732.79,1080.13 733.92,1079.36 735.05,1078.34 736.19,1077.08 737.32,1075.57 738.45,1073.82 739.58,1071.82 740.71,1069.59 741.84,1067.12 742.97,1064.42 744.1,1061.5 745.24,1058.36 746.37,1055 747.5,1051.42 748.63,1047.65 749.76,1043.67 750.89,1039.5 752.02,1035.15 753.15,1030.61 754.29,1025.91 755.42,1021.04 756.55,1016.01 757.68,1010.84 758.81,1005.52 759.94,1000.08 761.07,994.51 762.2,988.83 763.33,983.04 764.47,977.16 765.6,971.19 766.73,965.14 767.86,959.03 768.99,952.86 770.12,946.64 771.25,940.39 772.38,934.11 773.52,927.81 774.65,921.51 775.78,915.2 776.91,908.92 778.04,902.65 779.17,896.42 780.3,890.23 781.43,884.1 782.57,878.02 783.7,872.02 784.83,866.11 785.96,860.28 787.09,854.56 788.22,848.94 789.35,843.45 790.48,838.09 791.62,832.86 792.75,827.77 793.88,822.84 795.01,818.07 796.14,813.47 797.27,809.05 798.4,804.81 799.53,800.76 800.66,796.91 801.8,793.26 802.93,789.82 804.06,786.59 805.19,783.58 806.32,780.8 807.45,778.24 808.58,775.92 809.71,773.83 810.85,771.99 811.98,770.38 813.11,769.03 814.24,767.92 815.37,767.06 816.5,766.44 817.63,766.09 818.76,765.98 819.9,766.13 821.03,766.52 822.16,767.17 823.29,768.08 824.42,769.22 825.55,770.62 826.68,772.26 827.81,774.15 828.94,776.27 830.08,778.63 831.21,781.22 832.34,784.04 833.47,787.08 834.6,790.35 835.73,793.82 836.86,797.5 837.99,801.39 839.13,805.47 840.26,809.74 841.39,814.19 842.52,818.82 843.65,823.61 844.78,828.57 845.91,833.68 847.04,838.93 848.18,844.31 849.31,849.83 850.44,855.46 851.57,861.2 852.7,867.04 853.83,872.97 854.96,878.98 856.09,885.06 857.23,891.21 858.36,897.4 859.49,903.64 860.62,909.91 861.75,916.2 862.88,922.5 864.01,928.81 865.14,935.1 866.27,941.38 867.41,947.63 868.54,953.84 869.67,960 870.8,966.1 871.93,972.14 873.06,978.09 874.19,983.96 875.32,989.73 876.46,995.4 877.59,1000.95 878.72,1006.38 879.85,1011.67 880.98,1016.82 882.11,1021.82 883.24,1026.67 884.37,1031.34 885.51,1035.85 886.64,1040.18 887.77,1044.31 888.9,1048.26 890.03,1052 891.16,1055.54 892.29,1058.87 893.42,1061.98 894.56,1064.87 895.69,1067.53 896.82,1069.96 897.95,1072.15 899.08,1074.11 900.21,1075.83 901.34,1077.3 902.47,1078.52 903.6,1079.5 904.74,1080.22 905.87,1080.7 907,1080.92 908.13,1080.89 909.26,1080.61 910.39,1080.08 911.52,1079.29 912.65,1078.26 913.79,1076.97 914.92,1075.44 916.05,1073.67 917.18,1071.66 918.31,1069.41 919.44,1066.92 920.57,1064.21 921.7,1061.27 922.84,1058.1 923.97,1054.73 925.1,1051.14 926.23,1047.35 927.36,1043.36 928.49,1039.17 929.62,1034.8 930.75,1030.26 931.89,1025.54 933.02,1020.66 934.15,1015.62 935.28,1010.43 936.41,1005.11 937.54,999.65 938.67,994.07 939.8,988.38 940.93,982.59 942.07,976.7 943.2,970.72 944.33,964.67 945.46,958.55 946.59,952.38 947.72,946.16 948.85,939.9 949.98,933.62 951.12,927.32 952.25,921.02 953.38,914.72 954.51,908.43 955.64,902.17 956.77,895.94 957.9,889.75 959.03,883.62 960.17,877.56 961.3,871.56 962.43,865.65 963.56,859.83 964.69,854.12 965.82,848.51 966.95,843.03 968.08,837.68 969.21,832.46 970.35,827.39 971.48,822.47 972.61,817.71 973.74,813.13 974.87,808.72 976,804.49 977.13,800.46 978.26,796.62 979.4,792.98 980.53,789.56 981.66,786.35 982.79,783.36 983.92,780.59 985.05,778.05 986.18,775.75 987.31,773.68 988.45,771.85 989.58,770.27 990.71,768.93 991.84,767.84 992.97,767 994.1,766.41 995.23,766.07 996.36,765.98 997.5,766.15 998.63,766.57 999.76,767.24 1000.89,768.16 1002.02,769.32 1003.15,770.74 1004.28,772.4 1005.41,774.3 1006.54,776.45 1007.68,778.82 1008.81,781.43 1009.94,784.27 1011.07,787.33 1012.2,790.61 1013.33,794.1 1014.46,797.8 1015.59,801.7 1016.73,805.79 1017.86,810.08 1018.99,814.54 1020.12,819.18 1021.25,823.99 1022.38,828.96 1023.51,834.08 1024.64,839.34 1025.78,844.73 1026.91,850.26 1028.04,855.9 1029.17,861.65 1030.3,867.49 1031.43,873.43 1032.56,879.45 1033.69,885.54 1034.83,891.68 1035.96,897.88 1037.09,904.13 1038.22,910.4 1039.35,916.69 1040.48,922.99 1041.61,929.3 1042.74,935.59 1043.87,941.87 1045.01,948.11 1046.14,954.32 1047.27,960.48 1048.4,966.57 1049.53,972.6 1050.66,978.55 1051.79,984.41 1052.92,990.18 1054.06,995.83 1055.19,1001.37 1056.32,1006.79 1057.45,1012.07 1058.58,1017.21 1059.71,1022.2 1060.84,1027.03 1061.97,1031.7 1063.11,1036.19 1064.24,1040.5 1065.37,1044.63 1066.5,1048.56 1067.63,1052.28 1068.76,1055.81 1069.89,1059.12 1071.02,1062.21 1072.16,1065.08 1073.29,1067.72 1074.42,1070.14 1075.55,1072.31 1076.68,1074.25 1077.81,1075.95 1078.94,1077.4 1080.07,1078.61 1081.2,1079.56 1082.34,1080.27 1083.47,1080.73 1084.6,1080.93 1085.73,1080.88 1086.86,1080.58 1087.99,1080.02 1089.12,1079.22 1090.25,1078.17 1091.39,1076.86 1092.52,1075.31 1093.65,1073.52 1094.78,1071.49 1095.91,1069.22 1097.04,1066.72 1098.17,1063.99 1099.3,1061.03 1100.44,1057.85 1101.57,1054.46 1102.7,1050.85 1103.83,1047.04 1104.96,1043.04 1106.09,1038.84 1107.22,1034.46 1108.35,1029.9 1109.49,1025.17 1110.62,1020.27 1111.75,1015.22 1112.88,1010.03 1114.01,1004.69 1115.14,999.22 1116.27,993.64 1117.4,987.94 1118.53,982.13 1119.67,976.24 1120.8,970.26 1121.93,964.2 1123.06,958.08 1124.19,951.9 1125.32,945.68 1126.45,939.42 1127.58,933.13 1128.72,926.83 1129.85,920.53 1130.98,914.23 1132.11,907.94 1133.24,901.68 1134.37,895.46 1135.5,889.28 1136.63,883.15 1137.77,877.09 1138.9,871.1 1140.03,865.2 1141.16,859.39 1142.29,853.68 1143.42,848.09 1144.55,842.61 1145.68,837.27 1146.81,832.06 1147.95,827 1149.08,822.09 1150.21,817.35 1151.34,812.78 1152.47,808.38 1153.6,804.17 1154.73,800.15 1155.86,796.33 1157,792.71 1158.13,789.3 1159.26,786.11 1160.39,783.13 1161.52,780.39 1162.65,777.87 1163.78,775.58 1164.91,773.53 1166.05,771.72 1167.18,770.16 1168.31,768.84 1169.44,767.77 1170.57,766.94 1171.7,766.37 1172.83,766.05 1173.96,765.99 1175.1,766.17 1176.23,766.61 1177.36,767.3 1178.49,768.24 1179.62,769.42 1180.75,770.86 1181.88,772.54 1183.01,774.46 1184.14,776.62 1185.28,779.02 1186.41,781.64 1187.54,784.5 1188.67,787.58 1189.8,790.87 1190.93,794.38 1192.06,798.09 1193.19,802.01 1194.33,806.12"/>
</g>
</g>
<g clip-path="url(#c0)">
<g fill="none" stroke-linecap="butt" stroke-width="0.66">
<path d="M64.25,1080.94l0,-314.96"/>
<path d="M64.25,1080.94l4,0M64.25,1065.19l4,0M64.25,1049.44l4,0M64.25,1033.7l4,0M64.25,1017.95l4,0M64.25,1002.2l4,0M64.25,986.45l4,0M64.25,970.7l4,0M64.25,954.96l4,0M64.25,939.21l4,0M64.25,923.46l4,0M64.25,907.71l4,0M64.25,891.96l4,0M64.25,876.22l4,0M64.25,860.47l4,0M64.25,844.72l4,0M64.25,828.97l4,0M64.25,813.22l4,0M64.25,797.48l4,0M64.25,781.73l4,0M64.25,765.98l4,0"/>
<path d="M64.25,1080.94l8,0M64.25,1002.2l8,0M64.25,923.46l8,0M64.25,844.72l8,0M64.25,765.98l8,0"/>
</g>
<g fill="none" stroke-width="0.1">
<path d="m34.26,1081.44l11.7,0l0,1.47l-11.7,0l0,-1.47m16.07,-3.77l-1.02,0l0,-2.42c0.65,-0.34,1.3,-0.61,1.96,-0.79c0.66,-0.18,1.3,-0.27,1.94,-0.27c1.41,0,2.53,0.34,3.35,1.03c0.82,0.68,1.23,1.62,1.23,2.8c0,1.33,-0.93,2.92,-2.79,4.78c-0.14,0.13,-0.25,0.24,-0.32,0.32l-3.44,3.44l5.68,0l0,-1.68l1.06,0l0,3.17l-8.79,0l0,-0.99l4.13,-4.12c0.91,-0.91,1.56,-1.75,1.95,-2.51c0.38,-0.76,0.58,-1.56,0.58,-2.4c0,-0.91,-0.23,-1.63,-0.71,-2.15c-0.47,-0.51,-1.13,-0.77,-1.97,-0.77c-0.86,0,-1.54,0.21,-2.01,0.64c-0.47,0.43,-0.75,1.08,-0.84,1.94" fill="#000000" stroke="none" fill-opacity="1"/>
<path d="m34.26,1002.7l11.7,0l0,1.47l-11.7,0l0,-1.47m16.34,6.6l0,-0.96l2.37,0l0,-11.34l-2.74,1.77l0,-1.19l3.32,-2.15l1.26,0l0,12.91l2.37,0l0,0.96l-6.58,0" fill="#000000" stroke="none" fill-opacity="1"/>
<path d="m53.89,929.92c0.93,0,1.62,-0.51,2.09,-1.53c0.46,-1.02,0.69,-2.56,0.69,-4.62c0,-2.06,-0.23,-3.61,-0.69,-4.63c-0.46,-1.02,-1.16,-1.53,-2.09,-1.53c-0.93,0,-1.62,0.51,-2.09,1.53c-0.46,1.02,-0.69,2.56,-0.69,4.63c0,2.06,0.23,3.6,0.69,4.62c0.46,1.02,1.15,1.53,2.09,1.53m0,0.9c-1.47,0,-2.63,-0.62,-3.46,-1.86c-0.83,-1.24,-1.24,-2.97,-1.24,-5.2c0,-2.23,0.41,-3.97,1.24,-5.21c0.83,-1.24,1.98,-1.86,3.46,-1.86c1.48,0,2.64,0.62,3.47,1.86c0.82,1.24,1.24,2.97,1.24,5.21c0,2.22,-0.41,3.96,-1.24,5.2c-0.82,1.24,-1.98,1.86,-3.47,1.86" fill="#000000" stroke="none" fill-opacity="1"/>
<path d="m50.61,851.82l0,-0.96l2.37,0l0,-11.34l-2.74,1.77l0,-1.19l3.32,-2.15l1.26,0l0,12.91l2.37,0l0,0.96l-6.58,0" fill="#000000" stroke="none" fill-opacity="1"/>
<path d="m50.34,774.18l-1.02,0l0,-2.42c0.65,-0.34,1.3,-0.61,1.96,-0.79c0.66,-0.18,1.3,-0.27,1.94,-0.27c1.41,0,2.53,0.34,3.35,1.03c0.82,0.68,1.23,1.62,1.23,2.8c0,1.33,-0.93,2.92,-2.79,4.78c-0.14,0.13,-0.25,0.24,-0.32,0.32l-3.44,3.44l5.68,0l0,-1.68l1.06,0l0,3.17l-8.79,0l0,-0.99l4.13,-4.12c0.91,-0.91,1.56,-1.75,1.95,-2.51c0.38,-0.76,0.58,-1.56,0.58,-2.4c0,-0.91,-0.23,-1.63,-0.71,-2.15c-0.47,-0.51,-1.13,-0.77,-1.97,-0.77c-0.86,0,-1.54,0.21,-2.01,0.64c-0.47,0.43,-0.75,1.08,-0.84,1.94" fill="#000000" stroke="none" fill-opacity="1"/>
</g>
<g fill="none" stroke-linecap="butt" stroke-width="0.66">
<path d="M64.25,1080.94l1130.07,0"/>
<path d="M64.25,1080.94l0,-4M120.75,1080.94l0,-4M177.25,1080.94l0,-4M233.76,1080.94l0,-4M290.26,1080.94l0,-4M346.77,1080.94l0,-4M403.27,1080.94l0,-4M459.77,1080.94l0,-4M516.28,1080.94l0,-4M572.78,1080.94l0,-4M629.29,1080.94l0,-4M685.79,1080.94l0,-4M742.29,1080.94l0,-4M798.8,1080.94l0,-4M855.3,1080.94l0,-4M911.81,1080.94l0,-4M968.31,1080.94l0,-4M1024.81,1080.94l0,-4M1081.32,1080.94l0,-4M1137.82,1080.94l0,-4M1194.33,1080.94l0,-4"/>
<path d="M64.25,1080.94l0,-8M290.26,1080.94l0,-8M516.28,1080.94l0,-8M742.29,1080.94l0,-8M968.31,1080.94l0,-8M1194.33,1080.94l0,-8"/>
</g>
<g fill="none" stroke-width="0.1">
<path d="m64.24,1102.1c0.93,0,1.62,-0.51,2.09,-1.53c0.46,-1.02,0.69,-2.56,0.69,-4.62c0,-2.06,-0.23,-3.61,-0.69,-4.63c-0.46,-1.02,-1.16,-1.53,-2.09,-1.53c-0.93,0,-1.62,0.51,-2.09,1.53c-0.46,1.02,-0.69,2.56,-0.69,4.63c0,2.06,0.23,3.6,0.69,4.62c0.46,1.02,1.15,1.53,2.09,1.53m0,0.9c-1.47,0,-2.63,-0.62,-3.46,-1.86c-0.83,-1.24,-1.24,-2.97,-1.24,-5.2c0,-2.23,0.41,-3.97,1.24,-5.21c0.83,-1.24,1.98,-1.86,3.46,-1.86c1.48,0,2.64,0.62,3.47,1.86c0.82,1.24,1.24,2.97,1.24,5.21c0,2.22,-0.41,3.96,-1.24,5.2c-0.82,1.24,-1.98,1.86,-3.47,1.86" fill="#000000" stroke="none" fill-opacity="1"/>
<path d="m281.34,1102.1c0.93,0,1.62,-0.51,2.09,-1.53c0.46,-1.02,0.69,-2.56,0.69,-4.62c0,-2.06,-0.23,-3.61,-0.69,-4.63c-0.46,-1.02,-1.16,-1.53,-2.09,-1.53c-0.93,0,-1.62,0.51,-2.09,1.53c-0.46,1.02,-0.69,2.56,-0.69,4.63c0,2.06,0.23,3.6,0.69,4.62c0.46,1.02,1.15,1.53,2.09,1.53m0,0.9c-1.47,0,-2.63,-0.62,-3.46,-1.86c-0.83,-1.24,-1.24,-2.97,-1.24,-5.2c0,-2.23,0.41,-3.97,1.24,-5.21c0.83,-1.24,1.98,-1.86,3.46,-1.86c1.48,0,2.64,0.62,3.47,1.86c0.82,1.24,1.24,2.97,1.24,5.21c0,2.22,-0.41,3.96,-1.24,5.2c-0.82,1.24,-1.98,1.86,-3.47,1.86m6.62,1.55c0.57,-0.41,0.99,-0.91,1.26,-1.48c0.26,-0.56,0.4,-1.25,0.4,-2.06l0,-0.33l1.79,0c-0.04,1.04,-0.29,1.93,-0.73,2.68c-0.44,0.74,-1.1,1.39,-1.99,1.93l-0.73,-0.72m7.66,-12.19l-1.02,0l0,-2.42c0.65,-0.34,1.3,-0.61,1.96,-0.79c0.66,-0.18,1.3,-0.27,1.94,-0.27c1.41,0,2.53,0.34,3.35,1.03c0.82,0.68,1.23,1.62,1.23,2.8c0,1.33,-0.93,2.92,-2.79,4.78c-0.14,0.13,-0.25,0.24,-0.32,0.32l-3.44,3.44l5.68,0l0,-1.68l1.06,0l0,3.17l-8.79,0l0,-0.99l4.13,-4.12c0.91,-0.91,1.56,-1.75,1.95,-2.51c0.38,-0.76,0.58,-1.56,0.58,-2.4c0,-0.91,-0.23,-1.63,-0.71,-2.15c-0.47,-0.51,-1.13,-0.77,-1.97,-0.77c-0.86,0,-1.54,0.21,-2.01,0.64c-0.47,0.43,-0.75,1.08,-0.84,1.94" fill="#000000" stroke="none" fill-opacity="1"/>
<path d="m507.35,1102.1c0.93,0,1.62,-0.51,2.09,-1.53c0.46,-1.02,0.69,-2.56,0.69,-4.62c0,-2.06,-0.23,-3.61,-0.69,-4.63c-0.46,-1.02,-1.16,-1.53,-2.09,-1.53c-0.93,0,-1.62,0.51,-2.09,1.53c-0.46,1.02,-0.69,2.56,-0.69,4.63c0,2.06,0.23,3.6,0.69,4.62c0.46,1.02,1.15,1.53,2.09,1.53m0,0.9c-1.47,0,-2.63,-0.62,-3.46,-1.86c-0.83,-1.24,-1.24,-2.97,-1.24,-5.2c0,-2.23,0.41,-3.97,1.24,-5.21c0.83,-1.24,1.98,-1.86,3.46,-1.86c1.48,0,2.64,0.62,3.47,1.86c0.82,1.24,1.24,2.97,1.24,5.21c0,2.22,-0.41,3.96,-1.24,5.2c-0.82,1.24,-1.98,1.86,-3.47,1.86m6.62,1.55c0.57,-0.41,0.99,-0.91,1.26,-1.48c0.26,-0.56,0.4,-1.25,0.4,-2.06l0,-0.33l1.79,0c-0.04,1.04,-0.29,1.93,-0.73,2.68c-0.44,0.74,-1.1,1.39,-1.99,1.93l-0.73,-0.72m11.79,-6.43l0,-7.25l-4.65,7.25l4.65,0m4.01,4.62l-6.2,0l0,-0.96l2.19,0l0,-2.67l-5.95,0l0,-0.99l5.97,-9.24l1.8,0l0,9.25l2.6,0l0,0.97l-2.6,0l0,2.67l2.19,0l0,0.96" fill="#000000" stroke="none" fill-opacity="1"/>
<path d="m733.37,1102.1c0.93,0,1.62,-0.51,2.09,-1.53c0.46,-1.02,0.69,-2.56,0.69,-4.62c0,-2.06,-0.23,-3.61,-0.69,-4.63c-0.46,-1.02,-1.16,-1.53,-2.09,-1.53c-0.93,0,-1.62,0.51,-2.09,1.53c-0.46,1.02,-0.69,2.56,-0.69,4.63c0,2.06,0.23,3.6,0.69,4.62c0.46,1.02,1.15,1.53,2.09,1.53m0,0.9c-1.47,0,-2.63,-0.62,-3.46,-1.86c-0.83,-1.24,-1.24,-2.97,-1.24,-5.2c0,-2.23,0.41,-3.97,1.24,-5.21c0.83,-1.24,1.98,-1.86,3.46,-1.86c1.48,0,2.64,0.62,3.47,1.86c0.82,1.24,1.24,2.97,1.24,5.21c0,2.22,-0.41,3.96,-1.24,5.2c-0.82,1.24,-1.98,1.86,-3.47,1.86m6.62,1.55c0.57,-0.41,0.99,-0.91,1.26,-1.48c0.26,-0.56,0.4,-1.25,0.4,-2.06l0,-0.33l1.79,0c-0.04,1.04,-0.29,1.93,-0.73,2.68c-0.44,0.74,-1.1,1.39,-1.99,1.93l-0.73,-0.72m11.38,-2.45c0.85,0,1.51,-0.31,1.98,-0.94c0.46,-0.63,0.69,-1.53,0.69,-2.71c0,-1.18,-0.23,-2.08,-0.69,-2.71c-0.46,-0.63,-1.12,-0.94,-1.98,-0.94c-0.86,0,-1.53,0.3,-1.98,0.91c-0.45,0.6,-0.68,1.48,-0.68,2.63c0,1.21,0.23,2.14,0.69,2.79c0.46,0.65,1.12,0.97,1.98,0.97m-2.97,-6.86c0.41,-0.45,0.88,-0.79,1.4,-1.02c0.52,-0.22,1.11,-0.33,1.77,-0.33c1.35,0,2.43,0.4,3.21,1.22c0.78,0.81,1.18,1.92,1.18,3.34c0,1.38,-0.42,2.48,-1.27,3.31c-0.84,0.83,-1.98,1.24,-3.4,1.24c-1.54,0,-2.72,-0.57,-3.55,-1.72c-0.82,-1.14,-1.24,-2.78,-1.24,-4.91c0,-2.38,0.48,-4.23,1.46,-5.54c0.97,-1.3,2.36,-1.96,4.14,-1.96c0.48,0,0.98,0.04,1.51,0.13c0.52,0.09,1.07,0.22,1.62,0.41l0,2.24l-1.03,0c-0.07,-0.61,-0.3,-1.08,-0.7,-1.4c-0.39,-0.32,-0.92,-0.48,-1.59,-0.48c-1.18,0,-2.06,0.44,-2.63,1.34c-0.57,0.89,-0.87,2.27,-0.89,4.12" fill="#000000" stroke="none" fill-opacity="1"/>
<path d="m959.38,1102.1c0.93,0,1.62,-0.51,2.09,-1.53c0.46,-1.02,0.69,-2.56,0.69,-4.62c0,-2.06,-0.23,-3.61,-0.69,-4.63c-0.46,-1.02,-1.16,-1.53,-2.09,-1.53c-0.93,0,-1.62,0.51,-2.09,1.53c-0.46,1.02,-0.69,2.56,-0.69,4.63c0,2.06,0.23,3.6,0.69,4.62c0.46,1.02,1.15,1.53,2.09,1.53m0,0.9c-1.47,0,-2.63,-0.62,-3.46,-1.86c-0.83,-1.24,-1.24,-2.97,-1.24,-5.2c0,-2.23,0.41,-3.97,1.24,-5.21c0.83,-1.24,1.98,-1.86,3.46,-1.86c1.48,0,2.64,0.62,3.47,1.86c0.82,1.24,1.24,2.97,1.24,5.21c0,2.22,-0.41,3.96,-1.24,5.2c-0.82,1.24,-1.98,1.86,-3.47,1.86m6.62,1.55c0.57,-0.41,0.99,-0.91,1.26,-1.48c0.26,-0.56,0.4,-1.25,0.4,-2.06l0,-0.33l1.79,0c-0.04,1.04,-0.29,1.93,-0.73,2.68c-0.44,0.74,-1.1,1.39,-1.99,1.93l-0.73,-0.72m13.97,-5.54c0,-0.97,-0.24,-1.73,-0.72,-2.26c-0.48,-0.53,-1.16,-0.8,-2.04,-0.8c-0.87,0,-1.55,0.26,-2.03,0.8c-0.48,0.53,-0.72,1.29,-0.72,2.26c0,0.98,0.24,1.73,0.72,2.27c0.48,0.53,1.16,0.8,2.03,0.8c0.87,0,1.55,-0.26,2.04,-0.8c0.48,-0.53,0.72,-1.29,0.72,-2.27m-0.37,-6.62c0,-0.82,-0.2,-1.47,-0.62,-1.93c-0.41,-0.46,-1,-0.69,-1.76,-0.69c-0.74,0,-1.33,0.23,-1.75,0.69c-0.42,0.46,-0.63,1.1,-0.63,1.93c0,0.83,0.21,1.48,0.63,1.94c0.42,0.46,1,0.69,1.75,0.69c0.75,0,1.34,-0.23,1.76,-0.69c0.41,-0.46,0.62,-1.11,0.62,-1.94m-0.98,3.08c1.03,0.14,1.84,0.52,2.42,1.14c0.57,0.62,0.86,1.41,0.86,2.38c0,1.27,-0.4,2.26,-1.21,2.95c-0.8,0.69,-1.96,1.03,-3.47,1.03c-1.5,0,-2.66,-0.34,-3.47,-1.03c-0.81,-0.69,-1.21,-1.67,-1.21,-2.95c0,-0.96,0.28,-1.76,0.86,-2.38c0.57,-0.62,1.38,-1,2.42,-1.14c-0.91,-0.16,-1.62,-0.51,-2.11,-1.04c-0.49,-0.53,-0.73,-1.21,-0.73,-2.04c0,-1.09,0.37,-1.95,1.13,-2.58c0.75,-0.63,1.79,-0.94,3.11,-0.94c1.32,0,2.35,0.31,3.11,0.94c0.75,0.63,1.13,1.49,1.13,2.58c0,0.82,-0.24,1.5,-0.73,2.04c-0.49,0.53,-1.19,0.88,-2.1,1.04" fill="#000000" stroke="none" fill-opacity="1"/>
<path d="m1191.03,1102.74l0,-0.96l2.37,0l0,-11.34l-2.74,1.77l0,-1.19l3.32,-2.15l1.26,0l0,12.91l2.37,0l0,0.96l-6.58,0" fill="#000000" stroke="none" fill-opacity="1"/>
</g>
<g fill="none" stroke-linecap="butt" stroke-width="0.66">
<path d="M1194.33,1080.94l0,-314.96"/>
<path d="M1194.33,1080.94l-4,0M1194.33,1065.19l-4,0M1194.33,1049.44l-4,0M1194.33,1033.7l-4,0M1194.33,1017.95l-4,0M1194.33,1002.2l-4,0M1194.33,986.45l-4,0M1194.33,970.7l-4,0M1194.33,954.96l-4,0M1194.33,939.21l-4,0M1194.33,923.46l-4,0M1194.33,907.71l-4,0M1194.33,891.96l-4,0M1194.33,876.22l-4,0M1194.33,860.47l-4,0M1194.33,844.72l-4,0M1194.33,828.97l-4,0M1194.33,813.22l-4,0M1194.33,797.48l-4,0M1194.33,781.73l-4,0M1194.33,765.98l-4,0"/>
<path d="M1194.33,1080.94l-8,0M1194.33,1002.2l-8,0M1194.33,923.46l-8,0M1194.33,844.72l-8,0M1194.33,765.98l-8,0"/>
<path d="M64.25,765.98l1130.07,0"/>
<path d="M64.25,765.98l0,4M120.75,765.98l0,4M177.25,765.98l0,4M233.76,765.98l0,4M290.26,765.98l0,4M346.77,765.98l0,4M403.27,765.98l0,4M459.77,765.98l0,4M516.28,765.98l0,4M572.78,765.98l0,4M629.29,765.98l0,4M685.79,765.98l0,4M742.29,765.98l0,4M798.8,765.98l0,4M855.3,765.98l0,4M911.81,765.98l0,4M968.31,765.98l0,4M1024.81,765.98l0,4M1081.32,765.98l0,4M1137.82,765.98l0,4M1194.33,765.98l0,4"/>
<path d="M64.25,765.98l0,8M290.26,765.98l0,8M516.28,765.98l0,8M742.29,765.98l0,8M968.31,765.98l0,8M1194.33,765.98l0,8"/>
</g>
</g>
</g>
</svg>
