<?xml version="1.0" standalone="no"?>
<!DOCTYPE svg PUBLIC "-//W3C//DTD SVG 1.1//EN"
  "http://www.w3.org/Graphics/SVG/1.1/DTD/svg11.dtd">
<svg width="1209.44px" height="566.92px" version="1.1"
    xmlns="http://www.w3.org/2000/svg"
    xmlns:xlink="http://www.w3.org/1999/xlink">
<desc>Veusz output document</desc>
<defs>
<clipPath id="c0">
<path d="m0,0l1209.44,0l0,566.92l-1209.44,0l0,-566.92"/>
</clipPath>
<clipPath id="c1">
<path d="m66.25,57.52l1135.63,0l0,445.15l-1135.63,0l0,-445.15"/>
</clipPath>
</defs>
<g stroke-linejoin="bevel" stroke-linecap="square" stroke="#000000" fill-rule="evenodd">
<g clip-path="url(#c0)">
<g fill="#ffffff" stroke-width="0.66">
<path d="m66.25,57.52l1135.63,0l0,445.15l-1135.63,0l0,-445.15"/>
</g>
<g fill="#000000" stroke-dasharray="10.66,5.33" stroke-linecap="butt" stroke-width="2.66">
<g transform="matrix(0 -1 1 0 624.98 280.1)">
<path d="M0,0l222.57,0"/>
</g>
</g>
<g fill="#000000" stroke-width="0.66">
<g transform="translate(624.98,57.52)">
<path d="m5.67,0c0,3.07,-2.54,5.56,-5.67,5.56c-3.13,0,-5.67,-2.49,-5.67,-5.56c0,-3.07,2.54,-5.56,5.67,-5.56c3.13,0,5.67,2.49,5.67,5.56"/>
</g>
</g>
<g fill="none" stroke-width="0.1">
<path d="m635.54,44.12l5,0l-2.5,-6.48l-2.5,6.48m-3.85,4.93l0,-0.96l1.19,0l4.85,-12.66l1.53,0l4.86,12.66l1.34,0l0,0.96l-4.95,0l0,-0.96l1.51,0l-1.14,-2.99l-5.73,0l-1.14,2.99l1.49,0l0,0.96l-3.83,0m23.3,-7.81c0.32,-0.71,0.73,-1.24,1.23,-1.61c0.5,-0.36,1.08,-0.54,1.75,-0.54c1.01,0,1.77,0.31,2.27,0.94c0.49,0.62,0.74,1.58,0.74,2.85l0,5.2l1.51,0l0,0.96l-4.65,0l0,-0.96l1.46,0l0,-5.01c0,-0.99,-0.14,-1.69,-0.43,-2.11c-0.29,-0.42,-0.77,-0.63,-1.45,-0.63c-0.74,0,-1.31,0.28,-1.71,0.84c-0.39,0.56,-0.58,1.39,-0.58,2.47l0,4.43l1.46,0l0,0.96l-4.6,0l0,-0.96l1.46,0l0,-5.07c0,-0.96,-0.14,-1.65,-0.43,-2.06c-0.29,-0.41,-0.77,-0.61,-1.45,-0.61c-0.74,0,-1.31,0.28,-1.71,0.84c-0.39,0.56,-0.58,1.39,-0.58,2.47l0,4.43l1.46,0l0,0.96l-4.65,0l0,-0.96l1.51,0l0,-7.77l-1.6,0l0,-0.95l3.28,0l0,1.72c0.31,-0.64,0.7,-1.13,1.18,-1.47c0.48,-0.34,1.02,-0.51,1.63,-0.51c0.75,0,1.38,0.18,1.89,0.56c0.5,0.37,0.84,0.9,1.01,1.59m11.87,2.48l0,0.95c0,1.16,0.22,2.05,0.67,2.67c0.44,0.61,1.09,0.91,1.95,0.91c0.85,0,1.5,-0.34,1.94,-1.03c0.44,-0.68,0.66,-1.7,0.66,-3.04c0,-1.34,-0.22,-2.35,-0.66,-3.03c-0.44,-0.68,-1.09,-1.02,-1.94,-1.02c-0.85,0,-1.5,0.3,-1.95,0.92c-0.44,0.61,-0.67,1.5,-0.67,2.66m-1.67,-3.39l-1.61,0l0,-0.97l3.29,0l0,1.51c0.32,-0.6,0.74,-1.05,1.25,-1.34c0.5,-0.28,1.13,-0.43,1.88,-0.43c1.19,0,2.16,0.47,2.92,1.41c0.75,0.94,1.13,2.17,1.13,3.69c0,1.52,-0.37,2.75,-1.13,3.7c-0.75,0.94,-1.72,1.41,-2.92,1.41c-0.74,0,-1.37,-0.14,-1.88,-0.43c-0.5,-0.28,-0.92,-0.73,-1.25,-1.34l0,4.42l1.58,0l0,0.97l-4.88,0l0,-0.97l1.61,0l0,-11.64" fill="#000000" stroke="none" fill-opacity="1"/>
</g>
<g fill="#000000" stroke-linecap="butt" stroke-width="0.66">
<g transform="translate(66.25,280.1)">
<path d="M0,0l2839.08,0"/>
</g>
</g>
</g>
<g clip-path="url(#c1)">
<g fill="none" stroke="#e41a1c" stroke-width="0.66">
<polyline fill="none" points="66.25,280.1 67.39,276.53 68.52,272.97 69.66,269.41 70.8,265.85 71.93,262.29 73.07,258.74 74.21,255.19 75.34,251.66 76.48,248.12 77.62,244.6 78.75,241.09 79.89,237.58 81.03,234.09 82.16,230.61 83.3,227.14 84.44,223.68 85.58,220.24 86.71,216.81 87.85,213.41 88.99,210.01 90.12,206.64 91.26,203.28 92.4,199.95 93.53,196.63 94.67,193.34 95.81,190.07 96.94,186.82 98.08,183.59 99.22,180.39 100.35,177.22 101.49,174.07 102.63,170.95 103.76,167.86 104.9,164.79 106.04,161.76 107.17,158.76 108.31,155.78 109.45,152.84 110.58,149.93 111.72,147.06 112.86,144.22 113.99,141.41 115.13,138.64 116.27,135.91 117.4,133.21 118.54,130.55 119.68,127.93 120.82,125.35 121.95,122.81 123.09,120.31 124.23,117.84 125.36,115.42 126.5,113.05 127.64,110.71 128.77,108.42 129.91,106.18 131.05,103.97 132.18,101.82 133.32,99.71 134.46,97.64 135.59,95.62 136.73,93.65 137.87,91.73 139,89.85 140.14,88.03 141.28,86.25 142.41,84.52 143.55,82.85 144.69,81.22 145.82,79.65 146.96,78.12 148.1,76.65 149.23,75.23 150.37,73.86 151.51,72.55 152.64,71.29 153.78,70.08 154.92,68.93 156.06,67.83 157.19,66.78 158.33,65.79 159.47,64.86 160.6,63.98 161.74,63.15 162.88,62.38 164.01,61.67 165.15,61.01 166.29,60.41 167.42,59.87 168.56,59.38 169.7,58.95 170.83,58.57 171.97,58.25 173.11,57.99 174.24,57.79 175.38,57.64 176.52,57.55 177.65,57.52 178.79,57.54 179.93,57.63 181.06,57.76 182.2,57.96 183.34,58.21 184.47,58.52 185.61,58.89 186.75,59.31 187.88,59.79 189.02,60.32 190.16,60.92 191.3,61.57 192.43,62.27 193.57,63.03 194.71,63.85 195.84,64.72 196.98,65.65 198.12,66.63 199.25,67.66 200.39,68.76 201.53,69.9 202.66,71.1 203.8,72.35 204.94,73.66 206.07,75.02 207.21,76.43 208.35,77.89 209.48,79.41 210.62,80.98 211.76,82.6 212.89,84.26 214.03,85.98 215.17,87.75 216.3,89.57 217.44,91.44 218.58,93.35 219.71,95.32 220.85,97.33 221.99,99.39 223.12,101.49 224.26,103.64 225.4,105.84 226.53,108.08 227.67,110.36 228.81,112.69 229.95,115.06 231.08,117.47 232.22,119.93 233.36,122.42 234.49,124.96 235.63,127.53 236.77,130.15 237.9,132.8 239.04,135.49 240.18,138.22 241.31,140.99 242.45,143.79 243.59,146.62 244.72,149.49 245.86,152.4 247,155.33 248.13,158.3 249.27,161.3 250.41,164.33 251.54,167.39 252.68,170.48 253.82,173.59 254.95,176.74 256.09,179.91 257.23,183.1 258.36,186.32 259.5,189.57 260.64,192.84 261.77,196.13 262.91,199.44 264.05,202.77 265.19,206.12 266.32,209.49 267.46,212.88 268.6,216.29 269.73,219.71 270.87,223.15 272.01,226.61 273.14,230.07 274.28,233.55 275.42,237.05 276.55,240.55 277.69,244.06 278.83,247.58 279.96,251.11 281.1,254.65 282.24,258.2 283.37,261.75 284.51,265.3 285.65,268.86 286.78,272.42 287.92,275.99 289.06,279.55 290.19,283.11 291.33,286.68 292.47,290.24 293.6,293.8 294.74,297.36 295.88,300.91 297.01,304.45 298.15,307.99 299.29,311.53 300.43,315.05 301.56,318.57 302.7,322.07 303.84,325.57 304.97,329.05 306.11,332.52 307.25,335.98 308.38,339.43 309.52,342.85 310.66,346.27 311.79,349.66 312.93,353.04 314.07,356.4 315.2,359.73 316.34,363.05 317.48,366.35 318.61,369.63 319.75,372.88 320.89,376.11 322.02,379.31 323.16,382.49 324.3,385.64 325.43,388.76 326.57,391.86 327.71,394.93 328.84,397.97 329.98,400.98 331.12,403.95 332.25,406.9 333.39,409.81 334.53,412.69 335.66,415.54 336.8,418.35 337.94,421.13 339.08,423.87 340.21,426.57 341.35,429.23 342.49,431.86 343.62,434.45 344.76,437 345.9,439.51 347.03,441.97 348.17,444.4 349.31,446.78 350.44,449.12 351.58,451.42 352.72,453.67 353.85,455.88 354.99,458.05 356.13,460.17 357.26,462.24 358.4,464.26 359.54,466.24 360.67,468.17 361.81,470.05 362.95,471.89 364.08,473.67 365.22,475.41 366.36,477.09 367.49,478.72 368.63,480.31 369.77,481.84 370.9,483.32 372.04,484.75 373.18,486.12 374.32,487.44 375.45,488.71 376.59,489.93 377.73,491.09 378.86,492.2 380,493.25 381.14,494.25 382.27,495.2 383.41,496.08 384.55,496.92 385.68,497.69 386.82,498.42 387.96,499.08 389.09,499.69 390.23,500.24 391.37,500.74 392.5,501.18 393.64,501.57 394.78,501.89 395.91,502.16 397.05,502.37 398.19,502.53 399.32,502.63 400.46,502.67 401.6,502.66 402.73,502.58 403.87,502.45 405.01,502.27 406.14,502.02 407.28,501.72 408.42,501.37 409.56,500.95 410.69,500.48 411.83,499.95 412.97,499.37 414.1,498.73 415.24,498.03 416.38,497.28 417.51,496.47 418.65,495.61 419.79,494.69 420.92,493.72 422.06,492.69 423.2,491.61 424.33,490.47 425.47,489.28 426.61,488.03 427.74,486.74 428.88,485.39 430.02,483.98 431.15,482.53 432.29,481.02 433.43,479.46 434.56,477.85 435.7,476.19 436.84,474.47 437.97,472.71 439.11,470.9 440.25,469.04 441.38,467.13 442.52,465.18 443.66,463.17 444.8,461.12 445.93,459.03 447.07,456.88 448.21,454.7 449.34,452.46 450.48,450.18 451.62,447.86 452.75,445.5 453.89,443.09 455.03,440.64 456.16,438.16 457.3,435.63 458.44,433.06 459.57,430.45 460.71,427.8 461.85,425.11 462.98,422.39 464.12,419.63 465.26,416.84 466.39,414.01 467.53,411.14 468.67,408.24 469.8,405.31 470.94,402.35 472.08,399.35 473.21,396.33 474.35,393.27 475.49,390.19 476.62,387.08 477.76,383.94 478.9,380.77 480.03,377.58 481.17,374.36 482.31,371.12 483.45,367.86 484.58,364.57 485.72,361.26 486.86,357.93 487.99,354.58 489.13,351.21 490.27,347.83 491.4,344.42 492.54,341 493.68,337.57 494.81,334.11 495.95,330.65 497.09,327.17 498.22,323.68 499.36,320.18 500.5,316.67 501.63,313.15 502.77,309.62 503.91,306.08 505.04,302.54 506.18,298.99 507.32,295.44 508.45,291.88 509.59,288.32 510.73,284.75 511.86,281.19 513,277.62 514.14,274.06 515.27,270.5 516.41,266.94 517.55,263.38 518.69,259.83 519.82,256.28 520.96,252.74 522.1,249.2 523.23,245.68 524.37,242.16 525.51,238.65 526.64,235.16 527.78,231.67 528.92,228.2 530.05,224.74 531.19,221.29 532.33,217.86 533.46,214.45 534.6,211.05 535.74,207.67 536.87,204.31 538.01,200.97 539.15,197.65 540.28,194.35 541.42,191.07 542.56,187.81 543.69,184.58 544.83,181.37 545.97,178.19 547.1,175.03 548.24,171.9 549.38,168.8 550.51,165.73 551.65,162.69 552.79,159.67 553.93,156.69 555.06,153.74 556.2,150.82 557.34,147.94 558.47,145.09 559.61,142.27 560.75,139.49 561.88,136.74 563.02,134.03 564.16,131.36 565.29,128.73 566.43,126.14 567.57,123.58 568.7,121.07 569.84,118.59 570.98,116.16 572.11,113.77 573.25,111.42 574.39,109.12 575.52,106.86 576.66,104.64 577.8,102.47 578.93,100.35 580.07,98.27 581.21,96.24 582.34,94.25 583.48,92.31 584.62,90.42 585.75,88.58 586.89,86.79 588.03,85.05 589.17,83.36 590.3,81.71 591.44,80.12 592.58,78.58 593.71,77.1 594.85,75.66 595.99,74.28 597.12,72.95 598.26,71.67 599.4,70.44 600.53,69.27 601.67,68.16 602.81,67.1 603.94,66.09 605.08,65.14 606.22,64.24 607.35,63.4 608.49,62.61 609.63,61.88 610.76,61.21 611.9,60.59 613.04,60.03 614.17,59.52 615.31,59.07 616.45,58.68 617.58,58.35 618.72,58.07 619.86,57.85 620.99,57.68 622.13,57.57 623.27,57.52 624.4,57.53 625.54,57.59 626.68,57.71 627.82,57.89 628.95,58.13 630.09,58.42 631.23,58.77 632.36,59.17 633.5,59.64 634.64,60.15 635.77,60.73 636.91,61.36 638.05,62.05 639.18,62.79 640.32,63.59 641.46,64.45 642.59,65.36 643.73,66.32 644.87,67.34 646,68.41 647.14,69.54 648.28,70.73 649.41,71.96 650.55,73.25 651.69,74.6 652.82,75.99 653.96,77.44 655.1,78.94 656.23,80.49 657.37,82.09 658.51,83.75 659.64,85.45 660.78,87.21 661.92,89.01 663.06,90.86 664.19,92.76 665.33,94.71 666.47,96.71 667.6,98.75 668.74,100.84 669.88,102.98 671.01,105.16 672.15,107.38 673.29,109.66 674.42,111.97 675.56,114.33 676.7,116.73 677.83,119.17 678.97,121.65 680.11,124.18 681.24,126.74 682.38,129.34 683.52,131.98 684.65,134.66 685.79,137.38 686.93,140.14 688.06,142.93 689.2,145.75 690.34,148.61 691.47,151.5 692.61,154.43 693.75,157.39 694.88,160.38 696.02,163.4 697.16,166.45 698.3,169.53 699.43,172.63 700.57,175.77 701.71,178.93 702.84,182.12 703.98,185.33 705.12,188.57 706.25,191.83 707.39,195.12 708.53,198.42 709.66,201.75 710.8,205.09 711.94,208.46 713.07,211.84 714.21,215.25 715.35,218.66 716.48,222.1 717.62,225.55 718.76,229.01 719.89,232.49 721.03,235.97 722.17,239.47 723.3,242.98 724.44,246.5 725.58,250.03 726.71,253.57 727.85,257.11 728.99,260.66 730.12,264.21 731.26,267.77 732.4,271.33 733.53,274.89 734.67,278.46 735.81,282.02 736.95,285.59 738.08,289.15 739.22,292.71 740.36,296.27 741.49,299.82 742.63,303.37 743.77,306.91 744.9,310.45 746.04,313.97 747.18,317.49 748.31,321 749.45,324.5 750.59,327.99 751.72,331.46 752.86,334.92 754,338.37 755.13,341.8 756.27,345.22 757.41,348.62 758.54,352 759.68,355.37 760.82,358.71 761.95,362.04 763.09,365.34 764.23,368.62 765.36,371.88 766.5,375.12 767.64,378.33 768.77,381.52 769.91,384.68 771.05,387.81 772.19,390.92 773.32,393.99 774.46,397.04 775.6,400.06 776.73,403.05 777.87,406 779.01,408.92 780.14,411.81 781.28,414.67 782.42,417.49 783.55,420.28 784.69,423.03 785.83,425.74 786.96,428.42 788.1,431.06 789.24,433.66 790.37,436.22 791.51,438.74 792.65,441.22 793.78,443.66 794.92,446.06 796.06,448.41 797.19,450.72 798.33,452.99 799.47,455.21 800.6,457.39 801.74,459.52 802.88,461.61 804.01,463.65 805.15,465.64 806.29,467.59 807.43,469.48 808.56,471.33 809.7,473.13 810.84,474.88 811.97,476.58 813.11,478.23 814.25,479.83 815.38,481.38 816.52,482.87 817.66,484.31 818.79,485.71 819.93,487.05 821.07,488.33 822.2,489.56 823.34,490.74 824.48,491.87 825.61,492.94 826.75,493.95 827.89,494.91 829.02,495.82 830.16,496.67 831.3,497.46 832.43,498.2 833.57,498.88 834.71,499.51 835.84,500.08 836.98,500.6 838.12,501.05 839.25,501.45 840.39,501.8 841.53,502.09 842.67,502.32 843.8,502.49 844.94,502.6 846.08,502.66 847.21,502.67 848.35,502.61 849.49,502.5 850.62,502.33 851.76,502.1 852.9,501.82 854.03,501.48 855.17,501.08 856.31,500.63 857.44,500.12 858.58,499.55 859.72,498.93 860.85,498.25 861.99,497.52 863.13,496.73 864.26,495.88 865.4,494.98 866.54,494.02 867.67,493.01 868.81,491.94 869.95,490.82 871.08,489.65 872.22,488.42 873.36,487.14 874.49,485.8 875.63,484.42 876.77,482.98 877.9,481.49 879.04,479.94 880.18,478.35 881.32,476.7 882.45,475 883.59,473.26 884.73,471.46 885.86,469.62 887,467.72 888.14,465.78 889.27,463.79 890.41,461.76 891.55,459.67 892.68,457.55 893.82,455.37 894.96,453.15 896.09,450.89 897.23,448.58 898.37,446.23 899.5,443.83 900.64,441.4 901.78,438.92 902.91,436.4 904.05,433.85 905.19,431.25 906.32,428.61 907.46,425.94 908.6,423.23 909.73,420.48 910.87,417.7 912.01,414.88 913.14,412.02 914.28,409.13 915.42,406.21 916.56,403.26 917.69,400.28 918.83,397.26 919.97,394.21 921.1,391.14 922.24,388.04 923.38,384.9 924.51,381.75 925.65,378.56 926.79,375.35 927.92,372.12 929.06,368.86 930.2,365.58 931.33,362.28 932.47,358.95 933.61,355.61 934.74,352.25 935.88,348.87 937.02,345.47 938.15,342.05 939.29,338.62 940.43,335.17 941.56,331.71 942.7,328.24 943.84,324.75 944.97,321.25 946.11,317.75 947.25,314.23 948.38,310.7 949.52,307.17 950.66,303.62 951.8,300.08 952.93,296.52 954.07,292.97 955.21,289.41 956.34,285.84 957.48,282.28 958.62,278.72 959.75,275.15 960.89,271.59 962.03,268.03 963.16,264.47 964.3,260.92 965.44,257.37 966.57,253.82 967.71,250.29 968.85,246.76 969.98,243.24 971.12,239.73 972.26,236.23 973.39,232.74 974.53,229.26 975.67,225.8 976.8,222.35 977.94,218.91 979.08,215.49 980.21,212.09 981.35,208.7 982.49,205.34 983.62,201.99 984.76,198.66 985.9,195.35 987.04,192.07 988.17,188.81 989.31,185.57 990.45,182.35 991.58,179.16 992.72,176 993.86,172.86 994.99,169.75 996.13,166.67 997.27,163.62 998.4,160.59 999.54,157.6 1000.68,154.64 1001.81,151.71 1002.95,148.82 1004.09,145.96 1005.22,143.13 1006.36,140.34 1007.5,137.58 1008.63,134.86 1009.77,132.18 1010.91,129.53 1012.04,126.93 1013.18,124.36 1014.32,121.83 1015.45,119.35 1016.59,116.9 1017.73,114.5 1018.86,112.14 1020,109.82 1021.14,107.55 1022.27,105.32 1023.41,103.13 1024.55,100.99 1025.69,98.9 1026.82,96.85 1027.96,94.85 1029.1,92.9 1030.23,91 1031.37,89.14 1032.51,87.33 1033.64,85.58 1034.78,83.87 1035.92,82.21 1037.05,80.61 1038.19,79.05 1039.33,77.55 1040.46,76.09 1041.6,74.7 1042.74,73.35 1043.87,72.05 1045.01,70.81 1046.15,69.63 1047.28,68.49 1048.42,67.42 1049.56,66.39 1050.69,65.42 1051.83,64.51 1052.97,63.65 1054.1,62.85 1055.24,62.1 1056.38,61.41 1057.51,60.77 1058.65,60.19 1059.79,59.67 1060.93,59.21 1062.06,58.8 1063.2,58.44 1064.34,58.15 1065.47,57.91 1066.61,57.73 1067.75,57.6 1068.88,57.53 1070.02,57.52 1071.16,57.57 1072.29,57.67 1073.43,57.83 1074.57,58.05 1075.7,58.32 1076.84,58.66 1077.98,59.04 1079.11,59.49 1080.25,59.99 1081.39,60.55 1082.52,61.16 1083.66,61.83 1084.8,62.56 1085.93,63.34 1087.07,64.18 1088.21,65.07 1089.34,66.02 1090.48,67.02 1091.62,68.08 1092.75,69.19 1093.89,70.36 1095.03,71.58 1096.17,72.85 1097.3,74.18 1098.44,75.56 1099.58,76.99 1100.71,78.47 1101.85,80.01 1102.99,81.6 1104.12,83.24 1105.26,84.92 1106.4,86.66 1107.53,88.45 1108.67,90.29 1109.81,92.17 1110.94,94.11 1112.08,96.09 1113.22,98.12 1114.35,100.2 1115.49,102.32 1116.63,104.49 1117.76,106.7 1118.9,108.95 1120.04,111.26 1121.17,113.6 1122.31,115.99 1123.45,118.42 1124.58,120.89 1125.72,123.4 1126.86,125.95 1127.99,128.54 1129.13,131.17 1130.27,133.84 1131.4,136.55 1132.54,139.29 1133.68,142.07 1134.82,144.88 1135.95,147.73 1137.09,150.61 1138.23,153.53 1139.36,156.48 1140.5,159.46 1141.64,162.47 1142.77,165.51 1143.91,168.58 1145.05,171.68 1146.18,174.81 1147.32,177.96 1148.46,181.14 1149.59,184.35 1150.73,187.58 1151.87,190.83 1153,194.11 1154.14,197.41 1155.28,200.73 1156.41,204.07 1157.55,207.43 1158.69,210.81 1159.82,214.2 1160.96,217.62 1162.1,221.04 1163.23,224.49 1164.37,227.95 1165.51,231.42 1166.64,234.9 1167.78,238.4 1168.92,241.91 1170.06,245.42 1171.19,248.95 1172.33,252.48 1173.47,256.02 1174.6,259.57 1175.74,263.12 1176.88,266.68 1178.01,270.24 1179.15,273.8 1180.29,277.37 1181.42,280.93 1182.56,284.49 1183.7,288.06 1184.83,291.62 1185.97,295.18 1187.11,298.73 1188.24,302.28 1189.38,305.83 1190.52,309.36 1191.65,312.89 1192.79,316.41 1193.93,319.93 1195.06,323.43 1196.2,326.92 1197.34,330.4 1198.47,333.86 1199.61,337.32 1200.75,340.75 1201.88,344.18"/>
</g>
</g>
<g clip-path="url(#c0)">
<g fill="none" stroke-linecap="butt" stroke-width="0.66">
<path d="M66.25,502.67l0,-445.15"/>
<path d="M66.25,502.67l4,0M66.25,480.41l4,0M66.25,458.16l4,0M66.25,435.9l4,0M66.25,413.64l4,0M66.25,391.38l4,0M66.25,369.13l4,0M66.25,346.87l4,0M66.25,324.61l4,0M66.25,302.35l4,0M66.25,280.1l4,0M66.25,257.84l4,0M66.25,235.58l4,0M66.25,213.32l4,0M66.25,191.07l4,0M66.25,168.81l4,0M66.25,146.55l4,0M66.25,124.29l4,0M66.25,102.03l4,0M66.25,79.78l4,0M66.25,57.52l4,0"/>
<path d="M66.25,502.67l8,0M66.25,391.38l8,0M66.25,280.1l8,0M66.25,168.81l8,0M66.25,57.52l8,0"/>
</g>
<g fill="none" stroke-width="0.1">
<g transform="matrix(0 -1 1 0 17.4 321.7)">
<path d="m3.83,-5.33l0,0.95c0,1.16,0.22,2.05,0.67,2.67c0.44,0.61,1.09,0.91,1.95,0.91c0.85,0,1.5,-0.34,1.94,-1.03c0.44,-0.68,0.66,-1.7,0.66,-3.04c0,-1.34,-0.22,-2.35,-0.66,-3.03c-0.44,-0.68,-1.09,-1.02,-1.94,-1.02c-0.85,0,-1.5,0.3,-1.95,0.92c-0.44,0.61,-0.67,1.5,-0.67,2.66m-1.67,-3.39l-1.61,0l0,-0.97l3.29,0l0,1.51c0.32,-0.6,0.74,-1.05,1.25,-1.34c0.5,-0.28,1.13,-0.43,1.88,-0.43c1.19,0,2.16,0.47,2.92,1.41c0.75,0.94,1.13,2.17,1.13,3.69c0,1.52,-0.37,2.75,-1.13,3.7c-0.75,0.94,-1.72,1.41,-2.92,1.41c-0.74,0,-1.37,-0.14,-1.88,-0.43c-0.5,-0.28,-0.92,-0.73,-1.25,-1.34l0,4.42l1.58,0l0,0.97l-4.88,0l0,-0.97l1.61,0l0,-11.64m18.75,-0.99l0,2.42l-0.96,0c-0.03,-0.48,-0.16,-0.84,-0.4,-1.07c-0.23,-0.23,-0.58,-0.35,-1.04,-0.35c-0.82,0,-1.46,0.28,-1.9,0.85c-0.44,0.57,-0.66,1.39,-0.66,2.46l0,4.43l1.94,0l0,0.96l-5.14,0l0,-0.96l1.51,0l0,-7.77l-1.6,0l0,-0.95l3.28,0l0,1.72c0.32,-0.67,0.75,-1.17,1.26,-1.5c0.51,-0.32,1.14,-0.48,1.88,-0.48c0.27,0,0.56,0.02,0.86,0.06c0.3,0.04,0.61,0.1,0.95,0.18m10.13,5.05l-7.24,0l0,0.07c0,1.3,0.24,2.29,0.73,2.96c0.49,0.66,1.22,1,2.18,1c0.73,0,1.34,-0.19,1.81,-0.57c0.47,-0.38,0.8,-0.96,0.99,-1.72l1.35,0c-0.26,1.06,-0.76,1.86,-1.48,2.4c-0.72,0.53,-1.66,0.8,-2.84,0.8c-1.41,0,-2.55,-0.46,-3.41,-1.4c-0.86,-0.93,-1.29,-2.17,-1.29,-3.72c0,-1.53,0.42,-2.77,1.26,-3.7c0.84,-0.93,1.95,-1.4,3.33,-1.4c1.46,0,2.59,0.45,3.37,1.35c0.78,0.9,1.19,2.21,1.22,3.93m-1.98,-0.96c-0.03,-1.13,-0.27,-1.98,-0.71,-2.56c-0.44,-0.57,-1.07,-0.86,-1.9,-0.86c-0.77,0,-1.38,0.28,-1.82,0.86c-0.44,0.57,-0.71,1.43,-0.81,2.55l5.25,0m3.96,5.1l0,-2.26l0.96,0c0.02,0.72,0.25,1.26,0.68,1.62c0.42,0.35,1.06,0.53,1.9,0.53c0.75,0,1.33,-0.14,1.72,-0.42c0.39,-0.28,0.59,-0.69,0.59,-1.23c0,-0.42,-0.14,-0.76,-0.43,-1.03c-0.28,-0.26,-0.9,-0.54,-1.83,-0.84l-1.21,-0.41c-0.83,-0.26,-1.43,-0.6,-1.81,-1c-0.37,-0.4,-0.56,-0.91,-0.56,-1.53c0,-0.88,0.32,-1.58,0.97,-2.09c0.65,-0.5,1.55,-0.75,2.7,-0.75c0.51,0,1.05,0.06,1.61,0.2c0.56,0.13,1.15,0.32,1.75,0.58l0,2.11l-0.96,0c-0.02,-0.62,-0.24,-1.11,-0.65,-1.47c-0.41,-0.35,-0.97,-0.52,-1.68,-0.52c-0.7,0,-1.24,0.12,-1.6,0.37c-0.36,0.24,-0.54,0.62,-0.54,1.12c0,0.4,0.13,0.73,0.41,0.98c0.27,0.24,0.82,0.49,1.64,0.75l1.33,0.41c0.91,0.28,1.58,0.64,1.98,1.07c0.4,0.42,0.6,0.98,0.6,1.65c0,0.91,-0.35,1.64,-1.05,2.16c-0.7,0.52,-1.67,0.78,-2.9,0.78c-0.62,0,-1.23,-0.06,-1.83,-0.2c-0.59,-0.13,-1.19,-0.33,-1.78,-0.6m9.59,0l0,-2.26l0.96,0c0.02,0.72,0.25,1.26,0.68,1.62c0.42,0.35,1.06,0.53,1.9,0.53c0.75,0,1.33,-0.14,1.72,-0.42c0.39,-0.28,0.59,-0.69,0.59,-1.23c0,-0.42,-0.14,-0.76,-0.43,-1.03c-0.28,-0.26,-0.9,-0.54,-1.83,-0.84l-1.21,-0.41c-0.83,-0.26,-1.43,-0.6,-1.81,-1c-0.37,-0.4,-0.56,-0.91,-0.56,-1.53c0,-0.88,0.32,-1.58,0.97,-2.09c0.65,-0.5,1.55,-0.75,2.7,-0.75c0.51,0,1.05,0.06,1.61,0.2c0.56,0.13,1.15,0.32,1.75,0.58l0,2.11l-0.96,0c-0.02,-0.62,-0.24,-1.11,-0.65,-1.47c-0.41,-0.35,-0.97,-0.52,-1.68,-0.52c-0.7,0,-1.24,0.12,-1.6,0.37c-0.36,0.24,-0.54,0.62,-0.54,1.12c0,0.4,0.13,0.73,0.41,0.98c0.27,0.24,0.82,0.49,1.64,0.75l1.33,0.41c0.91,0.28,1.58,0.64,1.98,1.07c0.4,0.42,0.6,0.98,0.6,1.65c0,0.91,-0.35,1.64,-1.05,2.16c-0.7,0.52,-1.67,0.78,-2.9,0.78c-0.62,0,-1.23,-0.06,-1.83,-0.2c-0.59,-0.13,-1.19,-0.33,-1.78,-0.6m15.16,-9.16l3.14,0l0,8.73l1.58,0l0,0.96l-3.26,0l0,-1.71c-0.31,0.64,-0.71,1.13,-1.2,1.47c-0.49,0.33,-1.06,0.5,-1.71,0.5c-1.07,0,-1.87,-0.3,-2.37,-0.91c-0.5,-0.61,-0.76,-1.57,-0.76,-2.88l0,-5.19l-1.51,0l0,-0.97l3.2,0l0,5.65c0,1.18,0.14,1.99,0.43,2.42c0.28,0.43,0.8,0.65,1.54,0.65c0.77,0,1.37,-0.28,1.78,-0.85c0.4,-0.57,0.61,-1.4,0.61,-2.49l0,-4.41l-1.46,0l0,-0.97m14.36,-0.01l0,2.42l-0.96,0c-0.03,-0.48,-0.16,-0.84,-0.4,-1.07c-0.23,-0.23,-0.58,-0.35,-1.04,-0.35c-0.82,0,-1.46,0.28,-1.9,0.85c-0.44,0.57,-0.66,1.39,-0.66,2.46l0,4.43l1.94,0l0,0.96l-5.14,0l0,-0.96l1.51,0l0,-7.77l-1.6,0l0,-0.95l3.28,0l0,1.72c0.32,-0.67,0.75,-1.17,1.26,-1.5c0.51,-0.32,1.14,-0.48,1.88,-0.48c0.27,0,0.56,0.02,0.86,0.06c0.3,0.04,0.61,0.1,0.95,0.18m10.13,5.05l-7.24,0l0,0.07c0,1.3,0.24,2.29,0.73,2.96c0.49,0.66,1.22,1,2.18,1c0.73,0,1.34,-0.19,1.81,-0.57c0.47,-0.38,0.8,-0.96,0.99,-1.72l1.35,0c-0.26,1.06,-0.76,1.86,-1.48,2.4c-0.72,0.53,-1.66,0.8,-2.84,0.8c-1.41,0,-2.55,-0.46,-3.41,-1.4c-0.86,-0.93,-1.29,-2.17,-1.29,-3.72c0,-1.53,0.42,-2.77,1.26,-3.7c0.84,-0.93,1.95,-1.4,3.33,-1.4c1.46,0,2.59,0.45,3.37,1.35c0.78,0.9,1.19,2.21,1.22,3.93m-1.98,-0.96c-0.03,-1.13,-0.27,-1.98,-0.71,-2.56c-0.44,-0.57,-1.07,-0.86,-1.9,-0.86c-0.77,0,-1.38,0.28,-1.82,0.86c-0.44,0.57,-0.71,1.43,-0.81,2.55l5.25,0" fill="#000000" stroke="none" fill-opacity="1"/>
</g>
<path d="m36.27,503.17l11.7,0l0,1.47l-11.7,0l0,-1.47m16.34,6.6l0,-0.96l2.37,0l0,-11.34l-2.74,1.77l0,-1.19l3.32,-2.15l1.26,0l0,12.91l2.37,0l0,0.96l-6.58,0" fill="#000000" stroke="none" fill-opacity="1"/>
<path d="m18.43,391.88l11.7,0l0,1.47l-11.7,0l0,-1.47m19.62,5.96c0.93,0,1.62,-0.51,2.09,-1.53c0.46,-1.02,0.69,-2.56,0.69,-4.62c0,-2.06,-0.23,-3.61,-0.69,-4.63c-0.46,-1.02,-1.16,-1.53,-2.09,-1.53c-0.93,0,-1.62,0.51,-2.09,1.53c-0.46,1.02,-0.69,2.56,-0.69,4.63c0,2.06,0.23,3.6,0.69,4.62c0.46,1.02,1.15,1.53,2.09,1.53m0,0.9c-1.47,0,-2.63,-0.62,-3.46,-1.86c-0.83,-1.24,-1.24,-2.97,-1.24,-5.2c0,-2.23,0.41,-3.97,1.24,-5.21c0.83,-1.24,1.98,-1.86,3.46,-1.86c1.48,0,2.64,0.62,3.47,1.86c0.82,1.24,1.24,2.97,1.24,5.21c0,2.22,-0.41,3.96,-1.24,5.2c-0.82,1.24,-1.98,1.86,-3.47,1.86m6.62,1.55c0.57,-0.41,0.99,-0.91,1.26,-1.48c0.26,-0.56,0.4,-1.25,0.4,-2.06l0,-0.33l1.79,0c-0.04,1.04,-0.29,1.93,-0.73,2.68c-0.44,0.74,-1.1,1.39,-1.99,1.93l-0.73,-0.72m14.67,-15.45l0,1.49l-6.24,0l0,3.9c0.31,-0.21,0.68,-0.38,1.1,-0.49c0.42,-0.1,0.89,-0.16,1.42,-0.16c1.47,0,2.63,0.4,3.48,1.22c0.85,0.81,1.27,1.92,1.27,3.34c0,1.44,-0.43,2.56,-1.29,3.37c-0.86,0.8,-2.07,1.2,-3.62,1.2c-0.62,0,-1.26,-0.07,-1.92,-0.22c-0.65,-0.15,-1.32,-0.38,-2.01,-0.69l0,-2.64l1.03,0c0.05,0.86,0.33,1.52,0.82,1.98c0.49,0.45,1.19,0.68,2.08,0.68c0.96,0,1.7,-0.31,2.21,-0.95c0.51,-0.63,0.77,-1.54,0.77,-2.72c0,-1.18,-0.25,-2.08,-0.77,-2.71c-0.51,-0.62,-1.25,-0.94,-2.22,-0.94c-0.54,0,-1.03,0.09,-1.44,0.29c-0.41,0.19,-0.78,0.49,-1.1,0.9l-0.78,0l0,-6.84l7.21,0" fill="#000000" stroke="none" fill-opacity="1"/>
<path d="m55.9,286.56c0.93,0,1.62,-0.51,2.09,-1.53c0.46,-1.02,0.69,-2.56,0.69,-4.62c0,-2.06,-0.23,-3.61,-0.69,-4.63c-0.46,-1.02,-1.16,-1.53,-2.09,-1.53c-0.93,0,-1.62,0.51,-2.09,1.53c-0.46,1.02,-0.69,2.56,-0.69,4.63c0,2.06,0.23,3.6,0.69,4.62c0.46,1.02,1.15,1.53,2.09,1.53m0,0.9c-1.47,0,-2.63,-0.62,-3.46,-1.86c-0.83,-1.24,-1.24,-2.97,-1.24,-5.2c0,-2.23,0.41,-3.97,1.24,-5.21c0.83,-1.24,1.98,-1.86,3.46,-1.86c1.48,0,2.64,0.62,3.47,1.86c0.82,1.24,1.24,2.97,1.24,5.21c0,2.22,-0.41,3.96,-1.24,5.2c-0.82,1.24,-1.98,1.86,-3.47,1.86" fill="#000000" stroke="none" fill-opacity="1"/>
<path d="m38.06,175.27c0.93,0,1.62,-0.51,2.09,-1.53c0.46,-1.02,0.69,-2.56,0.69,-4.62c0,-2.06,-0.23,-3.61,-0.69,-4.63c-0.46,-1.02,-1.16,-1.53,-2.09,-1.53c-0.93,0,-1.62,0.51,-2.09,1.53c-0.46,1.02,-0.69,2.56,-0.69,4.63c0,2.06,0.23,3.6,0.69,4.62c0.46,1.02,1.15,1.53,2.09,1.53m0,0.9c-1.47,0,-2.63,-0.62,-3.46,-1.86c-0.83,-1.24,-1.24,-2.97,-1.24,-5.2c0,-2.23,0.41,-3.97,1.24,-5.21c0.83,-1.24,1.98,-1.86,3.46,-1.86c1.48,0,2.64,0.62,3.47,1.86c0.82,1.24,1.24,2.97,1.24,5.21c0,2.22,-0.41,3.96,-1.24,5.2c-0.82,1.24,-1.98,1.86,-3.47,1.86m6.62,1.55c0.57,-0.41,0.99,-0.91,1.26,-1.48c0.26,-0.56,0.4,-1.25,0.4,-2.06l0,-0.33l1.79,0c-0.04,1.04,-0.29,1.93,-0.73,2.68c-0.44,0.74,-1.1,1.39,-1.99,1.93l-0.73,-0.72m14.67,-15.45l0,1.49l-6.24,0l0,3.9c0.31,-0.21,0.68,-0.38,1.1,-0.49c0.42,-0.1,0.89,-0.16,1.42,-0.16c1.47,0,2.63,0.4,3.48,1.22c0.85,0.81,1.27,1.92,1.27,3.34c0,1.44,-0.43,2.56,-1.29,3.37c-0.86,0.8,-2.07,1.2,-3.62,1.2c-0.62,0,-1.26,-0.07,-1.92,-0.22c-0.65,-0.15,-1.32,-0.38,-2.01,-0.69l0,-2.64l1.03,0c0.05,0.86,0.33,1.52,0.82,1.98c0.49,0.45,1.19,0.68,2.08,0.68c0.96,0,1.7,-0.31,2.21,-0.95c0.51,-0.63,0.77,-1.54,0.77,-2.72c0,-1.18,-0.25,-2.08,-0.77,-2.71c-0.51,-0.62,-1.25,-0.94,-2.22,-0.94c-0.54,0,-1.03,0.09,-1.44,0.29c-0.41,0.19,-0.78,0.49,-1.1,0.9l-0.78,0l0,-6.84l7.21,0" fill="#000000" stroke="none" fill-opacity="1"/>
<path d="m52.61,64.62l0,-0.96l2.37,0l0,-11.34l-2.74,1.77l0,-1.19l3.32,-2.15l1.26,0l0,12.91l2.37,0l0,0.96l-6.58,0" fill="#000000" stroke="none" fill-opacity="1"/>
</g>
<g fill="none" stroke-linecap="butt" stroke-width="0.66">
<path d="M66.25,502.67l1135.63,0"/>
<path d="M66.25,502.67l0,-4M123.03,502.67l0,-4M179.81,502.67l0,-4M236.6,502.67l0,-4M293.38,502.67l0,-4M350.16,502.67l0,-4M406.94,502.67l0,-4M463.72,502.67l0,-4M520.5,502.67l0,-4M577.29,502.67l0,-4M634.07,502.67l0,-4M690.85,502.67l0,-4M747.63,502.67l0,-4M804.41,502.67l0,-4M861.19,502.67l0,-4M917.98,502.67l0,-4M974.76,502.67l0,-4M1031.54,502.67l0,-4M1088.32,502.67l0,-4M1145.1,502.67l0,-4M1201.88,502.67l0,-4"/>
<path d="M66.25,502.67l0,-8M293.38,502.67l0,-8M520.5,502.67l0,-8M747.63,502.67l0,-8M974.76,502.67l0,-8M1201.88,502.67l0,-8"/>
</g>
<g fill="none" stroke-width="0.1">
<path d="m614.94,524.54l-1.47,0l0,-0.97l1.47,0l0,-3.01l1.69,0l0,3.01l3.15,0l0,0.97l-3.15,0l0,6.16c0,0.82,0.07,1.34,0.23,1.57c0.15,0.23,0.45,0.34,0.87,0.34c0.43,0,0.75,-0.12,0.95,-0.38c0.2,-0.25,0.3,-0.67,0.32,-1.25l1.26,0c-0.04,0.88,-0.28,1.52,-0.72,1.93c-0.43,0.4,-1.08,0.61,-1.97,0.61c-0.96,0,-1.65,-0.21,-2.05,-0.64c-0.4,-0.42,-0.6,-1.15,-0.6,-2.18l0,-6.16m7.31,-3.98c0,-0.28,0.1,-0.52,0.3,-0.73c0.2,-0.2,0.44,-0.31,0.73,-0.31c0.28,0,0.52,0.1,0.72,0.31c0.2,0.2,0.3,0.45,0.3,0.73c0,0.28,-0.1,0.52,-0.3,0.72c-0.2,0.2,-0.44,0.3,-0.73,0.3c-0.28,0,-0.53,-0.1,-0.73,-0.3c-0.2,-0.2,-0.3,-0.44,-0.3,-0.72m2.14,11.75l1.58,0l0,0.96l-4.87,0l0,-0.96l1.6,0l0,-7.76l-1.6,0l0,-0.97l3.28,0l0,8.73m11.7,-6.84c0.32,-0.71,0.73,-1.24,1.23,-1.61c0.5,-0.36,1.08,-0.54,1.75,-0.54c1.01,0,1.77,0.31,2.27,0.94c0.49,0.62,0.74,1.58,0.74,2.85l0,5.2l1.51,0l0,0.96l-4.65,0l0,-0.96l1.46,0l0,-5.01c0,-0.99,-0.14,-1.69,-0.43,-2.11c-0.29,-0.42,-0.77,-0.63,-1.45,-0.63c-0.74,0,-1.31,0.28,-1.71,0.84c-0.39,0.56,-0.58,1.39,-0.58,2.47l0,4.43l1.46,0l0,0.96l-4.6,0l0,-0.96l1.46,0l0,-5.07c0,-0.96,-0.14,-1.65,-0.43,-2.06c-0.29,-0.41,-0.77,-0.61,-1.45,-0.61c-0.74,0,-1.31,0.28,-1.71,0.84c-0.39,0.56,-0.58,1.39,-0.58,2.47l0,4.43l1.46,0l0,0.96l-4.65,0l0,-0.96l1.51,0l0,-7.77l-1.6,0l0,-0.95l3.28,0l0,1.72c0.31,-0.64,0.7,-1.13,1.18,-1.47c0.48,-0.34,1.02,-0.51,1.63,-0.51c0.75,0,1.38,0.18,1.89,0.56c0.5,0.37,0.84,0.9,1.01,1.59m18.17,3.14l-7.24,0l0,0.07c0,1.3,0.24,2.29,0.73,2.96c0.49,0.66,1.22,1,2.18,1c0.73,0,1.34,-0.19,1.81,-0.57c0.47,-0.38,0.8,-0.96,0.99,-1.72l1.35,0c-0.26,1.06,-0.76,1.86,-1.48,2.4c-0.72,0.53,-1.66,0.8,-2.84,0.8c-1.41,0,-2.55,-0.46,-3.41,-1.4c-0.86,-0.93,-1.29,-2.17,-1.29,-3.72c0,-1.53,0.42,-2.77,1.26,-3.7c0.84,-0.93,1.95,-1.4,3.33,-1.4c1.46,0,2.59,0.45,3.37,1.35c0.78,0.9,1.19,2.21,1.22,3.93m-1.98,-0.96c-0.03,-1.13,-0.27,-1.98,-0.71,-2.56c-0.44,-0.57,-1.07,-0.86,-1.9,-0.86c-0.77,0,-1.38,0.28,-1.82,0.86c-0.44,0.57,-0.71,1.43,-0.81,2.55l5.25,0" fill="#000000" stroke="none" fill-opacity="1"/>
</g>
<g fill="none" stroke-linecap="butt" stroke-width="0.66">
<path d="M1201.88,502.67l0,-445.15"/>
<path d="M1201.88,502.67l-4,0M1201.88,480.41l-4,0M1201.88,458.16l-4,0M1201.88,435.9l-4,0M1201.88,413.64l-4,0M1201.88,391.38l-4,0M1201.88,369.13l-4,0M1201.88,346.87l-4,0M1201.88,324.61l-4,0M1201.88,302.35l-4,0M1201.88,280.1l-4,0M1201.88,257.84l-4,0M1201.88,235.58l-4,0M1201.88,213.32l-4,0M1201.88,191.07l-4,0M1201.88,168.81l-4,0M1201.88,146.55l-4,0M1201.88,124.29l-4,0M1201.88,102.03l-4,0M1201.88,79.78l-4,0M1201.88,57.52l-4,0"/>
<path d="M1201.88,502.67l-8,0M1201.88,391.38l-8,0M1201.88,280.1l-8,0M1201.88,168.81l-8,0M1201.88,57.52l-8,0"/>
<path d="M66.25,57.52l1135.63,0"/>
<path d="M66.25,57.52l0,4M123.03,57.52l0,4M179.81,57.52l0,4M236.6,57.52l0,4M293.38,57.52l0,4M350.16,57.52l0,4M406.94,57.52l0,4M463.72,57.52l0,4M520.5,57.52l0,4M577.29,57.52l0,4M634.07,57.52l0,4M690.85,57.52l0,4M747.63,57.52l0,4M804.41,57.52l0,4M861.19,57.52l0,4M917.98,57.52l0,4M974.76,57.52l0,4M1031.54,57.52l0,4M1088.32,57.52l0,4M1145.1,57.52l0,4M1201.88,57.52l0,4"/>
<path d="M66.25,57.52l0,8M293.38,57.52l0,8M520.5,57.52l0,8M747.63,57.52l0,8M974.76,57.52l0,8M1201.88,57.52l0,8"/>
</g>
</g>
</g>
</svg>
